<svg width="53" height="52" viewBox="0 0 53 52" fill="none" xmlns="http://www.w3.org/2000/svg">
<g clip-path="url(#clip0_5_1543)">
<g filter="url(#filter0_d_5_1543)">
<path fill-rule="evenodd" clip-rule="evenodd" d="M50.3332 15.1666C50.3332 13.442 49.6485 11.7888 48.4287 10.5711C47.211 9.35129 45.5578 8.66663 43.8332 8.66663C35.5305 8.66663 17.4692 8.66663 9.1665 8.66663C7.44184 8.66663 5.78867 9.35129 4.571 10.5711C3.35117 11.7888 2.6665 13.442 2.6665 15.1666V36.8333C2.6665 38.558 3.35117 40.2111 4.571 41.4288C5.78867 42.6486 7.44184 43.3333 9.1665 43.3333H43.8332C45.5578 43.3333 47.211 42.6486 48.4287 41.4288C49.6485 40.2111 50.3332 38.558 50.3332 36.8333V15.1666ZM13.4998 34.6666H17.8332C19.0292 34.6666 19.9998 33.696 19.9998 32.5C19.9998 31.304 19.0292 30.3333 17.8332 30.3333H13.4998C12.3038 30.3333 11.3332 31.304 11.3332 32.5C11.3332 33.696 12.3038 34.6666 13.4998 34.6666ZM26.4998 34.6666H39.4998C40.6958 34.6666 41.6665 33.696 41.6665 32.5C41.6665 31.304 40.6958 30.3333 39.4998 30.3333H26.4998C25.3038 30.3333 24.3332 31.304 24.3332 32.5C24.3332 33.696 25.3038 34.6666 26.4998 34.6666ZM37.3332 26H39.4998C40.6958 26 41.6665 25.0293 41.6665 23.8333C41.6665 22.6373 40.6958 21.6666 39.4998 21.6666H37.3332C36.1372 21.6666 35.1665 22.6373 35.1665 23.8333C35.1665 25.0293 36.1372 26 37.3332 26ZM13.4998 26H28.6665C29.8625 26 30.8332 25.0293 30.8332 23.8333C30.8332 22.6373 29.8625 21.6666 28.6665 21.6666H13.4998C12.3038 21.6666 11.3332 22.6373 11.3332 23.8333C11.3332 25.0293 12.3038 26 13.4998 26Z" fill="white"/>
</g>
</g>
<defs>
<filter id="filter0_d_5_1543" x="-1.3335" y="8.66663" width="55.6665" height="42.6667" filterUnits="userSpaceOnUse" color-interpolation-filters="sRGB">
<feFlood flood-opacity="0" result="BackgroundImageFix"/>
<feColorMatrix in="SourceAlpha" type="matrix" values="0 0 0 0 0 0 0 0 0 0 0 0 0 0 0 0 0 0 127 0" result="hardAlpha"/>
<feOffset dy="4"/>
<feGaussianBlur stdDeviation="2"/>
<feComposite in2="hardAlpha" operator="out"/>
<feColorMatrix type="matrix" values="0 0 0 0 0 0 0 0 0 0 0 0 0 0 0 0 0 0 0.25 0"/>
<feBlend mode="normal" in2="BackgroundImageFix" result="effect1_dropShadow_5_1543"/>
<feBlend mode="normal" in="SourceGraphic" in2="effect1_dropShadow_5_1543" result="shape"/>
</filter>
<clipPath id="clip0_5_1543">
<rect width="52" height="52" fill="white" transform="translate(0.5)"/>
</clipPath>
</defs>
</svg>
