<svg width="30" height="31" viewBox="0 0 30 31" fill="none" xmlns="http://www.w3.org/2000/svg">
<path fill-rule="evenodd" clip-rule="evenodd" d="M15 30.5C3.56626 30.5 -1.90735e-06 26.3865 -1.90735e-06 15.5C-1.90735e-06 4.61347 3.56626 0.499998 15 0.499998C26.4337 0.499998 30 4.61347 30 15.5C30 26.3865 26.4337 30.5 15 30.5Z" fill="#1ECD87"/>
<path d="M20 21.7167H19.3667C18.7 21.7167 18.0667 21.975 17.6 22.4417L16.175 23.8501C15.525 24.4917 14.4667 24.4917 13.8167 23.8501L12.3917 22.4417C11.925 21.975 11.2833 21.7167 10.625 21.7167H10C8.61667 21.7167 7.5 20.6084 7.5 19.2417V10.15C7.5 8.78336 8.61667 7.67505 10 7.67505H20C21.3833 7.67505 22.5 8.78336 22.5 10.15V19.2417C22.5 20.6001 21.3833 21.7167 20 21.7167Z" stroke="white" stroke-width="1.5" stroke-miterlimit="10" stroke-linecap="round" stroke-linejoin="round"/>
<path d="M10.8335 13.6334C10.8335 12.8584 11.4668 12.225 12.2418 12.225C13.0168 12.225 13.6502 12.8584 13.6502 13.6334C13.6502 15.2 11.4252 15.3667 10.9335 16.8584C10.8335 17.1667 11.0918 17.475 11.4168 17.475H13.6502" stroke="white" stroke-width="1.5" stroke-linecap="round" stroke-linejoin="round"/>
<path d="M18.367 17.4667V12.7084C18.367 12.4917 18.2253 12.3 18.017 12.2417C17.8086 12.1833 17.5836 12.2667 17.467 12.45C16.867 13.4167 16.217 14.5167 15.6503 15.4833C15.5586 15.6417 15.5586 15.85 15.6503 16.0083C15.742 16.1667 15.917 16.2666 16.1086 16.2666H19.167" stroke="white" stroke-width="1.5" stroke-linecap="round" stroke-linejoin="round"/>
</svg>
