<svg width="93" height="102" viewBox="0 0 93 102" fill="none" xmlns="http://www.w3.org/2000/svg">
<path d="M42.5063 102L7.99231 101.84C3.84136 101.821 0.491285 98.4319 0.508858 94.2695L0.874508 7.50702C0.892081 3.34237 4.27393 -0.0189877 8.42729 8.07295e-05L42.9412 0.159869C47.0922 0.179179 50.442 3.56805 50.4247 7.73053L50.0588 94.493C50.0415 98.6579 46.6596 102.019 42.5063 102Z" fill="#455A64"/>
<path d="M42.8922 3.1546L36.2005 3.1237C35.3033 3.1196 34.5723 3.87896 34.5687 4.81935L34.5631 6.03659C34.5595 6.97722 33.8285 7.73658 32.9313 7.73248L19.8877 7.6719C18.9903 7.66779 18.266 6.90191 18.2701 5.96104L18.2754 4.74404C18.2793 3.80341 17.5549 3.03729 16.6575 3.03319L14.304 3.02233L8.44736 2.9953C5.53876 2.98202 3.17009 5.33589 3.15781 8.25264L2.80083 92.9391C2.78855 95.8544 5.13459 98.2278 8.04175 98.2413L42.4866 98.4006C45.3952 98.4141 47.7636 96.06 47.7762 93.1433L48.1331 8.4566C48.1452 5.54154 45.7991 3.16812 42.8922 3.1546Z" fill="#FAFAFA"/>
<path d="M25.7789 67.443C25.8136 67.443 25.8415 69.5712 25.8415 72.1959C25.8415 74.8215 25.8133 76.9492 25.7789 76.9492C25.7442 76.9492 25.7163 74.8215 25.7163 72.1959C25.7163 69.5712 25.7442 67.443 25.7789 67.443Z" fill="url(#paint0_linear_252_6854)"/>
<path d="M24.544 68.4874C24.5787 68.4874 24.6066 70.1123 24.6066 72.116C24.6066 74.1206 24.5785 75.745 24.544 75.745C24.5094 75.745 24.4814 74.1206 24.4814 72.116C24.4812 70.1123 24.5094 68.4874 24.544 68.4874Z" fill="url(#paint1_linear_252_6854)"/>
<path d="M23.1534 69.5242C23.1881 69.5242 23.216 70.7009 23.216 72.1518C23.216 73.6034 23.1878 74.7796 23.1534 74.7796C23.1187 74.7796 23.0908 73.6031 23.0908 72.1518C23.0908 70.7009 23.1187 69.5242 23.1534 69.5242Z" fill="url(#paint2_linear_252_6854)"/>
<path d="M21.941 70.418C21.9757 70.418 22.0036 71.0743 22.0036 71.8838C22.0036 72.6936 21.9754 73.3497 21.941 73.3497C21.9063 73.3497 21.8784 72.6934 21.8784 71.8838C21.8784 71.0745 21.9063 70.418 21.941 70.418Z" fill="url(#paint3_linear_252_6854)"/>
<path d="M20.8712 71.1331C20.9058 71.1331 20.9338 71.4932 20.9338 71.9376C20.9338 72.3819 20.9056 72.742 20.8712 72.742C20.8365 72.742 20.8086 72.3819 20.8086 71.9376C20.8086 71.4932 20.8368 71.1331 20.8712 71.1331Z" fill="url(#paint4_linear_252_6854)"/>
<path d="M19.6593 70.275C19.6939 70.275 19.7219 70.9313 19.7219 71.7409C19.7219 72.5507 19.6937 73.2067 19.6593 73.2067C19.6246 73.2067 19.5967 72.5504 19.5967 71.7409C19.5967 70.9313 19.6246 70.275 19.6593 70.275Z" fill="url(#paint5_linear_252_6854)"/>
<path d="M18.5182 69.0952C18.5528 69.0952 18.5807 70.3279 18.5807 71.8481C18.5807 73.3687 18.5526 74.6012 18.5182 74.6012C18.4837 74.6012 18.4556 73.3687 18.4556 71.8481C18.4556 70.3279 18.4837 69.0952 18.5182 69.0952Z" fill="url(#paint6_linear_252_6854)"/>
<path d="M32.9864 69.5242C33.0211 69.5242 33.049 70.7009 33.049 72.1518C33.049 73.6034 33.0208 74.7796 32.9864 74.7796C32.9518 74.7796 32.9238 73.6031 32.9238 72.1518C32.9238 70.7009 32.952 69.5242 32.9864 69.5242Z" fill="url(#paint7_linear_252_6854)"/>
<path d="M31.774 70.418C31.8087 70.418 31.8366 71.0743 31.8366 71.8838C31.8366 72.6936 31.8084 73.3497 31.774 73.3497C31.7396 73.3497 31.7114 72.6934 31.7114 71.8838C31.7114 71.0745 31.7396 70.418 31.774 70.418Z" fill="url(#paint8_linear_252_6854)"/>
<path d="M30.7047 71.1331C30.7393 71.1331 30.7673 71.4932 30.7673 71.9376C30.7673 72.3819 30.7391 72.742 30.7047 72.742C30.67 72.742 30.6421 72.3819 30.6421 71.9376C30.6419 71.4932 30.67 71.1331 30.7047 71.1331Z" fill="url(#paint9_linear_252_6854)"/>
<path d="M29.4923 69.8461C29.5269 69.8461 29.5549 70.6945 29.5549 71.7408C29.5549 72.7877 29.5267 73.6359 29.4923 73.6359C29.4576 73.6359 29.4297 72.7877 29.4297 71.7408C29.4294 70.6943 29.4576 69.8461 29.4923 69.8461Z" fill="url(#paint10_linear_252_6854)"/>
<path d="M28.3517 69.0952C28.3863 69.0952 28.4142 70.3279 28.4142 71.8481C28.4142 73.3687 28.3861 74.6012 28.3517 74.6012C28.317 74.6012 28.2891 73.3687 28.2891 71.8481C28.2888 70.3279 28.317 69.0952 28.3517 69.0952Z" fill="url(#paint11_linear_252_6854)"/>
<path d="M26.961 68.5232C26.9957 68.5232 27.0236 70.0919 27.0236 72.0267C27.0236 73.962 26.9954 75.5305 26.961 75.5305C26.9264 75.5305 26.8984 73.962 26.8984 72.0267C26.8984 70.0919 26.9264 68.5232 26.961 68.5232Z" fill="url(#paint12_linear_252_6854)"/>
<path d="M34.2823 73.2067C34.2476 73.2067 34.2197 72.5504 34.2197 71.7409C34.2197 70.9311 34.2476 70.275 34.2823 70.275C34.317 70.275 34.3449 70.9313 34.3449 71.7409C34.3451 72.5504 34.317 73.2067 34.2823 73.2067Z" fill="url(#paint13_linear_252_6854)"/>
<path d="M35.3521 72.4916C35.3175 72.4916 35.2896 72.1314 35.2896 71.6871C35.2896 71.2427 35.3177 70.8826 35.3521 70.8826C35.3868 70.8826 35.4147 71.2427 35.4147 71.6871C35.4147 72.1314 35.3868 72.4916 35.3521 72.4916Z" fill="url(#paint14_linear_252_6854)"/>
<path d="M17.4015 70.275C17.4361 70.275 17.464 70.9313 17.464 71.7409C17.464 72.5507 17.4359 73.2067 17.4015 73.2067C17.367 73.2067 17.3389 72.5504 17.3389 71.7409C17.3389 70.9313 17.3668 70.275 17.4015 70.275Z" fill="url(#paint15_linear_252_6854)"/>
<path d="M16.3316 70.99C16.3663 70.99 16.3942 71.3501 16.3942 71.7942C16.3942 72.2386 16.3661 72.5987 16.3316 72.5987C16.2972 72.5987 16.269 72.2386 16.269 71.7942C16.269 71.3504 16.2972 70.99 16.3316 70.99Z" fill="url(#paint16_linear_252_6854)"/>
<path d="M15.2642 70.275C15.2989 70.275 15.3271 70.9313 15.3271 71.7409C15.3271 72.5507 15.2989 73.2067 15.2642 73.2067C15.2296 73.2067 15.2017 72.5504 15.2017 71.7409C15.2017 70.9313 15.2298 70.275 15.2642 70.275Z" fill="url(#paint17_linear_252_6854)"/>
<path d="M14.1231 69.0952C14.1578 69.0952 14.1857 70.3279 14.1857 71.8481C14.1857 73.3687 14.1576 74.6012 14.1231 74.6012C14.0887 74.6012 14.0605 73.3687 14.0605 71.8481C14.0605 70.3279 14.0887 69.0952 14.1231 69.0952Z" fill="url(#paint18_linear_252_6854)"/>
<path d="M13.0064 70.275C13.0411 70.275 13.069 70.9313 13.069 71.7409C13.069 72.5507 13.0409 73.2067 13.0064 73.2067C12.972 73.2067 12.9438 72.5504 12.9438 71.7409C12.9438 70.9313 12.9718 70.275 13.0064 70.275Z" fill="url(#paint19_linear_252_6854)"/>
<path d="M11.9371 70.99C11.9718 70.99 11.9997 71.3501 11.9997 71.7942C11.9997 72.2386 11.9715 72.5987 11.9371 72.5987C11.9027 72.5987 11.8745 72.2386 11.8745 71.7942C11.8743 71.3504 11.9024 70.99 11.9371 70.99Z" fill="url(#paint20_linear_252_6854)"/>
<path d="M38.7432 70.275C38.7779 70.275 38.8058 70.9313 38.8058 71.7409C38.8058 72.5507 38.7777 73.2067 38.7432 73.2067C38.7086 73.2067 38.6807 72.5504 38.6807 71.7409C38.6807 70.9313 38.7086 70.275 38.7432 70.275Z" fill="url(#paint21_linear_252_6854)"/>
<path d="M37.6021 69.0952C37.6368 69.0952 37.6647 70.3279 37.6647 71.8481C37.6647 73.3687 37.6366 74.6012 37.6021 74.6012C37.5675 74.6012 37.5396 73.3687 37.5396 71.8481C37.5396 70.3279 37.5677 69.0952 37.6021 69.0952Z" fill="url(#paint22_linear_252_6854)"/>
<path d="M36.4854 70.275C36.5201 70.275 36.548 70.9313 36.548 71.7409C36.548 72.5507 36.5199 73.2067 36.4854 73.2067C36.4508 73.2067 36.4229 72.5504 36.4229 71.7409C36.4229 70.9313 36.4508 70.275 36.4854 70.275Z" fill="url(#paint23_linear_252_6854)"/>
<path d="M35.4156 70.99C35.4503 70.99 35.4782 71.3501 35.4782 71.7942C35.4782 72.2386 35.45 72.5987 35.4156 72.5987C35.381 72.5987 35.353 72.2386 35.353 71.7942C35.3528 71.3504 35.381 70.99 35.4156 70.99Z" fill="url(#paint24_linear_252_6854)"/>
<path d="M40.1363 70.99C40.171 70.99 40.1989 71.3501 40.1989 71.7942C40.1989 72.2386 40.1707 72.5987 40.1363 72.5987C40.1019 72.5987 40.0737 72.2386 40.0737 71.7942C40.0735 71.3504 40.1017 70.99 40.1363 70.99Z" fill="url(#paint25_linear_252_6854)"/>
<g opacity="0.3">
<path d="M44.3696 37.3008C44.3696 37.3008 44.3626 37.1997 44.3556 37.0022C44.3434 36.805 44.3506 36.5106 44.3159 36.1268C44.2692 35.3587 44.1412 34.2245 43.7909 32.8043C43.6031 32.0985 43.3754 31.3162 43.0365 30.4936C42.7045 29.6696 42.2956 28.791 41.758 27.9032C40.6958 26.126 39.1727 24.2664 37.0975 22.6809C36.0643 21.886 34.8899 21.1728 33.5958 20.5836C32.3024 19.9951 30.8889 19.5225 29.3818 19.2507C27.8773 18.9724 26.2847 18.8631 24.6584 18.9905C23.844 19.039 23.0256 19.1718 22.2038 19.335C21.3839 19.5109 20.5659 19.7467 19.7552 20.0354C16.524 21.2087 13.4539 23.3999 11.2422 26.4388C10.6823 27.1914 10.1919 28.0041 9.74949 28.8484C9.52394 29.2691 9.33185 29.708 9.13494 30.1465C8.95825 30.5938 8.77555 31.0408 8.62991 31.503C8.01151 33.3406 7.70411 35.3076 7.69304 37.2977C7.69978 38.2936 7.77921 39.282 7.93183 40.2533C8.08083 41.2255 8.32853 42.1737 8.62871 43.0945C8.77434 43.5572 8.95705 44.0042 9.1335 44.4517C9.33064 44.8903 9.5225 45.3296 9.74805 45.7503C10.1905 46.5949 10.6806 47.4081 11.2407 48.1609C13.4527 51.2008 16.5235 53.3924 19.755 54.566C20.5659 54.8547 21.3836 55.0905 22.2038 55.2667C23.0256 55.4299 23.8443 55.5626 24.6586 55.6111C26.2852 55.7386 27.878 55.629 29.3825 55.3507C30.8899 55.0787 32.3034 54.6058 33.5967 54.0173C34.8911 53.4282 36.0653 52.7147 37.0985 51.9198C39.1735 50.334 40.6965 48.4745 41.7585 46.6972C42.2961 45.8095 42.705 44.9309 43.0367 44.1071C43.3754 43.2845 43.6031 42.5024 43.7909 41.7966C44.1412 40.3766 44.269 39.2427 44.3159 38.4746C44.3506 38.0908 44.3436 37.7964 44.3556 37.5994C44.3626 37.402 44.3696 37.3008 44.3696 37.3008C44.3696 37.3008 44.3713 37.402 44.3684 37.5996C44.3605 37.7968 44.3715 38.0918 44.341 38.4763C44.3022 39.2458 44.1821 40.3832 43.8381 41.8087C43.6537 42.5174 43.4286 43.3028 43.0921 44.1295C42.7626 44.9574 42.3553 45.8408 41.8185 46.7334C40.7581 48.5208 39.2336 50.3927 37.1519 51.9908C36.1156 52.7919 34.9366 53.5112 33.6367 54.1059C32.3375 54.7 30.9171 55.1776 29.4015 55.4535C27.8886 55.7357 26.2868 55.8479 24.6507 55.7217C23.8315 55.6739 23.0075 55.5411 22.1804 55.3777C21.355 55.2015 20.5317 54.965 19.7155 54.6751C16.4622 53.4972 13.3699 51.2932 11.1416 48.2341C10.5773 47.4766 10.0836 46.6581 9.6378 45.808C9.41056 45.3844 9.21703 44.9424 9.01867 44.5007C8.84078 44.0503 8.65687 43.6002 8.51004 43.1343C8.20745 42.2072 7.95783 41.2526 7.80786 40.2738C7.65404 39.296 7.57388 38.3006 7.56738 37.2982C7.57846 35.2948 7.88826 33.3141 8.51124 31.4639C8.65808 30.9983 8.84199 30.5484 9.02012 30.0983C9.21847 29.6568 9.41225 29.2148 9.63925 28.7915C10.0851 27.9416 10.579 27.1236 11.143 26.3661C13.3711 23.308 16.4629 21.1047 19.7157 19.9268C20.532 19.6369 21.355 19.4004 22.1804 19.2244C23.0075 19.061 23.8313 18.9285 24.6504 18.8805C26.2866 18.7542 27.8883 18.8665 29.401 19.1484C30.9166 19.424 32.3371 19.9017 33.6362 20.4955C34.9361 21.0902 36.1151 21.8093 37.1517 22.6104C39.2334 24.2083 40.7581 26.0801 41.8187 27.8675C42.3555 28.7603 42.7628 29.6438 43.0926 30.4717C43.4291 31.2984 43.6542 32.0838 43.8388 32.7925C44.1828 34.2183 44.3032 35.3556 44.3417 36.1251C44.3723 36.5096 44.3612 36.8046 44.3691 37.002C44.3713 37.1997 44.3696 37.3008 44.3696 37.3008Z" fill="url(#paint26_linear_252_6854)"/>
</g>
<path d="M42.0425 36.903C42.0425 36.903 42.036 36.8156 42.0295 36.6455C42.0187 36.4753 42.0245 36.2214 41.9944 35.8902C41.9535 35.2276 41.8425 34.2491 41.5399 33.0241C41.2272 31.8052 40.7029 30.3357 39.7848 28.797C38.8682 27.2643 37.5541 25.6606 35.7639 24.2932C34.8728 23.6077 33.8596 22.9927 32.7431 22.4848C31.6274 21.9775 30.4084 21.57 29.1083 21.3357C27.8106 21.096 26.437 21.0016 25.0344 21.1117C24.3322 21.1534 23.6262 21.2681 22.9175 21.409C22.2102 21.5609 21.5049 21.7643 20.8059 22.0134C18.0193 23.0255 15.3719 24.9155 13.4645 27.536C12.9816 28.1851 12.5589 28.886 12.1771 29.6143C11.7946 30.3425 11.4706 31.1093 11.2116 31.9037C10.6784 33.4885 10.4134 35.1847 10.4037 36.9011C10.4129 38.618 10.6777 40.3148 11.2106 41.9001C11.4696 42.6947 11.7936 43.4618 12.1761 44.1905C12.5577 44.919 12.9804 45.6202 13.4635 46.2695C15.371 48.891 18.0191 50.7815 20.8061 51.7938C21.5054 52.0429 22.2107 52.2464 22.9182 52.3982C23.6271 52.5389 24.3331 52.6536 25.0353 52.6956C26.4382 52.8056 27.8118 52.7112 29.1095 52.4713C30.4096 52.2369 31.6286 51.8293 32.7443 51.3219C33.8605 50.8138 34.8737 50.1985 35.7649 49.5131C37.5548 48.1457 38.8689 46.5417 39.7853 45.009C40.7032 43.4703 41.2272 42.001 41.5399 40.7821C41.8425 39.5574 41.9535 38.5789 41.9944 37.9165C42.0245 37.5854 42.0187 37.3314 42.0295 37.1613C42.036 36.9904 42.0425 36.903 42.0425 36.903C42.0425 36.903 42.0522 37.2528 42.0197 37.9173C41.9869 38.5813 41.8837 39.5629 41.5873 40.7932C41.2809 42.0177 40.7619 43.4951 39.8455 45.0443C38.9308 46.5871 37.615 48.2034 35.8185 49.583C34.924 50.2746 33.9065 50.8959 32.7843 51.4093C31.6628 51.9222 30.4366 52.3347 29.1282 52.5729C27.8224 52.8165 26.4397 52.9138 25.0269 52.8049C24.3197 52.7636 23.6083 52.6492 22.8944 52.5083C22.1818 52.3562 21.471 52.152 20.7664 51.9019C17.958 50.8853 15.2881 48.9828 13.3643 46.3419C12.8774 45.688 12.4508 44.9813 12.0659 44.2473C11.6803 43.513 11.3534 42.7401 11.0922 41.939C10.5547 40.3411 10.2872 38.6308 10.2783 36.9006C10.2879 35.1709 10.5554 33.461 11.0932 31.8639C11.3546 31.0632 11.6815 30.2904 12.0671 29.5566C12.452 28.8228 12.8783 28.1166 13.3653 27.4627C15.2889 24.8225 17.9582 22.9205 20.7664 21.9041C21.471 21.654 22.1816 21.4498 22.8941 21.2978C23.6081 21.1568 24.3192 21.0424 25.0264 21.0011C26.4389 20.8923 27.8214 20.9893 29.1273 21.2328C30.4356 21.4711 31.6616 21.8833 32.7831 22.3963C33.9053 22.9097 34.9228 23.5307 35.8173 24.2222C37.6141 25.6017 38.9298 27.2177 39.8448 28.7608C40.7612 30.3099 41.2804 31.7873 41.5869 33.0121C41.8832 34.2426 41.9865 35.2243 42.0194 35.8885C42.0522 36.5533 42.0425 36.903 42.0425 36.903Z" fill="url(#paint27_linear_252_6854)"/>
<path d="M25.9998 50.3849C33.2063 50.3849 39.0484 44.5269 39.0484 37.3008C39.0484 30.0746 33.2063 24.2167 25.9998 24.2167C18.7932 24.2167 12.9512 30.0746 12.9512 37.3008C12.9512 44.5269 18.7932 50.3849 25.9998 50.3849Z" fill="url(#paint28_linear_252_6854)"/>
<path d="M26.1063 38.8178H25.8533C24.9708 38.8178 24.2554 38.1004 24.2554 37.2156V34.9302C24.2554 34.0454 24.9708 33.328 25.8533 33.328H26.1063C26.9887 33.328 27.7041 34.0454 27.7041 34.9302V37.2156C27.7041 38.1004 26.9887 38.8178 26.1063 38.8178Z" fill="#FAFAFA"/>
<path d="M25.9795 39.8681C24.5773 39.8681 23.4365 38.7242 23.4365 37.3184C23.4365 37.2518 23.4904 37.1978 23.5569 37.1978C23.6233 37.1978 23.6772 37.2518 23.6772 37.3184C23.6772 38.5912 24.7099 39.6267 25.9792 39.6267C27.3347 39.6252 28.2815 38.6762 28.2815 37.3184C28.2815 37.2518 28.3354 37.1978 28.4018 37.1978C28.4683 37.1978 28.5222 37.2518 28.5222 37.3184C28.5222 38.8178 27.4765 39.8666 25.9795 39.8681Z" fill="#FAFAFA"/>
<path d="M26.0996 39.7458H25.8589V40.9959H26.0996V39.7458Z" fill="white"/>
<path d="M27.485 41.0618H24.4744C24.4079 41.0618 24.354 41.0077 24.354 40.9411C24.354 40.8745 24.4079 40.8204 24.4744 40.8204H27.4848C27.5512 40.8204 27.6051 40.8745 27.6051 40.9411C27.6051 41.0077 27.5515 41.0618 27.485 41.0618Z" fill="white"/>
<path d="M23.4567 34.3275C23.4406 34.3587 23.2579 34.2947 23.041 34.2022C22.8241 34.1096 22.6515 34.0219 22.6626 33.9886C22.6734 33.956 22.8679 33.9915 23.0901 34.0864C23.3123 34.181 23.4729 34.2971 23.4567 34.3275Z" fill="white"/>
<path d="M24.4267 33.0347C24.3988 33.0553 24.2423 32.8897 24.0772 32.665C23.912 32.44 23.8006 32.2411 23.8285 32.2206C23.8564 32.2001 24.0129 32.3657 24.178 32.5906C24.3432 32.8151 24.4546 33.0142 24.4267 33.0347Z" fill="white"/>
<path d="M25.9874 32.5703C25.9528 32.5723 25.927 32.3601 25.9299 32.096C25.9328 31.832 25.9634 31.6203 25.9978 31.6232C26.0322 31.6259 26.0582 31.8383 26.0553 32.0975C26.0524 32.3565 26.0221 32.5682 25.9874 32.5703Z" fill="white"/>
<path d="M27.9909 32.2318C28.0202 32.2491 27.9466 32.428 27.8048 32.6163C27.6635 32.805 27.5126 32.9255 27.4878 32.902C27.462 32.8782 27.5679 32.7234 27.7047 32.5407C27.8419 32.3585 27.9608 32.2137 27.9909 32.2318Z" fill="white"/>
<path d="M29.3359 33.8651C29.353 33.8953 29.1929 34.0191 28.9784 34.1417C28.764 34.2643 28.576 34.3391 28.5589 34.309C28.5418 34.2788 28.7019 34.155 28.9163 34.0324C29.1311 33.9097 29.3188 33.8349 29.3359 33.8651Z" fill="white"/>
<path d="M10.3541 61.856C10.3541 61.854 10.3541 61.852 10.3541 61.85C10.3581 61.75 10.4111 61.7 10.5131 61.7C10.6191 61.7 10.6721 61.752 10.6721 61.856C10.6721 61.962 10.6191 62.015 10.5131 62.015C10.4071 62.015 10.3541 61.962 10.3541 61.856ZM11.2125 61.856C11.2125 61.854 11.2125 61.852 11.2125 61.85C11.2165 61.75 11.2695 61.7 11.3715 61.7C11.4775 61.7 11.5305 61.752 11.5305 61.856C11.5305 61.962 11.4775 62.015 11.3715 62.015C11.2655 62.015 11.2125 61.962 11.2125 61.856ZM12.0709 61.856C12.0709 61.854 12.0709 61.852 12.0709 61.85C12.0749 61.75 12.1279 61.7 12.2299 61.7C12.3359 61.7 12.3889 61.752 12.3889 61.856C12.3889 61.962 12.3359 62.015 12.2299 62.015C12.1239 62.015 12.0709 61.962 12.0709 61.856ZM13.4164 62.945V62.291C13.4164 62.121 13.4654 61.989 13.5634 61.895C13.6514 61.809 13.7734 61.763 13.9294 61.757C13.8394 61.655 13.7944 61.513 13.7944 61.331C13.7944 61.113 13.8514 60.943 13.9654 60.821C14.0674 60.713 14.2014 60.659 14.3674 60.659C14.5374 60.659 14.6684 60.712 14.7604 60.818C14.8424 60.912 14.8834 61.035 14.8834 61.187V61.511C14.8814 61.661 14.8344 61.779 14.7424 61.865C14.6504 61.951 14.5234 61.996 14.3614 62H13.9684C13.7724 62 13.6744 62.1 13.6744 62.3V62.807L13.4164 62.945ZM14.6254 61.199C14.6254 60.999 14.5394 60.899 14.3674 60.899C14.2674 60.899 14.1894 60.937 14.1334 61.013C14.0794 61.087 14.0524 61.191 14.0524 61.325C14.0524 61.461 14.0784 61.567 14.1304 61.643C14.1824 61.719 14.2554 61.757 14.3494 61.757C14.5334 61.757 14.6254 61.664 14.6254 61.478V61.199ZM16.794 61.757V62H16.422C16.414 62.172 16.34 62.314 16.2 62.426C16.082 62.518 15.948 62.564 15.798 62.564C15.674 62.564 15.557 62.535 15.447 62.477V62.249C15.553 62.305 15.658 62.333 15.762 62.333C15.868 62.333 15.96 62.3 16.038 62.234C16.118 62.168 16.159 62.089 16.161 61.997C16.057 61.993 15.98 61.989 15.93 61.985C15.714 61.973 15.551 61.9 15.441 61.766C15.349 61.654 15.303 61.509 15.303 61.331C15.303 61.113 15.361 60.943 15.477 60.821C15.581 60.713 15.718 60.659 15.888 60.659C16.066 60.659 16.203 60.712 16.299 60.818C16.381 60.912 16.422 61.035 16.422 61.187V61.757H16.794ZM16.161 61.205C16.161 61.001 16.07 60.899 15.888 60.899C15.784 60.899 15.703 60.937 15.645 61.013C15.587 61.087 15.558 61.191 15.558 61.325C15.558 61.587 15.686 61.726 15.942 61.742C15.99 61.748 16.063 61.753 16.161 61.757V61.205ZM17.6591 61.757H17.8571V62H17.6291C17.4631 62 17.3321 61.947 17.2361 61.841C17.1401 61.947 17.0091 62 16.8431 62H16.6151V61.757H16.8131C17.0091 61.757 17.1071 61.657 17.1071 61.457V60.836L17.3651 60.698V61.457C17.3651 61.657 17.4631 61.757 17.6591 61.757ZM16.9421 62.3C17.0381 62.3 17.0861 62.35 17.0861 62.45C17.0861 62.548 17.0381 62.597 16.9421 62.597C16.8441 62.597 16.7951 62.548 16.7951 62.45C16.7951 62.35 16.8441 62.3 16.9421 62.3ZM17.3231 62.3C17.4191 62.3 17.4671 62.35 17.4671 62.45C17.4671 62.548 17.4191 62.597 17.3231 62.597C17.2251 62.597 17.1761 62.548 17.1761 62.45C17.1761 62.35 17.2251 62.3 17.3231 62.3ZM17.6756 62V61.757H17.8346C18.0426 61.757 18.1466 61.648 18.1466 61.43V60.203L18.4076 60.065V61.433C18.4076 61.611 18.3546 61.752 18.2486 61.856C18.1486 61.952 18.0176 62 17.8556 62H17.6756ZM18.9468 62V60.203L19.2048 60.065V62H18.9468ZM22.8288 61.757H23.0268V62H22.7988C22.6308 62 22.5008 61.948 22.4088 61.844C22.3108 61.948 22.1798 62 22.0158 62H20.9448C20.7828 62 20.6558 61.946 20.5638 61.838C20.4838 61.744 20.4438 61.621 20.4438 61.469V61.106L20.7018 60.968V61.445C20.7018 61.653 20.7988 61.757 20.9928 61.757H21.9888C22.1808 61.757 22.2768 61.653 22.2768 61.445V60.203L22.5378 60.065V61.457C22.5378 61.657 22.6348 61.757 22.8288 61.757ZM21.5058 60.539C21.6778 60.547 21.7638 60.632 21.7638 60.794C21.7638 60.864 21.7428 60.92 21.7008 60.962C21.6608 61.004 21.6068 61.025 21.5388 61.025H21.1428L21.2118 60.896H21.5268C21.5988 60.896 21.6348 60.86 21.6348 60.788C21.6348 60.7 21.5788 60.656 21.4668 60.656C21.4088 60.656 21.3558 60.67 21.3078 60.698V60.578L21.5598 60.299H21.7188L21.5058 60.539ZM22.8465 62V61.757H23.0055C23.2135 61.757 23.3175 61.648 23.3175 61.43V60.203L23.5785 60.065V61.433C23.5785 61.611 23.5255 61.752 23.4195 61.856C23.3195 61.952 23.1885 62 23.0265 62H22.8465ZM24.6397 62C24.4657 62 24.3317 61.944 24.2377 61.832C24.1577 61.736 24.1177 61.614 24.1177 61.466V60.203L24.3757 60.065V61.457C24.3757 61.657 24.4737 61.757 24.6697 61.757H24.8677V62H24.6397ZM24.6864 62V61.757H25.0974C25.5034 61.757 25.8244 61.623 26.0604 61.355C25.8944 61.049 25.6924 60.896 25.4544 60.896C25.2924 60.896 25.1254 60.982 24.9534 61.154V60.914C25.1214 60.744 25.2994 60.659 25.4874 60.659C25.6414 60.659 25.7904 60.715 25.9344 60.827C26.0784 60.937 26.2054 61.095 26.3154 61.301V61.433C26.0214 61.811 25.6144 62 25.0944 62H24.6864ZM29.267 60.356C29.169 60.356 29.12 60.306 29.12 60.206C29.12 60.108 29.169 60.059 29.267 60.059C29.363 60.059 29.411 60.108 29.411 60.206C29.411 60.306 29.363 60.356 29.267 60.356ZM29.627 61.757H30.164V62H29.456C29.376 62 29.308 61.993 29.252 61.979C29.194 61.993 29.126 62 29.048 62H27.938C27.776 62 27.649 61.946 27.557 61.838C27.477 61.744 27.437 61.621 27.437 61.469V61.106L27.695 60.968V61.445C27.695 61.653 27.792 61.757 27.986 61.757H28.874C28.75 61.615 28.688 61.458 28.688 61.286C28.688 61.09 28.744 60.934 28.856 60.818C28.956 60.712 29.088 60.659 29.252 60.659C29.438 60.659 29.583 60.727 29.687 60.863C29.771 60.975 29.813 61.116 29.813 61.286C29.813 61.458 29.751 61.615 29.627 61.757ZM29.252 61.73C29.344 61.698 29.419 61.639 29.477 61.553C29.537 61.467 29.567 61.374 29.567 61.274C29.567 61.16 29.538 61.069 29.48 61.001C29.424 60.933 29.348 60.899 29.252 60.899C29.156 60.899 29.079 60.933 29.021 61.001C28.965 61.067 28.937 61.158 28.937 61.274C28.937 61.374 28.966 61.467 29.024 61.553C29.084 61.639 29.16 61.698 29.252 61.73ZM31.0272 61.757H31.2252V62H30.9972C30.8312 62 30.7002 61.947 30.6042 61.841C30.5082 61.947 30.3772 62 30.2112 62H29.9832V61.757H30.1812C30.3772 61.757 30.4752 61.657 30.4752 61.457V60.836L30.7332 60.698V61.457C30.7332 61.657 30.8312 61.757 31.0272 61.757ZM30.3102 62.3C30.4062 62.3 30.4542 62.35 30.4542 62.45C30.4542 62.548 30.4062 62.597 30.3102 62.597C30.2122 62.597 30.1632 62.548 30.1632 62.45C30.1632 62.35 30.2122 62.3 30.3102 62.3ZM30.6912 62.3C30.7872 62.3 30.8352 62.35 30.8352 62.45C30.8352 62.548 30.7872 62.597 30.6912 62.597C30.5932 62.597 30.5442 62.548 30.5442 62.45C30.5442 62.35 30.5932 62.3 30.6912 62.3ZM31.6348 60.731C31.6368 60.731 31.6398 60.731 31.6438 60.731C31.6478 60.731 31.6508 60.731 31.6528 60.731C31.8788 60.731 32.0618 60.801 32.2018 60.941C32.3298 61.067 32.3938 61.228 32.3938 61.424V61.475C32.3938 61.647 32.3408 61.781 32.2348 61.877C32.1408 61.959 32.0198 62 31.8718 62H31.0438V61.757H31.8478C32.0398 61.757 32.1358 61.656 32.1358 61.454V61.427C32.1358 61.279 32.0778 61.165 31.9618 61.085C31.8698 61.023 31.7578 60.992 31.6258 60.992C31.5198 60.992 31.4128 61.011 31.3048 61.049V60.794L31.9618 60.065H32.2258L31.6348 60.731ZM34.0674 62C33.8934 62 33.7594 61.944 33.6654 61.832C33.5854 61.736 33.5454 61.614 33.5454 61.466V60.203L33.8034 60.065V61.457C33.8034 61.657 33.9014 61.757 34.0974 61.757H34.2954V62H34.0674ZM34.1141 62V61.757H34.6421V62H34.1141ZM34.7385 60.002L34.8285 59.807L35.4675 59.693L35.3775 59.885L34.7385 60.002ZM34.6875 60.305L34.7775 60.113L35.4195 59.996L35.3295 60.188L34.6875 60.305ZM35.5067 61.757H35.7047V62H35.4767C35.3107 62 35.1797 61.947 35.0837 61.841C34.9877 61.947 34.8567 62 34.6907 62H34.4627V61.757H34.6607C34.8567 61.757 34.9547 61.657 34.9547 61.457V60.836L35.2127 60.698V61.457C35.2127 61.657 35.3107 61.757 35.5067 61.757ZM35.0657 62.3C35.1617 62.3 35.2097 62.349 35.2097 62.447C35.2097 62.547 35.1617 62.597 35.0657 62.597C34.9677 62.597 34.9187 62.547 34.9187 62.447C34.9187 62.349 34.9677 62.3 35.0657 62.3ZM35.5233 62V61.757H36.0513V62H35.5233ZM35.8719 62V61.757H36.2829C36.6889 61.757 37.0099 61.623 37.2459 61.355C37.0799 61.049 36.8779 60.896 36.6399 60.896C36.4779 60.896 36.3109 60.982 36.1389 61.154V60.914C36.3069 60.744 36.4849 60.659 36.6729 60.659C36.8269 60.659 36.9759 60.715 37.1199 60.827C37.2639 60.937 37.3909 61.095 37.5009 61.301V61.433C37.2069 61.811 36.7999 62 36.2799 62H35.8719ZM38.7482 61.757H38.9462V62H38.7182C38.6162 62 38.5282 61.98 38.4542 61.94C38.4362 62.138 38.3672 62.296 38.2472 62.414C38.1372 62.522 37.9992 62.576 37.8332 62.576C37.7132 62.576 37.5962 62.546 37.4822 62.486V62.261C37.5842 62.317 37.6862 62.345 37.7882 62.345C37.9162 62.345 38.0162 62.302 38.0882 62.216C38.1602 62.13 38.1962 62.011 38.1962 61.859V60.836L38.4542 60.698V60.701L38.4572 60.698V61.517C38.4752 61.677 38.5722 61.757 38.7482 61.757ZM38.7664 62V61.757H39.2944V62H38.7664ZM39.6071 61.187C39.6071 61.013 39.6591 60.878 39.7631 60.782C39.8551 60.7 39.9751 60.659 40.1231 60.659C40.3131 60.659 40.4591 60.729 40.5611 60.869C40.6491 60.987 40.6931 61.141 40.6931 61.331C40.6931 61.547 40.6371 61.716 40.5251 61.838C40.4271 61.946 40.2991 62 40.1411 62C39.9611 62 39.8241 61.95 39.7301 61.85C39.6341 61.95 39.5051 62 39.3431 62H39.1151V61.757H39.3131C39.5091 61.757 39.6071 61.657 39.6071 61.457V61.187ZM39.8651 61.478C39.8651 61.664 39.9561 61.757 40.1381 61.757C40.2321 61.757 40.3051 61.719 40.3571 61.643C40.4111 61.567 40.4381 61.461 40.4381 61.325C40.4381 61.191 40.4101 61.087 40.3541 61.013C40.2981 60.937 40.2211 60.899 40.1231 60.899C39.9511 60.899 39.8651 60.999 39.8651 61.199V61.478Z" fill="#1E1E1E"/>
<path d="M22.74 85.808C22.6093 85.808 22.544 85.7413 22.544 85.608C22.544 85.4773 22.6093 85.412 22.74 85.412C22.868 85.412 22.932 85.4773 22.932 85.608C22.932 85.7413 22.868 85.808 22.74 85.808ZM23.248 85.808C23.1173 85.808 23.052 85.7413 23.052 85.608C23.052 85.4773 23.1173 85.412 23.248 85.412C23.376 85.412 23.44 85.4773 23.44 85.608C23.44 85.7413 23.376 85.808 23.248 85.808ZM23.676 87.784C23.676 88.0987 23.5613 88.3427 23.332 88.516C23.1213 88.6787 22.8333 88.76 22.468 88.76C22.0467 88.76 21.7293 88.6373 21.516 88.392C21.3587 88.2107 21.28 87.9867 21.28 87.72C21.28 87.496 21.336 87.304 21.448 87.144L21.78 87.072C21.66 87.2613 21.6 87.4653 21.6 87.684C21.6 87.9133 21.6773 88.0973 21.832 88.236C21.984 88.3693 22.196 88.436 22.468 88.436C23.0173 88.436 23.3013 88.232 23.32 87.824C23.24 87.896 23.1187 87.932 22.956 87.932C22.7213 87.932 22.5347 87.8413 22.396 87.66C22.2813 87.5053 22.224 87.316 22.224 87.092C22.224 86.8093 22.3 86.588 22.452 86.428C22.588 86.284 22.7667 86.212 22.988 86.212C23.2147 86.212 23.3893 86.2827 23.512 86.424C23.6213 86.5493 23.676 86.7133 23.676 86.916V87.784ZM23.332 86.932C23.332 86.6653 23.2173 86.532 22.988 86.532C22.8573 86.532 22.7547 86.5813 22.68 86.68C22.6053 86.776 22.568 86.9107 22.568 87.084C22.568 87.2547 22.604 87.3893 22.676 87.488C22.748 87.5867 22.8453 87.636 22.968 87.636C23.152 87.636 23.2733 87.5853 23.332 87.484V86.932ZM26.5761 87.676H26.8401V88H26.5361C26.3068 88 26.1294 87.9267 26.0041 87.78C25.8708 87.9267 25.6868 88 25.4521 88H24.0761L24.2441 87.676H24.8281V86.124L25.1721 85.94V87.676H25.4241C25.7014 87.676 25.8401 87.5307 25.8401 87.24V85.604L26.1881 85.42V87.244C26.1881 87.3987 26.2174 87.5093 26.2761 87.576C26.3374 87.6427 26.4374 87.676 26.5761 87.676ZM27.8908 85.78C27.7601 85.78 27.6948 85.7133 27.6948 85.58C27.6948 85.4493 27.7601 85.384 27.8908 85.384C28.0188 85.384 28.0828 85.4493 28.0828 85.58C28.0828 85.7133 28.0188 85.78 27.8908 85.78ZM28.7548 87.676V88H26.5987V87.676H27.2908C27.1601 87.508 27.0948 87.3013 27.0948 87.056C27.0948 86.784 27.1881 86.568 27.3748 86.408C27.5268 86.28 27.7028 86.2147 27.9028 86.212C28.1854 86.212 28.4054 86.3253 28.5628 86.552V86.876C28.3921 86.6467 28.1854 86.532 27.9428 86.532C27.7908 86.532 27.6681 86.5813 27.5748 86.68C27.4841 86.776 27.4388 86.9053 27.4388 87.068C27.4388 87.252 27.4934 87.4 27.6028 87.512C27.7148 87.6213 27.8628 87.676 28.0468 87.676H28.7548ZM29.3131 88V85.604L29.6571 85.42V88H29.3131ZM29.1011 88.996L29.1931 88.824H29.3011C29.2745 88.776 29.2611 88.7253 29.2611 88.672C29.2611 88.5947 29.2905 88.5267 29.3491 88.468C29.4078 88.412 29.4771 88.384 29.5571 88.384C29.6238 88.384 29.6878 88.4053 29.7491 88.448V88.624C29.6905 88.5787 29.6345 88.556 29.5811 88.556C29.4825 88.556 29.4331 88.6 29.4331 88.688C29.4331 88.7333 29.4518 88.7787 29.4891 88.824H29.8531L29.7611 88.996H29.1011Z" fill="#1E1E1E"/>
<path d="M36.6866 90.7867C36.6866 90.7867 36.7461 90.7795 36.8619 90.7715C36.9196 90.7667 36.9918 90.7645 37.0771 90.7556C37.1623 90.7416 37.2605 90.7256 37.3715 90.7073C37.8088 90.6214 38.4703 90.4044 39.1102 89.8275C39.4267 89.5408 39.73 89.1625 39.9534 88.6916C40.1756 88.2221 40.3212 87.6612 40.3082 87.0507C40.308 86.7437 40.313 86.4263 40.2774 86.1053C40.2394 85.7831 40.1501 85.4589 40.0232 85.1393C39.8846 84.8248 39.7043 84.5185 39.4765 84.2356C39.2418 83.959 38.9638 83.708 38.6456 83.4994C38.0069 83.0765 37.2039 82.8815 36.3672 82.9218C35.5268 82.923 34.6528 82.9242 33.7479 82.9254C31.9375 82.9274 30.0035 82.9293 27.9685 82.9312C23.8977 82.9327 19.4228 82.9344 14.7256 82.9361C14.1477 82.9392 13.5767 83.0814 13.0697 83.3425C12.5604 83.6013 12.1295 83.9945 11.7999 84.4492C11.467 84.9045 11.2603 85.4415 11.1758 85.9889C11.1495 86.1256 11.1409 86.2639 11.1363 86.4022C11.1262 86.539 11.13 86.681 11.1291 86.8207C11.1303 87.1022 11.1264 87.3764 11.1714 87.646C11.2504 88.1857 11.4502 88.7027 11.7504 89.1466C12.0537 89.5883 12.4506 89.9576 12.9012 90.225C13.3519 90.4927 13.8557 90.6598 14.3665 90.7092L14.7499 90.7276L15.1375 90.7278C15.3951 90.7281 15.651 90.7283 15.9056 90.7283C19.9759 90.7334 23.6416 90.738 26.7216 90.7418C29.7977 90.7503 32.2877 90.757 34.0134 90.7619C34.8716 90.7669 35.5386 90.771 35.996 90.7737C36.2199 90.7763 36.3915 90.7785 36.5116 90.78C36.6271 90.7824 36.6866 90.7867 36.6866 90.7867C36.6866 90.7867 36.6272 90.7911 36.5109 90.7932C36.3908 90.7947 36.2191 90.7969 35.9953 90.7995C35.5379 90.8022 34.8709 90.8063 34.0127 90.8113C32.287 90.8162 29.7972 90.8229 26.7209 90.8314C23.6411 90.8352 19.9752 90.8398 15.9049 90.8449C15.6505 90.8451 15.3944 90.8454 15.1368 90.8454L14.7492 90.8456L14.3542 90.8273C13.8268 90.7768 13.3056 90.605 12.8399 90.3291C12.3738 90.0532 11.9634 89.6721 11.6495 89.2159C11.3387 88.7575 11.1315 88.2229 11.0494 87.6646C11.0029 87.386 11.0065 87.0988 11.0051 86.8214C11.0058 86.6812 11.0017 86.5419 11.0121 86.3983C11.0166 86.2552 11.0258 86.1123 11.0528 85.9708C11.1397 85.4043 11.3537 84.8485 11.6979 84.3773C12.0387 83.9064 12.4845 83.4999 13.0115 83.2317C13.536 82.9612 14.1277 82.8139 14.7252 82.811C19.4223 82.8127 23.8972 82.8144 27.968 82.8159C30.0031 82.8178 31.9372 82.82 33.7474 82.8216C34.6525 82.8229 35.5266 82.8241 36.3667 82.8253C37.2087 82.7862 38.0443 82.9894 38.6932 83.4253C39.0187 83.6401 39.3025 83.8984 39.541 84.1825C39.7729 84.4726 39.956 84.7867 40.0961 85.1091C40.2244 85.4362 40.314 85.7678 40.3513 86.0971C40.3862 86.4273 40.379 86.7459 40.3778 87.0515C40.3877 87.6708 40.2358 88.2431 40.0068 88.7182C39.7765 89.1951 39.4655 89.5767 39.1424 89.8644C38.4891 90.4435 37.8177 90.6542 37.376 90.7329C37.2641 90.7488 37.1649 90.7631 37.0787 90.7751C36.9928 90.7821 36.9201 90.7821 36.8621 90.7848C36.7461 90.7879 36.6866 90.7867 36.6866 90.7867Z" fill="#263238"/>
<path d="M44.3697 12.5107C44.3697 12.5481 43.5361 12.5785 42.5082 12.5785C41.4799 12.5785 40.6465 12.5481 40.6465 12.5107C40.6465 12.4733 41.4799 12.4429 42.5082 12.4429C43.5361 12.4429 44.3697 12.4733 44.3697 12.5107Z" fill="#263238"/>
<path d="M44.3697 11.5357C44.3697 11.5731 43.5361 11.6035 42.5082 11.6035C41.4799 11.6035 40.6465 11.5731 40.6465 11.5357C40.6465 11.4983 41.4799 11.4679 42.5082 11.4679C43.5361 11.4679 44.3697 11.4983 44.3697 11.5357Z" fill="#263238"/>
<path d="M44.3697 10.5606C44.3697 10.598 43.5361 10.6285 42.5082 10.6285C41.4799 10.6285 40.6465 10.598 40.6465 10.5606C40.6465 10.5232 41.4799 10.4928 42.5082 10.4928C43.5361 10.4928 44.3697 10.5232 44.3697 10.5606Z" fill="#263238"/>
<path d="M7.2614 13.14C7.26284 13.1385 7.29028 13.1368 7.34132 13.1346C7.40438 13.1325 7.47756 13.1301 7.56398 13.1272C7.77389 13.1221 8.04855 13.1156 8.38579 13.1076L8.36317 13.1308C8.36028 12.9481 8.35691 12.7484 8.35354 12.5334C8.35474 12.4223 8.34415 12.3176 8.35474 12.1894C8.37689 12.0615 8.49051 11.9485 8.63036 11.9355C8.76276 11.9328 8.87951 11.9268 9.02297 11.9336C9.17102 11.9517 9.29691 12.0946 9.29258 12.2517C9.29571 12.5302 9.29908 12.8213 9.30245 13.1231L9.26441 13.0854C9.59733 13.082 9.94372 13.0784 10.3009 13.0748L10.2615 13.1148C10.2576 12.6963 10.254 12.2633 10.2499 11.8196C10.249 11.7091 10.248 11.599 10.247 11.4897C10.2465 11.3881 10.1849 11.32 10.1014 11.244C9.94805 11.0924 9.79688 10.943 9.64812 10.796C9.4996 10.6492 9.35396 10.5049 9.21098 10.3634C9.13972 10.2927 9.06895 10.2227 8.99914 10.1537C8.92621 10.0834 8.86916 10.0105 8.78466 9.99317C8.70282 9.97096 8.61255 9.98859 8.54683 10.0388C8.48401 10.0919 8.41709 10.1674 8.35378 10.229C8.2262 10.3581 8.10199 10.4836 7.98187 10.6053C7.74789 10.8491 7.50428 11.0716 7.32711 11.2821C7.25249 11.3982 7.28041 11.5406 7.27488 11.67C7.27464 11.7989 7.2744 11.921 7.27416 12.0362C7.27271 12.2606 7.27151 12.4576 7.27054 12.6261C7.26886 12.7769 7.26742 12.9012 7.26645 13.0033C7.26477 13.0912 7.26332 13.138 7.2614 13.14C7.25947 13.1419 7.25706 13.0989 7.25418 13.0149C7.25129 12.9145 7.24792 12.7919 7.24382 12.6434C7.23997 12.4735 7.2354 12.2751 7.23034 12.0487C7.22818 11.9312 7.22577 11.8066 7.22336 11.6753C7.2224 11.6089 7.2212 11.5406 7.22023 11.4709C7.21951 11.397 7.23853 11.321 7.27753 11.2534C7.46938 11.0178 7.69806 10.8093 7.93397 10.5585C8.05336 10.4358 8.17637 10.3094 8.30299 10.1793C8.36942 10.1139 8.42383 10.0487 8.50302 9.98038C8.58607 9.91641 8.69969 9.89349 8.80368 9.921C8.91393 9.94538 8.98566 10.0361 9.05258 10.0996C9.12287 10.1684 9.19364 10.2382 9.26538 10.3086C9.40885 10.4496 9.55496 10.5935 9.70397 10.7397C9.85297 10.8863 10.0044 11.0354 10.158 11.1868C10.1943 11.2254 10.2381 11.2582 10.2737 11.3125C10.3072 11.3644 10.3265 11.4255 10.3281 11.4878C10.3291 11.5976 10.3301 11.7081 10.331 11.8192C10.3344 12.2628 10.3378 12.6956 10.3409 13.1144L10.3411 13.1542L10.3014 13.1544C9.9442 13.1568 9.59757 13.159 9.26466 13.1612L9.22662 13.1614L9.22638 13.1235C9.2247 12.8218 9.22325 12.5307 9.22181 12.2519C9.22614 12.1264 9.12865 12.0156 9.01238 11.9997C8.89323 11.9934 8.75241 11.9975 8.63638 11.9985C8.52493 12.0077 8.43201 12.0975 8.41275 12.2005C8.40288 12.305 8.41035 12.4269 8.40818 12.5327C8.40818 12.748 8.40842 12.9476 8.40842 13.1303V13.1537L8.38555 13.1535C8.04277 13.1511 7.76354 13.1491 7.55002 13.1477C7.46553 13.1462 7.39403 13.145 7.33241 13.1438C7.28427 13.1428 7.25971 13.1416 7.2614 13.14Z" fill="#263238"/>
<path d="M72.45 26.685C72.4838 27.8154 71.6843 27.9249 71.1324 27.9696C70.5804 28.0142 69.9526 27.7644 69.4524 27.5262C68.4322 27.0398 67.4426 26.5416 67.0303 25.4132" fill="#FFBE9D"/>
<path d="M84.9718 16.1201C85.0064 16.1201 85.0344 17.7998 85.0344 19.8715C85.0344 21.944 85.0062 23.6234 84.9718 23.6234C84.9371 23.6234 84.9092 21.944 84.9092 19.8715C84.9089 17.7998 84.9371 16.1201 84.9718 16.1201Z" fill="url(#paint29_linear_252_6854)"/>
<path d="M85.9469 16.9445C85.9815 16.9445 86.0094 18.2269 86.0094 19.8086C86.0094 21.3908 85.9815 22.673 85.9469 22.673C85.9122 22.673 85.8843 21.3908 85.8843 19.8086C85.8843 18.2269 85.9122 16.9445 85.9469 16.9445Z" fill="url(#paint30_linear_252_6854)"/>
<path d="M87.044 17.7629C87.0787 17.7629 87.1066 18.6917 87.1066 19.8368C87.1066 20.9826 87.0785 21.9109 87.044 21.9109C87.0094 21.9109 86.9814 20.9824 86.9814 19.8368C86.9814 18.6915 87.0096 17.7629 87.044 17.7629Z" fill="url(#paint31_linear_252_6854)"/>
<path d="M88.0011 18.4681C88.0357 18.4681 88.0636 18.9861 88.0636 19.625C88.0636 20.2642 88.0355 20.7822 88.0011 20.7822C87.9666 20.7822 87.9385 20.2642 87.9385 19.625C87.9385 18.9864 87.9666 18.4681 88.0011 18.4681Z" fill="url(#paint32_linear_252_6854)"/>
<path d="M88.8453 19.0327C88.88 19.0327 88.9079 19.3171 88.9079 19.6675C88.9079 20.0182 88.8797 20.3026 88.8453 20.3026C88.8106 20.3026 88.7827 20.0182 88.7827 19.6675C88.7825 19.3168 88.8106 19.0327 88.8453 19.0327Z" fill="url(#paint33_linear_252_6854)"/>
<path d="M89.8023 18.3555C89.837 18.3555 89.8649 18.8735 89.8649 19.5124C89.8649 20.1515 89.8368 20.6695 89.8023 20.6695C89.7679 20.6695 89.7397 20.1515 89.7397 19.5124C89.7395 18.8735 89.7677 18.3555 89.8023 18.3555Z" fill="url(#paint34_linear_252_6854)"/>
<path d="M90.7027 17.4242C90.7374 17.4242 90.7653 18.3972 90.7653 19.597C90.7653 20.7974 90.7371 21.7701 90.7027 21.7701C90.6681 21.7701 90.6401 20.7974 90.6401 19.597C90.6401 18.3969 90.6681 17.4242 90.7027 17.4242Z" fill="url(#paint35_linear_252_6854)"/>
<path d="M79.2828 17.7629C79.3175 17.7629 79.3454 18.6917 79.3454 19.8368C79.3454 20.9826 79.3172 21.9109 79.2828 21.9109C79.2484 21.9109 79.2202 20.9824 79.2202 19.8368C79.2202 18.6915 79.2484 17.7629 79.2828 17.7629Z" fill="url(#paint36_linear_252_6854)"/>
<path d="M80.2393 18.4683C80.274 18.4683 80.3019 18.9862 80.3019 19.6252C80.3019 20.2643 80.2738 20.7823 80.2393 20.7823C80.2049 20.7823 80.1768 20.2643 80.1768 19.6252C80.1768 18.9865 80.2047 18.4683 80.2393 18.4683Z" fill="url(#paint37_linear_252_6854)"/>
<path d="M81.0841 19.0327C81.1187 19.0327 81.1467 19.3171 81.1467 19.6675C81.1467 20.0182 81.1185 20.3026 81.0841 20.3026C81.0497 20.3026 81.0215 20.0182 81.0215 19.6675C81.0212 19.3168 81.0494 19.0327 81.0841 19.0327Z" fill="url(#paint38_linear_252_6854)"/>
<path d="M82.0406 18.0168C82.0753 18.0168 82.1034 18.6864 82.1034 19.5124C82.1034 20.3386 82.0753 21.0082 82.0406 21.0082C82.006 21.0082 81.978 20.3386 81.978 19.5124C81.978 18.6864 82.0062 18.0168 82.0406 18.0168Z" fill="url(#paint39_linear_252_6854)"/>
<path d="M82.9415 17.4243C82.9762 17.4243 83.0041 18.3973 83.0041 19.5972C83.0041 20.7975 82.9759 21.7702 82.9415 21.7702C82.9071 21.7702 82.8789 20.7975 82.8789 19.5972C82.8787 18.3971 82.9068 17.4243 82.9415 17.4243Z" fill="url(#paint40_linear_252_6854)"/>
<path d="M84.0387 16.9727C84.0733 16.9727 84.1012 18.2109 84.1012 19.7381C84.1012 21.2657 84.0733 22.5037 84.0387 22.5037C84.004 22.5037 83.9761 21.2657 83.9761 19.7381C83.9761 18.2109 84.004 16.9727 84.0387 16.9727Z" fill="url(#paint41_linear_252_6854)"/>
<path d="M78.2599 20.6693C78.2252 20.6693 78.1973 20.1513 78.1973 19.5124C78.1973 18.8732 78.2254 18.3552 78.2599 18.3552C78.2945 18.3552 78.3224 18.8732 78.3224 19.5124C78.3224 20.1513 78.2945 20.6693 78.2599 20.6693Z" fill="url(#paint42_linear_252_6854)"/>
<path d="M77.4156 20.1049C77.3809 20.1049 77.353 19.8206 77.353 19.4701C77.353 19.1194 77.3812 18.8351 77.4156 18.8351C77.4503 18.8351 77.4782 19.1194 77.4782 19.4701C77.4782 19.8206 77.45 20.1049 77.4156 20.1049Z" fill="url(#paint43_linear_252_6854)"/>
<path d="M91.5841 18.3555C91.6187 18.3555 91.6467 18.8735 91.6467 19.5124C91.6467 20.1515 91.6185 20.6695 91.5841 20.6695C91.5494 20.6695 91.5215 20.1515 91.5215 19.5124C91.5212 18.8735 91.5494 18.3555 91.5841 18.3555Z" fill="url(#paint44_linear_252_6854)"/>
<path d="M92.4283 18.9198C92.463 18.9198 92.4909 19.2041 92.4909 19.5546C92.4909 19.9053 92.4627 20.1897 92.4283 20.1897C92.3936 20.1897 92.3657 19.9053 92.3657 19.5546C92.3657 19.2041 92.3936 18.9198 92.4283 18.9198Z" fill="url(#paint45_linear_252_6854)"/>
<path d="M83.9405 92.2938L85.6939 97.3972C85.6939 97.3972 91.456 97.324 91.8717 98.2355L82.1255 102L79.0679 94.1606L83.9405 92.2938Z" fill="url(#paint46_linear_252_6854)"/>
<path d="M82.5176 98.138C82.3488 98.2625 82.3002 98.5256 82.4172 98.6997C82.5344 98.8739 82.8006 98.9258 82.9716 98.8042C83.1425 98.6828 83.2106 98.3687 83.0746 98.2087C82.9386 98.0487 82.6227 98.005 82.4858 98.1641" fill="#E0E0E0"/>
<g opacity="0.6">
<path d="M82.1254 102L81.8481 101.198L91.2963 97.8881C91.2963 97.8881 91.803 97.9098 91.8717 98.2352L82.1254 102Z" fill="white"/>
</g>
<path d="M85.8327 97.2866C85.8495 97.3349 85.6199 97.4486 85.4446 97.6924C85.2631 97.9316 85.2217 98.185 85.1707 98.1831C85.1233 98.1908 85.0845 97.878 85.3019 97.5864C85.5166 97.2929 85.8262 97.2388 85.8327 97.2866Z" fill="#263238"/>
<path d="M87.0176 97.3156C87.0462 97.3576 86.8712 97.5184 86.7872 97.7827C86.6953 98.0443 86.7384 98.2785 86.6902 98.2947C86.6483 98.3195 86.508 98.0526 86.619 97.7262C86.7268 97.3987 86.9991 97.2705 87.0176 97.3156Z" fill="#263238"/>
<path d="M88.0699 98.318C88.0307 98.3448 87.8727 98.1319 87.8947 97.8234C87.9144 97.5147 88.099 97.325 88.1344 97.3569C88.1763 97.3858 88.0858 97.5818 88.0718 97.8353C88.0516 98.0887 88.1154 98.2951 88.0699 98.318Z" fill="#263238"/>
<path d="M85.3045 96.1679C85.3014 96.219 85.0578 96.2376 84.7956 96.3598C84.5311 96.4766 84.3565 96.648 84.3161 96.6166C84.2754 96.5927 84.4117 96.3371 84.7224 96.1976C85.0318 96.0559 85.3134 96.1215 85.3045 96.1679Z" fill="#263238"/>
<path d="M46.8605 90.4556L46.751 90.5989L44.6421 93.36L42.0298 95.1561L45.5274 101.913L49.3789 101.917C49.3789 101.917 49.1009 100.989 47.2478 100.508L47.1263 96.7991L50.453 93.1348" fill="url(#paint47_linear_252_6854)"/>
<g opacity="0.6">
<path d="M42.0298 95.1558L45.5274 101.912L49.3789 101.917L48.9454 101.336L45.8139 101.16L42.5854 94.7739L42.0298 95.1558Z" fill="white"/>
</g>
<path d="M47.2244 98.8086C47.1958 98.8479 46.9738 98.7214 46.6761 98.7296C46.3781 98.7294 46.1595 98.8619 46.1299 98.8233C46.0938 98.7941 46.3109 98.5628 46.6737 98.5597C47.0364 98.5532 47.2598 98.7784 47.2244 98.8086Z" fill="#263238"/>
<path d="M47.1627 97.8886C47.1242 97.9159 46.9528 97.6878 46.6456 97.6277C46.3389 97.5642 46.0932 97.7081 46.0681 97.668C46.0551 97.6506 46.0994 97.5859 46.2077 97.5268C46.3139 97.4679 46.4891 97.423 46.6791 97.4611C46.8687 97.4995 47.0132 97.6089 47.0885 97.7044C47.1656 97.8008 47.1817 97.8778 47.1627 97.8886Z" fill="#263238"/>
<path d="M47.1887 96.7074C47.1466 96.7287 47.0154 96.5054 46.747 96.4122C46.4798 96.3154 46.2379 96.4064 46.2186 96.3632C46.2083 96.3439 46.2572 96.2901 46.3638 96.25C46.4685 96.21 46.6348 96.1923 46.8036 96.252C46.9723 96.3118 47.0905 96.4306 47.1468 96.5276C47.2046 96.6261 47.2087 96.6987 47.1887 96.7074Z" fill="#263238"/>
<path d="M48.2202 95.7918C48.1744 95.808 48.0663 95.5883 47.8271 95.4329C47.5926 95.2707 47.3488 95.2542 47.3461 95.2057C47.3331 95.1611 47.6316 95.0954 47.9212 95.2917C48.2127 95.4852 48.2664 95.7867 48.2202 95.7918Z" fill="#263238"/>
<g opacity="0.6">
<path d="M45.1022 95.0404C45.1022 95.2934 44.8976 95.4985 44.6454 95.4985C44.3931 95.4985 44.1885 95.2934 44.1885 95.0404C44.1885 94.7874 44.3931 94.5823 44.6454 94.5823C44.8976 94.5825 45.1022 94.7874 45.1022 95.0404Z" fill="white"/>
</g>
<path d="M67.0638 59.739C67.973 60.0754 63.6126 78.0599 63.6126 78.0599L50.4533 93.9261L46.0664 90.1367L55.9111 74.9556L58.9988 50.4944L66.0944 50.8818L67.0638 59.739Z" fill="#263238"/>
<path d="M73.1082 50.4944C73.2324 50.8427 80.5447 76.1052 80.5447 76.1052L84.5986 93.3318L79.305 95.0617C79.305 95.0617 72.3576 78.9421 71.5221 76.2312C70.6865 73.5204 68.7163 69.5903 68.7163 69.5903L64.8628 59.3776C64.8628 59.3776 58.7038 55.967 59.1566 50.2047L73.1082 50.4944Z" fill="#263238"/>
<path d="M85.234 94.5645L84.9213 92.4913L78.5469 94.5676L79.288 96.7598L85.234 94.5645Z" fill="#263238"/>
<path d="M59.2173 50.4944C59.2173 50.4944 59.23 50.5634 59.2469 50.6979C59.2642 50.8376 59.289 51.0363 59.3208 51.2928C59.3935 51.812 59.4821 52.5818 59.7433 53.5272C59.8778 53.9977 60.0584 54.5128 60.3405 55.0312C60.6159 55.5531 60.9981 56.0701 61.4591 56.5736C62.3839 57.5811 63.6619 58.4884 65.1695 59.2432L65.1907 59.2538L65.197 59.2775C65.4377 60.1944 65.754 61.1418 66.0975 62.1216C66.4427 63.1008 66.8136 64.1146 67.2082 65.1559C67.9946 67.2396 68.8595 69.4397 69.7574 71.7169C71.0091 74.8627 72.1739 77.8707 73.289 80.5827C74.4003 83.2967 75.4359 85.7266 76.3035 87.7682C77.1725 89.809 77.8746 91.4612 78.3428 92.6103C78.578 93.1843 78.7542 93.6328 78.8705 93.9381C78.9259 94.0875 78.9687 94.2034 78.9995 94.2867C79.0279 94.3654 79.0395 94.4069 79.0395 94.4069C79.0395 94.4069 79.02 94.3685 78.9875 94.2913C78.9538 94.2092 78.9071 94.0948 78.8469 93.9475C78.7193 93.6412 78.5347 93.1978 78.2978 92.6294C77.8055 91.4851 77.0969 89.8377 76.2221 87.8036C75.344 85.7667 74.2997 83.3399 73.1821 80.6274C72.0603 77.916 70.8924 74.9095 69.6406 71.7637C68.7425 69.4863 67.8793 67.285 67.0955 65.1991C66.7024 64.1566 66.3329 63.1414 65.9897 62.1599C65.6478 61.178 65.3337 60.2285 65.0944 59.3043L65.1219 59.3385C63.6082 58.5743 62.3238 57.6547 61.3955 56.6325C60.9331 56.122 60.5499 55.597 60.2748 55.067C59.9929 54.5405 59.8152 54.0192 59.684 53.5444C59.4301 52.5902 59.3514 51.8183 59.2885 51.2972C59.2633 51.0397 59.2438 50.8405 59.23 50.7003C59.2192 50.5646 59.2173 50.4944 59.2173 50.4944Z" fill="#455A64"/>
<path d="M70.0151 60.4672C70.0184 60.4732 69.958 60.5159 69.8367 60.5697C69.7159 60.6248 69.5276 60.6798 69.2891 60.6979C68.8146 60.7389 68.1271 60.5712 67.566 60.0918C67.0095 59.611 66.6989 59.01 66.5145 58.5808C66.4221 58.3636 66.3588 58.1835 66.3198 58.058C66.2808 57.9323 66.2647 57.8611 66.2724 57.8582C66.2912 57.8512 66.3932 58.1237 66.5952 58.5439C66.7979 58.9593 67.1139 59.5359 67.6474 59.9962C68.1818 60.4527 68.8307 60.6262 69.285 60.6093C69.7464 60.5977 70.0062 60.4418 70.0151 60.4672Z" fill="#455A64"/>
<path d="M59.0777 75.8692C59.0554 75.903 58.4651 75.449 57.6074 75.1728C56.7524 74.8875 56.0088 74.9047 56.0107 74.8641C56.0103 74.8492 56.1949 74.8248 56.4951 74.8381C56.7945 74.8506 57.2093 74.9107 57.6464 75.0536C58.0831 75.1975 58.4531 75.3944 58.7022 75.5614C58.9523 75.7282 59.0871 75.8574 59.0777 75.8692Z" fill="#455A64"/>
<path d="M84.8512 92.5131C84.8623 92.5459 83.4616 93.0455 81.7231 93.6289C79.9841 94.2123 78.5658 94.6584 78.5548 94.6256C78.5437 94.5927 79.9442 94.0931 81.6831 93.5097C83.4216 92.9265 84.8401 92.4802 84.8512 92.5131Z" fill="#455A64"/>
<path d="M44.7212 91.6125L45.8935 89.5457L51.0538 93.9283L49.4696 95.6632L44.7212 91.6125Z" fill="#263238"/>
<path d="M51.0539 93.9282C51.0479 93.9345 50.9737 93.8751 50.8437 93.7634C50.6943 93.6328 50.5118 93.4735 50.2973 93.2862C49.8368 92.8816 49.2006 92.3274 48.4724 91.7409C47.7493 91.1481 47.0991 90.6062 46.6324 90.2089C46.3991 90.0103 46.2116 89.8478 46.0838 89.7334C45.956 89.619 45.8878 89.5524 45.8934 89.5459C45.8989 89.5391 45.9774 89.5927 46.1146 89.6955C46.2518 89.7983 46.4477 89.9502 46.6885 90.1401C47.1697 90.5198 47.8288 91.0511 48.5521 91.6439C49.2803 92.2304 49.9119 92.7991 50.357 93.2205C50.5799 93.4312 50.7571 93.6053 50.8772 93.7279C50.9971 93.8503 51.0599 93.9219 51.0539 93.9282Z" fill="#455A64"/>
<path d="M70.1731 11.8898C70.3943 11.066 71.0125 10.6603 71.8177 10.3851C72.6231 10.1097 73.5607 10.2623 74.2379 10.7791C74.6907 11.1247 75.0452 11.627 75.5828 11.8143C76.4679 12.1228 77.5054 11.4583 78.3539 11.8565C78.8563 12.0924 79.1483 12.7069 79.0145 13.2466C78.8806 13.7863 78.3356 14.1923 77.7817 14.1648C78.3595 14.3762 78.539 15.2025 78.2015 15.718C77.8641 16.2336 77.171 16.4281 76.5663 16.3152C75.9619 16.202 75.435 15.8344 74.9776 15.4223C74.5202 15.0101 74.1103 14.5437 73.6216 14.1694C73.133 13.795 72.5403 13.5116 71.9263 13.5449C71.0951 13.5898 70.3813 14.2184 70.0111 14.9659C69.6406 15.7134 69.5549 16.5674 69.5087 17.4009C69.4625 18.2343 69.4478 19.0818 69.2016 19.8793C69.1727 19.9729 69.1286 20.0777 69.0352 20.1064C68.9002 20.1479 68.7856 20.0043 68.7184 19.8798C67.9619 18.4726 67.4845 16.915 67.3225 15.3248C67.2284 14.4011 67.2527 13.5264 67.7592 12.7491C68.2654 11.9717 69.5451 11.3991 70.1731 11.8898Z" fill="#263238"/>
<path d="M68.5653 15.7578L68.1399 25.1091C68.0677 26.6993 68.2853 29.05 70.7979 29.05C72.9779 28.8852 73.6223 26.8424 73.6882 25.3585C73.7195 24.6546 73.747 24.0676 73.7549 23.9954C73.7549 23.9954 76.1392 23.88 76.4177 21.5317C76.5523 20.397 76.6399 18.0369 76.6943 15.901C76.7528 13.607 75.0418 11.6535 72.7663 11.4107L72.54 11.3866C70.0854 11.269 68.6144 13.2939 68.5653 15.7578Z" fill="#FFBE9D"/>
<path d="M73.763 23.9619C73.763 23.9619 72.2682 23.9244 70.7983 22.7644C70.7983 22.7644 71.3414 24.5337 73.7038 24.5718L73.763 23.9619Z" fill="#EB996E"/>
<path d="M75.8442 17.4031C75.8317 17.581 75.6709 17.7171 75.4853 17.7075C75.3 17.6976 75.1596 17.5457 75.1722 17.3678C75.1847 17.1899 75.3455 17.0536 75.5306 17.0632C75.7164 17.0729 75.8568 17.2249 75.8442 17.4031Z" fill="#263238"/>
<path d="M76.0682 17.0012C76.022 17.0405 75.7885 16.8252 75.4279 16.7875C75.0683 16.7448 74.7842 16.9027 74.7498 16.8542C74.7327 16.8324 74.7833 16.7579 74.9075 16.6862C75.0298 16.6145 75.2317 16.5537 75.4561 16.5788C75.6804 16.6039 75.8605 16.7069 75.9599 16.8035C76.0617 16.9005 76.0908 16.9838 76.0682 17.0012Z" fill="#263238"/>
<path d="M72.2972 17.1484C72.2846 17.3263 72.1238 17.4625 71.9382 17.4528C71.7529 17.4432 71.6126 17.2913 71.6253 17.1132C71.6378 16.9353 71.7986 16.7989 71.984 16.8086C72.1693 16.8185 72.3097 16.9706 72.2972 17.1484Z" fill="#263238"/>
<path d="M72.5192 16.6905C72.4729 16.7299 72.239 16.5146 71.8786 16.4771C71.5192 16.4347 71.2349 16.5923 71.2005 16.5438C71.1834 16.522 71.2337 16.4477 71.3582 16.376C71.4805 16.3043 71.6824 16.2435 71.9068 16.2684C72.1311 16.2937 72.3112 16.3965 72.4108 16.4931C72.5122 16.5899 72.5415 16.6731 72.5192 16.6905Z" fill="#263238"/>
<path d="M73.5425 19.5098C73.543 19.4891 73.7712 19.4741 74.139 19.4664C74.2319 19.4666 74.321 19.4577 74.3434 19.3964C74.372 19.3319 74.3441 19.2284 74.3109 19.1164C74.248 18.8839 74.1823 18.6401 74.1132 18.3848C73.8415 17.344 73.6554 16.4924 73.697 16.4818C73.7389 16.4712 73.9931 17.3061 74.2649 18.3469C74.3296 18.6032 74.3917 18.8477 74.4505 19.0816C74.4741 19.1902 74.5215 19.3155 74.4599 19.4487C74.4278 19.5151 74.3549 19.5578 74.2942 19.5675C74.2333 19.5793 74.1813 19.5747 74.1356 19.5726C73.7685 19.553 73.5418 19.5306 73.5425 19.5098Z" fill="#263238"/>
<path d="M72.7624 15.2843C72.7164 15.3787 72.3616 15.2937 71.9334 15.2997C71.5049 15.2971 71.151 15.3847 71.1041 15.2908C71.0836 15.2459 71.1527 15.1597 71.3008 15.0794C71.4474 14.999 71.6751 14.9319 71.9319 14.9307C72.1888 14.9299 72.4167 14.9951 72.5641 15.0743C72.7126 15.1539 72.7826 15.2394 72.7624 15.2843Z" fill="#263238"/>
<path d="M76.0465 15.9413C75.9746 16.0166 75.7353 15.9049 75.437 15.8692C75.1402 15.8228 74.88 15.8655 74.8309 15.7733C74.81 15.7289 74.8584 15.651 74.977 15.5851C75.094 15.5192 75.2827 15.4755 75.4873 15.5035C75.6917 15.532 75.8617 15.6251 75.9565 15.7205C76.053 15.8161 76.0788 15.9042 76.0465 15.9413Z" fill="#263238"/>
<path d="M68.5719 17.5194C68.5337 17.4977 67.0114 16.8696 66.892 18.4825C66.7726 20.0956 68.4121 19.8829 68.4184 19.8371C68.4246 19.7912 68.5719 17.5194 68.5719 17.5194Z" fill="#FFBE9D"/>
<path d="M67.9725 19.1895C67.9658 19.1839 67.9429 19.2071 67.894 19.2252C67.8464 19.243 67.7657 19.2517 67.6844 19.2138C67.519 19.1385 67.396 18.8573 67.4097 18.5662C67.4164 18.4192 67.4576 18.2817 67.518 18.1697C67.5758 18.0552 67.6581 17.9785 67.7448 17.9698C67.8314 17.9563 67.8883 18.0123 67.9044 18.0591C67.9227 18.1057 67.9099 18.1373 67.9183 18.1407C67.9224 18.145 67.9549 18.1163 67.9467 18.0487C67.9424 18.0161 67.9265 17.9768 67.8909 17.943C67.8546 17.9087 67.7989 17.8885 67.739 17.8904C67.6143 17.8897 67.4942 17.9959 67.4278 18.1187C67.3543 18.2416 67.305 18.3958 67.2973 18.5612C67.2836 18.887 67.427 19.2035 67.6545 19.2882C67.7655 19.3263 67.8625 19.299 67.914 19.2645C67.9667 19.2283 67.9778 19.1928 67.9725 19.1895Z" fill="#EB996E"/>
<path d="M77.2426 15.4655C76.1804 15.6311 75.0478 15.2451 74.3061 14.4648C73.7871 13.9188 73.421 13.1747 72.7297 12.8778C72.2641 12.6779 71.7186 12.725 71.2519 12.9222C70.7851 13.1191 70.3887 13.4542 70.0396 13.822C70.3658 15.0653 69.92 16.3668 69.4797 17.5742C69.4311 17.7076 69.3745 17.851 69.2537 17.9251C69.0484 18.0511 68.7766 17.9065 68.6297 17.7154C68.3946 17.4095 68.3334 17.006 68.306 16.6207C68.2434 15.7431 68.3166 14.8481 68.5982 14.0149C68.8801 13.1817 69.3784 12.4114 70.0733 11.8741C70.9418 11.2026 72.0884 10.9287 73.1769 11.0619C74.2654 11.1952 75.2907 11.7197 76.0911 12.4715C76.4625 12.8203 76.7952 13.2294 76.9548 13.7139" fill="#263238"/>
<path d="M73.6534 20.5313C73.5973 20.6737 73.54 20.8185 73.4459 20.9392C73.3517 21.0599 73.2143 21.1555 73.0617 21.1627C72.8989 21.1704 72.7422 21.0739 72.6515 20.9385C72.5607 20.8031 72.5299 20.6339 72.5371 20.4709C72.5436 20.3235 72.611 20.1475 72.7572 20.1301C72.8181 20.1229 72.8778 20.1465 72.9346 20.1695C73.1907 20.2735 73.4468 20.3778 73.7027 20.4818" fill="#EB996E"/>
<path d="M73.3468 21.1651C73.3429 21.1409 73.1742 21.2095 72.9371 21.1144C72.8223 21.068 72.6966 20.9763 72.6273 20.8322C72.5579 20.6898 72.5442 20.497 72.6172 20.3282C72.634 20.286 72.6595 20.2474 72.6841 20.2131C72.7144 20.181 72.7089 20.1824 72.7421 20.1875C72.7734 20.196 72.8239 20.2199 72.8651 20.236C72.9079 20.2534 72.9501 20.2708 72.9912 20.2877C73.1556 20.3543 73.3047 20.4127 73.4303 20.4598C73.6819 20.5539 73.8412 20.6036 73.8487 20.586C73.8561 20.5686 73.7103 20.4873 73.4686 20.3702C73.3477 20.3116 73.2028 20.244 73.0411 20.1711C73.0004 20.1528 72.959 20.1342 72.9166 20.1153C72.8718 20.0968 72.8377 20.0767 72.7763 20.0574C72.7462 20.049 72.7038 20.0441 72.6624 20.0608C72.622 20.0772 72.5965 20.105 72.5777 20.1279C72.5433 20.1738 72.5132 20.2208 72.4913 20.2739C72.401 20.4844 72.4227 20.7176 72.5149 20.8902C72.6087 21.0666 72.7688 21.1658 72.9048 21.2063C73.043 21.2491 73.1621 21.2387 73.2377 21.2194C73.3138 21.1986 73.3497 21.1726 73.3468 21.1651Z" fill="#263238"/>
<path d="M81.2523 33.4974L76.8012 43.0376C76.3787 43.9433 75.523 44.5691 74.5339 44.6961C73.2513 44.8607 72.0143 44.1571 71.4967 42.9691L68.1738 35.3403L73.9614 28.5205L74.5247 36.7108L78.1747 31.5246L81.2523 33.4974Z" fill="url(#paint48_linear_252_6854)"/>
<path d="M73.2146 39.929C73.1824 39.9164 73.4397 39.1648 73.7897 38.25C74.1397 37.3349 74.4495 36.6033 74.482 36.6159C74.5143 36.6282 74.257 37.3798 73.907 38.2949C73.5567 39.2099 73.2469 39.9415 73.2146 39.929Z" fill="#263238"/>
<path d="M73.108 50.4943L74.1479 49.3355C74.5097 48.9322 74.6881 48.3961 74.6402 47.8559L74.0879 46.4554L74.8262 29.8362C74.8999 28.4891 74.8838 26.5492 73.6241 26.0025L68.1725 24.3855C68.1725 24.3855 64.4563 25.1808 63.5772 27.127C62.8868 28.6556 61.8106 38.9871 61.8106 38.9871L60.2442 43.1798C60.0635 44.0057 58.8702 48.6302 58.7915 49.6925L58.998 50.4946H73.108V50.4943Z" fill="url(#paint49_linear_252_6854)"/>
<path d="M74.0882 46.4556C74.085 46.4556 74.0821 46.426 74.08 46.3692C74.0785 46.3014 74.0769 46.2189 74.0747 46.1184C74.0742 45.8843 74.0735 45.5674 74.0728 45.1744C74.0795 44.3494 74.0889 43.2068 74.1 41.8645V41.8628L74.1002 41.8604C74.1775 40.9236 74.2439 39.8804 74.3058 38.7826C74.4228 36.666 74.5152 34.7481 74.6149 33.3619C74.6623 32.6687 74.7104 32.1082 74.7472 31.7213C74.767 31.5386 74.7831 31.3911 74.7956 31.2762C74.8079 31.1746 74.8166 31.1215 74.8209 31.1217C74.8252 31.1222 74.825 31.176 74.8207 31.2781C74.8144 31.3933 74.806 31.5415 74.7959 31.7247C74.7733 32.128 74.7417 32.6853 74.7032 33.367C74.6329 34.7684 74.5369 36.6786 74.4309 38.7894C74.3691 39.8879 74.2988 40.9323 74.2145 41.87L74.2148 41.8659C74.1854 43.2077 74.1604 44.3504 74.1421 45.1752C74.1293 45.5681 74.1192 45.8848 74.1115 46.1189C74.1065 46.2191 74.1021 46.3016 74.0988 46.3692C74.0949 46.4262 74.0913 46.4556 74.0882 46.4556Z" fill="#263238"/>
<path d="M64.2371 53.7878L69.1624 52.0741L64.8921 40.5628L67.8132 30.5755C68.2583 28.8528 67.4812 26.4275 65.7635 25.9802C65.6888 25.9607 65.5519 25.3418 65.4772 25.3724C64.8027 25.65 63.1146 26.7985 62.4165 27.9291C61.8809 28.7968 61.5097 29.7563 61.2791 30.7502L59.5079 38.3892C59.1618 39.8821 59.2821 41.4455 59.8531 42.8671L64.2371 53.7878Z" fill="url(#paint50_linear_252_6854)"/>
<path d="M59.5715 42.0762C59.573 42.0755 59.5819 42.0938 59.5977 42.1302C59.6151 42.1718 59.6377 42.2251 59.6664 42.2932C59.7273 42.4435 59.8134 42.6562 59.9244 42.9297C60.1483 43.4938 60.4716 44.3077 60.8791 45.3335C61.6915 47.403 62.8393 50.3258 64.1897 53.7649L64.117 53.7311C65.6614 53.1998 67.3491 52.6191 69.1105 52.0133L69.1439 52.1332C69.1068 52.1016 69.038 52.0297 69.0197 51.9652L68.9689 51.8334C68.935 51.7453 68.9008 51.6565 68.8664 51.5672C68.7982 51.3886 68.7296 51.208 68.6601 51.0258C68.5221 50.6611 68.3818 50.2903 68.2405 49.9167C66.9606 46.503 65.7601 43.3011 64.74 40.5801L64.7342 40.5647L64.7378 40.5488C65.4241 37.5668 65.997 35.0778 66.4 33.3274C66.6034 32.4608 66.7637 31.7773 66.8747 31.3039C66.93 31.0756 66.9731 30.898 67.0039 30.7715C67.0186 30.7152 67.0299 30.6708 67.0391 30.6353C67.0475 30.6049 67.0523 30.5897 67.0538 30.59C67.0552 30.5902 67.053 30.6061 67.0475 30.6373C67.0405 30.673 67.0316 30.7181 67.0205 30.7751C66.9936 30.9025 66.9558 31.0812 66.9074 31.3112C66.8032 31.7862 66.6527 32.4719 66.4621 33.3414C66.0699 35.0942 65.512 37.5869 64.844 40.5729L64.8418 40.5415C65.8665 43.2608 67.0723 46.4605 68.3577 49.872C68.499 50.2454 68.6391 50.6164 68.7771 50.9809C68.8464 51.1631 68.915 51.3437 68.9829 51.5223C69.0171 51.6114 69.0512 51.7 69.0849 51.7881L69.1355 51.9196C69.1415 51.9334 69.1413 51.9394 69.1338 51.9527C69.1304 51.9592 69.1259 51.9676 69.123 51.9778L69.1191 51.9939L69.1179 52.0026L69.1174 52.007L69.1172 52.0092V52.0104V52.0108L69.1297 52.0693L69.1507 52.1315C67.3884 52.7347 65.6997 53.3123 64.1543 53.8412L64.1016 53.8593L64.0816 53.8074C62.7485 50.3615 61.6154 47.433 60.8134 45.3593C60.4191 44.3284 60.1061 43.5102 59.8895 42.9434C59.786 42.6668 59.7053 42.452 59.6485 42.3002C59.6235 42.2307 59.604 42.1761 59.5888 42.1339C59.5758 42.0962 59.5701 42.0769 59.5715 42.0762Z" fill="#263238"/>
<path d="M62.1884 40.899C62.18 40.8869 62.2982 40.7814 62.522 40.66C62.745 40.5381 63.0791 40.4109 63.4657 40.3573C63.8527 40.305 64.2085 40.3378 64.4557 40.3952C64.7039 40.4522 64.8459 40.522 64.8409 40.536C64.8322 40.5753 64.2319 40.3738 63.4825 40.4819C62.732 40.5789 62.2072 40.9347 62.1884 40.899Z" fill="#263238"/>
<g opacity="0.3">
<path d="M75.3542 35.5328L75.7603 44.2413C75.3323 44.5645 74.7431 44.6941 74.0654 44.718C74.0782 44.4448 74.5252 36.711 74.5252 36.711L75.3542 35.5328Z" fill="black"/>
</g>
<path d="M74.8205 28.5204C74.8227 28.5243 74.7902 28.545 74.7259 28.5815C74.6607 28.615 74.5692 28.6763 74.4392 28.729C74.1864 28.8504 73.8003 28.9848 73.3083 29.0835C72.3271 29.2865 70.903 29.2701 69.4349 28.8255C67.9583 28.3845 66.8043 27.5397 66.0986 26.8356C65.743 26.4818 65.485 26.1675 65.3217 25.9399C65.2363 25.8291 65.1804 25.7352 65.1393 25.6744C65.0996 25.6123 65.0803 25.5788 65.0839 25.5761C65.0924 25.5701 65.185 25.6939 65.3603 25.91C65.5343 26.127 65.8003 26.4299 66.1599 26.7717C66.8741 27.4521 68.0178 28.2713 69.4713 28.7053C70.9187 29.1434 72.3214 29.1738 73.2922 28.9961C73.7792 28.91 74.1641 28.7903 74.4199 28.6841C74.6773 28.5805 74.815 28.5098 74.8205 28.5204Z" fill="#FAFAFA"/>
<path d="M66.3568 33.3107C66.3558 33.3193 66.2718 33.3169 66.1199 33.3051C65.9678 33.2957 65.749 33.2648 65.4813 33.2124C64.9467 33.1079 64.2168 32.8796 63.4884 32.4668C62.7609 32.0519 62.1895 31.5445 61.8188 31.1448C61.6332 30.9445 61.4912 30.7753 61.4016 30.6517C61.3104 30.5293 61.2634 30.4596 61.2702 30.454C61.2873 30.4403 61.4986 30.7021 61.8821 31.0825C62.2653 31.4622 62.8358 31.9496 63.5503 32.3572C64.2657 32.7625 64.9767 33 65.5006 33.1255C66.0251 33.2518 66.3594 33.2884 66.3568 33.3107Z" fill="#FAFAFA"/>
<path d="M74.3422 35.5328C74.3449 35.541 74.2351 35.583 74.0336 35.6523C73.8331 35.7247 73.5353 35.8075 73.1632 35.8905C72.7906 35.9728 72.3404 36.0433 71.8363 36.0793C71.3323 36.1106 70.7753 36.1085 70.1949 36.0508C69.0325 35.9294 68.0154 35.6156 67.3075 35.337C66.9531 35.1966 66.671 35.0718 66.4813 34.9745C66.2907 34.8794 66.1872 34.8234 66.191 34.8157C66.1946 34.8077 66.3051 34.849 66.5013 34.9298C66.6965 35.0129 66.9825 35.1249 67.3383 35.2538C68.0498 35.5094 69.0594 35.8058 70.2074 35.9257C70.7808 35.9825 71.3306 35.9883 71.8289 35.9636C72.3272 35.9344 72.7739 35.8739 73.1454 35.8034C73.8887 35.6614 74.3348 35.5089 74.3422 35.5328Z" fill="#FAFAFA"/>
<path d="M74.0224 42.1119C74.0255 42.1198 73.9054 42.1719 73.6844 42.2591C73.5744 42.3042 73.4384 42.3559 73.2764 42.4029C73.1149 42.4517 72.9331 42.5159 72.7249 42.5608C72.5186 42.6125 72.2919 42.6665 72.0444 42.7042C71.7989 42.7537 71.5324 42.778 71.2527 42.8097C70.6918 42.8543 70.071 42.8608 69.4237 42.8C68.7767 42.7339 68.1691 42.6042 67.6277 42.4507C67.3591 42.3667 67.1029 42.2893 66.8714 42.1937C66.6357 42.1092 66.4241 42.011 66.2311 41.9214C66.0354 41.8377 65.8695 41.7389 65.72 41.6607C65.5698 41.5835 65.4463 41.5065 65.3467 41.4416C65.1461 41.3139 65.0378 41.2403 65.0426 41.2328C65.0472 41.2255 65.1642 41.2851 65.3712 41.3991C65.474 41.4572 65.6001 41.5275 65.7525 41.5982C65.9042 41.6699 66.0712 41.7623 66.2677 41.8401C66.4612 41.9236 66.6725 42.016 66.9075 42.0954C67.1383 42.186 67.3928 42.2586 67.6592 42.3387C68.1963 42.4843 68.7966 42.6088 69.4357 42.6742C70.0751 42.7343 70.688 42.7315 71.2431 42.6936C71.5196 42.6656 71.7837 42.6453 72.0276 42.6006C72.2731 42.5678 72.4986 42.5193 72.7045 42.4737C72.912 42.435 73.0939 42.3771 73.2562 42.3351C73.4192 42.2948 73.5564 42.2502 73.6683 42.2123C73.8931 42.1403 74.0193 42.1036 74.0224 42.1119Z" fill="#FAFAFA"/>
<path d="M77.9906 41.0699C77.9875 41.0836 77.7366 41.0448 77.3481 40.9151C76.9601 40.7865 76.4384 40.5536 75.9187 40.2026C75.3997 39.8502 74.9893 39.4519 74.7252 39.1391C74.4602 38.8261 74.3305 38.6074 74.342 38.5994C74.3584 38.5871 74.5129 38.7862 74.791 39.0797C75.0683 39.3733 75.4797 39.7529 75.9888 40.0986C76.4986 40.4428 77.0034 40.6837 77.3784 40.8319C77.7537 40.9808 77.9956 41.0501 77.9906 41.0699Z" fill="#FAFAFA"/>
<path d="M80.0423 36.0203C80.0382 36.0346 79.8156 35.9868 79.4728 35.8543C79.1305 35.7227 78.6719 35.4956 78.2136 35.1697C77.756 34.8427 77.3915 34.4828 77.1551 34.2018C76.918 33.9206 76.7998 33.7256 76.8119 33.7169C76.8432 33.6896 77.3807 34.4285 78.2863 35.0674C79.1851 35.715 80.0577 35.9817 80.0423 36.0203Z" fill="#FAFAFA"/>
<path d="M64.9584 39.1753C64.9596 39.184 64.8824 39.2004 64.7413 39.2226C64.6005 39.247 64.3944 39.2663 64.1388 39.2762C63.6284 39.2972 62.9152 39.2496 62.1574 39.0508C61.3999 38.8497 60.7557 38.5393 60.3217 38.2692C60.1041 38.1345 59.9341 38.016 59.8237 37.9252C59.7117 37.8362 59.6527 37.7838 59.658 37.7768C59.671 37.7592 59.9252 37.9455 60.3665 38.1922C60.8067 38.4396 61.4449 38.7314 62.1894 38.9291C62.9345 39.1244 63.633 39.1852 64.1376 39.1871C64.6431 39.1905 64.956 39.1536 64.9584 39.1753Z" fill="#FAFAFA"/>
<path d="M65.4958 42.8802C65.4953 42.9022 65.2024 42.8961 64.7366 42.9514C64.2713 43.0057 63.6336 43.1414 62.9743 43.4185C62.3159 43.698 61.7736 44.061 61.4098 44.3572C61.0449 44.6528 60.8449 44.8672 60.8287 44.8522C60.8222 44.8464 60.867 44.788 60.9539 44.6871C61.0391 44.5848 61.1751 44.4477 61.3528 44.2891C61.7069 43.9712 62.2536 43.5879 62.9256 43.3026C63.5984 43.0197 64.2537 42.8952 64.7279 42.8631C64.9653 42.8462 65.1581 42.8445 65.2905 42.8549C65.4231 42.8631 65.496 42.8718 65.4958 42.8802Z" fill="#FAFAFA"/>
<path d="M68.0926 49.3472C68.089 49.3704 67.7847 49.318 67.2917 49.3233C67.0455 49.3241 66.7528 49.3501 66.4321 49.4018C66.1125 49.4597 65.7654 49.5473 65.4132 49.6769C65.0627 49.8107 64.7433 49.9731 64.464 50.1397C64.1879 50.3115 63.9501 50.4843 63.7638 50.6461C63.3883 50.9664 63.193 51.206 63.175 51.1908C63.1682 51.1853 63.2125 51.1223 63.2992 51.012C63.3837 50.9 63.5219 50.7508 63.705 50.5794C63.8873 50.4066 64.1241 50.2224 64.4029 50.0414C64.6848 49.8657 65.0102 49.6963 65.3691 49.5594C65.7295 49.4266 66.0858 49.3405 66.4136 49.2878C66.7424 49.241 67.0416 49.2241 67.2922 49.2347C67.5426 49.2434 67.7445 49.2652 67.8815 49.2941C68.0192 49.3202 68.0941 49.3385 68.0926 49.3472Z" fill="#FAFAFA"/>
<path d="M61.6608 47.6036C61.6567 47.6381 61.1173 47.6004 60.4565 47.5196C59.7955 47.4387 59.263 47.3453 59.2671 47.3108C59.2712 47.2763 59.8104 47.3139 60.4717 47.3948C61.1327 47.4756 61.6651 47.5693 61.6608 47.6036Z" fill="#FAFAFA"/>
<g opacity="0.3">
<path d="M59.9683 44.3316C60.0549 45.6243 60.1478 46.3994 60.5344 47.6357C60.7819 48.4274 59.9439 49.6777 60.9217 50.4943H62.8408C61.9048 48.1843 61.0108 45.7627 60.1495 43.5872" fill="black"/>
</g>
<path d="M73.7704 46.626C73.7764 46.6323 73.7254 46.6903 73.6269 46.7902C73.5304 46.892 73.3763 47.0253 73.1756 47.1757C72.9756 47.3277 72.7199 47.4853 72.4233 47.6357C72.1241 47.7805 71.7828 47.9152 71.4116 48.0144C71.0392 48.1095 70.6757 48.1592 70.344 48.179C70.0118 48.1928 69.7121 48.1805 69.4635 48.1455C69.2151 48.1127 69.0157 48.0716 68.8819 48.0299C68.7473 47.9908 68.6746 47.9652 68.6768 47.957C68.6826 47.9343 68.9808 48.0147 69.4726 48.0571C69.7182 48.0803 70.0123 48.0832 70.337 48.0634C70.6613 48.0376 71.0161 47.9857 71.3801 47.8928C71.7428 47.7957 72.0777 47.6676 72.3733 47.5314C72.6662 47.3898 72.9214 47.2435 73.1246 47.103C73.5328 46.8252 73.7543 46.6092 73.7704 46.626Z" fill="#263238"/>
<path d="M71.2232 47.9952C71.2295 48.0085 71.059 48.1086 70.7608 48.2206C70.463 48.3324 70.0324 48.4451 69.5461 48.482C69.0596 48.518 68.6189 48.4772 68.3062 48.4256C67.9928 48.3734 67.8048 48.3167 67.8076 48.3012C67.8137 48.2566 68.5847 48.4253 69.5367 48.3565C70.4912 48.2904 71.209 47.9556 71.2232 47.9952Z" fill="#FAFAFA"/>
<path d="M82.301 29.1936L84.6591 29.0237C84.6591 29.0237 85.175 29.679 84.7614 30.192C84.3478 30.7046 83.5665 32.0476 83.5665 32.0476L81.7207 32.3088L80.9821 33.6441L78.1963 31.8338L79.4608 29.3035L81.5095 27.504L82.8135 27.5318L83.5446 28.4075C83.5446 28.4075 82.7403 28.8048 82.3561 28.1594L81.7329 28.2829L81.725 28.6445C81.718 28.9617 81.9852 29.2163 82.301 29.1936Z" fill="#FFBE9D"/>
<path d="M84.6309 29.1126L86.2345 28.6501C86.2345 28.6501 86.6007 28.6045 86.7723 28.8553L86.82 29.0216L84.849 29.8739L84.6309 29.1126Z" fill="#FFBE9D"/>
<path d="M81.1231 30.8819C81.1086 30.8703 81.1994 30.7402 81.3407 30.5314C81.4777 30.3229 81.671 30.025 81.7232 29.6547C81.7494 29.4703 81.7309 29.2966 81.6775 29.1428C81.6522 29.0639 81.6247 28.9849 81.6134 28.9041C81.6002 28.8218 81.6134 28.7438 81.6243 28.6823C81.6734 28.4283 81.7292 28.2804 81.7446 28.2837C81.7629 28.2874 81.7376 28.4445 81.7121 28.6941C81.6902 28.823 81.722 28.9429 81.7867 29.1054C81.8505 29.2673 81.877 29.4713 81.8472 29.6719C81.7887 30.0796 81.5687 30.3859 81.4119 30.5838C81.2497 30.7832 81.1356 30.8918 81.1231 30.8819Z" fill="#EB996E"/>
<path d="M87.6747 27.1871C87.6877 27.2328 87.9166 27.7437 87.9166 27.7437L81.3862 30.995L81.0576 30.3822L87.6747 27.1871Z" fill="#263238"/>
<path d="M83.5518 31.9417C83.7131 31.8152 83.6758 31.5425 83.5302 31.3981C83.3845 31.2538 83.1725 31.205 82.9717 31.1643C82.6434 31.0976 82.3109 31.0363 81.9761 31.0462C81.8658 31.0496 81.7515 31.0619 81.6564 31.1181C81.5613 31.1744 81.4906 31.2849 81.5115 31.3936C81.537 31.5258 81.6769 31.5987 81.8023 31.647C82.1398 31.7769 82.4922 31.8674 82.8504 31.9159" fill="#FFBE9D"/>
<path d="M82.8501 31.9161C82.8487 31.9311 82.6003 31.9246 82.2113 31.8295C82.1143 31.8053 82.0088 31.7754 81.8971 31.738C81.7886 31.6979 81.66 31.6678 81.545 31.5645C81.4889 31.5133 81.4427 31.4305 81.4482 31.3407C81.4523 31.2519 81.4973 31.1734 81.558 31.1157C81.688 30.996 81.8639 30.9852 82.0139 30.983C82.3244 30.9791 82.6133 31.0322 82.8701 31.0851C83.1222 31.1367 83.3749 31.1906 83.5345 31.3422C83.6972 31.4954 83.7074 31.6972 83.6672 31.8066C83.6241 31.9222 83.5518 31.9473 83.5514 31.9417C83.5429 31.9335 83.5983 31.8949 83.6202 31.7933C83.6421 31.697 83.6161 31.5246 83.476 31.409C83.335 31.2878 83.1048 31.2442 82.848 31.1988C82.5921 31.1522 82.3102 31.1049 82.0156 31.1085C81.8697 31.109 81.7267 31.1259 81.6417 31.2055C81.5512 31.2871 81.5423 31.4078 81.6251 31.4809C81.7046 31.5584 81.8254 31.5973 81.9318 31.6395C82.0394 31.6803 82.1412 31.7143 82.2349 31.7436C82.6104 31.8589 82.853 31.8966 82.8501 31.9161Z" fill="#EB996E"/>
<path d="M84.3565 30.6566C83.8416 30.4305 83.4658 30.3103 82.9512 30.0839C82.7832 30.01 82.6007 29.9347 82.4221 29.976C82.2435 30.0172 82.0981 30.2342 82.1972 30.3887C82.2324 30.4435 82.2897 30.479 82.3453 30.5128C82.8445 30.8169 83.344 31.1213 83.8433 31.4254" fill="#FFBE9D"/>
<path d="M83.843 31.4254C83.8341 31.4401 83.608 31.3209 83.2498 31.1162C83.0599 31.0051 82.8502 30.8828 82.6242 30.7507C82.5051 30.679 82.382 30.6049 82.2549 30.5287C82.1888 30.4876 82.1115 30.4073 82.1035 30.3035C82.0954 30.2026 82.1384 30.1121 82.1981 30.0433C82.2588 29.9757 82.3426 29.9238 82.4326 29.9103C82.5188 29.8948 82.6042 29.9033 82.6815 29.9216C82.8372 29.9593 82.9655 30.0283 83.0893 30.0809C83.3297 30.1825 83.5527 30.2769 83.7549 30.3624C84.1359 30.5219 84.3632 30.6416 84.3562 30.6568C84.349 30.673 84.1109 30.5827 83.7228 30.4452C83.5291 30.3756 83.2975 30.2921 83.0443 30.1876C82.9167 30.1362 82.7884 30.072 82.6543 30.0418C82.5197 30.0104 82.3787 30.0232 82.292 30.1268C82.2492 30.1758 82.2232 30.2381 82.2277 30.2921C82.2326 30.3459 82.2675 30.3889 82.3243 30.427C82.448 30.5045 82.5681 30.5796 82.6844 30.652C82.9054 30.7922 83.1102 30.9223 83.2961 31.0404C83.6422 31.2644 83.8521 31.4104 83.843 31.4254Z" fill="#EB996E"/>
<path d="M84.8494 29.8739C84.321 29.6812 83.9664 29.549 83.4383 29.3564C83.266 29.2936 83.0789 29.2301 82.9032 29.2827C82.7275 29.3354 82.5963 29.5613 82.7053 29.7092C82.7438 29.7616 82.8035 29.7935 82.8611 29.8237C83.3789 30.095 83.8966 30.3665 84.4144 30.6378" fill="#FFBE9D"/>
<path d="M84.4141 30.6379C84.4062 30.6533 84.1736 30.549 83.8044 30.3685C83.6082 30.2702 83.3918 30.1619 83.1588 30.0453C83.0358 29.9818 82.9087 29.9162 82.7775 29.8486C82.7101 29.8124 82.6249 29.7419 82.6082 29.6388C82.5904 29.5396 82.6249 29.4443 82.6793 29.3716C82.7337 29.2985 82.8119 29.2413 82.901 29.2191C82.9855 29.1964 83.0711 29.1985 83.1496 29.2104C83.3075 29.2367 83.4402 29.2961 83.5668 29.3422C83.8099 29.4365 84.0355 29.5239 84.2398 29.6033C84.6219 29.7554 84.8551 29.8577 84.8491 29.8742C84.8431 29.8906 84.5992 29.8177 84.2095 29.6868C84.0022 29.6152 83.7736 29.5362 83.5273 29.451C83.3985 29.4069 83.2666 29.3523 83.1313 29.332C82.9956 29.3118 82.8567 29.3352 82.7796 29.4464C82.5709 29.7088 83.0045 29.8054 83.2122 29.9425C83.4409 30.0677 83.653 30.1841 83.8455 30.2896C84.2042 30.4904 84.4223 30.6224 84.4141 30.6379Z" fill="#EB996E"/>
<path d="M84.747 27.3469C84.7337 27.3409 84.7754 27.2048 84.9123 27.023C85.0469 26.8425 85.2905 26.6235 85.6203 26.5024C85.9503 26.3812 86.2774 26.3906 86.4963 26.4413C86.718 26.4913 86.8374 26.5683 86.8311 26.5815C86.8239 26.6001 86.6948 26.554 86.4816 26.5289C86.2697 26.5028 85.9679 26.5086 85.6634 26.6201C85.3591 26.7319 85.1249 26.9231 84.98 27.0802C84.8334 27.2378 84.7645 27.3563 84.747 27.3469Z" fill="#263238"/>
<path d="M84.1893 27.0512C84.1775 27.0471 84.2413 26.8436 84.4592 26.5851C84.6725 26.3278 85.06 26.0343 85.5595 25.8984C86.0588 25.763 86.5342 25.8057 86.856 25.8813C87.181 25.957 87.3646 26.0536 87.3591 26.0669C87.3524 26.0859 87.1593 26.02 86.8392 25.9686C86.5212 25.917 86.066 25.8912 85.5925 26.0198C85.1197 26.1487 84.7459 26.4135 84.5247 26.6452C84.2998 26.8767 84.2086 27.0618 84.1893 27.0512Z" fill="#263238"/>
<path d="M83.3812 26.7853C83.3747 26.7809 83.4055 26.7189 83.4741 26.6149C83.5427 26.5106 83.6532 26.367 83.8085 26.2057C84.1152 25.8833 84.6284 25.5014 85.2865 25.2972C85.9449 25.0928 86.5835 25.1174 87.018 25.2096C87.2368 25.2547 87.4092 25.3107 87.5242 25.3578C87.6395 25.4046 87.7 25.4384 87.6971 25.4456C87.6896 25.4664 87.4344 25.3633 87.0026 25.297C86.5741 25.2291 85.9581 25.2202 85.3233 25.4172C84.6888 25.6141 84.1857 25.9701 83.8704 26.269C83.5517 26.5685 83.399 26.7983 83.3812 26.7853Z" fill="#263238"/>
<path d="M82.8082 26.5127C82.802 26.5106 82.8222 26.4266 82.8848 26.2841C82.9452 26.1408 83.0602 25.9441 83.2401 25.7304C83.4194 25.5163 83.6738 25.2972 83.9829 25.0978C84.2942 24.9013 84.6608 24.7271 85.0604 24.5895C85.8665 24.2996 86.6648 24.3355 87.2023 24.4483C87.4736 24.5045 87.6873 24.5726 87.831 24.6288C87.9752 24.6841 88.0511 24.7234 88.0484 24.7307C88.041 24.7529 87.7234 24.6249 87.1866 24.5356C86.6539 24.4475 85.8832 24.427 85.1015 24.7082C84.3146 24.973 83.669 25.3867 83.3065 25.7896C82.9377 26.1898 82.8325 26.5253 82.8082 26.5127Z" fill="#263238"/>
<path d="M69.3945 54.1977C68.9042 54.0234 68.9552 54.3657 69.1312 54.7654C68.197 55.357 67.1758 56.0934 66.0707 56.1002L64.896 53.4642L68.2287 52.3191L68.2892 52.4902C68.3876 52.588 68.7417 52.9228 69.3842 53.3565C69.583 53.4907 69.804 53.5878 70.0361 53.6474C70.3172 53.7198 70.6951 53.8006 70.9156 53.7804C71.1884 53.7555 71.3497 54.076 71.1629 54.2411C70.9763 54.4062 70.226 54.4934 69.3945 54.1977Z" fill="#FFBE9D"/>
<path d="M69.4918 54.4943C69.5022 54.505 69.3558 54.6749 69.0797 54.9081C68.8044 55.1415 68.3915 55.4297 67.8935 55.6698C67.3947 55.9088 66.9121 56.0512 66.558 56.1202C66.2036 56.1902 65.9798 56.198 65.9781 56.1832C65.9697 56.1424 66.8598 56.0331 67.8391 55.5561C68.8229 55.0898 69.4656 54.4622 69.4918 54.4943Z" fill="#455A64"/>
<defs>
<linearGradient id="paint0_linear_252_6854" x1="25.7163" y1="72.1961" x2="25.8415" y2="72.1961" gradientUnits="userSpaceOnUse">
<stop stop-color="#73CBE6"/>
<stop offset="1" stop-color="#1EA3CD"/>
</linearGradient>
<linearGradient id="paint1_linear_252_6854" x1="24.4814" y1="72.1162" x2="24.6066" y2="72.1162" gradientUnits="userSpaceOnUse">
<stop stop-color="#73CBE6"/>
<stop offset="1" stop-color="#1EA3CD"/>
</linearGradient>
<linearGradient id="paint2_linear_252_6854" x1="23.0908" y1="72.1519" x2="23.216" y2="72.1519" gradientUnits="userSpaceOnUse">
<stop stop-color="#73CBE6"/>
<stop offset="1" stop-color="#1EA3CD"/>
</linearGradient>
<linearGradient id="paint3_linear_252_6854" x1="21.8784" y1="71.8838" x2="22.0036" y2="71.8838" gradientUnits="userSpaceOnUse">
<stop stop-color="#73CBE6"/>
<stop offset="1" stop-color="#1EA3CD"/>
</linearGradient>
<linearGradient id="paint4_linear_252_6854" x1="20.8086" y1="71.9376" x2="20.9338" y2="71.9376" gradientUnits="userSpaceOnUse">
<stop stop-color="#73CBE6"/>
<stop offset="1" stop-color="#1EA3CD"/>
</linearGradient>
<linearGradient id="paint5_linear_252_6854" x1="19.5967" y1="71.7409" x2="19.7219" y2="71.7409" gradientUnits="userSpaceOnUse">
<stop stop-color="#73CBE6"/>
<stop offset="1" stop-color="#1EA3CD"/>
</linearGradient>
<linearGradient id="paint6_linear_252_6854" x1="18.4556" y1="71.8482" x2="18.5807" y2="71.8482" gradientUnits="userSpaceOnUse">
<stop stop-color="#73CBE6"/>
<stop offset="1" stop-color="#1EA3CD"/>
</linearGradient>
<linearGradient id="paint7_linear_252_6854" x1="32.9238" y1="72.1519" x2="33.049" y2="72.1519" gradientUnits="userSpaceOnUse">
<stop stop-color="#73CBE6"/>
<stop offset="1" stop-color="#1EA3CD"/>
</linearGradient>
<linearGradient id="paint8_linear_252_6854" x1="31.7114" y1="71.8838" x2="31.8366" y2="71.8838" gradientUnits="userSpaceOnUse">
<stop stop-color="#73CBE6"/>
<stop offset="1" stop-color="#1EA3CD"/>
</linearGradient>
<linearGradient id="paint9_linear_252_6854" x1="30.6421" y1="71.9376" x2="30.7673" y2="71.9376" gradientUnits="userSpaceOnUse">
<stop stop-color="#73CBE6"/>
<stop offset="1" stop-color="#1EA3CD"/>
</linearGradient>
<linearGradient id="paint10_linear_252_6854" x1="29.4297" y1="71.741" x2="29.5549" y2="71.741" gradientUnits="userSpaceOnUse">
<stop stop-color="#73CBE6"/>
<stop offset="1" stop-color="#1EA3CD"/>
</linearGradient>
<linearGradient id="paint11_linear_252_6854" x1="28.2891" y1="71.8482" x2="28.4142" y2="71.8482" gradientUnits="userSpaceOnUse">
<stop stop-color="#73CBE6"/>
<stop offset="1" stop-color="#1EA3CD"/>
</linearGradient>
<linearGradient id="paint12_linear_252_6854" x1="26.8984" y1="72.0268" x2="27.0236" y2="72.0268" gradientUnits="userSpaceOnUse">
<stop stop-color="#73CBE6"/>
<stop offset="1" stop-color="#1EA3CD"/>
</linearGradient>
<linearGradient id="paint13_linear_252_6854" x1="34.2197" y1="71.7409" x2="34.3449" y2="71.7409" gradientUnits="userSpaceOnUse">
<stop stop-color="#73CBE6"/>
<stop offset="1" stop-color="#1EA3CD"/>
</linearGradient>
<linearGradient id="paint14_linear_252_6854" x1="35.2896" y1="71.6871" x2="35.4147" y2="71.6871" gradientUnits="userSpaceOnUse">
<stop stop-color="#73CBE6"/>
<stop offset="1" stop-color="#1EA3CD"/>
</linearGradient>
<linearGradient id="paint15_linear_252_6854" x1="17.3389" y1="71.7409" x2="17.464" y2="71.7409" gradientUnits="userSpaceOnUse">
<stop stop-color="#73CBE6"/>
<stop offset="1" stop-color="#1EA3CD"/>
</linearGradient>
<linearGradient id="paint16_linear_252_6854" x1="16.269" y1="71.7944" x2="16.3942" y2="71.7944" gradientUnits="userSpaceOnUse">
<stop stop-color="#73CBE6"/>
<stop offset="1" stop-color="#1EA3CD"/>
</linearGradient>
<linearGradient id="paint17_linear_252_6854" x1="15.2017" y1="71.7409" x2="15.3271" y2="71.7409" gradientUnits="userSpaceOnUse">
<stop stop-color="#73CBE6"/>
<stop offset="1" stop-color="#1EA3CD"/>
</linearGradient>
<linearGradient id="paint18_linear_252_6854" x1="14.0605" y1="71.8482" x2="14.1857" y2="71.8482" gradientUnits="userSpaceOnUse">
<stop stop-color="#73CBE6"/>
<stop offset="1" stop-color="#1EA3CD"/>
</linearGradient>
<linearGradient id="paint19_linear_252_6854" x1="12.9438" y1="71.7409" x2="13.069" y2="71.7409" gradientUnits="userSpaceOnUse">
<stop stop-color="#73CBE6"/>
<stop offset="1" stop-color="#1EA3CD"/>
</linearGradient>
<linearGradient id="paint20_linear_252_6854" x1="11.8745" y1="71.7944" x2="11.9997" y2="71.7944" gradientUnits="userSpaceOnUse">
<stop stop-color="#73CBE6"/>
<stop offset="1" stop-color="#1EA3CD"/>
</linearGradient>
<linearGradient id="paint21_linear_252_6854" x1="38.6807" y1="71.7409" x2="38.8058" y2="71.7409" gradientUnits="userSpaceOnUse">
<stop stop-color="#73CBE6"/>
<stop offset="1" stop-color="#1EA3CD"/>
</linearGradient>
<linearGradient id="paint22_linear_252_6854" x1="37.5396" y1="71.8482" x2="37.6647" y2="71.8482" gradientUnits="userSpaceOnUse">
<stop stop-color="#73CBE6"/>
<stop offset="1" stop-color="#1EA3CD"/>
</linearGradient>
<linearGradient id="paint23_linear_252_6854" x1="36.4229" y1="71.7409" x2="36.548" y2="71.7409" gradientUnits="userSpaceOnUse">
<stop stop-color="#73CBE6"/>
<stop offset="1" stop-color="#1EA3CD"/>
</linearGradient>
<linearGradient id="paint24_linear_252_6854" x1="35.353" y1="71.7944" x2="35.4782" y2="71.7944" gradientUnits="userSpaceOnUse">
<stop stop-color="#73CBE6"/>
<stop offset="1" stop-color="#1EA3CD"/>
</linearGradient>
<linearGradient id="paint25_linear_252_6854" x1="40.0737" y1="71.7944" x2="40.1989" y2="71.7944" gradientUnits="userSpaceOnUse">
<stop stop-color="#73CBE6"/>
<stop offset="1" stop-color="#1EA3CD"/>
</linearGradient>
<linearGradient id="paint26_linear_252_6854" x1="7.56738" y1="37.3011" x2="44.3702" y2="37.3011" gradientUnits="userSpaceOnUse">
<stop stop-color="#73CBE6"/>
<stop offset="1" stop-color="#1EA3CD"/>
</linearGradient>
<linearGradient id="paint27_linear_252_6854" x1="10.2783" y1="36.903" x2="42.0439" y2="36.903" gradientUnits="userSpaceOnUse">
<stop stop-color="#73CBE6"/>
<stop offset="1" stop-color="#1EA3CD"/>
</linearGradient>
<linearGradient id="paint28_linear_252_6854" x1="12.9512" y1="37.3008" x2="39.0484" y2="37.3008" gradientUnits="userSpaceOnUse">
<stop stop-color="#73CBE6"/>
<stop offset="1" stop-color="#1EA3CD"/>
</linearGradient>
<linearGradient id="paint29_linear_252_6854" x1="84.9092" y1="19.8718" x2="85.0344" y2="19.8718" gradientUnits="userSpaceOnUse">
<stop stop-color="#73CBE6"/>
<stop offset="1" stop-color="#1EA3CD"/>
</linearGradient>
<linearGradient id="paint30_linear_252_6854" x1="85.8843" y1="19.8087" x2="86.0094" y2="19.8087" gradientUnits="userSpaceOnUse">
<stop stop-color="#73CBE6"/>
<stop offset="1" stop-color="#1EA3CD"/>
</linearGradient>
<linearGradient id="paint31_linear_252_6854" x1="86.9814" y1="19.8369" x2="87.1066" y2="19.8369" gradientUnits="userSpaceOnUse">
<stop stop-color="#73CBE6"/>
<stop offset="1" stop-color="#1EA3CD"/>
</linearGradient>
<linearGradient id="paint32_linear_252_6854" x1="87.9385" y1="19.6252" x2="88.0636" y2="19.6252" gradientUnits="userSpaceOnUse">
<stop stop-color="#73CBE6"/>
<stop offset="1" stop-color="#1EA3CD"/>
</linearGradient>
<linearGradient id="paint33_linear_252_6854" x1="88.7827" y1="19.6676" x2="88.9079" y2="19.6676" gradientUnits="userSpaceOnUse">
<stop stop-color="#73CBE6"/>
<stop offset="1" stop-color="#1EA3CD"/>
</linearGradient>
<linearGradient id="paint34_linear_252_6854" x1="89.7397" y1="19.5125" x2="89.8649" y2="19.5125" gradientUnits="userSpaceOnUse">
<stop stop-color="#73CBE6"/>
<stop offset="1" stop-color="#1EA3CD"/>
</linearGradient>
<linearGradient id="paint35_linear_252_6854" x1="90.6401" y1="19.5972" x2="90.7653" y2="19.5972" gradientUnits="userSpaceOnUse">
<stop stop-color="#73CBE6"/>
<stop offset="1" stop-color="#1EA3CD"/>
</linearGradient>
<linearGradient id="paint36_linear_252_6854" x1="79.2202" y1="19.8369" x2="79.3454" y2="19.8369" gradientUnits="userSpaceOnUse">
<stop stop-color="#73CBE6"/>
<stop offset="1" stop-color="#1EA3CD"/>
</linearGradient>
<linearGradient id="paint37_linear_252_6854" x1="80.1768" y1="19.6253" x2="80.3019" y2="19.6253" gradientUnits="userSpaceOnUse">
<stop stop-color="#73CBE6"/>
<stop offset="1" stop-color="#1EA3CD"/>
</linearGradient>
<linearGradient id="paint38_linear_252_6854" x1="81.0215" y1="19.6676" x2="81.1467" y2="19.6676" gradientUnits="userSpaceOnUse">
<stop stop-color="#73CBE6"/>
<stop offset="1" stop-color="#1EA3CD"/>
</linearGradient>
<linearGradient id="paint39_linear_252_6854" x1="81.978" y1="19.5125" x2="82.1034" y2="19.5125" gradientUnits="userSpaceOnUse">
<stop stop-color="#73CBE6"/>
<stop offset="1" stop-color="#1EA3CD"/>
</linearGradient>
<linearGradient id="paint40_linear_252_6854" x1="82.8789" y1="19.5973" x2="83.0041" y2="19.5973" gradientUnits="userSpaceOnUse">
<stop stop-color="#73CBE6"/>
<stop offset="1" stop-color="#1EA3CD"/>
</linearGradient>
<linearGradient id="paint41_linear_252_6854" x1="83.9761" y1="19.7382" x2="84.1012" y2="19.7382" gradientUnits="userSpaceOnUse">
<stop stop-color="#73CBE6"/>
<stop offset="1" stop-color="#1EA3CD"/>
</linearGradient>
<linearGradient id="paint42_linear_252_6854" x1="78.1973" y1="19.5122" x2="78.3224" y2="19.5122" gradientUnits="userSpaceOnUse">
<stop stop-color="#73CBE6"/>
<stop offset="1" stop-color="#1EA3CD"/>
</linearGradient>
<linearGradient id="paint43_linear_252_6854" x1="77.353" y1="19.47" x2="77.4782" y2="19.47" gradientUnits="userSpaceOnUse">
<stop stop-color="#73CBE6"/>
<stop offset="1" stop-color="#1EA3CD"/>
</linearGradient>
<linearGradient id="paint44_linear_252_6854" x1="91.5215" y1="19.5125" x2="91.6467" y2="19.5125" gradientUnits="userSpaceOnUse">
<stop stop-color="#73CBE6"/>
<stop offset="1" stop-color="#1EA3CD"/>
</linearGradient>
<linearGradient id="paint45_linear_252_6854" x1="92.3657" y1="19.5547" x2="92.4909" y2="19.5547" gradientUnits="userSpaceOnUse">
<stop stop-color="#73CBE6"/>
<stop offset="1" stop-color="#1EA3CD"/>
</linearGradient>
<linearGradient id="paint46_linear_252_6854" x1="79.0679" y1="97.1469" x2="91.8717" y2="97.1469" gradientUnits="userSpaceOnUse">
<stop stop-color="#73CBE6"/>
<stop offset="1" stop-color="#1EA3CD"/>
</linearGradient>
<linearGradient id="paint47_linear_252_6854" x1="42.0298" y1="96.1862" x2="50.453" y2="96.1862" gradientUnits="userSpaceOnUse">
<stop stop-color="#73CBE6"/>
<stop offset="1" stop-color="#1EA3CD"/>
</linearGradient>
<linearGradient id="paint48_linear_252_6854" x1="68.1738" y1="36.6202" x2="81.2523" y2="36.6202" gradientUnits="userSpaceOnUse">
<stop stop-color="#73CBE6"/>
<stop offset="1" stop-color="#1EA3CD"/>
</linearGradient>
<linearGradient id="paint49_linear_252_6854" x1="58.7915" y1="37.44" x2="74.8506" y2="37.44" gradientUnits="userSpaceOnUse">
<stop stop-color="#73CBE6"/>
<stop offset="1" stop-color="#1EA3CD"/>
</linearGradient>
<linearGradient id="paint50_linear_252_6854" x1="59.3145" y1="39.5796" x2="69.1624" y2="39.5796" gradientUnits="userSpaceOnUse">
<stop stop-color="#73CBE6"/>
<stop offset="1" stop-color="#1EA3CD"/>
</linearGradient>
</defs>
</svg>
