<svg width="30" height="31" viewBox="0 0 30 31" fill="none" xmlns="http://www.w3.org/2000/svg">
<path fill-rule="evenodd" clip-rule="evenodd" d="M15 30.5C3.56626 30.5 -1.90735e-06 26.3865 -1.90735e-06 15.5C-1.90735e-06 4.61347 3.56626 0.499998 15 0.499998C26.4337 0.499998 30 4.61347 30 15.5C30 26.3865 26.4337 30.5 15 30.5Z" fill="#476169"/>
<path d="M13.7418 7.8583L9.58346 9.42497C8.62513 9.7833 7.8418 10.9166 7.8418 11.9333V18.125C7.8418 19.1083 8.4918 20.4 9.28346 20.9916L12.8668 23.6666C14.0418 24.55 15.9751 24.55 17.1501 23.6666L20.7335 20.9916C21.5251 20.4 22.1751 19.1083 22.1751 18.125V11.9333C22.1751 10.9083 21.3918 9.77497 20.4335 9.41663L16.2751 7.8583C15.5668 7.59997 14.4335 7.59997 13.7418 7.8583Z" stroke="white" stroke-width="1.5" stroke-linecap="round" stroke-linejoin="round"/>
<path d="M15.0002 16.4167C15.9206 16.4167 16.6668 15.6705 16.6668 14.75C16.6668 13.8296 15.9206 13.0834 15.0002 13.0834C14.0797 13.0834 13.3335 13.8296 13.3335 14.75C13.3335 15.6705 14.0797 16.4167 15.0002 16.4167Z" stroke="white" stroke-width="1.5" stroke-miterlimit="10" stroke-linecap="round" stroke-linejoin="round"/>
<path d="M15 16.4166V18.9166" stroke="white" stroke-width="1.5" stroke-miterlimit="10" stroke-linecap="round" stroke-linejoin="round"/>
</svg>
