<svg width="133" height="92" viewBox="0 0 133 92" fill="none" xmlns="http://www.w3.org/2000/svg">
<path d="M126.526 40.9086L126.532 40.9062L126.354 40.4827L126.176 40.0592L126.171 40.0617C119.57 24.6481 106.974 12.1602 91.5019 5.6905L91.5043 5.68518L91.0799 5.51115L90.6545 5.33711L90.6525 5.34195C82.9665 2.25672 74.844 0.688965 66.5 0.688965C57.9598 0.688965 49.6642 2.32633 41.8337 5.54885L41.8313 5.54305L41.4078 5.72095L40.9843 5.89837L40.9867 5.90369C25.5736 12.5049 13.0857 25.1006 6.61554 40.5726L6.61022 40.5702L6.43619 40.9952L6.26216 41.4206L6.26699 41.4225C3.18176 49.108 1.61353 57.2306 1.61353 65.575C1.61353 74.2699 3.30648 82.712 6.64551 90.6673L6.82293 91.0908L22.0079 84.725L21.83 84.3015C19.3379 78.3641 18.0747 72.0636 18.0747 65.575C18.0747 59.2329 19.2857 53.061 21.6738 47.2314C26.5061 35.4343 36.019 25.8392 47.7731 20.9059C53.71 18.4138 60.01 17.1506 66.4996 17.1506C72.8416 17.1506 79.0135 18.3616 84.8432 20.7497C96.6403 25.5825 106.236 35.0949 111.169 46.849C113.661 52.7859 114.924 59.086 114.924 65.5755C114.924 71.9176 113.713 78.0895 111.325 83.9186L111.151 84.344L126.389 90.5798L126.563 90.1548C129.763 82.3431 131.386 74.0732 131.386 65.5755C131.386 57.0348 129.749 48.7392 126.526 40.9086Z" fill="#1EA3CD"/>
<path d="M66.4997 0.688883C74.8437 0.688883 82.9662 2.25712 90.6522 5.34187L90.6542 5.33703L91.0796 5.51107L91.504 5.6851L91.5016 5.69042C106.974 12.1601 119.569 24.648 126.171 40.0616L126.176 40.0592L126.353 40.4826L126.531 40.9061L126.526 40.9085C129.748 48.7396 131.386 57.0352 131.386 65.5749C131.386 74.0731 129.763 82.3426 126.563 90.1543L126.389 90.5792L111.15 84.3435L111.325 83.9181C113.713 78.0884 114.924 71.917 114.924 65.5749C114.924 59.0859 113.66 52.7854 111.168 46.8484C106.235 35.0949 96.6399 25.5825 84.8429 20.7492C79.0128 18.361 72.8413 17.1501 66.4992 17.1501C60.0102 17.1501 53.7097 18.4132 47.7727 20.9053C36.0192 25.8387 26.5063 35.4337 21.6735 47.2308C19.2854 53.0609 18.0744 59.2324 18.0744 65.5744C18.0744 72.063 19.3376 78.363 21.8296 84.3009L22.0075 84.7244L6.82262 91.0902L6.6452 90.6667C3.30617 82.7114 1.61321 74.2694 1.61321 65.5744C1.61321 57.2305 3.18145 49.108 6.26668 41.422L6.26184 41.42L6.43588 40.9951L6.60991 40.5701L6.61523 40.5726C13.0854 25.1005 25.5728 12.5048 40.9864 5.90361L40.984 5.89829L41.4075 5.72087L41.8309 5.54297L41.8334 5.54877C49.6644 2.32625 57.9595 0.688883 66.4997 0.688883ZM66.4997 0C57.9092 0 49.5508 1.64075 41.6555 4.87681C41.6245 4.88503 41.5941 4.89518 41.5641 4.90775L41.1406 5.08565L40.7176 5.26307C40.6876 5.27564 40.6591 5.29014 40.6316 5.30658C25.1489 11.9634 12.5396 24.6828 6.01433 40.2245C5.99886 40.2516 5.98484 40.2796 5.97275 40.3091L5.79872 40.734L5.62469 41.1595C5.61308 41.188 5.60342 41.217 5.59568 41.2465C2.49692 48.9963 0.925293 57.1817 0.925293 65.5749C0.925293 74.3617 2.63663 82.8937 6.01095 90.9336L6.18836 91.3566C6.29907 91.6205 6.5548 91.7791 6.82407 91.7791C6.91254 91.7791 7.00294 91.7617 7.08996 91.7254L22.2749 85.3596C22.4436 85.2891 22.577 85.1542 22.6461 84.985C22.7153 84.8158 22.7143 84.6258 22.6432 84.4576L22.4649 84.0341C20.0091 78.1822 18.7637 71.9711 18.7637 65.5749C18.7637 59.3228 19.9573 53.2388 22.3116 47.4923C27.0753 35.8635 36.4528 26.4043 48.0401 21.541C53.892 19.0847 60.1025 17.8394 66.4997 17.8394C72.7519 17.8394 78.8358 19.033 84.5823 21.3873C96.2121 26.1515 105.671 35.5295 110.534 47.1153C112.99 52.9671 114.235 59.1777 114.235 65.5749C114.235 71.8271 113.042 77.911 110.687 83.657L110.513 84.0824C110.444 84.2516 110.445 84.4411 110.516 84.6099C110.586 84.7786 110.721 84.912 110.89 84.9811L126.129 91.2169C126.214 91.2517 126.302 91.2686 126.389 91.2686C126.66 91.2686 126.917 91.1071 127.027 90.8407L127.201 90.4158C130.435 82.5205 132.075 74.163 132.075 65.5749C132.075 56.9839 130.433 48.625 127.197 40.7302C127.189 40.6997 127.179 40.6693 127.166 40.6393L126.989 40.2158L126.811 39.7928C126.799 39.7633 126.785 39.7348 126.768 39.7077C120.111 24.2236 107.391 11.6134 91.8482 5.08904C91.8216 5.07357 91.7936 5.05955 91.7646 5.04794L91.3401 4.87391L90.9147 4.69988C90.8862 4.68827 90.8572 4.67861 90.8282 4.67087C83.0784 1.57162 74.8935 0 66.4997 0Z" fill="#1EA3CD"/>
<path d="M17.6166 65.5749C17.6166 59.0206 18.9098 52.7689 21.2496 47.0572L6.86134 41.1691C3.77756 48.697 2.073 56.936 2.073 65.5744C2.073 74.4076 3.85249 82.8245 7.06921 90.4892L21.4072 84.4783C18.9664 78.6632 17.6166 72.2766 17.6166 65.5749Z" fill="url(#paint0_linear_252_2758)"/>
<path d="M111.593 46.6712L125.931 40.6602C119.335 24.9455 106.688 12.4015 90.9055 5.93616L85.0173 20.3244C96.9923 25.2297 106.588 34.7474 111.593 46.6712Z" fill="url(#paint1_linear_252_2758)"/>
<path d="M47.5963 20.4824L41.5854 6.14441C25.8706 12.7403 13.3267 25.3872 6.86133 41.1697L21.2496 47.0578C26.1549 35.0823 35.6726 25.4868 47.5963 20.4824Z" fill="url(#paint2_linear_252_2758)"/>
<path d="M125.931 40.6602L111.593 46.6711C114.034 52.4862 115.384 58.8728 115.384 65.575C115.384 72.1293 114.091 78.3805 111.751 84.0927L126.139 89.9808C129.223 82.4529 130.927 74.2138 130.927 65.5755C130.927 56.7418 129.147 48.3249 125.931 40.6602Z" fill="url(#paint3_linear_252_2758)"/>
<path d="M66.5003 16.6913C73.0546 16.6913 79.3063 17.9845 85.018 20.3243L90.9061 5.93605C83.3782 2.85227 75.1391 1.14771 66.5008 1.14771C57.6676 1.14771 49.2507 2.9272 41.5859 6.14392L47.5969 20.4819C53.4115 18.0411 59.7981 16.6913 66.5003 16.6913Z" fill="url(#paint4_linear_252_2758)"/>
<path d="M17.6166 65.5749C17.6166 59.0206 18.9098 52.7689 21.2496 47.0572L6.86134 41.1691C3.77756 48.697 2.073 56.936 2.073 65.5744C2.073 74.4076 3.85249 82.8245 7.06921 90.4892L21.4072 84.4783C18.9664 78.6632 17.6166 72.2766 17.6166 65.5749Z" fill="#BAE6FD"/>
<path d="M6.82367 91.0901L6.64625 90.6666C3.30722 82.7114 1.61426 74.2693 1.61426 65.5744C1.61426 57.0757 3.23712 48.8062 6.43644 40.995L6.61047 40.5701L21.8491 46.8053L21.675 47.2307C19.2869 53.0609 18.0759 59.2323 18.0759 65.5744C18.0759 72.0629 19.3391 78.3629 21.8312 84.3009L22.0091 84.7243L6.82367 91.0901ZM7.11372 41.769C4.07345 49.3438 2.53229 57.3498 2.53229 65.5748C2.53229 73.9927 4.1421 82.1699 7.31628 89.8873L20.8078 84.2317C18.3848 78.3059 17.1564 72.031 17.1564 65.5744C17.1564 59.2661 18.3326 53.1237 20.6521 47.3086L7.11372 41.769Z" fill="#1EA3CD"/>
<path d="M111.593 46.6712L125.931 40.6602C119.335 24.9455 106.688 12.4015 90.9057 5.93616L85.0176 20.3244C96.9925 25.2297 106.589 34.7474 111.593 46.6712Z" fill="#108AC9"/>
<path d="M111.347 47.2719L111.169 46.8484C106.236 35.0949 96.6409 25.5825 84.8439 20.7492L84.4189 20.5751L90.6542 5.33655L91.0796 5.51058C106.887 11.9866 119.744 24.7331 126.354 40.4822L126.532 40.9056L111.347 47.2719ZM85.6159 20.0753C97.3013 24.9932 106.819 34.4292 111.837 46.0706L125.327 40.4145C118.82 25.2238 106.404 12.9147 91.1555 6.53641L85.6159 20.0753Z" fill="#1EA3CD"/>
<path d="M47.5963 20.4824L41.5854 6.14441C25.8706 12.7403 13.3267 25.3872 6.86133 41.1697L21.2496 47.0578C26.1549 35.0823 35.6726 25.4868 47.5963 20.4824Z" fill="#72CDFC"/>
<path d="M21.5006 47.6557L6.26245 41.4205L6.43649 40.9951C12.913 25.1875 25.6595 12.3308 41.4081 5.72087L41.8316 5.54297L48.1973 20.7279L47.7738 20.9058C36.0203 25.8392 26.5074 35.4342 21.6746 47.2313L21.5006 47.6557ZM7.46183 40.9192L21.0007 46.4588C25.9186 34.7734 35.3546 25.2552 46.996 20.2382L41.3399 6.74719C26.1497 13.2546 13.8402 25.6709 7.46183 40.9192Z" fill="#1EA3CD"/>
<path d="M125.931 40.6602L111.593 46.6711C114.034 52.4862 115.384 58.8728 115.384 65.575C115.384 72.1293 114.091 78.3805 111.751 84.0927L126.139 89.9808C129.223 82.4529 130.927 74.2138 130.927 65.5755C130.927 56.7418 129.147 48.3249 125.931 40.6602Z" fill="#073248"/>
<path d="M126.39 90.5792L111.151 84.3435L111.325 83.9181C113.713 78.0885 114.924 71.917 114.924 65.575C114.924 59.0859 113.661 52.7854 111.169 46.8484L110.991 46.425L126.176 40.0592L126.354 40.4827C129.693 48.438 131.386 56.8805 131.386 65.575C131.386 74.0731 129.763 82.3426 126.563 90.1543L126.39 90.5792ZM112.348 83.8403L125.887 89.3808C128.927 81.8055 130.468 73.799 130.468 65.575C130.468 57.1575 128.859 48.9799 125.684 41.262L112.193 46.9176C114.615 52.8425 115.844 59.1173 115.844 65.575C115.843 71.8827 114.668 78.0256 112.348 83.8403Z" fill="#1EA3CD"/>
<path d="M66.5003 16.6913C73.0546 16.6913 79.3063 17.9845 85.018 20.3243L90.9061 5.93605C83.3782 2.85227 75.1391 1.14771 66.5008 1.14771C57.6676 1.14771 49.2507 2.9272 41.5859 6.14392L47.5969 20.4819C53.4115 18.0411 59.7981 16.6913 66.5003 16.6913Z" fill="#1CB2FF"/>
<path d="M47.3504 21.0837L40.9846 5.89874L41.4081 5.72132C49.3634 2.38229 57.8055 0.689331 66.5004 0.689331C74.999 0.689331 83.2685 2.3122 91.0802 5.51152L91.5047 5.68555L85.2694 20.9241L84.844 20.7501C79.0139 18.362 72.8424 17.151 66.5004 17.151C60.0113 17.151 53.7108 18.4142 47.7739 20.9062L47.3504 21.0837ZM42.1874 6.39135L47.843 19.8828C53.7679 17.4599 60.0428 16.2315 66.5004 16.2315C72.8086 16.2315 78.951 17.4072 84.7662 19.7272L90.3062 6.18831C82.7314 3.14804 74.7254 1.60687 66.5004 1.60687C58.0825 1.60736 49.9048 3.21717 42.1874 6.39135Z" fill="#1EA3CD"/>
<path opacity="0.3" d="M74.1027 46.6372L68.1425 35.6262L67.7446 35.0543L67.3216 35.6117L60.8795 46.4762L60.4744 47.009L61.2817 47.0182L65.3937 47.067L65.6881 90.3356L65.6896 90.6905L66.1546 90.6963L67.4584 90.7122L67.9245 90.7171L67.9332 90.3617L69.5696 47.1158L73.6845 47.1651L74.4763 47.1738L74.1027 46.6372Z" fill="white"/>
<path d="M72.6977 46.7934L66.738 35.7828L60.2949 46.6469L64.873 46.7005L65.6329 90.3303L66.9372 90.3453L68.1187 46.7392L72.6977 46.7934Z" fill="white"/>
<path d="M66.7381 35.7827L72.6978 46.7932L68.1187 46.7396L66.9372 90.3457L65.6325 90.3307L64.8725 46.7009L60.2945 46.6473L66.7381 35.7827ZM66.7526 35.0532L66.4287 35.599L59.9846 46.4626L59.667 46.9987L60.2896 47.0055L64.5138 47.0557L65.2723 90.3312L65.2733 90.6855L65.6276 90.6894L66.9324 90.7044L67.2873 90.7087L67.2964 90.3548L68.4678 47.1026L72.6929 47.152L73.3049 47.1592L73.0134 46.6211L67.0538 35.6111L66.7526 35.0532Z" fill="#1EA3CD"/>
<path opacity="0.3" d="M67.0726 82.7036C61.9792 82.7036 57.8391 86.8456 57.8391 91.938H76.3051C76.3051 86.8456 72.165 82.7036 67.0726 82.7036Z" fill="#4B4B4B"/>
<path d="M52.8604 91.7703C52.9513 84.5755 58.7964 78.7642 66.0159 78.7642C73.2344 78.7642 79.0791 84.5755 79.1695 91.7703H81.3807C81.2869 83.3693 74.4382 76.5569 66.0159 76.5569C57.5922 76.5569 50.7454 83.3688 50.6541 91.7703H52.8604Z" fill="white"/>
<path d="M66.0158 76.557C74.4381 76.557 81.2868 83.369 81.3806 91.7705H79.1694C79.079 84.5756 73.2343 78.7643 66.0158 78.7643C58.7963 78.7643 52.9512 84.5756 52.8603 91.7705H50.654C50.7453 83.3695 57.5926 76.557 66.0158 76.557ZM66.0158 76.3274C57.5109 76.3274 50.5167 83.2539 50.4243 91.768C50.4238 91.8294 50.4475 91.8884 50.4906 91.9319C50.5336 91.9754 50.5926 92.0001 50.654 92.0001H52.8603C52.986 92.0001 53.0885 91.8991 53.0899 91.7734C53.1794 84.7265 58.9776 78.994 66.0158 78.994C73.0535 78.994 78.8513 84.7269 78.9397 91.7734C78.9412 91.8991 79.0437 92.0001 79.1694 92.0001H81.3806C81.442 92.0001 81.5009 91.9754 81.544 91.9319C81.587 91.8884 81.6112 91.8294 81.6102 91.768C81.515 83.2539 74.5198 76.3274 66.0158 76.3274Z" fill="white"/>
<path d="M80.0178 91.9382C80.0178 84.2034 73.7483 77.9309 66.0159 77.9309C58.2786 77.9309 52.0115 84.2039 52.0115 91.9382H80.0178Z" fill="white"/>
<defs>
<linearGradient id="paint0_linear_252_2758" x1="2.07314" y1="65.8293" x2="21.4073" y2="65.8293" gradientUnits="userSpaceOnUse">
<stop stop-color="#D32A16"/>
<stop offset="1" stop-color="#830E00"/>
</linearGradient>
<linearGradient id="paint1_linear_252_2758" x1="85.0174" y1="26.3036" x2="125.931" y2="26.3036" gradientUnits="userSpaceOnUse">
<stop stop-color="#90D849"/>
<stop offset="1" stop-color="#4A9E00"/>
</linearGradient>
<linearGradient id="paint2_linear_252_2758" x1="6.86138" y1="26.6008" x2="47.5961" y2="26.6008" gradientUnits="userSpaceOnUse">
<stop stop-color="#FFA400"/>
<stop offset="0.9971" stop-color="#DD6400"/>
</linearGradient>
<linearGradient id="paint3_linear_252_2758" x1="111.593" y1="65.3202" x2="130.927" y2="65.3202" gradientUnits="userSpaceOnUse">
<stop stop-color="#14B063"/>
<stop offset="1" stop-color="#007D3E"/>
</linearGradient>
<linearGradient id="paint4_linear_252_2758" x1="41.5854" y1="10.815" x2="90.9055" y2="10.815" gradientUnits="userSpaceOnUse">
<stop stop-color="#FBF161"/>
<stop offset="1" stop-color="#FCB600"/>
</linearGradient>
</defs>
</svg>
