<svg width="302" height="301" viewBox="0 0 302 301" fill="none" xmlns="http://www.w3.org/2000/svg">
<g clip-path="url(#clip0_220_4168)">
<path d="M296.881 300.727C296.881 300.826 233.126 300.899 154.498 300.899C75.8698 300.899 12.1013 300.826 12.1013 300.727C12.1013 300.627 75.8432 300.554 154.498 300.554C233.152 300.554 296.881 300.647 296.881 300.727Z" fill="#263238"/>
<path d="M226.19 0.271973H215.687C214.997 0.287643 214.342 0.575266 213.864 1.07212C213.386 1.56898 213.123 2.23476 213.134 2.92429V4.83397C213.146 5.524 212.885 6.19079 212.406 6.68803C211.927 7.18527 211.271 7.47235 210.581 7.48629H190.112C189.427 7.45887 188.779 7.16737 188.304 6.67291C187.83 6.17844 187.565 5.5194 187.565 4.83397V2.92429C187.571 2.5812 187.508 2.24043 187.382 1.92145C187.255 1.60246 187.067 1.31151 186.829 1.06521C186.59 0.818913 186.304 0.62209 185.99 0.485984C185.675 0.349879 185.336 0.277158 184.993 0.271973H172.129C171.043 0.271973 169.968 0.485847 168.965 0.901384C167.962 1.31692 167.05 1.92598 166.282 2.69379C165.514 3.4616 164.905 4.37313 164.49 5.37632C164.074 6.37952 163.86 7.45474 163.86 8.54059V141.09C163.859 142.175 164.072 143.25 164.487 144.253C164.901 145.255 165.509 146.167 166.276 146.934C167.042 147.702 167.952 148.312 168.954 148.728C169.957 149.144 171.031 149.358 172.116 149.359L226.177 149.392C227.262 149.393 228.337 149.18 229.34 148.765C230.344 148.35 231.255 147.742 232.023 146.975C232.791 146.207 233.4 145.296 233.816 144.293C234.231 143.291 234.445 142.216 234.445 141.13V8.57374C234.45 7.48622 234.239 6.40852 233.827 5.40236C233.414 4.3962 232.807 3.48135 232.04 2.7102C231.273 1.93904 230.362 1.32674 229.358 0.908351C228.354 0.489962 227.277 0.273708 226.19 0.271973Z" fill="white"/>
<path d="M226.19 0.271859H226.468C226.75 0.270893 227.032 0.29084 227.311 0.331537C228.408 0.464785 229.463 0.831034 230.407 1.40573C231.111 1.8144 231.749 2.32875 232.297 2.93081C233.756 4.51271 234.541 6.60123 234.485 8.75266C234.485 9.97273 234.485 11.2724 234.485 12.6516C234.485 23.6653 234.485 39.5925 234.485 59.2794C234.485 78.9663 234.485 102.38 234.485 128.432V140.845C234.505 141.696 234.398 142.545 234.167 143.365C233.936 144.19 233.581 144.975 233.113 145.692C232.634 146.409 232.056 147.054 231.395 147.608C230.035 148.706 228.366 149.353 226.621 149.458C224.884 149.511 223.166 149.458 221.422 149.458H210.946H189.349H172.719C170.81 149.564 168.919 149.042 167.335 147.973C165.764 146.876 164.609 145.28 164.059 143.444C163.799 142.535 163.683 141.591 163.715 140.646V137.861C163.715 134.152 163.715 130.47 163.715 126.814C163.715 119.494 163.715 112.29 163.715 105.204C163.715 91.0409 163.715 77.355 163.715 64.3586C163.715 51.3622 163.715 38.9759 163.715 27.4051C163.715 21.6142 163.715 16.0311 163.715 10.6557V8.66646C163.715 8.33492 163.748 8.00338 163.761 7.66521C163.774 7.32704 163.847 7.00213 163.933 6.67722C164.231 5.39044 164.826 4.19132 165.671 3.17615C166.508 2.19391 167.555 1.41214 168.734 0.888524C169.894 0.393764 171.147 0.156234 172.407 0.192289H184.774C185.353 0.16238 185.926 0.32309 186.405 0.649815C186.871 0.976494 187.223 1.43999 187.413 1.97598C187.592 2.49338 187.671 3.04029 187.645 3.58726V4.39622C187.628 4.65676 187.628 4.91811 187.645 5.17866C187.711 5.69078 187.926 6.17243 188.262 6.56449C188.594 6.94918 189.036 7.22237 189.528 7.34693C189.771 7.40461 190.021 7.42914 190.271 7.41987H194.017H204.912H209.719C210.097 7.41987 210.482 7.41987 210.846 7.41987C211.204 7.37854 211.548 7.25852 211.854 7.06843C212.446 6.68937 212.864 6.09074 213.015 5.4041C213.071 5.07131 213.091 4.73335 213.074 4.39622C213.074 4.06468 213.074 3.73314 213.074 3.40823C213.058 3.0872 213.071 2.76533 213.114 2.44676C213.17 2.13582 213.275 1.83582 213.426 1.55824C213.718 1.02775 214.187 0.616967 214.752 0.397845C215.282 0.228446 215.842 0.16756 216.396 0.218813C215.851 0.167196 215.301 0.225826 214.778 0.391214C214.224 0.629987 213.773 1.05765 213.505 1.59802C213.356 1.86563 213.255 2.15741 213.207 2.46002C213.163 2.7741 213.15 3.09162 213.167 3.40823V4.39622C213.184 4.74022 213.162 5.08505 213.101 5.424C213.029 5.77739 212.887 6.11253 212.682 6.40895C212.476 6.70537 212.213 6.95684 211.907 7.148C211.589 7.35125 211.228 7.47833 210.853 7.51933C210.468 7.55248 210.104 7.51933 209.719 7.51933H190.297C190.036 7.52906 189.775 7.50228 189.522 7.43976C189.006 7.30797 188.543 7.02096 188.195 6.61754C187.838 6.2059 187.607 5.69905 187.532 5.15876C187.513 4.89168 187.513 4.62351 187.532 4.35644V3.58726C187.578 3.05546 187.522 2.51982 187.367 2.00913C187.186 1.50044 186.853 1.06023 186.412 0.749277C185.957 0.443046 185.414 0.294012 184.867 0.324906H172.461C171.205 0.27217 169.953 0.509069 168.803 1.01728C167.654 1.52549 166.636 2.29138 165.83 3.25572C165.001 4.24812 164.419 5.42298 164.132 6.68385C164.046 7.00213 164.026 7.34693 163.966 7.65195C163.907 7.95696 163.927 8.31503 163.92 8.6333V10.6225C163.92 15.9935 163.92 21.5766 163.92 27.372V126.794C163.92 130.446 163.92 134.128 163.92 137.841V140.626C163.889 141.549 164.003 142.471 164.258 143.358C164.792 145.143 165.913 146.695 167.441 147.761C168.987 148.802 170.832 149.308 172.693 149.2H189.323H210.919H221.462C223.199 149.2 224.937 149.2 226.647 149.2C228.346 149.103 229.971 148.472 231.289 147.396C231.936 146.862 232.501 146.237 232.967 145.54C233.425 144.842 233.772 144.076 233.994 143.272C234.214 142.471 234.319 141.642 234.306 140.812V138.305C234.306 134.968 234.306 131.675 234.306 128.425C234.306 102.4 234.306 78.9596 234.339 59.2728C234.372 39.5859 234.379 23.6587 234.386 12.6449C234.386 11.2657 234.386 9.99262 234.386 8.74603C234.411 7.61145 234.206 6.48356 233.782 5.43062C233.417 4.52596 232.892 3.69478 232.231 2.97723C231.69 2.37729 231.062 1.86305 230.367 1.45214C229.427 0.877298 228.377 0.506779 227.284 0.36469C227.007 0.322942 226.728 0.29638 226.449 0.285121C226.283 0.27186 226.19 0.271859 226.19 0.271859Z" fill="#263238"/>
<path d="M224.433 149.611H221.462H172.706C170.766 149.72 168.844 149.189 167.236 148.099C165.639 146.987 164.469 145.364 163.92 143.497C163.656 142.573 163.537 141.613 163.569 140.653L163.622 8.65319C163.622 8.39459 163.622 8.12936 163.655 7.87076V7.64531C163.655 7.5127 163.695 7.39997 163.708 7.28062C163.734 7.05739 163.774 6.83596 163.827 6.61754C164.132 5.30886 164.738 4.08951 165.598 3.0568C166.45 2.05648 167.515 1.25906 168.714 0.722753C169.894 0.215363 171.171 -0.0246664 172.454 0.0198884H184.814C185.423 -0.011462 186.026 0.156102 186.531 0.497306C187.024 0.842846 187.395 1.33467 187.592 1.90304C187.743 2.35095 187.803 2.8241 187.771 3.29551V4.5421C187.761 4.74531 187.761 4.94892 187.771 5.15213C187.829 5.64241 188.032 6.10418 188.355 6.47829C188.664 6.84135 189.079 7.09869 189.542 7.21431C189.774 7.27119 190.012 7.29574 190.251 7.28725H209.699H210.104C210.338 7.3007 210.572 7.3007 210.807 7.28725C211.143 7.24728 211.467 7.13412 211.755 6.95571C212.031 6.77852 212.271 6.54852 212.458 6.27887C212.646 6.00922 212.779 5.7052 212.849 5.38421C212.899 5.11098 212.919 4.833 212.909 4.55536V3.18941C212.901 2.93435 212.916 2.67912 212.955 2.42687C213.01 2.10039 213.122 1.78617 213.286 1.49856C213.591 0.936505 214.084 0.499817 214.679 0.265227C215.115 0.104507 215.581 0.0411391 216.045 0.0795645H216.37H225.036H226.157H226.654C226.876 0.0827944 227.098 0.102743 227.317 0.139242C228.432 0.276935 229.505 0.647435 230.467 1.22669C231.181 1.64615 231.827 2.17155 232.383 2.78493C233.065 3.51919 233.609 4.37054 233.988 5.29801C234.425 6.38008 234.639 7.53934 234.618 8.70624L234.651 59.233V140.792C234.662 141.658 234.553 142.522 234.326 143.358C234.088 144.196 233.726 144.994 233.252 145.725C232.764 146.453 232.174 147.107 231.501 147.668C230.119 148.791 228.419 149.45 226.641 149.551C225.925 149.611 225.176 149.611 224.433 149.611ZM222.139 149.087H223.319C224.413 149.087 225.547 149.087 226.634 149.087C228.3 148.986 229.893 148.367 231.19 147.317C231.824 146.792 232.378 146.178 232.834 145.493C233.283 144.806 233.625 144.055 233.849 143.265C234.063 142.477 234.164 141.662 234.147 140.845V128.439L234.207 59.286L234.26 8.75929C234.281 7.64134 234.08 6.53026 233.67 5.4903C233.306 4.60292 232.79 3.78605 232.144 3.07669C231.611 2.49583 230.994 1.9975 230.314 1.59802C229.388 1.0376 228.357 0.674176 227.284 0.530459C227.085 0.494325 226.883 0.474367 226.681 0.470782H226.455H226.183H225.069H216.41H216.071C215.66 0.438541 215.246 0.495072 214.858 0.636552C214.344 0.840828 213.917 1.21845 213.651 1.70411C213.509 1.95725 213.413 2.23328 213.366 2.5197C213.334 2.73921 213.321 2.96103 213.326 3.18278V4.5421C213.34 4.84866 213.318 5.15578 213.26 5.45715C213.181 5.82861 213.03 6.18066 212.813 6.49265C212.597 6.80464 212.32 7.07028 212 7.27399C211.663 7.48696 211.282 7.6228 210.886 7.67184C210.637 7.68492 210.386 7.68492 210.137 7.67184H190.297C190.023 7.68196 189.749 7.6552 189.482 7.59227C188.931 7.45547 188.437 7.14934 188.07 6.717C187.704 6.28189 187.474 5.74953 187.406 5.18528C187.391 4.96453 187.391 4.74296 187.406 4.5222V3.28887C187.436 2.87225 187.386 2.4538 187.261 2.05555C187.078 1.57138 186.749 1.15636 186.319 0.868631C185.894 0.574569 185.383 0.432093 184.867 0.464152H172.461C171.231 0.420324 170.007 0.657293 168.882 1.15707C167.757 1.65685 166.761 2.40631 165.969 3.34855C165.158 4.32519 164.587 5.47913 164.305 6.717C164.253 6.91514 164.215 7.11681 164.192 7.3204C164.192 7.43976 164.159 7.55248 164.139 7.67184V7.90391C164.139 8.14262 164.139 8.38796 164.139 8.62667V140.633C164.111 141.528 164.22 142.423 164.464 143.285C164.986 145.04 166.089 146.565 167.594 147.608C169.113 148.63 170.924 149.128 172.752 149.027L221.515 149.06L222.139 149.087Z" fill="#263238"/>
<path d="M227.788 13.6528C227.788 13.6528 226.422 13.7258 224.738 13.739C223.054 13.7523 221.688 13.739 221.688 13.6992C221.688 13.6595 223.047 13.6263 224.738 13.613C226.429 13.5998 227.788 13.6197 227.788 13.6528Z" fill="#263238"/>
<path d="M227.801 15.2112C227.801 15.251 226.435 15.2907 224.751 15.304C223.067 15.3173 221.701 15.304 221.701 15.2642C221.701 15.2244 223.06 15.1847 224.751 15.1714C226.442 15.1581 227.801 15.178 227.801 15.2112Z" fill="#263238"/>
<path d="M227.815 16.776C227.815 16.776 226.449 16.8489 224.764 16.8622C223.08 16.8754 221.714 16.8622 221.708 16.8224C221.701 16.7826 223.073 16.7494 224.764 16.7362C226.455 16.7229 227.815 16.7362 227.815 16.776Z" fill="#263238"/>
<path d="M172.288 18.553H172.421H172.772H174.098C174.098 18.2679 174.098 17.9496 174.098 17.6114C174.088 17.4303 174.088 17.2488 174.098 17.0677C174.117 16.9616 174.17 16.8645 174.249 16.7914C174.328 16.7183 174.429 16.6733 174.536 16.6632C174.741 16.6632 174.927 16.6632 175.159 16.6632C175.279 16.6823 175.387 16.7437 175.465 16.8362C175.543 16.9288 175.585 17.0462 175.584 17.1672C175.584 17.6048 175.584 18.0623 175.584 18.5397L175.524 18.4801H177.168L177.109 18.5464C177.109 17.8833 177.109 17.2202 177.109 16.4975C177.109 16.3184 177.109 16.146 177.109 15.9736C177.1 15.8956 177.075 15.8204 177.035 15.7529C176.995 15.6854 176.941 15.6273 176.877 15.5824L176.074 14.8596L175.411 14.1966C175.292 14.0838 175.186 13.9711 175.073 13.8584C174.96 13.7457 174.867 13.6329 174.735 13.6064C174.67 13.5899 174.603 13.5879 174.538 13.6005C174.472 13.6131 174.411 13.6401 174.357 13.6794C174.257 13.7656 174.151 13.8849 174.052 13.9777L173.462 14.5745C173.09 14.9591 172.706 15.3105 172.421 15.6487C172.337 15.8406 172.31 16.052 172.341 16.2587C172.341 16.4643 172.341 16.6566 172.341 16.8356V17.7706C172.341 18.0093 172.341 18.2082 172.341 18.3673C172.347 18.438 172.347 18.5089 172.341 18.5795C172.338 18.5155 172.338 18.4513 172.341 18.3872C172.341 18.2281 172.341 18.0292 172.341 17.7971C172.341 17.565 172.341 17.2136 172.341 16.8555C172.341 16.6699 172.341 16.4776 172.341 16.2654V15.9206C172.338 15.7999 172.368 15.6807 172.427 15.5758C172.732 15.1978 173.09 14.8729 173.468 14.4751L174.052 13.8783C174.158 13.7722 174.244 13.6661 174.37 13.56C174.438 13.5094 174.516 13.4748 174.598 13.4587C174.681 13.4426 174.766 13.4455 174.848 13.4672C175.005 13.5211 175.144 13.6203 175.245 13.7523C175.352 13.8584 175.464 13.9711 175.584 14.0772L176.247 14.7403L176.969 15.4498C177.038 15.5097 177.1 15.5764 177.155 15.6487C177.206 15.7306 177.236 15.8241 177.241 15.9206V16.451C177.241 17.1141 177.241 17.8369 177.241 18.4933V18.5596H177.175H175.531H175.471V18.5C175.471 18.0225 175.471 17.5584 175.471 17.1207C175.474 17.0254 175.441 16.9324 175.38 16.8591C175.319 16.7858 175.234 16.7374 175.139 16.7229C174.954 16.7229 174.728 16.7229 174.543 16.7229C174.457 16.7336 174.378 16.7707 174.315 16.8289C174.252 16.8872 174.208 16.9637 174.191 17.0478C174.181 17.2223 174.181 17.3972 174.191 17.5716V18.553H174.151H172.825H172.361H172.288Z" fill="#263238"/>
<path d="M198.646 109.355C198.712 109.355 198.765 113.294 198.765 118.141C198.765 122.988 198.712 126.933 198.646 126.933C198.579 126.933 198.533 122.995 198.533 118.141C198.533 113.287 198.579 109.355 198.646 109.355Z" fill="#1EA3CD"/>
<path d="M196.358 111.292C196.424 111.292 196.471 114.289 196.471 117.995C196.471 121.702 196.424 124.706 196.358 124.706C196.292 124.706 196.239 121.702 196.239 117.995C196.239 114.289 196.265 111.292 196.358 111.292Z" fill="#1EA3CD"/>
<path d="M193.779 113.208C193.845 113.208 193.898 115.383 193.898 118.062C193.898 120.74 193.845 122.922 193.779 122.922C193.712 122.922 193.666 120.747 193.666 118.062C193.666 115.376 193.712 113.208 193.779 113.208Z" fill="#1EA3CD"/>
<path d="M191.531 114.859C191.65 115.755 191.69 116.661 191.65 117.564C191.69 118.47 191.65 119.378 191.531 120.276C191.38 118.474 191.38 116.662 191.531 114.859Z" fill="#1EA3CD"/>
<path d="M189.548 116.178C189.707 117.164 189.707 118.169 189.548 119.155C189.398 118.169 189.398 117.165 189.548 116.178Z" fill="#1EA3CD"/>
<path d="M187.3 114.594C187.42 115.492 187.46 116.4 187.42 117.306C187.459 118.209 187.42 119.114 187.3 120.011C187.15 118.208 187.15 116.396 187.3 114.594Z" fill="#1EA3CD"/>
<path d="M185.185 112.412C185.251 112.412 185.304 114.693 185.304 117.498C185.304 120.303 185.251 122.59 185.185 122.59C185.119 122.59 185.072 120.309 185.072 117.498C185.072 114.686 185.125 112.412 185.185 112.412Z" fill="#1EA3CD"/>
<path d="M212.007 113.208C212.073 113.208 212.12 115.383 212.12 118.062C212.12 120.74 212.073 122.922 212.007 122.922C211.94 122.922 211.887 120.747 211.887 118.062C211.887 115.376 211.94 113.208 212.007 113.208Z" fill="#1EA3CD"/>
<path d="M209.759 114.859C209.878 115.755 209.918 116.661 209.878 117.564C209.918 118.47 209.878 119.378 209.759 120.276C209.64 119.378 209.6 118.47 209.639 117.564C209.6 116.661 209.64 115.755 209.759 114.859Z" fill="#1EA3CD"/>
<path d="M207.776 116.178C207.935 117.164 207.935 118.169 207.776 119.155C207.617 118.169 207.617 117.164 207.776 116.178Z" fill="#1EA3CD"/>
<path d="M205.548 113.798C205.668 114.963 205.707 116.135 205.668 117.306C205.707 118.474 205.668 119.644 205.548 120.807C205.433 119.643 205.396 118.474 205.436 117.306C205.396 116.135 205.433 114.963 205.548 113.798Z" fill="#1EA3CD"/>
<path d="M203.413 112.412C203.48 112.412 203.533 114.693 203.533 117.498C203.533 120.303 203.48 122.59 203.413 122.59C203.347 122.59 203.301 120.309 203.301 117.498C203.301 114.686 203.347 112.412 203.413 112.412Z" fill="#1EA3CD"/>
<path d="M200.834 111.358C200.9 111.358 200.953 114.255 200.953 117.829C200.953 121.403 200.9 124.308 200.834 124.308C200.768 124.308 200.721 121.41 200.721 117.829C200.721 114.249 200.774 111.358 200.834 111.358Z" fill="#1EA3CD"/>
<path d="M214.407 120.011C214.292 119.114 214.255 118.209 214.294 117.306C214.255 116.4 214.292 115.493 214.407 114.594C214.526 115.492 214.566 116.4 214.526 117.306C214.566 118.209 214.526 119.114 214.407 120.011Z" fill="#1EA3CD"/>
<path d="M216.39 118.691C216.239 117.705 216.239 116.701 216.39 115.714C216.549 116.7 216.549 117.705 216.39 118.691Z" fill="#1EA3CD"/>
<path d="M183.116 114.594C183.236 115.492 183.276 116.4 183.236 117.306C183.275 118.209 183.235 119.114 183.116 120.011C182.966 118.208 182.966 116.396 183.116 114.594Z" fill="#1EA3CD"/>
<path d="M181.134 115.913C181.293 116.899 181.293 117.904 181.134 118.89C180.983 117.904 180.983 116.9 181.134 115.913Z" fill="#1EA3CD"/>
<path d="M179.158 114.594C179.272 115.493 179.31 116.4 179.27 117.306C179.31 118.209 179.272 119.114 179.158 120.011C179.039 119.114 178.999 118.209 179.038 117.306C178.999 116.4 179.038 115.492 179.158 114.594Z" fill="#1EA3CD"/>
<path d="M177.036 112.412C177.102 112.412 177.149 114.693 177.149 117.498C177.149 120.303 177.102 122.59 177.036 122.59C176.97 122.59 176.917 120.309 176.917 117.498C176.917 114.686 176.976 112.412 177.036 112.412Z" fill="#1EA3CD"/>
<path d="M174.974 114.594C175.124 116.396 175.124 118.208 174.974 120.011C174.855 119.114 174.815 118.209 174.854 117.306C174.814 116.4 174.854 115.492 174.974 114.594Z" fill="#1EA3CD"/>
<path d="M172.991 115.913C173.141 116.9 173.141 117.904 172.991 118.89C172.832 117.904 172.832 116.899 172.991 115.913Z" fill="#1EA3CD"/>
<path d="M222.676 114.594C222.795 115.492 222.835 116.4 222.795 117.306C222.835 118.209 222.795 119.114 222.676 120.011C222.561 119.114 222.523 118.209 222.563 117.306C222.523 116.4 222.561 115.493 222.676 114.594Z" fill="#1EA3CD"/>
<path d="M220.56 112.412C220.627 112.412 220.68 114.693 220.68 117.498C220.68 120.303 220.627 122.59 220.56 122.59C220.494 122.59 220.448 120.309 220.448 117.498C220.448 114.686 220.494 112.412 220.56 112.412Z" fill="#1EA3CD"/>
<path d="M218.492 114.594C218.606 115.493 218.644 116.4 218.604 117.306C218.644 118.209 218.606 119.114 218.492 120.011C218.373 119.114 218.333 118.209 218.372 117.306C218.333 116.4 218.372 115.492 218.492 114.594Z" fill="#1EA3CD"/>
<path d="M216.509 115.913C216.659 116.9 216.659 117.904 216.509 118.89C216.35 117.904 216.35 116.899 216.509 115.913Z" fill="#1EA3CD"/>
<path d="M225.262 115.913C225.412 116.9 225.412 117.904 225.262 118.89C225.103 117.904 225.103 116.899 225.262 115.913Z" fill="#1EA3CD"/>
<g opacity="0.3">
<path d="M228.093 71.712C228.093 71.712 228.093 71.5595 228.093 71.2479C228.093 70.9362 228.093 70.4853 228.027 69.9217C227.91 68.1833 227.638 66.4589 227.211 64.7696C226.903 63.5482 226.511 62.3496 226.038 61.1823C225.484 59.7893 224.819 58.4433 224.048 57.1574C222.166 54.0209 219.704 51.2711 216.794 49.0546C213.26 46.3747 209.147 44.5582 204.786 43.7499C201.088 43.0665 197.293 43.1115 193.613 43.8825C192.32 44.161 191.046 44.5243 189.8 44.97C184.492 46.8988 179.877 50.3606 176.539 54.9162C175.669 56.1005 174.893 57.3509 174.218 58.656C173.866 59.3191 173.555 59.9821 173.256 60.6452C172.958 61.3083 172.699 62.0311 172.474 62.7472C171.513 65.6501 171.021 68.6874 171.015 71.7452C171.025 73.2818 171.15 74.8155 171.386 76.3337C171.627 77.8309 171.991 79.3057 172.474 80.7432C172.699 81.4593 172.984 82.1555 173.256 82.8451C173.528 83.5348 173.86 84.2111 174.211 84.8344C174.888 86.1423 175.666 87.3949 176.539 88.5808C179.881 93.1319 184.495 96.5925 189.8 98.527C191.047 98.9652 192.321 99.324 193.613 99.6012C197.294 100.362 201.088 100.408 204.786 99.7338C209.146 98.9214 213.257 97.1052 216.794 94.4292C219.704 92.2126 222.166 89.4628 224.048 86.3263C225.462 83.9558 226.527 81.3944 227.211 78.7208C227.638 77.0292 227.911 75.3026 228.027 73.562C228.08 72.9653 228.073 72.5077 228.093 72.2027C228.113 71.8977 228.093 71.7386 228.093 71.7386V72.2027C228.093 72.5077 228.093 72.9653 228.047 73.562C227.873 76.5649 227.217 79.5203 226.104 82.3147C225.553 83.7133 224.888 85.064 224.115 86.3529C222.234 89.5099 219.77 92.2801 216.854 94.5154C213.307 97.2228 209.177 99.0643 204.792 99.893C201.073 100.578 197.257 100.538 193.553 99.7736C192.251 99.4938 190.968 99.1283 189.714 98.6795C184.376 96.7426 179.733 93.2649 176.373 88.6869C175.493 87.496 174.711 86.2365 174.032 84.9206C173.674 84.2575 173.369 83.5944 173.064 82.8916C172.759 82.1887 172.5 81.4925 172.275 80.7697C171.789 79.3213 171.423 77.8354 171.181 76.3271C170.939 74.7916 170.815 73.2399 170.81 71.6855C170.811 68.6074 171.306 65.5493 172.275 62.6278C172.507 61.9051 172.792 61.2088 173.071 60.506C173.349 59.8031 173.681 59.1334 174.032 58.4769C177.356 52.0915 182.95 47.1826 189.714 44.718C190.968 44.2713 192.251 43.9081 193.553 43.6306C194.82 43.3681 196.102 43.1887 197.392 43.0935C199.865 42.9127 202.35 43.0531 204.786 43.5112C207.061 43.932 209.275 44.6336 211.377 45.5999C213.32 46.4851 215.157 47.5861 216.854 48.8822C219.771 51.1269 222.235 53.906 224.115 57.0712C224.888 58.3623 225.553 59.7152 226.104 61.116C226.572 62.2883 226.96 63.4913 227.264 64.7165C227.686 66.4123 227.948 68.1439 228.047 69.8886C228.093 70.4853 228.08 70.9429 228.093 71.2147V71.712Z" fill="#1EA3CD"/>
</g>
<path d="M224.473 71.0956C224.473 71.0956 224.473 70.963 224.473 70.6978C224.473 70.4325 224.473 70.0347 224.413 69.5241C224.316 68.0226 224.08 66.5332 223.71 65.0748C222.328 59.6722 219.159 54.8957 214.719 51.5215C209.943 47.8912 204.004 46.1362 198.022 46.5882C196.908 46.6619 195.8 46.8148 194.707 47.0457C193.582 47.2858 192.475 47.6004 191.391 47.9873C186.822 49.6543 182.847 52.6349 179.967 56.5542C179.217 57.5747 178.551 58.6547 177.977 59.7835C177.376 60.9234 176.872 62.1124 176.472 63.3376C174.794 68.3734 174.794 73.8178 176.472 78.8536C176.874 80.0771 177.375 81.2658 177.971 82.4078C178.549 83.5342 179.214 84.6139 179.96 85.637C182.839 89.5597 186.814 92.5428 191.385 94.2106C192.468 94.5953 193.576 94.9076 194.7 95.1455C197.874 95.8119 201.147 95.8502 204.335 95.2583C208.097 94.5558 211.644 92.9846 214.692 90.6697C219.136 87.2988 222.305 82.521 223.684 77.1164C224.054 75.658 224.289 74.1686 224.386 72.6671C224.439 72.1565 224.426 71.7587 224.446 71.4935C224.466 71.2282 224.446 71.0956 224.446 71.0956C224.446 71.0956 224.446 71.6393 224.406 72.6737C224.325 74.1787 224.103 75.6728 223.743 77.1363C222.385 82.5698 219.219 87.3798 214.765 90.7758C211.707 93.1188 208.141 94.7089 204.355 95.4174C202.251 95.814 200.105 95.9366 197.969 95.7821C195.705 95.6226 193.473 95.1495 191.338 94.3764C186.731 92.7028 182.721 89.7037 179.814 85.7563C179.067 84.7249 178.402 83.6363 177.825 82.5006C177.216 81.3531 176.708 80.1551 176.306 78.92C174.618 73.845 174.618 68.3595 176.306 63.2845C176.711 62.0483 177.219 60.8483 177.825 59.6973C178.411 58.5621 179.088 57.4756 179.847 56.4482C182.75 52.4999 186.758 49.5003 191.365 47.8281C192.449 47.4451 193.557 47.1306 194.68 46.8865C195.774 46.6573 196.881 46.5045 197.996 46.429C200.129 46.2688 202.273 46.3892 204.375 46.7871C208.162 47.4979 211.73 49.0877 214.792 51.4286C217.307 53.3586 219.433 55.7482 221.058 58.4706C222.278 60.5378 223.192 62.7714 223.77 65.1014C224.13 66.567 224.352 68.0633 224.433 69.5705C224.486 70.5585 224.473 71.0956 224.473 71.0956Z" fill="#1EA3CD"/>
<path d="M199.501 92.0224C210.718 92.0224 219.811 82.9292 219.811 71.7123C219.811 60.4953 210.718 51.4021 199.501 51.4021C188.284 51.4021 179.191 60.4953 179.191 71.7123C179.191 82.9292 188.284 92.0224 199.501 92.0224Z" fill="#1EA3CD"/>
<path d="M199.547 65.5454H199.402C197.959 65.5454 196.789 66.7151 196.789 68.1579V71.4535C196.789 72.8963 197.959 74.066 199.402 74.066H199.547C200.99 74.066 202.16 72.8963 202.16 71.4535V68.1579C202.16 66.7151 200.99 65.5454 199.547 65.5454Z" fill="#FAFAFA"/>
<path d="M199.468 75.6973C198.413 75.6973 197.401 75.2782 196.655 74.5321C195.908 73.786 195.489 72.774 195.489 71.7189C195.489 71.6696 195.509 71.6224 195.544 71.5876C195.578 71.5528 195.626 71.5332 195.675 71.5332C195.724 71.5349 195.77 71.555 195.804 71.5894C195.839 71.6239 195.859 71.6701 195.861 71.7189C195.862 72.6686 196.24 73.579 196.911 74.2512C197.582 74.9234 198.492 75.3026 199.441 75.3061C199.918 75.3278 200.394 75.2499 200.839 75.0773C201.284 74.9047 201.688 74.6412 202.026 74.3037C202.364 73.9661 202.627 73.5619 202.8 73.1169C202.972 72.6719 203.05 72.1957 203.028 71.7189C203.028 71.6696 203.048 71.6224 203.083 71.5876C203.118 71.5528 203.165 71.5332 203.214 71.5332C203.263 71.5332 203.311 71.5528 203.345 71.5876C203.38 71.6224 203.4 71.6696 203.4 71.7189C203.427 72.2445 203.344 72.7701 203.157 73.262C202.969 73.7539 202.682 74.2013 202.312 74.5757C201.942 74.95 201.498 75.2431 201.008 75.4363C200.518 75.6294 199.994 75.7183 199.468 75.6973Z" fill="#FAFAFA"/>
<path d="M199.654 75.5049H199.282V77.4477H199.654V75.5049Z" fill="white"/>
<path d="M201.815 77.554H197.127C197.083 77.5457 197.043 77.5223 197.015 77.4878C196.986 77.4533 196.97 77.4098 196.97 77.365C196.97 77.3202 196.986 77.2768 197.015 77.2422C197.043 77.2077 197.083 77.1843 197.127 77.176H201.815C201.859 77.1843 201.899 77.2077 201.928 77.2422C201.956 77.2768 201.972 77.3202 201.972 77.365C201.972 77.4098 201.956 77.4533 201.928 77.4878C201.899 77.5223 201.859 77.5457 201.815 77.554Z" fill="white"/>
<path d="M195.542 67.0971C195.542 67.1501 195.237 67.0506 194.879 66.9048C194.521 66.7589 194.269 66.6263 194.289 66.5732C194.309 66.5202 194.607 66.5732 194.952 66.7257C195.297 66.8782 195.602 67.0506 195.542 67.0971Z" fill="white"/>
<path d="M197.054 65.0947C197.008 65.0947 196.769 64.8692 196.511 64.5178C196.252 64.1664 196.08 63.8547 196.126 63.8547C196.172 63.8547 196.411 64.0802 196.67 64.4316C196.928 64.7831 197.101 65.0615 197.054 65.0947Z" fill="white"/>
<path d="M199.481 64.3719C199.428 64.3719 199.388 64.047 199.395 63.6359C199.402 63.2248 199.448 62.8999 199.501 62.8999C199.59 63.1343 199.62 63.3872 199.587 63.6359C199.581 64.0404 199.541 64.3653 199.481 64.3719Z" fill="white"/>
<path d="M202.604 63.848C202.644 63.848 202.531 64.153 202.313 64.4447C202.094 64.7365 201.855 64.9222 201.815 64.889C201.775 64.8559 201.941 64.6105 202.153 64.3254C202.366 64.0403 202.551 63.8148 202.604 63.848Z" fill="white"/>
<path d="M204.693 66.381C204.693 66.4274 204.474 66.6197 204.136 66.812C203.798 67.0043 203.513 67.117 203.473 67.0706C203.433 67.0242 203.692 66.8319 204.03 66.6396C204.368 66.4473 204.666 66.3346 204.693 66.381Z" fill="white"/>
<path d="M211.894 15.9273C211.894 16.0201 206.967 16.0997 200.887 16.0997C194.806 16.0997 189.886 16.0201 189.886 15.9273C189.886 15.8345 194.813 15.7549 200.887 15.7549C206.961 15.7549 211.894 15.8345 211.894 15.9273Z" fill="#263238"/>
<path d="M234.764 28.9767C234.764 29.0762 219.015 29.1557 199.587 29.1557C180.159 29.1557 164.437 29.0762 164.437 28.9767C164.437 28.8773 180.152 28.7844 199.581 28.7844C219.009 28.7844 234.764 28.8839 234.764 28.9767Z" fill="#263238"/>
<path d="M190.815 274.834C190.815 274.834 177.294 259.271 172.195 243.715C167.096 228.159 169.543 229.936 169.543 229.936C169.543 229.936 176.426 245.055 181.658 252.355C186.889 259.656 196.199 270.371 196.199 270.371L190.815 274.834Z" fill="#455A64"/>
<path d="M193.507 232.35C193.416 232.191 193.272 232.069 193.1 232.004C192.928 231.94 192.74 231.937 192.566 231.997C192.393 232.057 192.246 232.175 192.15 232.331C192.054 232.488 192.016 232.672 192.042 232.854C192.864 238.318 194.647 251.142 194.574 259.463C194.488 270.265 194.574 274.442 194.574 274.442H200.244C200.244 274.442 199.243 252.103 197.969 245.267C197.048 240.532 195.151 235.228 193.507 232.35Z" fill="#455A64"/>
<path d="M196.577 272.639C198.939 267.298 200.503 261.639 201.218 255.843C201.683 251.864 200.854 246.487 199.627 239.312C199.151 236.687 198.914 234.024 198.918 231.355C198.905 231.051 198.998 230.751 199.181 230.507C199.364 230.262 199.625 230.089 199.921 230.015C200.217 229.941 200.529 229.971 200.806 230.1C201.082 230.23 201.305 230.451 201.437 230.725C202.1 231.939 204.09 236.077 204.58 238.682C205.94 245.771 207.485 249.292 206.304 256.029C205.124 262.766 200.768 273.103 200.768 273.103L196.577 272.639Z" fill="#455A64"/>
<path d="M201.643 273.096C201.643 273.096 216.489 241.195 217.517 236.468C218.545 231.74 222.039 220.826 222.45 221.442C222.861 222.059 223.485 227.821 220.806 234.406C218.127 240.99 206.709 274.064 206.709 274.064H201.643" fill="#455A64"/>
<path d="M194.939 271.671C194.793 271.586 194.654 271.491 194.521 271.386C194.256 271.18 193.858 270.902 193.368 270.504C191.982 269.399 190.654 268.224 189.389 266.983C185.209 262.869 181.588 258.223 178.621 253.164C175.66 248.11 173.198 242.78 171.267 237.25C170.524 235.135 169.981 233.398 169.623 232.198C169.444 231.594 169.318 231.123 169.231 230.805C169.177 230.646 169.14 230.481 169.119 230.314C169.186 230.468 169.244 230.625 169.291 230.785C169.404 231.13 169.556 231.581 169.742 232.158C170.133 233.351 170.71 235.069 171.479 237.177C173.466 242.669 175.947 247.969 178.892 253.012C181.855 258.046 185.437 262.688 189.555 266.83C191.14 268.408 192.499 269.609 193.46 270.418C193.938 270.829 194.322 271.12 194.574 271.339C194.706 271.439 194.828 271.55 194.939 271.671Z" fill="#263238"/>
<path d="M196.577 256.367C196.499 256.061 196.452 255.747 196.438 255.432C196.371 254.769 196.278 253.907 196.166 252.872C195.934 250.717 195.562 247.74 195.038 244.471C194.515 241.202 193.931 238.258 193.474 236.136L192.937 233.623C192.847 233.319 192.792 233.005 192.771 232.688C192.888 232.981 192.984 233.283 193.056 233.59C193.222 234.18 193.44 235.029 193.719 236.083C194.23 238.198 194.853 241.143 195.383 244.418C195.914 247.694 196.239 250.684 196.418 252.853C196.504 253.933 196.564 254.842 196.59 255.419C196.61 255.735 196.606 256.052 196.577 256.367Z" fill="#263238"/>
<path d="M200.052 230.48C200.116 230.612 200.174 230.747 200.224 230.885C200.337 231.19 200.489 231.548 200.668 232.072C200.847 232.595 201.093 233.219 201.331 233.975C201.57 234.731 201.842 235.566 202.054 236.528C202.173 237.005 202.293 237.502 202.425 238.026C202.558 238.55 202.638 239.1 202.75 239.671C202.996 240.798 203.141 242.031 203.321 243.317C204 248.935 203.797 254.625 202.717 260.18C202.445 261.453 202.207 262.666 201.888 263.78C201.729 264.337 201.603 264.881 201.444 265.391L200.967 266.863C200.688 267.805 200.337 268.627 200.065 269.357C199.793 270.086 199.528 270.683 199.296 271.207L198.765 272.354C198.709 272.493 198.64 272.626 198.56 272.752C198.599 272.609 198.648 272.47 198.705 272.334L199.183 271.16C199.395 270.656 199.647 270.033 199.899 269.297C200.151 268.561 200.489 267.739 200.754 266.791C200.9 266.326 201.053 265.836 201.205 265.325C201.358 264.815 201.484 264.271 201.63 263.714C201.941 262.6 202.167 261.393 202.432 260.127C203.467 254.596 203.671 248.941 203.035 243.351C202.863 242.071 202.724 240.844 202.492 239.717C202.386 239.153 202.299 238.596 202.187 238.079C202.074 237.562 201.948 237.058 201.835 236.581C201.636 235.619 201.371 234.777 201.172 234.021C200.973 233.265 200.768 232.629 200.589 232.111C200.41 231.594 200.297 231.216 200.197 230.911C200.131 230.774 200.082 230.629 200.052 230.48Z" fill="#263238"/>
<path d="M222.284 222.086C222.292 222.134 222.292 222.183 222.284 222.232C222.284 222.344 222.245 222.477 222.218 222.643C222.152 223.007 222.072 223.544 221.926 224.234C221.641 225.607 221.164 227.549 220.421 229.976C219.679 232.403 218.664 235.182 217.464 238.265C216.264 241.348 214.871 244.717 213.558 248.304C212.245 251.891 211.184 255.366 210.243 258.535C209.301 261.705 208.373 264.549 207.498 266.897C206.817 268.758 206.033 270.58 205.15 272.354C204.845 272.984 204.574 273.455 204.395 273.779L204.189 274.144C204.168 274.188 204.142 274.228 204.109 274.263C204.109 274.263 204.109 274.217 204.162 274.131L204.341 273.746C204.501 273.415 204.753 272.937 205.038 272.294C205.878 270.507 206.629 268.679 207.286 266.817C208.134 264.47 209.023 261.625 209.938 258.449C210.853 255.273 211.927 251.778 213.253 248.191C214.579 244.604 215.972 241.242 217.185 238.159C218.399 235.075 219.433 232.291 220.196 229.903C220.958 227.516 221.475 225.567 221.8 224.208C221.96 223.544 222.066 222.987 222.152 222.629C222.185 222.47 222.218 222.331 222.245 222.225C222.251 222.177 222.265 222.13 222.284 222.086Z" fill="#263238"/>
<path d="M176.512 215.044C176.308 214.838 176.04 214.708 175.752 214.676C175.465 214.643 175.174 214.71 174.929 214.864C174.685 215.019 174.5 215.252 174.405 215.526C174.311 215.799 174.313 216.097 174.41 216.37C174.917 218.01 175.54 219.612 176.273 221.164C178.316 225.5 184.31 241.056 187.115 249.61C189.92 258.164 193.872 274.091 193.872 274.091L199.839 273.123C199.839 273.123 194.356 246.931 189.005 237.489C184.721 229.883 180.418 218.923 176.512 215.044Z" fill="#455A64"/>
<path d="M188.752 254.895C188.882 255.124 188.986 255.366 189.064 255.618C189.243 256.088 189.482 256.771 189.727 257.607C190.278 259.318 190.954 261.705 191.637 264.357C192.32 267.009 192.877 269.423 193.275 271.173L193.726 273.249C193.797 273.499 193.837 273.758 193.845 274.018C193.739 273.78 193.659 273.531 193.606 273.275L193.056 271.226C192.598 269.423 191.995 267.056 191.325 264.437C190.655 261.817 189.999 259.397 189.515 257.673L188.918 255.637C188.84 255.396 188.785 255.147 188.752 254.895Z" fill="#263238"/>
<path d="M196.882 273.58C196.882 273.58 196.882 273.527 196.849 273.421C196.816 273.315 196.809 273.143 196.782 272.951C196.716 272.533 196.663 271.923 196.537 271.134C196.318 269.562 195.927 267.294 195.284 264.503C194.513 261.268 193.577 258.074 192.479 254.935C191.246 251.387 189.707 247.548 187.957 243.576C184.436 235.652 180.915 228.617 178.601 223.418C177.427 220.819 176.525 218.704 175.948 217.225C175.643 216.489 175.425 215.899 175.285 215.521L175.12 215.077C175.097 215.026 175.081 214.973 175.073 214.918C175.105 214.963 175.132 215.012 175.153 215.064C175.199 215.176 175.266 215.322 175.345 215.501C175.524 215.906 175.763 216.469 176.074 217.179C176.704 218.638 177.639 220.74 178.833 223.326C181.2 228.498 184.754 235.513 188.282 243.45C190.032 247.429 191.597 251.274 192.784 254.842C193.879 257.993 194.795 261.203 195.529 264.456C196.032 266.645 196.419 268.858 196.69 271.087C196.802 271.876 196.836 272.493 196.882 272.911C196.882 273.103 196.882 273.262 196.915 273.388C196.917 273.454 196.906 273.519 196.882 273.58Z" fill="#263238"/>
<path d="M199.866 273.096C199.773 272.766 199.707 272.429 199.667 272.089L199.196 269.337C198.785 267.016 198.155 263.813 197.247 260.332C196.338 256.851 195.337 253.754 194.561 251.526C194.176 250.452 193.865 249.57 193.626 248.874C193.493 248.559 193.387 248.233 193.308 247.899C193.475 248.197 193.619 248.508 193.739 248.828C193.997 249.438 194.356 250.326 194.773 251.434C195.858 254.314 196.785 257.252 197.552 260.233C198.328 263.214 198.952 266.233 199.421 269.277C199.587 270.444 199.72 271.392 199.786 272.049C199.841 272.395 199.868 272.746 199.866 273.096Z" fill="#263238"/>
<path d="M212.159 272.234H188.772V300.727H212.159V272.234Z" fill="#1EA3CD"/>
<g opacity="0.3">
<path d="M212.159 272.234H188.772V300.727H212.159V272.234Z" fill="black"/>
</g>
<path d="M204.7 272.234H183.952V300.727H204.7V272.234Z" fill="#1EA3CD"/>
<path d="M86.194 46.4885L80.5445 47.8744C77.7655 52.0812 73.5136 55.0964 68.6244 56.3276C63.7352 57.5588 58.5623 56.9168 54.1224 54.5279C49.6824 52.139 46.2965 48.1759 44.63 43.4174C42.9636 38.659 43.1371 33.4493 45.1165 28.8123C47.0959 24.1752 50.738 20.4462 55.3271 18.358C59.9161 16.2698 65.1202 15.9735 69.9167 17.5272C74.7131 19.081 78.755 22.3725 81.248 26.7549C83.7409 31.1372 84.5047 36.2936 83.3892 41.2104L86.194 46.4885Z" fill="#FAFAFA"/>
<path d="M86.1939 46.4886C86.1939 46.4886 86.1209 46.3692 85.995 46.1372L85.438 45.1293C84.9539 44.2275 84.2444 42.9279 83.3294 41.237H83.4487C83.4357 41.2478 83.4192 41.2537 83.4023 41.2537C83.3854 41.2537 83.369 41.2478 83.3559 41.237C83.3414 41.23 83.3297 41.2184 83.3225 41.204C83.3153 41.1896 83.313 41.1732 83.3161 41.1574C84.0272 37.9459 83.9453 34.6094 83.0774 31.4367C82.8001 30.4424 82.4454 29.4713 82.0165 28.5324C81.8043 28.0417 81.5192 27.5709 81.2672 27.0736C81.1346 26.8349 81.0219 26.5763 80.8627 26.3442L80.3919 25.6347C77.5286 21.3271 73.1001 18.3042 68.0454 17.207C65.2055 16.5867 62.2652 16.5867 59.4253 17.207C56.3355 17.8902 53.4515 19.2955 51.0093 21.3078C48.5671 23.3201 46.6362 25.8822 45.3747 28.7843C45.2221 29.1689 45.0497 29.5469 44.9039 29.9315L44.5392 31.1051L44.3535 31.6953L44.2275 32.292L43.9756 33.4856C43.7257 35.073 43.6634 36.6843 43.7899 38.2863C44.1283 42.4409 45.7513 46.3872 48.4339 49.5777C51.1165 52.7682 54.7256 55.0446 58.7604 56.0912C62.7953 57.1379 67.0558 56.9027 70.951 55.4185C74.8462 53.9342 78.1828 51.2744 80.498 47.8081C80.511 47.8041 80.5249 47.8041 80.5378 47.8081L84.7218 46.8268L85.8159 46.5748L86.2005 46.4952C86.2005 46.4952 86.0878 46.535 85.8491 46.5947L84.7815 46.8732L80.571 47.9474H80.6107C78.7911 50.7201 76.3124 52.9983 73.3964 54.5782C70.0557 56.3809 66.2773 57.2132 62.4884 56.9811C58.6994 56.7491 55.0509 55.4618 51.9551 53.2649C48.8594 51.0679 46.4399 48.0488 44.97 44.5489C43.5001 41.0489 43.0385 37.2076 43.6374 33.4591L43.8893 32.239L44.022 31.629L44.2076 31.0388L44.579 29.8386C44.7248 29.4474 44.8972 29.0628 45.0564 28.6716C46.3383 25.7167 48.3022 23.1077 50.7872 21.0584C53.2722 19.0091 56.2074 17.5779 59.3524 16.8821C62.2424 16.2591 65.2331 16.2704 68.1183 16.9152C73.2406 18.0401 77.721 21.1213 80.6041 25.5021L81.0815 26.2249C81.2407 26.4636 81.3534 26.7222 81.486 26.9675C81.7446 27.4714 82.0231 27.9489 82.2419 28.4462C82.6661 29.3999 83.0185 30.384 83.2962 31.3903C84.1603 34.6067 84.2173 37.9867 83.462 41.2304L83.3294 41.1773C83.3329 41.1687 83.3382 41.161 83.3449 41.1545C83.3517 41.1481 83.3596 41.1432 83.3684 41.1401C83.3772 41.1369 83.3865 41.1357 83.3957 41.1364C83.405 41.1371 83.414 41.1398 83.4222 41.1442C83.4245 41.1551 83.4245 41.1664 83.4222 41.1773L85.4778 45.1558L85.995 46.1637L86.1939 46.4886Z" fill="#263238"/>
<path d="M69.8755 37.3447C69.8755 37.7381 69.9922 38.1227 70.2107 38.4499C70.4293 38.777 70.74 39.032 71.1035 39.1825C71.467 39.3331 71.8669 39.3725 72.2528 39.2957C72.6387 39.219 72.9931 39.0295 73.2713 38.7513C73.5495 38.4731 73.739 38.1187 73.8157 37.7328C73.8925 37.3469 73.8531 36.9469 73.7025 36.5835C73.552 36.22 73.297 35.9093 72.9699 35.6907C72.6428 35.4721 72.2582 35.3555 71.8647 35.3555C71.3371 35.3555 70.8312 35.565 70.4581 35.9381C70.0851 36.3112 69.8755 36.8171 69.8755 37.3447Z" fill="#263238"/>
<path d="M61.9849 37.3447C61.9849 37.7381 62.1015 38.1227 62.3201 38.4499C62.5387 38.777 62.8494 39.032 63.2129 39.1825C63.5763 39.3331 63.9763 39.3725 64.3622 39.2957C64.7481 39.219 65.1025 39.0295 65.3807 38.7513C65.6589 38.4731 65.8484 38.1187 65.9251 37.7328C66.0019 37.3469 65.9625 36.9469 65.8119 36.5835C65.6614 36.22 65.4064 35.9093 65.0793 35.6907C64.7521 35.4721 64.3675 35.3555 63.9741 35.3555C63.4465 35.3555 62.9406 35.565 62.5675 35.9381C62.1944 36.3112 61.9849 36.8171 61.9849 37.3447Z" fill="#263238"/>
<path d="M54.114 36.3633C53.9136 36.7037 53.819 37.096 53.8423 37.4903C53.8657 37.8846 54.0058 38.263 54.245 38.5773C54.4842 38.8917 54.8115 39.1277 55.1853 39.2553C55.5591 39.3829 55.9624 39.3964 56.3439 39.294C56.7254 39.1916 57.0677 38.9779 57.3273 38.6802C57.5869 38.3826 57.752 38.0143 57.8016 37.6225C57.8512 37.2306 57.783 36.8329 57.6057 36.4799C57.4284 36.127 57.1501 35.8348 56.8061 35.6406C56.3522 35.3843 55.8158 35.3164 55.3123 35.4516C54.8088 35.5868 54.3786 35.9142 54.114 36.3633Z" fill="#263238"/>
<path d="M78.88 169.251H71.7983V300.727H78.88V169.251Z" fill="#455A64"/>
<path d="M78.9 300.727C78.9 300.727 78.9 300.495 78.9 300.064C78.9 299.633 78.9 298.95 78.9 298.075C78.9 296.331 78.9 293.765 78.9 290.462C78.9 283.832 78.9 274.283 78.847 262.427C78.847 238.736 78.8072 205.887 78.7807 169.265L78.9531 169.437H71.7985L71.9709 169.265C71.9178 231.156 71.8648 283.54 71.8515 300.74L71.7985 300.687H77.1031H78.4293H78.9H78.4757H77.1495H71.7852H71.7321V300.634C71.7321 283.434 71.6725 231.05 71.6128 169.158V168.986H79.0459V169.158C79.0128 205.833 78.9929 238.722 78.973 262.447C78.973 274.29 78.9332 283.845 78.9199 290.443C78.9199 293.758 78.9199 296.278 78.9199 298.015C78.9199 298.87 78.9199 299.527 78.9199 300.004C78.9199 300.482 78.9 300.727 78.9 300.727Z" fill="#263238"/>
<path d="M246.898 166.937H76.9639V195.396H246.898V166.937Z" fill="#455A64"/>
<path d="M246.911 195.423H76.9504V166.911H246.911V195.423ZM76.9836 195.39H246.878V166.957H76.9836V195.39Z" fill="#263238"/>
<path d="M242.674 172.056H83.1106V191.266H242.674V172.056Z" fill="#455A64"/>
<path d="M242.681 191.239C242.681 191.239 242.681 190.815 242.681 189.986C242.681 189.157 242.681 187.924 242.681 186.306C242.681 183.07 242.681 178.276 242.634 172.036L242.714 172.109L83.1569 172.209L83.3293 172.036V191.266L83.1569 191.093L196.544 191.166L230.361 191.219H239.505H241.878H242.701H241.905H239.551H230.44L196.67 191.272L83.137 191.345H82.9646V171.89H83.1436L242.681 172.01H242.754V172.089C242.754 178.349 242.721 183.156 242.714 186.405C242.714 188.019 242.714 189.239 242.714 190.065C242.681 190.861 242.681 191.239 242.681 191.239Z" fill="#263238"/>
<path d="M253.98 166.937H246.898V300.727H253.98V166.937Z" fill="#455A64"/>
<path d="M253.953 300.727C253.953 300.727 253.953 300.488 253.953 300.031C253.953 299.573 253.953 298.897 253.953 298.041C253.953 296.264 253.953 293.658 253.953 290.296C253.953 283.566 253.92 273.832 253.9 261.784C253.9 237.674 253.86 204.249 253.827 166.964L254 167.136H246.898L247.07 166.964C247.011 230.022 246.964 283.374 246.951 300.747L246.898 300.7H252.236H253.562H253.953H253.535H252.209H246.845H246.792V300.647C246.792 283.274 246.726 229.923 246.673 166.864V166.692H254.099V166.864C254.099 204.176 254.046 237.641 254.026 261.791C254.026 273.839 253.986 283.56 253.98 290.303C253.98 293.618 253.98 296.271 253.98 298.008C253.98 298.883 253.98 299.546 253.98 299.997C253.98 300.448 253.953 300.727 253.953 300.727Z" fill="#263238"/>
<path d="M276.896 161.082H44.4993V169.251H276.896V161.082Z" fill="#455A64"/>
<path d="M276.896 161.082C276.896 161.082 276.896 161.745 276.896 163.071C276.896 164.397 276.896 166.466 276.896 169.271V169.311H276.849L44.4662 169.444H44.2805V160.91H44.4529L209.169 160.983L258.754 161.036H272.188H275.676H276.849H275.649H272.141H258.668L209.043 161.089L44.4529 161.162L44.6253 160.989V169.158L44.4529 168.986L276.836 169.112L276.796 169.158C276.883 163.701 276.896 161.4 276.896 161.082Z" fill="#263238"/>
<path d="M167.01 181.664C167.01 182.479 166.769 183.275 166.316 183.952C165.864 184.629 165.221 185.157 164.468 185.468C163.716 185.78 162.888 185.862 162.089 185.703C161.29 185.544 160.557 185.152 159.981 184.576C159.405 184 159.013 183.266 158.854 182.467C158.695 181.669 158.776 180.841 159.088 180.088C159.4 179.336 159.928 178.693 160.605 178.24C161.282 177.788 162.078 177.546 162.892 177.546C163.984 177.546 165.032 177.98 165.804 178.752C166.576 179.525 167.01 180.572 167.01 181.664Z" fill="#455A64"/>
<path d="M167.01 181.664C166.97 181.664 167.01 181.299 166.818 180.676C166.568 179.8 166.037 179.031 165.306 178.488C164.774 178.09 164.15 177.831 163.492 177.737C162.834 177.642 162.163 177.713 161.54 177.944C160.805 178.213 160.167 178.695 159.71 179.33C159.224 180.006 158.963 180.818 158.963 181.651C158.963 182.483 159.224 183.295 159.71 183.972C160.167 184.606 160.805 185.089 161.54 185.357C162.164 185.584 162.834 185.654 163.491 185.559C164.148 185.464 164.772 185.208 165.306 184.814C166.037 184.271 166.568 183.501 166.818 182.625C166.984 182.002 166.97 181.637 167.01 181.637C167.05 181.637 167.01 181.724 167.01 181.903C167.013 182.157 166.984 182.411 166.924 182.659C166.718 183.59 166.192 184.421 165.439 185.006C164.809 185.491 164.055 185.791 163.264 185.87C162.473 185.949 161.675 185.805 160.961 185.454C160.248 185.103 159.646 184.559 159.226 183.884C158.806 183.209 158.583 182.43 158.583 181.634C158.583 180.839 158.806 180.059 159.226 179.384C159.646 178.709 160.248 178.165 160.961 177.814C161.675 177.463 162.473 177.319 163.264 177.398C164.055 177.478 164.809 177.777 165.439 178.262C166.193 178.85 166.718 179.683 166.924 180.616C166.984 180.864 167.013 181.118 167.01 181.372C167.03 181.571 167.023 181.664 167.01 181.664Z" fill="#263238"/>
<path d="M137.682 23.4798C137.036 22.0411 136.104 20.7486 134.944 19.6804C134.361 19.1593 133.674 18.7694 132.928 18.5372C132.182 18.3049 131.395 18.2358 130.62 18.3343C129.837 18.4533 129.116 18.827 128.567 19.3976C128.018 19.9681 127.672 20.7038 127.583 21.4906L126.449 21.915C128.724 23.1483 130.083 25.5619 131.091 27.9424C132.099 30.3228 132.165 32.5839 133.79 34.613C134.963 32.9752 136.376 31.2246 136.442 29.2155C137.134 30.402 137.369 31.7998 137.105 33.1476C137.78 32.5838 138.314 31.8712 138.666 31.0657C139.018 30.2602 139.179 29.3839 139.134 28.506C139.028 26.7438 138.532 25.0272 137.682 23.4798Z" fill="#263238"/>
<path d="M129.022 19.5676C127.815 14.2629 120.946 13.5999 116.556 13.7855C112.167 13.9712 108.075 16.2655 105.065 19.3819C102.055 22.4984 99.9992 26.3841 98.3149 30.3426L101.498 30.7206C101.048 30.7009 100.604 30.8298 100.235 31.0875C99.866 31.3452 99.592 31.7172 99.4554 32.1462C99.2133 33.0111 99.1905 33.9227 99.3891 34.7985C99.6788 36.9281 100.133 39.0319 100.748 41.0912C102.439 46.4555 105.755 51.1634 109.017 55.785C109.786 51.5811 108.944 47.2711 107.969 43.1136C107.625 41.6349 107.267 40.0634 107.797 38.6378C108.364 37.3699 109.36 36.3418 110.608 35.7335C111.815 35.0704 113.141 34.5797 114.342 33.8901C115.677 33.1221 116.844 32.0927 117.773 30.8634C118.701 29.6341 119.372 28.2301 119.746 26.7355L129.022 19.5676Z" fill="#263238"/>
<path d="M105.854 34.6793L108.122 66.5801C108.506 71.9975 110.177 79.8815 118.731 78.8802C126.078 77.4546 127.457 70.2602 127.093 65.2141C126.92 62.8204 126.781 60.8179 126.774 60.5726C126.774 60.5726 134.837 59.2464 134.851 51.1568C134.851 47.2579 134.188 39.2214 133.524 31.9607C133.178 28.1992 131.428 24.706 128.623 22.1762C125.818 19.6463 122.163 18.2653 118.386 18.3078H117.611C109.242 18.8383 105.045 26.3112 105.854 34.6793Z" fill="#FFBE9D"/>
<path d="M126.761 60.5394C123.035 60.5683 119.378 59.5281 116.225 57.5422C116.225 57.5422 118.877 63.4105 126.894 62.5949L126.761 60.5394Z" fill="#EB996E"/>
<path d="M120.117 36.3568C119.971 36.5359 118.983 35.8662 117.637 35.9457C116.291 36.0253 115.343 36.7613 115.19 36.6088C115.038 36.4563 115.257 36.2242 115.668 35.8861C116.222 35.4376 116.905 35.1795 117.617 35.15C118.32 35.1132 119.017 35.3014 119.606 35.6871C120.011 35.9855 120.19 36.2839 120.117 36.3568Z" fill="#263238"/>
<path d="M120.296 39.659C120.301 39.9436 120.196 40.2192 120.001 40.4272C119.807 40.6352 119.539 40.7592 119.255 40.7729C119.116 40.7847 118.976 40.7687 118.844 40.7259C118.712 40.683 118.589 40.6142 118.483 40.5235C118.378 40.4327 118.291 40.3219 118.229 40.1973C118.167 40.0728 118.13 39.9371 118.121 39.7982C118.114 39.5138 118.219 39.238 118.414 39.0307C118.609 38.8234 118.878 38.7013 119.162 38.6909C119.3 38.6782 119.44 38.6933 119.572 38.7354C119.705 38.7775 119.827 38.8456 119.933 38.9358C120.039 39.0261 120.125 39.1365 120.188 39.2607C120.25 39.3849 120.287 39.5203 120.296 39.659Z" fill="#263238"/>
<path d="M124.261 45.4212C124.905 45.2095 125.574 45.0803 126.25 45.0366C126.569 44.9968 126.867 44.9305 126.913 44.7117C126.938 44.3849 126.862 44.0586 126.695 43.7767C126.39 43.0142 126.071 42.2118 125.733 41.3764C124.407 37.9549 123.426 35.1434 123.565 35.0904C123.704 35.0373 124.891 37.7427 126.217 41.1907C126.536 42.0328 126.88 42.8351 127.139 43.6043C127.34 43.9847 127.401 44.4235 127.311 44.8443C127.267 44.9562 127.199 45.0568 127.11 45.1383C127.022 45.2199 126.916 45.2803 126.801 45.3151C126.625 45.3605 126.445 45.3872 126.264 45.3946C125.6 45.4825 124.927 45.4914 124.261 45.4212Z" fill="#263238"/>
<path d="M119.122 31.3572C119.016 31.6689 117.922 31.5363 116.642 31.7087C115.363 31.8811 114.328 32.2524 114.156 31.9805C114.076 31.8479 114.255 31.5562 114.666 31.2578C115.216 30.8876 115.845 30.6516 116.503 30.5687C117.16 30.4858 117.828 30.5583 118.453 30.7804C118.93 30.9727 119.169 31.2114 119.122 31.3572Z" fill="#263238"/>
<path d="M132.079 32.7628C131.96 33.0148 130.892 32.8358 129.619 32.9021C128.346 32.9684 127.305 33.2204 127.152 32.975C127.079 32.8623 127.272 32.6236 127.696 32.3981C128.273 32.1077 128.907 31.947 129.553 31.9274C130.202 31.8921 130.85 31.9961 131.456 32.2324C131.946 32.4446 132.132 32.6634 132.079 32.7628Z" fill="#263238"/>
<path d="M106.577 40.6468C106.438 40.5938 101.014 39.0687 101.272 44.5789C101.531 50.0891 107.001 48.7231 107.001 48.5574C107.001 48.3916 106.577 40.6468 106.577 40.6468Z" fill="#FFBE9D"/>
<path d="M105.204 46.5483C105.204 46.5483 105.105 46.6212 104.946 46.7008C104.722 46.8075 104.465 46.8241 104.229 46.7472C103.639 46.5549 103.109 45.6531 103.043 44.6585C103.006 44.187 103.076 43.7133 103.248 43.2727C103.294 43.0979 103.381 42.9366 103.502 42.8027C103.623 42.6687 103.775 42.5661 103.944 42.5035C104.053 42.4702 104.17 42.4757 104.276 42.5193C104.381 42.5628 104.468 42.6417 104.521 42.7422C104.601 42.8947 104.568 43.0075 104.601 43.0141C104.634 43.0207 104.714 42.9146 104.66 42.6892C104.623 42.5555 104.541 42.4385 104.428 42.3576C104.352 42.3023 104.264 42.2632 104.172 42.2427C104.08 42.2221 103.984 42.2206 103.891 42.2383C103.666 42.2901 103.458 42.4 103.288 42.557C103.118 42.7141 102.992 42.9128 102.923 43.1334C102.71 43.6214 102.619 44.154 102.658 44.6851C102.738 45.799 103.321 46.8135 104.157 47.0058C104.307 47.0428 104.463 47.0459 104.614 47.015C104.766 46.984 104.908 46.9197 105.032 46.8268C105.198 46.6876 105.217 46.5549 105.204 46.5483Z" fill="#EB996E"/>
<path d="M132.397 35.8395C132.251 36.0185 131.263 35.3488 129.917 35.4284C128.571 35.508 127.623 36.244 127.471 36.0915C127.318 35.939 127.537 35.7069 127.948 35.3687C128.502 34.9202 129.185 34.6621 129.897 34.6327C130.601 34.5959 131.297 34.784 131.887 35.1698C132.311 35.4682 132.47 35.7666 132.397 35.8395Z" fill="#263238"/>
<path d="M131.389 39.3008C131.396 39.5842 131.292 39.859 131.099 40.0661C130.905 40.2733 130.638 40.3961 130.355 40.4082C130.216 40.4218 130.076 40.4073 129.944 40.3656C129.811 40.3239 129.688 40.2558 129.582 40.1654C129.476 40.075 129.389 39.9642 129.327 39.8395C129.265 39.7149 129.229 39.579 129.221 39.4401C129.215 39.1565 129.32 38.8819 129.513 38.6741C129.706 38.4663 129.972 38.3415 130.255 38.3261C130.394 38.3134 130.534 38.3288 130.667 38.3712C130.8 38.4137 130.923 38.4825 131.029 38.5734C131.134 38.6643 131.221 38.7755 131.283 38.9005C131.345 39.0255 131.381 39.1616 131.389 39.3008Z" fill="#263238"/>
<path d="M129.234 22.3924C130.103 19.0239 127.325 17.4922 124.42 15.5759C122.943 14.6432 121.219 14.179 119.474 14.2441C117.728 14.3091 116.043 14.9005 114.64 15.9406C113.201 17.0546 112.16 18.5929 110.9 19.9191C109.64 21.2452 107.982 22.3791 106.166 22.2995C107.13 23.2101 108.35 23.8047 109.662 24.0037C110.973 24.2028 112.314 23.9969 113.506 23.4135C111.471 25.8876 108.755 27.711 105.695 28.6585C106.887 29.3662 108.289 29.6337 109.658 29.4144C111.027 29.1951 112.276 28.503 113.188 27.4583C112.482 30.0755 111.146 32.4797 109.295 34.4604C108.984 34.792 108.632 35.2163 108.765 35.6473C108.897 36.0783 109.468 36.2309 109.932 36.2507C111.286 36.2892 112.626 35.9668 113.815 35.3166C115.003 34.6664 115.997 33.7118 116.695 32.5508C118.161 30.0244 119.109 27.3456 120.442 24.7463C121.072 23.513 123.094 21.3447 124.752 21.2784C126.118 21.2253 128.73 21.663 129.393 22.8764" fill="#263238"/>
<path d="M116.762 19.5013C116.618 19.3188 116.438 19.1688 116.232 19.0614C116.026 18.9539 115.8 18.8914 115.568 18.878C112.531 18.3807 109.475 20.2506 107.751 22.8035C106.027 25.3563 105.423 28.5126 105.012 31.5694C104.694 34.0493 104.521 36.6353 105.364 38.9959L106.855 40.952C107.313 41.5222 107.32 42.3113 107.519 43.0208C107.717 43.7303 108.261 44.4928 108.984 44.347C109.243 44.2726 109.477 44.128 109.66 43.929C109.842 43.7301 109.966 43.4847 110.018 43.2197C110.489 41.6615 109.826 39.9043 110.343 38.3792C110.695 37.3448 111.524 36.5624 112.16 35.6739C113.281 34.109 113.798 32.1993 114.289 30.3692C115.124 27.2306 115.957 24.0943 116.788 20.9601C116.882 20.7275 116.927 20.4786 116.923 20.228C116.918 19.9775 116.863 19.7304 116.762 19.5013Z" fill="#263238"/>
<path d="M129.234 22.3924C130.103 19.0239 127.325 17.4922 124.42 15.5759C122.943 14.6432 121.219 14.179 119.474 14.2441C117.728 14.3091 116.043 14.9005 114.64 15.9406C113.201 17.0546 112.16 18.5929 110.9 19.9191C109.64 21.2452 107.982 22.3791 106.166 22.2995C107.13 23.2101 108.35 23.8047 109.662 24.0037C110.973 24.2028 112.314 23.9969 113.506 23.4135C111.471 25.8876 108.755 27.711 105.695 28.6585C106.887 29.3662 108.289 29.6337 109.658 29.4144C111.027 29.1951 112.276 28.503 113.188 27.4583C112.482 30.0755 111.146 32.4797 109.295 34.4604C108.984 34.792 108.632 35.2163 108.765 35.6473C108.897 36.0783 109.468 36.2309 109.932 36.2507C111.286 36.2892 112.626 35.9668 113.815 35.3166C115.003 34.6664 115.997 33.7118 116.695 32.5508C118.161 30.0244 119.109 27.3456 120.442 24.7463C121.072 23.513 123.094 21.3447 124.752 21.2784C126.118 21.2253 128.73 21.663 129.393 22.8764" fill="#263238"/>
<path d="M111.848 21.7425C111.848 21.7425 112.12 21.6563 112.578 21.464C113.225 21.1691 113.822 20.7754 114.348 20.297C115.011 19.7135 115.741 18.8979 116.609 18.0558C117.07 17.6083 117.574 17.2084 118.114 16.8622C118.71 16.4953 119.373 16.2518 120.064 16.1461C121.401 15.9709 122.759 16.2019 123.963 16.8092C124.935 17.284 125.82 17.9183 126.582 18.6857C127.099 19.1928 127.58 19.7356 128.021 20.3103C128.193 20.5145 128.342 20.7368 128.465 20.9733C128.412 21.0131 127.736 20.1047 126.416 18.8714C125.649 18.1531 124.777 17.5561 123.83 17.101C122.675 16.5501 121.385 16.3474 120.117 16.5174C118.851 16.7599 117.693 17.3902 116.802 18.321C115.933 19.1366 115.197 19.9456 114.474 20.5158C113.923 20.9927 113.289 21.3656 112.604 21.6165C112.363 21.7071 112.106 21.7499 111.848 21.7425Z" fill="#455A64"/>
<path d="M116.032 26.4438C115.993 26.404 116.563 25.7343 117.286 24.5076C117.657 23.8976 118.081 23.1815 118.612 22.3725C119.189 21.4868 119.949 20.7341 120.84 20.1645C121.749 19.6187 122.783 19.315 123.844 19.2826C124.705 19.2646 125.559 19.4319 126.35 19.7732C126.88 19.9961 127.372 20.3004 127.809 20.675C127.978 20.7987 128.123 20.9541 128.233 21.1326C127.618 20.6769 126.95 20.2962 126.244 19.9987C125.479 19.7039 124.662 19.5685 123.844 19.6008C122.842 19.6518 121.868 19.9453 121.006 20.4562C120.159 20.9985 119.428 21.7041 118.857 22.5317C118.3 23.2876 117.863 24.017 117.458 24.6071C117.153 25.0868 116.817 25.5453 116.45 25.9797C116.198 26.3112 116.032 26.4571 116.032 26.4438Z" fill="#455A64"/>
<path d="M134.771 25.6878C134.553 25.3122 134.36 24.9223 134.194 24.5207C133.752 23.5959 133.13 22.7686 132.364 22.0872C131.588 21.4237 130.633 21.0039 129.619 20.8804C128.843 20.7942 128.352 20.9268 128.339 20.8804C128.747 20.669 129.21 20.588 129.665 20.6484C130.752 20.7097 131.787 21.1295 132.609 21.8419C133.419 22.5482 134.048 23.4369 134.446 24.4345C134.633 24.8279 134.743 25.2532 134.771 25.6878Z" fill="#455A64"/>
<path d="M112.226 35.4153C112.226 35.4153 112.147 35.4153 111.987 35.4816C111.768 35.5224 111.547 35.5511 111.324 35.5678C110.425 35.6267 109.523 35.5049 108.672 35.2098C108.041 35.0366 107.471 34.6897 107.028 34.2085C106.899 34.0557 106.814 33.8702 106.784 33.6725C106.753 33.4747 106.778 33.2725 106.855 33.0879C107.062 32.7218 107.402 32.449 107.803 32.3254C108.188 32.1662 108.599 32.08 108.99 31.9408C109.4 31.801 109.798 31.6258 110.177 31.4169C110.994 30.964 111.72 30.3637 112.319 29.6465L112.498 29.8587C111.674 30.3049 110.731 30.481 109.802 30.362C108.873 30.243 108.004 29.835 107.319 29.1956L107.16 29.0365L107.359 28.937C108.816 28.2047 110.071 27.1254 111.013 25.794L111.212 26.0526C110.203 26.4372 109.112 26.549 108.046 26.3767C106.981 26.2044 105.98 25.7541 105.145 25.0713L104.952 24.9055L104.733 24.7198L105.005 24.6137C105.911 24.2205 106.701 23.6018 107.3 22.8168C107.898 22.0531 108.443 21.2488 108.931 20.4098C109.408 19.5853 109.963 18.8082 110.588 18.089C111.196 17.4017 111.884 16.7895 112.637 16.2656C113.93 15.3452 115.394 14.6947 116.944 14.3529C118.493 14.0111 120.096 13.9851 121.655 14.2763C123.749 14.679 125.699 15.6309 127.305 17.0347C127.902 17.5315 128.426 18.1096 128.863 18.7521C128.347 18.1833 127.798 17.6453 127.218 17.1408C125.604 15.7979 123.669 14.8956 121.602 14.5217C120.182 14.2645 118.725 14.2825 117.312 14.5747C115.69 14.9211 114.158 15.5983 112.81 16.5639C111.324 17.6362 110.094 19.0244 109.209 20.6286C108.719 21.4847 108.165 22.3026 107.551 23.0754C106.907 23.8946 106.062 24.534 105.098 24.932L105.158 24.6403L105.337 24.7994C106.127 25.4423 107.072 25.8664 108.077 26.0293C109.083 26.1923 110.113 26.0882 111.066 25.7277L111.596 25.5155L111.265 25.9863C110.284 27.355 108.985 28.4635 107.479 29.2155L107.518 28.9635C108.152 29.5606 108.957 29.9452 109.819 30.0641C110.682 30.1829 111.56 30.03 112.332 29.6266L112.995 29.2354L112.478 29.8388C111.855 30.5818 111.097 31.2004 110.244 31.6623C109.848 31.8735 109.436 32.051 109.01 32.1927C108.599 32.332 108.195 32.4116 107.83 32.5508C107.477 32.6572 107.178 32.8944 106.994 33.2139C106.93 33.3626 106.908 33.5265 106.931 33.687C106.954 33.8476 107.022 33.9984 107.127 34.1223C107.565 34.5808 108.124 34.907 108.738 35.0639C109.565 35.3609 110.439 35.5048 111.318 35.4883C111.901 35.475 112.22 35.4153 112.226 35.4153Z" fill="#455A64"/>
<path d="M124.977 48.7963L120.999 47.0325C120.657 47.5451 120.39 48.1031 120.203 48.6902C120.111 48.9831 120.081 49.2923 120.116 49.5974C120.152 49.9026 120.251 50.1968 120.409 50.4606C120.77 50.9231 121.266 51.2615 121.828 51.4287C122.294 51.6489 122.817 51.7228 123.326 51.6409C123.606 51.5532 123.862 51.4049 124.078 51.2067C124.293 51.0084 124.462 50.7649 124.573 50.4938C124.784 49.9477 124.914 49.3735 124.958 48.7896" fill="#EB996E"/>
<path d="M123.326 51.6409C123.326 51.6409 123.18 51.7337 122.882 51.747C122.468 51.7442 122.058 51.6609 121.675 51.5017C121.325 51.4242 120.997 51.2646 120.721 51.0361C120.444 50.8076 120.225 50.5166 120.083 50.1871C119.94 49.8576 119.878 49.499 119.901 49.1408C119.925 48.7825 120.033 48.435 120.216 48.1266C120.405 47.7156 120.626 47.3209 120.879 46.9463L120.959 46.8203L121.092 46.88C122.225 47.3972 123.207 47.8547 123.896 48.2062C124.281 48.3602 124.644 48.563 124.977 48.8096C124.575 48.7177 124.183 48.5821 123.81 48.4051C123.094 48.1199 122.099 47.6956 120.959 47.2049L121.171 47.1386C120.941 47.5025 120.735 47.8813 120.555 48.2725C120.401 48.5796 120.315 48.9164 120.303 49.2598C120.292 49.6032 120.355 49.945 120.488 50.2617C120.801 50.745 121.268 51.1075 121.814 51.2895C122.169 51.4561 122.547 51.57 122.935 51.6276C123.066 51.6237 123.196 51.6282 123.326 51.6409Z" fill="#263238"/>
<path d="M149.08 126.403C148.974 126.622 147.383 151.925 147.383 151.925C147.292 152.292 147.326 152.679 147.48 153.025C147.634 153.371 147.898 153.656 148.232 153.835C149.399 154.365 158.45 157.402 158.45 157.402L159.882 159.975L159.351 163.681C159.351 163.681 158.025 163.933 157.793 163.357C157.59 162.613 157.461 161.851 157.409 161.082V159.915L155.141 158.589C155.141 158.589 156.268 160.479 156.182 161.089C155.939 162.789 155.607 164.476 155.187 166.141C154.12 166.784 153.012 167.357 151.872 167.859L149.584 169.185H147.343C146.823 169.44 146.24 169.539 145.665 169.47C145.002 169.265 144.565 168.409 144.81 167.958C145.055 167.507 146.315 167.222 146.315 167.222L147.011 166.161L146.846 162.607L145.52 160.936L144.379 161.261C144.379 161.261 146.295 163.383 146.368 164.199C146.441 165.014 146.368 166.188 145.632 166.446C144.896 166.705 143.384 165.061 143.384 165.061L140.566 159.955L140.321 152.893L137.463 127.331L149.08 126.403Z" fill="#FFBE9D"/>
<path d="M148.437 157.899C148.437 157.899 148.682 158.112 149.047 158.562C149.412 159.013 149.922 159.61 150.526 160.366C150.857 161.459 151.003 162.6 150.957 163.741C150.946 164.617 150.778 165.484 150.459 166.301C150.164 166.955 149.74 167.544 149.213 168.031C148.873 168.359 148.512 168.665 148.132 168.946C147.86 169.145 147.701 169.245 147.688 169.225C147.674 169.205 148.225 168.708 149.014 167.859C149.489 167.373 149.871 166.804 150.141 166.181C150.427 165.394 150.577 164.565 150.585 163.728C150.629 162.626 150.506 161.524 150.221 160.459V160.505C149.637 159.73 149.16 159.08 148.835 158.622C148.671 158.4 148.537 158.157 148.437 157.899Z" fill="#EB996E"/>
<path d="M151.706 157.899C152.138 158.13 152.54 158.41 152.906 158.735C153.166 158.874 153.387 159.075 153.551 159.32C153.714 159.565 153.814 159.847 153.841 160.141C153.841 160.804 153.907 161.467 153.947 162.13C153.987 162.793 154 163.456 154.027 164.119C154.063 164.67 154.011 165.222 153.874 165.757C153.589 166.698 152.973 167.004 152.973 166.957C153.289 166.595 153.516 166.163 153.636 165.697C153.841 164.835 153.636 163.555 153.602 162.156C153.576 161.458 153.549 160.795 153.523 160.167C153.506 159.92 153.43 159.681 153.302 159.468C153.174 159.256 152.997 159.078 152.787 158.947C152.386 158.643 152.023 158.291 151.706 157.899Z" fill="#EB996E"/>
<path d="M97.9569 275.503L99.2035 291.882C99.2035 291.882 82.9447 297.445 82.8784 300.502L114.746 300.429L113.858 274.834L97.9569 275.503Z" fill="#1EA3CD"/>
<g opacity="0.6">
<path d="M108.99 290.111C109.298 290.196 109.564 290.389 109.741 290.654C109.917 290.92 109.992 291.24 109.952 291.556C109.882 291.87 109.694 292.144 109.428 292.323C109.161 292.502 108.836 292.572 108.52 292.518C108.191 292.432 107.907 292.226 107.722 291.942C107.537 291.658 107.464 291.315 107.518 290.98C107.63 290.666 107.856 290.406 108.151 290.251C108.446 290.096 108.788 290.058 109.11 290.144" fill="white"/>
</g>
<g opacity="0.6">
<path d="M114.746 300.422L114.653 297.843L83.8863 298.99C83.5621 299.159 83.2854 299.406 83.0816 299.71C82.8777 300.013 82.7531 300.363 82.7192 300.727L114.746 300.422Z" fill="white"/>
</g>
<path d="M98.6795 291.742C98.6795 291.895 99.4685 291.934 100.251 292.405C101.033 292.876 101.471 293.513 101.61 293.44C101.75 293.367 101.484 292.485 100.523 291.934C99.5614 291.384 98.6397 291.596 98.6795 291.742Z" fill="#263238"/>
<path d="M95.3906 293.254C95.3906 293.406 96.0537 293.645 96.6041 294.282C97.1544 294.918 97.3334 295.608 97.4926 295.608C97.6517 295.608 97.7114 294.706 97.0019 293.93C96.2924 293.155 95.3906 293.101 95.3906 293.254Z" fill="#263238"/>
<path d="M93.6534 297.332C93.7993 297.332 93.985 296.576 93.5473 295.741C93.1097 294.905 92.3737 294.594 92.314 294.726C92.2543 294.859 92.7251 295.296 93.0699 295.986C93.4147 296.676 93.4877 297.332 93.6534 297.332Z" fill="#263238"/>
<path d="M98.7922 287.976C98.8585 288.115 99.568 287.87 100.443 287.896C101.319 287.923 102.021 288.168 102.101 288.036C102.181 287.903 101.491 287.373 100.457 287.373C99.4221 287.373 98.7259 287.857 98.7922 287.976Z" fill="#263238"/>
<g opacity="0.3">
<path d="M98.6729 284.879L98.8917 287.804L114.295 287.532L114.189 284.409L98.6729 284.879Z" fill="black"/>
</g>
<path d="M98.6199 284.667C99.1472 284.787 99.6972 284.762 100.211 284.594C100.783 284.469 101.337 284.275 101.862 284.017C102.173 283.865 102.473 283.69 102.757 283.494C102.933 283.39 103.09 283.258 103.222 283.102C103.323 282.989 103.383 282.844 103.39 282.692C103.397 282.54 103.352 282.39 103.261 282.267C103.179 282.162 103.073 282.078 102.952 282.022C102.831 281.965 102.699 281.938 102.565 281.942C102.364 281.949 102.166 281.985 101.975 282.048C101.637 282.145 101.309 282.271 100.994 282.426C100.466 282.692 99.9826 283.039 99.5614 283.454C98.8519 284.163 98.6199 284.78 98.6795 284.78C98.7392 284.78 99.0907 284.322 99.82 283.732C100.244 283.385 100.712 283.095 101.213 282.87C101.504 282.739 101.805 282.633 102.114 282.552C102.446 282.453 102.731 282.439 102.824 282.552C102.917 282.665 102.864 282.632 102.824 282.731C102.724 282.843 102.608 282.94 102.479 283.016C102.217 283.207 101.942 283.38 101.657 283.533C101.174 283.805 100.665 284.027 100.138 284.196C99.6209 284.314 99.1133 284.472 98.6199 284.667Z" fill="#263238"/>
<path d="M98.8319 284.879C99.1132 284.413 99.2387 283.87 99.19 283.328C99.1959 282.736 99.0994 282.149 98.9049 281.59C98.7884 281.258 98.6396 280.939 98.4606 280.636C98.3652 280.429 98.2181 280.25 98.0334 280.116C97.8487 279.983 97.6328 279.899 97.4063 279.873C97.2616 279.877 97.1212 279.924 97.0031 280.007C96.885 280.091 96.7945 280.208 96.7432 280.344C96.6661 280.532 96.6191 280.731 96.604 280.934C96.5602 281.292 96.5737 281.654 96.6438 282.008C96.7533 282.601 97.0086 283.157 97.3864 283.626C98.0495 284.428 98.7126 284.588 98.7126 284.535C98.7126 284.481 98.2087 284.176 97.6981 283.401C97.4043 282.955 97.2118 282.45 97.1345 281.922C97.088 281.616 97.088 281.306 97.1345 281C97.1345 280.662 97.287 280.384 97.413 280.41C97.5389 280.437 97.8506 280.649 97.9898 280.914C98.1608 281.182 98.3052 281.467 98.4208 281.763C98.6211 282.268 98.7462 282.8 98.7922 283.341C98.885 284.276 98.7457 284.859 98.8319 284.879Z" fill="#263238"/>
<path d="M98.7326 272.082L86.4988 281.922C86.4988 281.922 93.2423 296.901 91.1403 298.937L70.3594 276.664L88.7864 260.551L98.7326 272.082Z" fill="#1EA3CD"/>
<g opacity="0.6">
<path d="M81.3334 273.932C81.0735 273.77 80.7635 273.709 80.4618 273.761C80.1601 273.812 79.8875 273.972 79.6956 274.21C79.5229 274.463 79.454 274.773 79.5034 275.076C79.5528 275.378 79.7166 275.65 79.9609 275.835C80.2361 276.005 80.5639 276.068 80.8827 276.013C81.2014 275.958 81.489 275.789 81.6915 275.536C81.8459 275.253 81.8837 274.921 81.797 274.61C81.7104 274.299 81.506 274.035 81.2273 273.872" fill="white"/>
</g>
<g opacity="0.6">
<path d="M70.3792 276.664L72.2358 275.039L91.5513 297.246C91.6446 297.584 91.6523 297.939 91.5736 298.281C91.4948 298.623 91.3322 298.939 91.1004 299.202L70.3792 276.664Z" fill="white"/>
</g>
<path d="M86.9364 282.194C86.8237 282.287 86.2734 281.769 85.4445 281.531C84.6157 281.292 83.873 281.405 83.8332 281.259C83.7934 281.113 84.5825 280.722 85.5904 281.033C86.5983 281.345 87.0624 282.127 86.9364 282.194Z" fill="#263238"/>
<path d="M88.0306 285.476C87.9444 285.596 87.3277 285.271 86.5254 285.304C85.7231 285.337 85.1197 285.655 85.0268 285.543C84.934 285.43 85.5109 284.8 86.5121 284.787C87.5134 284.773 88.1367 285.397 88.0306 285.476Z" fill="#263238"/>
<path d="M86.3264 289.375C86.2137 289.295 86.6381 288.652 87.5067 288.407C88.3754 288.161 89.0716 288.473 89.0186 288.606C88.9655 288.738 88.3555 288.692 87.646 288.904C86.9365 289.116 86.4325 289.448 86.3264 289.375Z" fill="#263238"/>
<path d="M89.5091 279.641C89.3698 279.681 89.078 279.031 88.4813 278.434C87.8845 277.837 87.2612 277.512 87.3076 277.373C87.354 277.234 88.163 277.373 88.8526 278.076C89.5422 278.779 89.6151 279.621 89.5091 279.641Z" fill="#263238"/>
<g opacity="0.3">
<path d="M96.3057 274.025L94.1242 275.782L83.6807 265.033L86.3264 262.706L96.3057 274.025Z" fill="black"/>
</g>
<path d="M91.9096 277.612C91.8632 277.652 91.4123 277.267 90.915 276.452C90.6302 275.973 90.4074 275.461 90.2519 274.927C90.1543 274.61 90.079 274.286 90.0265 273.958C89.9983 273.765 89.9983 273.568 90.0265 273.375C90.0446 273.233 90.1079 273.101 90.2071 272.999C90.3062 272.896 90.4359 272.828 90.5768 272.805C90.7007 272.797 90.8249 272.817 90.9398 272.864C91.0547 272.911 91.1574 272.984 91.2399 273.077C91.368 273.222 91.4751 273.385 91.5582 273.561C91.7092 273.858 91.8334 274.169 91.9295 274.489C92.0898 275.031 92.1659 275.595 92.1549 276.16C92.1924 276.679 92.0698 277.198 91.8035 277.645C91.7239 277.645 91.8499 277.062 91.8035 276.167C91.7632 275.645 91.6585 275.131 91.4919 274.635C91.3904 274.347 91.2663 274.068 91.1205 273.799C90.9747 273.494 90.7956 273.289 90.6365 273.322C90.4774 273.355 90.5503 273.322 90.5238 273.455C90.5055 273.598 90.5055 273.742 90.5238 273.886C90.5643 274.192 90.6241 274.495 90.7028 274.794C90.8342 275.305 91.014 275.802 91.2399 276.279C91.4917 276.709 91.7154 277.154 91.9096 277.612Z" fill="#263238"/>
<path d="M91.6178 277.605C91.5714 277.605 91.777 277.009 92.4732 276.332C92.8839 275.944 93.3568 275.628 93.8723 275.397C94.1805 275.265 94.5001 275.161 94.8271 275.086C95.0334 275.017 95.2538 275.002 95.4674 275.043C95.681 275.084 95.8806 275.178 96.0472 275.318C96.141 275.426 96.2001 275.559 96.2167 275.701C96.2332 275.843 96.2065 275.987 96.14 276.114C96.0543 276.287 95.9474 276.45 95.8217 276.598C95.5972 276.856 95.3358 277.079 95.0459 277.261C94.5576 277.568 94.0029 277.754 93.428 277.804C93.1687 277.851 92.9027 277.846 92.6455 277.789C92.3882 277.732 92.1448 277.625 91.9295 277.473C92.4137 277.491 92.8987 277.48 93.3816 277.44C93.8854 277.355 94.3636 277.158 94.7807 276.863C95.0298 276.697 95.2532 276.496 95.4438 276.266C95.656 276.021 95.7753 275.755 95.6692 275.689C95.5608 275.623 95.4394 275.582 95.3134 275.569C95.1874 275.555 95.0599 275.569 94.9398 275.61C94.6432 275.67 94.3525 275.756 94.0712 275.868C93.5951 276.061 93.1486 276.32 92.7451 276.637C92.009 277.168 91.6907 277.652 91.6178 277.605Z" fill="#263238"/>
<path d="M85.8887 158.085C85.8887 158.085 89.0184 202.611 90.444 214.527C91.3458 222.092 95.7487 285.761 95.7487 285.761L117.763 285.098L116.947 196.909L116.51 180.584L114.222 153.397L85.8887 158.085Z" fill="#263238"/>
<path d="M82.4075 261.771L96.9952 276.544C96.9952 276.544 143.066 231.574 144.856 228.345C146.647 225.116 143.146 186.823 143.146 186.823L141.282 152.781L111.358 153.265L116.477 180.524L119.401 220.587L118.671 221.343L82.4075 261.771Z" fill="#263238"/>
<path d="M124.805 249.192C124.769 249.242 124.729 249.289 124.686 249.332L124.308 249.716L122.836 251.201C121.509 252.528 119.62 254.397 117.206 256.804C112.332 261.618 105.397 268.488 97.0816 276.697L96.9755 276.803L96.8694 276.697L82.2816 261.93L82.1755 261.817L82.2816 261.705L94.2171 248.397L119.295 220.488L119.255 220.594C118.406 208.618 117.697 198.599 117.199 191.571C116.961 188.07 116.775 185.311 116.642 183.415C116.589 182.48 116.543 181.764 116.51 181.26C116.51 181.028 116.51 180.849 116.51 180.709C116.501 180.648 116.501 180.585 116.51 180.524V180.709C116.51 180.842 116.543 181.021 116.563 181.26C116.609 181.757 116.669 182.48 116.742 183.408C116.894 185.304 117.107 188.05 117.405 191.557C117.935 198.586 118.691 208.599 119.587 220.574V220.64L119.547 220.686L94.5022 248.629L82.5668 261.923V261.698L97.1214 276.485H96.9092L117.12 256.665L122.809 251.122L124.314 249.67L124.706 249.298L124.805 249.192Z" fill="#455A64"/>
<path d="M110.37 226.813C109.958 227.258 109.495 227.652 108.99 227.987C107.825 228.855 106.607 229.65 105.343 230.368C104.076 231.082 102.768 231.719 101.425 232.277C100.88 232.533 100.308 232.726 99.7205 232.854C100.233 232.543 100.769 232.275 101.325 232.052C102.333 231.574 103.699 230.898 105.171 230.063C106.643 229.227 107.929 228.405 108.851 227.788C109.332 227.425 109.839 227.099 110.37 226.813Z" fill="#455A64"/>
<path d="M126.151 221.741C125.053 221.744 123.957 221.633 122.882 221.409C121.787 221.304 120.707 221.082 119.659 220.746C120.76 220.747 121.858 220.86 122.935 221.084C124.027 221.188 125.105 221.408 126.151 221.741Z" fill="#455A64"/>
<path d="M104.143 64.4516L91.0343 69.0136L89.5954 104.522L91.1271 128.061L84.8013 156.076L84.1714 168.714L119.858 179.344L123.638 161.931L126.058 178.813L137.039 165.883L141.899 160.923V153.914V129.831L141.521 96.2728L141.72 69.6303L129.393 63.7554L126.794 61.7993L124.891 68.4434L120.866 80.1865L116.125 68.7086L107.585 60.1018L104.143 64.4516Z" fill="#1EA3CD"/>
<g opacity="0.3">
<path d="M106.477 119.414C105.151 120.561 103.726 121.682 102.015 121.974C99.6609 122.385 97.3269 121.152 95.4769 119.646C93.6269 118.141 92.0156 116.331 89.9402 115.124L90.3579 116.643C92.1999 121.014 94.9585 124.94 98.4475 128.154C99.9792 129.559 101.763 130.879 103.838 131.058C107.021 131.337 109.806 128.823 111.404 126.052C113.002 123.28 113.838 120.084 115.635 117.432C117.865 114.777 119.341 111.57 119.905 108.149C120.452 104.736 120.692 101.28 120.621 97.8245C117.924 106.158 113.04 113.614 106.477 119.414Z" fill="black"/>
</g>
<path d="M117.71 106.703C119.083 108.308 118.857 108.891 118.221 111.126C118.104 111.503 117.871 111.834 117.556 112.072C117.241 112.31 116.858 112.443 116.463 112.452C113.811 116.987 108.878 125.594 103.792 125.839C97.433 126.158 90.6099 119.156 87.878 110.801C87.878 110.801 81.0284 87.1686 83.064 78.7409C83.5479 76.6187 84.5187 74.6382 85.8997 72.9557C87.2806 71.2733 89.0339 69.935 91.021 69.0466L104.037 98.4078L109.375 95.8284L117.71 106.703Z" fill="#1EA3CD"/>
<path d="M141.621 68.7881C141.621 68.7881 147.118 72.6538 148.669 77.2623C150.161 81.7049 150.891 95.1256 150.572 100.782C150.254 106.438 150.413 116.212 150.413 116.212L149.863 121.39C152.23 123.38 150.983 126.078 150.844 126.96C150.526 128.949 136.919 127.623 136.919 127.623L139.85 91.8898L141.621 68.7881Z" fill="#1EA3CD"/>
<path d="M102.287 100.802C102.213 100.679 102.17 100.54 102.161 100.397C102.093 100.013 102.093 99.6206 102.161 99.2368C102.263 98.6666 102.47 98.1203 102.771 97.6255C103.112 97.0131 103.534 96.449 104.024 95.9479C104.522 95.4392 105.12 95.0396 105.781 94.7743C106.334 94.5693 106.93 94.5099 107.512 94.6019C107.895 94.6777 108.262 94.8167 108.599 95.013C108.831 95.1589 108.951 95.2451 108.937 95.265C108.461 95.0949 107.973 94.9554 107.479 94.8472C106.942 94.795 106.401 94.8723 105.901 95.0727C105.287 95.3322 104.732 95.7134 104.269 96.1933C103.395 97.0486 102.752 98.1117 102.399 99.2832C102.317 99.7851 102.279 100.293 102.287 100.802Z" fill="#263238"/>
<path d="M103.315 97.4928C103.222 97.4928 101.836 93.6204 100.218 88.7799C98.6 83.9395 97.3534 79.9809 97.4463 79.9477C97.5391 79.9146 98.9249 83.8201 100.543 88.6672C102.161 93.5143 103.434 97.4663 103.315 97.4928Z" fill="#263238"/>
<path d="M117.71 106.703C117.71 106.703 117.75 106.703 117.803 106.782C117.856 106.862 117.949 106.935 118.048 107.061C118.356 107.424 118.582 107.849 118.711 108.308C118.815 109.063 118.731 109.833 118.466 110.549C118.406 110.761 118.347 110.98 118.28 111.212C118.208 111.455 118.086 111.681 117.922 111.875C117.732 112.078 117.503 112.241 117.25 112.355C116.996 112.469 116.722 112.531 116.443 112.538L116.55 112.478C115.429 114.415 114.103 116.749 112.372 119.182C111.472 120.466 110.477 121.681 109.395 122.816C108.244 124.079 106.817 125.06 105.224 125.68C104.811 125.826 104.381 125.919 103.944 125.959C103.513 126.005 103.089 125.959 102.665 125.959C102.24 125.959 101.829 125.833 101.418 125.773C101.007 125.713 100.622 125.554 100.231 125.442C98.7564 124.912 97.3754 124.151 96.14 123.187C94.0649 121.555 92.2881 119.577 90.8884 117.339C89.9322 115.846 89.126 114.262 88.4814 112.611C88.2427 112.034 88.1167 111.563 88.004 111.252C87.944 111.095 87.8995 110.933 87.8713 110.768C87.9502 110.914 88.0168 111.067 88.0703 111.225C88.2029 111.53 88.3488 111.994 88.6074 112.551C89.2963 114.169 90.1285 115.723 91.0939 117.193C92.506 119.383 94.2769 121.32 96.3322 122.922C97.5351 123.856 98.8778 124.594 100.311 125.11C100.689 125.209 101.073 125.335 101.464 125.428C101.856 125.521 102.26 125.561 102.665 125.601C103.069 125.64 103.487 125.64 103.891 125.601C104.298 125.561 104.698 125.474 105.085 125.342C106.628 124.737 108.011 123.786 109.13 122.564C110.204 121.446 111.193 120.249 112.087 118.983C113.824 116.576 115.17 114.262 116.317 112.352L116.351 112.293H116.417C116.918 112.282 117.394 112.075 117.743 111.716C118.005 111.347 118.183 110.927 118.267 110.482C118.539 109.799 118.641 109.059 118.565 108.327C118.448 107.877 118.24 107.455 117.955 107.087C117.865 106.965 117.783 106.837 117.71 106.703Z" fill="#263238"/>
<path d="M116.463 112.425C116.233 112.364 116.01 112.274 115.8 112.16C115.369 111.968 114.759 111.663 114.023 111.252C112.108 110.183 110.281 108.964 108.56 107.605C106.822 106.264 105.232 104.742 103.819 103.063C103.391 102.55 102.999 102.01 102.645 101.445C102.506 101.237 102.39 101.015 102.3 100.782C102.353 100.749 102.897 101.63 104.004 102.884C105.46 104.5 107.058 105.982 108.778 107.313C110.49 108.659 112.283 109.897 114.149 111.02C115.568 111.902 116.49 112.372 116.463 112.425Z" fill="#263238"/>
<path d="M102.486 100.808C101.499 101.213 100.589 101.783 99.7936 102.492C99.0808 103.273 98.5067 104.17 98.0961 105.145C98.0739 104.816 98.1379 104.487 98.2818 104.19C98.5597 103.45 98.9937 102.778 99.5544 102.221C100.115 101.664 100.789 101.234 101.531 100.961C101.831 100.83 102.16 100.777 102.486 100.808Z" fill="#263238"/>
<path d="M141.422 83.0044C141.433 83.1633 141.433 83.3229 141.422 83.4818C141.422 83.8332 141.422 84.2908 141.422 84.8676C141.422 86.1076 141.422 87.8316 141.422 89.9535C141.422 94.2768 141.475 100.191 141.508 106.723C141.541 113.254 141.687 119.169 141.747 123.499C141.78 125.614 141.806 127.345 141.826 128.585C141.826 129.155 141.826 129.612 141.826 129.964C141.842 130.125 141.842 130.287 141.826 130.448C141.799 130.288 141.784 130.126 141.78 129.964C141.78 129.619 141.74 129.155 141.707 128.585C141.66 127.345 141.601 125.621 141.521 123.505C141.382 119.215 141.249 113.281 141.183 106.729C141.117 100.178 141.143 94.2436 141.183 89.9535C141.216 87.8316 141.249 86.1076 141.269 84.8676C141.269 84.2908 141.302 83.8332 141.316 83.4818C141.334 83.3193 141.369 83.1592 141.422 83.0044Z" fill="#263238"/>
<path d="M125.276 85.385C125.283 85.4489 125.283 85.5134 125.276 85.5773C125.276 85.7298 125.276 85.9155 125.276 86.1542C125.276 86.6846 125.229 87.4207 125.196 88.3556C125.123 90.2984 125.024 93.0635 124.898 96.4651C124.666 103.315 124.454 112.777 124.288 123.227C124.122 133.677 123.976 143.119 123.863 149.996C123.784 153.404 123.718 156.169 123.671 158.112C123.671 159.047 123.611 159.783 123.592 160.313C123.592 160.552 123.592 160.737 123.592 160.89C123.598 160.954 123.598 161.018 123.592 161.082C123.586 161.016 123.586 160.95 123.592 160.883C123.592 160.737 123.592 160.552 123.592 160.313C123.592 159.783 123.592 159.047 123.592 158.105C123.592 156.162 123.645 153.397 123.678 149.996C123.764 143.119 123.877 133.664 124.003 123.22C124.129 112.777 124.42 103.328 124.712 96.4585C124.851 93.037 124.997 90.2653 125.123 88.349C125.183 87.414 125.229 86.678 125.269 86.1475L125.316 85.5773C125.295 85.5148 125.282 85.4504 125.276 85.385Z" fill="#263238"/>
<path d="M133.989 129.128C133.989 129.221 129.493 131.011 123.87 133.107C118.247 135.202 113.665 136.886 113.632 136.8C113.599 136.714 118.128 134.91 123.751 132.782C129.374 130.653 133.936 129.042 133.989 129.128Z" fill="#263238"/>
<path d="M118.088 74.4175C117.778 73.9998 117.505 73.5561 117.272 73.0914C116.749 72.1564 116.066 70.9231 115.283 69.4709H115.529L112.465 73.8207L112.339 73.9998L112.193 73.834C112.054 73.6749 111.901 73.5091 111.756 73.3367C109.62 70.9165 107.704 68.6951 106.332 67.0971L104.72 65.1808C104.511 64.9567 104.324 64.7123 104.163 64.4514C104.407 64.6486 104.629 64.8708 104.826 65.1145L106.524 66.9579C107.943 68.5227 109.886 70.7043 112.021 73.1311C112.173 73.2969 112.319 73.4693 112.458 73.6285H112.187L115.296 69.3052L115.436 69.1129L115.548 69.3251L117.445 72.9985C117.691 73.4564 117.906 73.9305 118.088 74.4175Z" fill="#263238"/>
<path d="M134.831 133.843C134.877 133.922 127.723 138.239 118.844 143.477C109.965 148.716 102.724 152.893 102.678 152.814C102.632 152.734 109.786 148.417 118.665 143.179C127.543 137.941 134.784 133.763 134.831 133.843Z" fill="#263238"/>
<path d="M128.333 128.061C128.242 127.676 128.028 127.331 127.722 127.079C127.557 126.962 127.365 126.887 127.164 126.862C126.963 126.837 126.758 126.861 126.569 126.934C126.34 127.021 126.144 127.175 126.006 127.377C125.867 127.578 125.793 127.816 125.793 128.061C125.793 128.305 125.867 128.544 126.006 128.745C126.144 128.946 126.34 129.101 126.569 129.188C126.758 129.26 126.963 129.285 127.164 129.26C127.365 129.234 127.557 129.159 127.722 129.042C128.028 128.79 128.242 128.446 128.333 128.061C128.333 128.061 128.392 128.18 128.333 128.406C128.277 128.732 128.105 129.026 127.848 129.234C127.654 129.394 127.423 129.501 127.175 129.545C126.928 129.589 126.673 129.569 126.436 129.486C126.141 129.382 125.886 129.189 125.705 128.934C125.524 128.679 125.427 128.374 125.427 128.061C125.427 127.748 125.524 127.443 125.705 127.188C125.886 126.932 126.141 126.739 126.436 126.635C126.673 126.553 126.928 126.532 127.175 126.576C127.423 126.621 127.654 126.728 127.848 126.887C128.106 127.092 128.279 127.385 128.333 127.709C128.392 127.941 128.352 128.061 128.333 128.061Z" fill="#263238"/>
<path d="M129.513 107.121C129.425 106.734 129.21 106.389 128.903 106.139C128.737 106.022 128.545 105.947 128.344 105.922C128.143 105.896 127.938 105.921 127.749 105.993C127.52 106.079 127.323 106.233 127.184 106.434C127.044 106.634 126.97 106.873 126.97 107.117C126.97 107.362 127.044 107.6 127.184 107.801C127.323 108.002 127.52 108.156 127.749 108.241C127.938 108.315 128.142 108.34 128.343 108.316C128.544 108.292 128.737 108.218 128.903 108.102C129.208 107.85 129.422 107.506 129.513 107.121C129.513 107.121 129.572 107.24 129.513 107.466C129.459 107.794 129.284 108.089 129.022 108.294C128.829 108.453 128.598 108.559 128.352 108.603C128.106 108.647 127.853 108.628 127.616 108.546C127.321 108.442 127.066 108.249 126.885 107.994C126.705 107.739 126.608 107.433 126.608 107.121C126.608 106.808 126.705 106.503 126.885 106.248C127.066 105.992 127.321 105.799 127.616 105.695C127.852 105.612 128.105 105.59 128.351 105.633C128.598 105.676 128.829 105.782 129.022 105.94C129.284 106.145 129.459 106.441 129.513 106.769C129.572 107.028 129.533 107.121 129.513 107.121Z" fill="#263238"/>
<path d="M149.849 121.39C149.458 121.489 149.059 121.549 148.656 121.569C147.92 121.655 146.912 121.828 145.785 122.013C144.827 122.191 143.859 122.308 142.887 122.365C142.48 122.419 142.066 122.396 141.667 122.299C142.059 122.196 142.462 122.136 142.867 122.12C143.603 122.033 144.611 121.861 145.732 121.675C146.691 121.498 147.661 121.38 148.636 121.324C149.041 121.27 149.453 121.292 149.849 121.39Z" fill="#263238"/>
<g opacity="0.3">
<path d="M114.958 136.329C121.39 136.621 128.459 134.121 132.987 129.54C127.159 131.834 120.641 133.83 114.958 136.329Z" fill="black"/>
</g>
<path d="M135.348 63.7684C136.349 64.4779 138.146 65.5853 138.146 65.5853L138.544 70.7175L135.461 71.3806L135.288 65.572C135.288 65.572 133.299 64.9752 133.432 64.1464C133.611 63.165 134.599 63.2181 135.348 63.7684Z" fill="#EB996E"/>
<path d="M118.134 62.7408L130.07 71.8051C130.24 71.9333 130.447 72.0031 130.66 72.004H141.76C141.888 72.0041 142.014 71.9788 142.132 71.9297C142.25 71.8807 142.357 71.8088 142.447 71.7182C142.537 71.6276 142.608 71.5201 142.656 71.4018C142.704 71.2836 142.729 71.157 142.728 71.0293V70.9033C142.729 70.7506 142.693 70.5998 142.624 70.4637C142.555 70.3275 142.454 70.21 142.33 70.1209L130.037 61.1826C129.87 61.0593 129.667 60.994 129.46 60.9969H118.724C118.484 60.9956 118.252 61.0839 118.073 61.2444C117.894 61.405 117.781 61.6264 117.756 61.8656C117.737 62.0318 117.762 62.2001 117.828 62.3537C117.895 62.5073 118 62.6408 118.134 62.7408Z" fill="#263238"/>
<path d="M118.93 61.4875L119.208 61.6865C120.992 63.0126 131.078 70.4126 131.078 70.4126H141.846L129.599 61.4875" fill="#E0E0E0"/>
<path d="M124.553 61.7727L122.166 65.4528C122.166 65.4528 119.083 70.8238 118.884 72.2162C118.685 73.6087 118.221 77.0899 118.221 77.0899L108.938 95.2649L118.221 107.353L125.866 82.2752C125.866 82.2752 133.319 78.9598 133.823 78.184C134.263 77.2289 134.597 76.2282 134.818 75.2001C134.818 75.2001 136.807 75.041 137.596 74.4442C138.822 73.4421 139.88 72.2514 140.732 70.9166L141.806 68.3704C141.814 68.3509 141.814 68.3294 141.806 68.3099C141.799 68.2904 141.785 68.2742 141.767 68.2643L141.203 67.9327C140.9 67.7592 140.548 67.6894 140.202 67.7338C139.884 67.7508 139.577 67.8526 139.312 68.0287C139.048 68.2048 138.835 68.4488 138.697 68.7351C138.354 69.501 137.844 70.1807 137.205 70.7243L136.309 71.2216L129.679 71.4404C128.892 71.4656 128.109 71.3218 127.383 71.0187C126.656 70.7156 126.003 70.2602 125.468 69.6833L125.236 69.4313V66.7458C125.733 65.8652 126.11 64.9218 126.357 63.941C126.411 63.6784 126.406 63.407 126.342 63.1466C126.278 62.8862 126.157 62.6433 125.987 62.4356C125.818 62.2279 125.604 62.0606 125.362 61.946C125.119 61.8313 124.854 61.7721 124.586 61.7727H124.553Z" fill="#FFBE9D"/>
<path d="M124.553 61.7727C124.689 61.7537 124.828 61.7537 124.964 61.7727C125.363 61.859 125.723 62.076 125.985 62.3894C126.195 62.651 126.334 62.9627 126.387 63.294C126.441 63.6253 126.407 63.9648 126.29 64.2792C126.046 65.1433 125.701 65.9757 125.262 66.7591V66.7193C125.262 67.5216 125.262 68.4301 125.262 69.4048V69.3451C125.828 70.0125 126.543 70.5369 127.35 70.8757C128.156 71.2144 129.031 71.3579 129.904 71.2946L136.283 71.0691H136.223L137.118 70.5652C137.63 70.1283 138.059 69.6027 138.385 69.0136C138.464 68.8611 138.531 68.7152 138.61 68.5428C138.693 68.3626 138.81 68.2004 138.955 68.0654C139.248 67.8016 139.612 67.6308 140.003 67.5747C140.398 67.5172 140.801 67.5677 141.17 67.7206C141.262 67.7554 141.351 67.7998 141.435 67.8532C141.539 67.9084 141.627 67.988 141.693 68.0853C141.758 68.1819 141.798 68.2922 141.812 68.4074C141.826 68.5225 141.812 68.6393 141.773 68.7483C141.475 69.4512 141.17 70.1673 140.865 70.8967C140.195 71.9694 139.385 72.9483 138.458 73.8076C138.226 74.0265 137.987 74.2453 137.728 74.4707C137.448 74.67 137.137 74.8202 136.807 74.915C136.158 75.1064 135.491 75.2308 134.817 75.2863L134.963 75.167C134.755 76.1254 134.458 77.0622 134.075 77.9652C133.959 78.2149 133.772 78.4249 133.538 78.5686C133.332 78.7211 133.113 78.8404 132.874 78.973C132.437 79.225 131.993 79.4637 131.548 79.6958C129.738 80.6175 127.848 81.4927 125.912 82.3481L126.005 82.242C124.679 86.5985 123.286 91.1671 121.861 95.8617C120.667 99.7805 119.494 103.613 118.366 107.32L118.267 107.638L118.068 107.373L108.785 95.2848L108.725 95.2052L108.772 95.119L118.055 76.9639V76.9971C118.24 75.6974 118.415 74.4597 118.578 73.2838C118.634 72.7075 118.74 72.1372 118.897 71.5797C119.089 71.0721 119.31 70.5761 119.56 70.0944C120.462 68.2179 121.344 66.6729 122.06 65.4528C122.776 64.2328 123.465 63.3177 123.896 62.6745L124.374 61.965L124.546 61.7263C124.503 61.8132 124.454 61.8973 124.4 61.9783C124.294 62.1573 124.142 62.396 123.949 62.7077L122.172 65.5125C121.476 66.779 120.608 68.3306 119.726 70.2005C119.494 70.6814 119.291 71.1751 119.116 71.6792C118.968 72.2264 118.868 72.7855 118.817 73.3501C118.658 74.5171 118.492 75.7549 118.32 77.0634V77.0965L109.083 95.2915V95.1257C111.987 98.9119 115.104 102.957 118.366 107.2L118.068 107.253L121.556 95.7954C122.988 91.1008 124.38 86.5123 125.713 82.1824V82.1094L125.786 82.0763C127.716 81.2142 129.605 80.3456 131.402 79.4239C131.853 79.1919 132.298 78.9598 132.729 78.7144C132.941 78.5885 133.16 78.4625 133.352 78.3232C133.545 78.2115 133.698 78.0422 133.79 77.8392C134.162 76.96 134.451 76.0475 134.652 75.1139L134.685 75.0012H134.797C135.442 74.9427 136.079 74.8228 136.7 74.6431C136.995 74.5611 137.273 74.4287 137.523 74.2519C137.772 74.057 138.011 73.8489 138.239 73.6286C139.144 72.7878 139.938 71.834 140.599 70.7906C140.911 70.0679 141.209 69.3517 141.508 68.6489C141.536 68.5812 141.546 68.5079 141.539 68.4351C141.533 68.3623 141.508 68.2923 141.468 68.2311C141.361 68.111 141.223 68.0217 141.07 67.9725C140.747 67.8395 140.395 67.7937 140.049 67.8399C139.713 67.8861 139.399 68.0316 139.147 68.2577C138.895 68.542 138.701 68.8732 138.577 69.2324C138.235 69.8503 137.786 70.4026 137.251 70.8636L136.356 71.3609H136.323L129.944 71.5532C129.042 71.6104 128.139 71.4548 127.309 71.0988C126.478 70.7429 125.743 70.1967 125.163 69.5043C125.163 68.5295 125.163 67.6211 125.163 66.8188C125.604 66.0513 125.954 65.2345 126.204 64.3853C126.324 64.0879 126.364 63.7642 126.32 63.4465C126.276 63.1288 126.149 62.8282 125.952 62.5751C125.713 62.2512 125.372 62.0175 124.984 61.912C124.692 61.7794 124.553 61.786 124.553 61.7727Z" fill="#EB996E"/>
<path d="M135.328 75.2929C134.746 75.5277 134.125 75.6536 133.498 75.6642C132.88 75.7767 132.246 75.7767 131.628 75.6642C132.211 75.4335 132.831 75.31 133.458 75.2995C134.076 75.1866 134.709 75.1844 135.328 75.2929Z" fill="#EB996E"/>
<path d="M149.491 61.9385C149.539 61.8605 149.597 61.7892 149.664 61.7263L150.201 61.1561C150.494 60.8658 150.766 60.5556 151.017 60.2277C151.169 60.0421 151.328 59.8365 151.494 59.6243L151.759 59.2928C151.839 59.1801 151.918 59.0541 151.998 58.9215C152.376 58.3819 152.713 57.8145 153.006 57.224C153.165 56.8991 153.351 56.5609 153.49 56.236L153.908 55.1419C154.462 53.4972 154.74 51.7719 154.73 50.0362C154.695 48.3008 154.368 46.5836 153.762 44.957C153.616 44.5857 153.49 44.2144 153.337 43.8696L152.84 42.8816L152.601 42.4174L152.336 41.9864L151.839 41.1708C151.299 40.3773 150.703 39.6238 150.055 38.9163L149.538 38.3328C149.472 38.267 149.414 38.1936 149.365 38.114C149.443 38.1627 149.512 38.2231 149.571 38.293L150.128 38.85C150.805 39.5377 151.424 40.2807 151.978 41.0714L152.502 41.8737L152.78 42.3047L153.026 42.7755L153.536 43.7635C153.695 44.1149 153.828 44.4862 153.981 44.8642C154.608 46.5134 154.947 48.2586 154.982 50.0229C154.994 51.7847 154.707 53.5357 154.133 55.2016C153.981 55.5795 153.841 55.9509 153.695 56.3089C153.55 56.667 153.357 56.972 153.198 57.3036C152.889 57.8954 152.539 58.4648 152.15 59.0077C152.064 59.1337 151.985 59.2663 151.898 59.379L151.627 59.7105L151.129 60.3073C150.867 60.6289 150.581 60.9304 150.274 61.2091L149.704 61.7528C149.639 61.821 149.568 61.8831 149.491 61.9385Z" fill="#263238"/>
<path d="M144.857 58.57C145.523 57.893 146.122 57.1536 146.647 56.3619C146.76 56.1696 146.886 55.984 146.998 55.7718C147.111 55.5596 147.21 55.3275 147.317 55.1087L147.482 54.7507C147.529 54.6247 147.569 54.4987 147.615 54.3661C147.701 54.1075 147.807 53.8422 147.887 53.5637C148.225 52.3504 148.397 51.0968 148.397 49.8372C148.388 48.5772 148.201 47.3248 147.84 46.1173C147.748 45.8455 147.661 45.5802 147.575 45.315C147.489 45.0498 147.356 44.8177 147.257 44.5856C146.905 43.7909 146.46 43.0408 145.931 42.351C145.756 42.1134 145.561 41.8915 145.347 41.688C145.161 41.5109 144.99 41.3179 144.837 41.1111C145.046 41.2615 145.239 41.4326 145.414 41.6217C145.644 41.8206 145.853 42.0428 146.037 42.2847C146.302 42.5845 146.542 42.9061 146.753 43.2462C147.027 43.6476 147.266 44.0713 147.469 44.5127C147.575 44.758 147.708 44.9967 147.801 45.2553L148.059 46.0245C148.439 47.251 148.635 48.5268 148.643 49.8107C148.643 51.094 148.463 52.3709 148.106 53.6035C148.026 53.8886 147.913 54.1539 147.821 54.4191L147.675 54.8037C147.622 54.9297 147.562 55.049 147.502 55.1684C147.387 55.3983 147.275 55.6193 147.164 55.8315C147.051 56.0437 146.912 56.236 146.793 56.4282C146.673 56.6205 146.567 56.7996 146.441 56.9521L146.077 57.3897L145.758 57.7677L145.453 58.0462C145.271 58.2386 145.071 58.4139 144.857 58.57Z" fill="#263238"/>
<path d="M140.44 54.8833C140.781 54.4607 141.095 54.0178 141.382 53.5571C142.011 52.3977 142.35 51.1032 142.37 49.7842C142.409 48.4651 142.093 47.1598 141.455 46.0046C140.938 45.1294 140.447 44.7183 140.487 44.6785C140.527 44.6387 140.619 44.7647 140.832 44.9636C140.964 45.0793 141.084 45.2082 141.19 45.3482C141.342 45.5242 141.48 45.7127 141.601 45.9118C142.306 47.0773 142.659 48.4224 142.615 49.7842C142.598 51.1429 142.226 52.4734 141.535 53.6433L141.336 53.955C141.269 54.0478 141.196 54.134 141.13 54.2202C141.028 54.3616 140.913 54.4927 140.785 54.6114C140.566 54.7904 140.454 54.8965 140.44 54.8833Z" fill="#263238"/>
</g>
<defs>
<clipPath id="clip0_220_4168">
<rect width="302" height="300.899" fill="white"/>
</clipPath>
</defs>
</svg>
