<svg width="302" height="302" viewBox="0 0 302 302" fill="none" xmlns="http://www.w3.org/2000/svg">
<path d="M44.5584 187.661L49.8428 184.607C49.8428 184.607 52.9878 171.538 51.7345 159.779C49.972 143.245 39.0892 137.023 34.9506 138.45C30.8126 139.876 29.6136 144.686 36.4612 154.533C40.5019 160.344 45.465 172.445 44.5584 187.661Z" fill="#F0F0F0"/>
<path d="M46.748 181.241C46.7311 181.24 46.7142 181.238 46.6972 181.235C46.4985 181.196 46.3675 181.005 46.4055 180.806C49.3023 165.556 43.975 148.42 37.3781 141.29C37.241 141.142 37.2495 140.909 37.3987 140.772C37.5473 140.636 37.7792 140.643 37.9169 140.792C44.634 148.053 50.0652 165.469 47.1255 180.943C47.0917 181.125 46.928 181.25 46.748 181.241Z" fill="white"/>
<path d="M31.2582 195.34C30.4688 195.741 28.3693 193.944 27.784 193.508C26.782 192.76 25.9919 191.732 25.4894 190.59C24.9053 189.26 24.8117 187.862 25.0878 186.438C25.2309 185.699 25.4755 184.985 25.7195 184.273C25.9593 183.574 26.1985 182.875 26.4383 182.177C26.6745 181.487 26.9143 180.774 26.8581 180.047C26.7451 178.583 25.5051 177.499 24.3756 176.56C23.1266 175.522 21.8394 174.171 21.9355 172.42C22.0092 171.069 22.7726 169.85 23.6635 168.831C24.5544 167.813 25.5957 166.926 26.4087 165.845C26.994 165.067 27.4669 164.141 27.427 163.168C27.4023 162.564 27.1812 161.984 26.9203 161.438C26.3592 160.267 25.5963 159.181 25.2315 157.934C24.8667 156.687 25.0044 155.167 26.0046 154.338C26.8255 153.658 27.9972 153.617 29.056 153.74C30.0357 153.855 30.9731 154.347 31.8091 154.868C34.5114 156.554 35.9326 159.927 38.8227 161.266C39.9377 161.782 41.1795 161.945 42.3501 162.318C43.5206 162.692 44.6996 163.358 45.1937 164.484C46.168 166.702 44.0232 169.266 44.6688 171.601C45.2402 173.667 47.1754 174.544 48.192 176.431C48.6365 177.257 48.7017 178.188 48.5767 179.118C48.3647 180.691 48.0748 181.838 47.2286 183.557C46.5292 184.977 44.5589 187.661 44.5589 187.661C44.5589 187.661 31.379 195.278 31.2582 195.34Z" fill="#E6E6E6"/>
<path d="M38.908 191.353C38.9032 191.353 38.8983 191.353 38.8983 191.353C38.7026 191.334 38.5625 191.165 38.58 190.975C39.8454 177.259 34.134 161.757 29.6469 157.111C29.514 156.973 29.5176 156.754 29.6553 156.621C29.7936 156.488 30.0123 156.492 30.1458 156.629C34.7229 161.369 40.5533 177.129 39.271 191.038C39.2535 191.225 39.0922 191.362 38.908 191.353Z" fill="white"/>
<path d="M37.5453 174.441C37.5115 174.439 37.4771 174.432 37.4438 174.42C33.0969 172.832 27.6047 172.314 27.5503 172.309C27.3595 172.292 27.2193 172.122 27.2362 171.932C27.2538 171.742 27.4066 171.598 27.6137 171.618C27.6699 171.623 33.2485 172.15 37.6818 173.769C37.8618 173.834 37.9542 174.033 37.8884 174.213C37.8346 174.36 37.6933 174.448 37.5453 174.441Z" fill="white"/>
<path d="M257.442 187.661L252.157 184.607C252.157 184.607 249.012 171.538 250.265 159.779C252.028 143.245 262.911 137.023 267.049 138.45C271.188 139.876 272.386 144.686 265.539 154.533C261.498 160.344 256.535 172.445 257.442 187.661Z" fill="#F0F0F0"/>
<path d="M255.252 181.241C255.27 181.24 255.286 181.238 255.303 181.235C255.502 181.196 255.633 181.005 255.595 180.806C252.698 165.556 258.025 148.42 264.622 141.29C264.759 141.142 264.751 140.909 264.601 140.772C264.453 140.636 264.221 140.643 264.083 140.792C257.366 148.053 251.935 165.469 254.875 180.943C254.908 181.125 255.072 181.25 255.252 181.241Z" fill="white"/>
<path d="M270.742 195.34C271.531 195.741 273.631 193.944 274.216 193.508C275.218 192.76 276.008 191.732 276.51 190.59C277.094 189.26 277.188 187.862 276.912 186.438C276.769 185.699 276.524 184.985 276.28 184.273C276.04 183.574 275.801 182.875 275.562 182.177C275.325 181.487 275.086 180.774 275.142 180.047C275.255 178.583 276.495 177.499 277.624 176.56C278.873 175.522 280.16 174.171 280.064 172.42C279.991 171.069 279.227 169.85 278.336 168.831C277.445 167.813 276.404 166.926 275.591 165.845C275.006 165.067 274.533 164.141 274.573 163.168C274.598 162.564 274.819 161.984 275.08 161.438C275.641 160.267 276.403 159.181 276.768 157.934C277.133 156.687 276.995 155.167 275.995 154.338C275.174 153.658 274.003 153.617 272.944 153.74C271.964 153.855 271.027 154.347 270.191 154.868C267.488 156.554 266.067 159.927 263.177 161.266C262.062 161.782 260.82 161.945 259.65 162.318C258.479 162.692 257.3 163.358 256.806 164.484C255.832 166.702 257.977 169.266 257.331 171.601C256.76 173.667 254.824 174.544 253.808 176.431C253.363 177.257 253.298 178.188 253.423 179.118C253.635 180.691 253.925 181.838 254.771 183.557C255.471 184.977 257.441 187.661 257.441 187.661C257.441 187.661 270.621 195.278 270.742 195.34Z" fill="#E6E6E6"/>
<path d="M263.092 191.353C263.097 191.353 263.102 191.353 263.102 191.353C263.297 191.334 263.437 191.165 263.42 190.975C262.154 177.259 267.866 161.757 272.353 157.111C272.486 156.973 272.482 156.754 272.345 156.621C272.206 156.488 271.988 156.492 271.854 156.629C267.277 161.369 261.447 177.129 262.729 191.038C262.746 191.225 262.908 191.362 263.092 191.353Z" fill="white"/>
<path d="M264.455 174.441C264.488 174.439 264.523 174.432 264.556 174.42C268.903 172.832 274.395 172.314 274.45 172.309C274.64 172.292 274.781 172.122 274.764 171.932C274.746 171.742 274.593 171.598 274.386 171.618C274.33 171.623 268.751 172.15 264.318 173.769C264.138 173.834 264.046 174.033 264.112 174.213C264.165 174.36 264.307 174.448 264.455 174.441Z" fill="white"/>
<path d="M62.5454 162.431C13.6945 190.634 13.6957 236.363 62.5478 264.566C111.4 292.771 190.604 292.771 239.455 264.566C288.305 236.363 288.304 190.634 239.452 162.431C190.6 134.226 111.396 134.226 62.5454 162.431Z" fill="#F5F5F5"/>
<path d="M85.2492 273.236C109.84 273.236 129.774 261.727 129.774 247.53C129.774 233.333 109.84 221.824 85.2492 221.824C60.6587 221.824 40.7241 233.333 40.7241 247.53C40.7241 261.727 60.6587 273.236 85.2492 273.236Z" fill="#E0E0E0"/>
<path d="M212.992 273.236C237.583 273.236 257.517 261.727 257.517 247.53C257.517 233.333 237.583 221.824 212.992 221.824C188.402 221.824 168.467 233.333 168.467 247.53C168.467 261.727 188.402 273.236 212.992 273.236Z" fill="#E0E0E0"/>
<path d="M190.285 199.563C191.189 212.827 192.647 229.722 192.68 230.397C192.852 233.915 192.295 235.892 190.893 237.346C187.958 240.393 183.728 242.28 180.069 244.918C180.57 246.309 185.525 246.999 187.694 245.983C191.159 244.359 194.614 241.85 195.801 241C198.807 238.851 203.265 238.248 203.369 234.903C203.384 234.486 203.574 233.407 203.553 233.341C203.642 231.389 206.938 209.218 207.923 202.595C208.062 201.664 208.178 200.634 208.277 199.563H190.285Z" fill="#FFBDA7"/>
<path d="M175.539 249.664C175.356 249.666 175.099 251.695 176.106 252.546C177.269 253.528 180.668 255.125 185.132 254.503C189.596 253.879 192.002 252.472 193.775 250.957C195.548 249.442 198.034 247.305 200.051 246.839C201.925 246.406 203.956 245.534 204.551 244.947C205.146 244.361 205.037 241.781 205.037 241.781L175.539 249.664Z" fill="#263238"/>
<path d="M203.735 231.652C203.735 231.652 204.177 231.751 204.298 232.347C204.443 233.057 204.151 235.239 204.458 236.404C204.885 238.022 205.193 241.345 204.961 242.67C204.728 243.995 201.676 244.945 199.727 245.71C197.736 246.492 195.44 248.084 193.428 249.778C191.346 251.53 186.945 253.313 184.032 253.385C179.585 253.495 176.693 252.318 175.787 250.729C174.667 248.762 174.885 246.962 179.972 244.541C180.935 244.084 184.313 242.038 185.464 241.297C186.68 240.514 187.844 239.645 188.915 238.673C189.457 238.181 189.974 237.662 190.459 237.113C190.886 236.631 191.488 236.046 191.738 235.448C191.794 235.312 191.832 235.154 191.883 235.013C192.028 234.607 192.127 234.234 192.204 233.812C192.282 233.387 192.327 232.766 192.729 232.508C193.19 232.211 194.027 232.239 194.553 232.274C195.215 232.317 196.681 232.627 197.324 232.789C198.469 233.079 198.784 233.398 199.238 234.1C199.585 234.638 199.645 235.321 199.678 235.947C199.693 236.245 199.69 236.546 199.696 236.844C199.698 236.972 199.646 237.201 199.825 237.146C199.994 237.094 200.179 236.646 200.242 236.494C200.38 236.158 200.467 235.8 200.619 235.47C200.793 235.092 200.989 234.705 201.244 234.382C201.483 234.08 201.743 233.79 202.044 233.549C202.318 233.331 202.671 233.22 202.914 232.974C203.222 232.66 203.711 231.905 203.735 231.652Z" fill="#37474F"/>
<path d="M179.153 244.939C185.597 245.317 188.297 249.919 188.595 252.377C187.005 252.958 185.364 253.351 184.033 253.384C179.586 253.494 176.511 252.32 175.606 250.731C174.548 248.876 174.606 246.718 179.153 244.939Z" fill="#FAFAFA"/>
<path d="M189.438 245.553C189.508 245.552 189.578 245.529 189.636 245.48C189.77 245.369 189.786 245.171 189.676 245.037C188.768 243.949 185.537 241.876 183.199 242.154C183.026 242.174 182.902 242.331 182.923 242.503C182.943 242.676 183.095 242.799 183.272 242.779C185.455 242.525 188.474 244.577 189.193 245.44C189.256 245.516 189.346 245.554 189.438 245.553Z" fill="#F0F0F0"/>
<path d="M192.194 243.91C192.264 243.909 192.334 243.885 192.393 243.836C192.526 243.725 192.544 243.527 192.433 243.394C191.524 242.304 188.291 240.228 185.956 240.511C185.783 240.531 185.659 240.688 185.681 240.86C185.701 241.031 185.85 241.155 186.03 241.135C188.211 240.879 191.231 242.933 191.951 243.797C192.012 243.872 192.103 243.91 192.194 243.91Z" fill="#F0F0F0"/>
<path d="M194.745 242.039C194.815 242.038 194.885 242.014 194.943 241.965C195.077 241.854 195.094 241.656 194.983 241.523C194.076 240.433 190.833 238.36 188.506 238.64C188.333 238.66 188.209 238.817 188.231 238.989C188.251 239.161 188.401 239.284 188.58 239.264C190.759 239.009 193.781 241.062 194.501 241.926C194.563 242 194.654 242.039 194.745 242.039Z" fill="#F0F0F0"/>
<path d="M197.243 240.167C197.312 240.167 197.381 240.144 197.438 240.097C197.573 239.988 197.594 239.79 197.484 239.655C196.235 238.11 192.806 236.467 190.471 236.746C190.299 236.765 190.175 236.923 190.196 237.095C190.216 237.267 190.367 237.386 190.545 237.37C192.647 237.12 195.887 238.681 196.996 240.051C197.059 240.129 197.151 240.168 197.243 240.167Z" fill="#F0F0F0"/>
<path d="M240.779 211.242C240.598 207.697 240.346 203.901 239.998 200.532C239.873 199.321 239.739 198.201 239.601 197.154L221.869 198.024C223.55 204.433 225.411 211.314 226.769 215.864C228.452 221.502 230.406 228.236 231.83 234.45C231.775 236.979 234.814 250.008 235.546 253.033C236.279 256.057 242.919 255.921 243.174 250.67C243.344 247.174 241.853 236.032 241.717 234.363C241.159 227.561 241.456 223.059 240.779 211.242Z" fill="#FFBDA7"/>
<path d="M233.539 255.474C233.814 258.504 234.352 260.5 235.486 262.245C236.621 263.99 238.671 264.483 240.712 263.895C242.753 263.307 245.343 261.827 245.847 259.19C246.352 256.552 246.637 254.746 246.078 251.947L233.539 255.474Z" fill="#263238"/>
<path d="M241.612 232.969C242.461 233.008 242.606 237.324 243.227 241.389C243.893 245.746 245.259 247.512 245.844 251.083C246.512 255.163 245.894 257.015 244.539 259.539C243.184 262.064 238.181 264.659 235.561 261.193C233.425 258.367 233.461 255.159 233.288 251.065C233.108 246.779 232.733 243.898 232.174 240.731C231.53 237.082 231.104 234.817 231.829 234.452C231.9 234.9 231.974 235.471 232.049 235.911C232.14 236.453 232.341 237.52 232.341 237.52C232.435 237.745 232.667 237.996 232.732 237.623C232.776 237.37 232.742 237.111 232.706 236.86C232.546 235.734 233.112 235.623 233.416 235.526C234.076 235.314 237.226 234.66 237.86 234.596C238.506 234.531 240.739 234.361 241.041 234.72C241.246 234.963 241.287 235.38 241.365 235.895C241.457 236.51 241.484 236.895 241.626 236.762C241.795 236.605 241.744 235.439 241.724 235.161C241.705 234.896 241.671 234.292 241.659 234.026C241.647 233.763 241.638 233.231 241.612 232.969Z" fill="#37474F"/>
<path d="M246.256 253.444C246.485 255.983 245.934 257.745 244.873 259.721C243.518 262.245 238.106 264.862 235.486 261.396C234.182 259.672 233.781 257.595 233.54 255.471C234.951 252.688 243.813 251.193 246.256 253.444Z" fill="#FAFAFA"/>
<path d="M235.244 250.957C235.279 250.952 235.314 250.941 235.347 250.925C235.381 250.908 239.251 249.157 243.098 249.916C243.268 249.947 243.433 249.839 243.468 249.668C243.501 249.498 243.39 249.332 243.219 249.299C239.15 248.498 235.204 250.29 235.057 250.365C234.903 250.446 234.842 250.636 234.922 250.79C234.986 250.911 235.116 250.973 235.244 250.957Z" fill="#F0F0F0"/>
<path d="M242.809 246.869C242.928 246.853 243.032 246.77 243.069 246.648C243.118 246.482 243.025 246.306 242.859 246.255C239.017 245.091 234.861 247.161 234.705 247.25C234.553 247.335 234.5 247.526 234.586 247.678C234.673 247.829 234.867 247.879 235.015 247.796C235.05 247.777 239.1 245.77 242.676 246.858C242.72 246.872 242.765 246.875 242.809 246.869Z" fill="#F0F0F0"/>
<path d="M242.582 243.994C242.697 243.978 242.801 243.897 242.839 243.779C242.893 243.612 242.802 243.435 242.637 243.382C238.408 242.021 234.472 244.263 234.327 244.358C234.182 244.454 234.141 244.648 234.236 244.793C234.331 244.939 234.53 244.98 234.672 244.884C234.704 244.863 238.508 242.715 242.444 243.98C242.49 243.996 242.536 244 242.582 243.994Z" fill="#F0F0F0"/>
<path d="M242.281 241.166C242.395 241.151 242.498 241.072 242.537 240.955C242.593 240.79 242.505 240.612 242.341 240.556C238.375 239.217 234.136 241.522 233.978 241.622C233.83 241.712 233.785 241.906 233.876 242.054C233.967 242.202 234.161 242.25 234.309 242.156C234.345 242.133 238.457 239.908 242.139 241.152C242.187 241.167 242.235 241.172 242.281 241.166Z" fill="#EBEBEB"/>
<path d="M212.992 167.681L209.592 186.928C209.592 186.928 209.994 193.539 208.926 201.604C207.502 212.363 205.741 220.535 205.741 220.535C205.741 220.535 201.783 221.621 198.077 221.504C194.372 221.387 191.607 219.736 191.607 219.736C191.607 219.736 189.136 196.75 188.925 181.521C188.757 169.313 189.152 138.148 190.383 120.119H230.732C234.771 126.947 236.161 133.858 236.568 154.515C236.976 175.195 237.308 179.065 237.471 181.555C237.633 184.044 240.08 189.482 240.743 201.813C241.304 212.26 241.602 220.191 241.602 220.191C241.602 220.191 240.508 222.72 235.826 223.295C231.507 223.824 228.263 222.32 228.263 222.32C228.263 222.32 222.699 205.096 220.327 197.897C216.961 187.673 212.992 167.681 212.992 167.681Z" fill="#37474F"/>
<path d="M226.841 183.387C225.587 177.691 224.639 171.922 223.699 166.148C222.78 160.371 221.866 154.586 220.87 148.811C221.413 154.645 222.024 160.47 222.792 166.28C223.546 172.091 224.448 177.892 225.688 183.639C227.001 189.368 228.321 195.05 229.712 200.742C231.086 206.432 232.535 212.105 234.059 217.765C232.983 212.007 231.834 206.263 230.609 200.536C229.404 194.81 228.124 189.076 226.841 183.387Z" fill="#263238"/>
<path d="M196.469 138.826C198.227 143.898 204.867 147.539 207.799 148.293L211.155 167.754L209.592 186.928L212.992 167.681L209.082 144.365C209.082 144.365 200.928 143.646 196.469 138.826ZM224.434 136.828C224.884 138.817 225.287 140.818 225.72 142.818C226.144 144.82 226.57 146.821 227.029 148.838C227.109 146.768 226.961 144.702 226.723 142.654C226.492 140.603 226.138 138.569 225.705 136.55C225.249 134.536 224.721 132.535 224.037 130.581C223.359 128.628 222.558 126.702 221.48 124.931C222.064 126.916 222.58 128.886 223.067 130.868C223.542 132.85 224.008 134.833 224.434 136.828ZM227.967 133.07C228.612 134.275 229.222 135.495 229.839 136.717L231.657 140.446C231.56 139.038 231.224 137.659 230.778 136.329C230.339 134.994 229.76 133.712 229.12 132.466C228.458 131.232 227.733 130.032 226.907 128.901C226.088 127.768 225.192 126.688 224.166 125.723C224.756 127.003 225.405 128.221 226.048 129.437C226.685 130.656 227.344 131.854 227.967 133.07ZM196.523 164.605L197.855 147.783C196.896 153.332 196.129 158.914 195.516 164.512C194.919 170.118 194.345 175.701 194.234 181.392C194.331 187.059 194.669 192.659 195.037 198.28C195.401 203.895 195.873 209.505 196.442 215.107C196.379 209.477 196.246 203.851 196.051 198.23L195.766 189.8C195.67 186.995 195.546 184.175 195.535 181.393C195.534 178.623 195.747 175.81 195.921 173.012C196.095 170.209 196.321 167.408 196.523 164.605Z" fill="#263238"/>
<path d="M204.324 78.9871C201.767 78.551 196.443 79.1411 192.292 80.5665C183.642 83.5364 171.3 87.7644 171.3 87.7644C171.3 87.7644 161.258 99.4379 164.356 100.496C165.741 100.968 172.498 100.747 182.111 98.3495C189.947 96.395 194.806 95.6357 197.141 97.6513C197.375 97.8536 204.324 78.9871 204.324 78.9871Z" fill="#FFBDA7"/>
<path d="M180.975 88.721C178.132 92.6868 176.085 95.3112 171.462 97.6499L175.932 86.1763C178.529 85.2866 181.927 84.1215 185.371 82.9407C183.817 84.9194 182.15 87.0829 180.975 88.721Z" fill="#F0997A"/>
<path d="M190.586 71.774C191.264 70.7248 192.212 69.4564 192.611 68.7329C193.359 67.3781 193.251 65.6265 193.203 64.0815C193.18 63.3361 193.22 62.7684 193.216 62.0363C193.208 60.9388 193.234 60.3693 193.37 59.6686C193.58 58.5832 194.064 57.6905 194.741 56.8214C194.934 56.5737 196.675 56.918 197.219 56.8081C198.183 56.613 198.436 55.9395 197.72 55.6641C197.082 55.4183 195.098 54.862 194.294 54.9158C193.489 54.9695 191.264 57.8095 191.264 57.8095C191.264 57.8095 192.437 55.3959 192.865 54.7823C193.292 54.1686 194.978 54.2224 195.924 54.0593C197.434 53.799 198.019 52.5825 197.46 52.4532C196.376 52.202 194.206 52.1525 192.859 52.3276C191.513 52.5028 191.065 52.6719 190.209 53.8986C189.355 55.1253 188.644 56.5774 188.644 56.5774C188.644 56.5774 189.457 52.5149 189.73 51.7429C189.73 51.7429 191.014 51.4705 191.583 51.3171C192.399 51.0973 193.41 50.66 193.599 49.7733C193.599 49.7733 194 48.9047 192.488 49.0787C191.025 49.2472 188.416 49.5166 187.937 49.731C187.458 49.9454 186.974 50.9094 186.473 52.751C185.947 54.6832 185.224 58.0958 184.887 61.0168C184.699 62.6476 184.56 64.2844 183.568 67.2555C182.03 71.8664 170.537 78.2187 164.676 85.6195C162.44 88.442 161.379 90.8036 161.178 94.3733C160.913 99.0748 163.211 101.136 165.852 100.37C169.033 99.4475 174.323 96.5477 177.51 91.6613C182.782 83.5846 187.712 75.6408 190.586 71.774Z" fill="#FFBDA7"/>
<path d="M216.024 79.3427L224.932 80.2759L234.536 94.0689C235.331 97.4253 231.653 98.6109 230.963 103.816C230.493 107.356 230.339 110.737 231.077 114.206C232.172 119.35 233.846 123.779 235.07 129.631C230.343 133.773 220.228 136.259 209.382 135.901C195.037 135.427 189.38 130.322 189.38 130.322C190.249 115.655 189.785 111.055 190.032 103.142C190.27 95.504 190.356 93.3344 192.526 89.0816C195.177 83.8854 199.792 79.0951 199.792 79.0951L203.93 79.0431C203.93 79.0431 211.627 78.9006 216.024 79.3427Z" fill="#1EA3CD"/>
<path d="M221.751 52.4895C221.477 46.8995 212.696 39.2057 201.279 43.5974C189.862 47.9891 192.032 55.161 192.283 57.255C192.491 58.9952 192.63 60.8199 192.4 62.563C192.188 64.16 191.592 65.7545 190.447 66.8882C189.303 68.0219 187.579 68.0938 186.392 67.2935C186.326 69.8074 187.515 71.9437 191.052 74.0148C192.43 74.8212 194.631 75.2222 195.86 75.1504C195.246 75.4572 194.351 75.9567 191.921 75.5327C193.202 77.6467 199.393 81.4791 205.106 78.8408C205.365 78.7212 205.891 78.1359 206.168 78.2012C205.877 78.0067 206.51 78.2815 206.168 78.2012C208.401 79.6949 211.526 79.8652 214.125 79.7069C215.574 79.6187 217.034 79.3663 218.34 78.7333C219.646 78.1003 220.792 77.053 221.33 75.7054C221.445 76.9986 221.077 78.3286 220.315 79.379C221.276 79.2213 222.249 78.9924 223.064 78.4603C224.557 77.486 225.73 75.6795 225.802 73.8977C225.874 72.1159 225.401 70.4543 224.975 68.7232C224.498 66.7813 224.27 64.9198 224.573 62.9236C224.819 61.3109 224.972 59.8335 224.974 58.4854C224.976 55.7185 224.05 53.1352 221.751 52.4895Z" fill="#263238"/>
<path d="M217.571 76.1584C217.103 72.7246 216.581 68.8711 216.581 68.8711C216.608 69.364 218.997 70.9893 221.277 68.9925C223.837 66.7511 223.948 64.3665 222.764 62.5792C221.456 60.6036 218.306 60.5317 216.879 63.5589C215.936 64.6256 214.362 64.6842 215.264 61.7022C215.594 60.6108 214.645 59.8763 214.139 59.1062C213.628 58.3295 213.485 57.3311 213.405 56.4251C213.171 53.7687 212.343 51.4258 209.258 51.3177C207.978 51.273 206.714 51.6934 205.599 52.3233C205.044 52.6362 204.442 53.0161 203.821 52.8802C203.2 52.7443 202.814 52.15 202.355 51.7121C201.626 51.0169 200.532 50.5572 199.555 50.9311C197.851 51.5846 196.93 53.7772 196.527 55.4104C195.864 58.0994 195.489 60.8699 195.432 63.6387C195.287 70.6318 197.15 73.8366 199.133 75.4034C200.241 76.2798 201.726 76.7787 204.351 76.708L204.69 78.4143C204.792 79.2013 204.162 79.6549 203.075 79.9515C202.345 80.1508 199.706 84.3933 206.529 85.1773C217.405 86.4264 220.504 79.812 220.504 79.812L219.479 79.7039C217.967 79.5444 217.83 78.061 217.571 76.1584Z" fill="#FFBDA7"/>
<path d="M204.352 76.7075C209.066 76.4973 213.458 74.6726 215.002 70.9019C215.002 70.9019 214.87 73.8065 212.196 75.6541C208.761 78.0272 204.623 78.0719 204.623 78.0719L204.352 76.7075Z" fill="#F0997A"/>
<path d="M205.372 56.9656C205.383 56.8877 205.401 56.811 205.428 56.7373C205.444 56.6962 205.475 56.5809 205.518 56.5615C205.538 56.5531 205.562 56.5676 205.571 56.5869C205.58 56.6062 205.579 56.6286 205.578 56.6503C205.566 56.9318 205.653 57.2338 205.773 57.4863C205.878 57.7043 206.011 57.9085 206.169 58.0915C206.209 58.138 206.252 58.1845 206.276 58.2407C206.331 58.3687 206.277 58.4974 206.127 58.4629C205.923 58.4158 205.759 58.2624 205.639 58.0909C205.459 57.833 205.361 57.5195 205.357 57.2048C205.357 57.1245 205.361 57.0448 205.372 56.9656Z" fill="#F0997A"/>
<path d="M202.181 56.4251C202.178 56.3466 202.169 56.2681 202.15 56.1914C202.14 56.1485 202.122 56.0307 202.081 56.0066C202.062 55.9957 202.037 56.0078 202.026 56.0259C202.015 56.044 202.013 56.067 202.012 56.0881C201.992 56.369 201.871 56.6589 201.723 56.8963C201.595 57.101 201.439 57.2889 201.261 57.4525C201.216 57.4942 201.169 57.5353 201.138 57.5884C201.068 57.7092 201.108 57.8433 201.261 57.8258C201.469 57.8017 201.649 57.6682 201.787 57.5111C201.995 57.275 202.128 56.9748 202.168 56.6631C202.178 56.5846 202.183 56.5043 202.181 56.4251Z" fill="#F0997A"/>
<path d="M209.749 55.5945L206.775 56.8744C207.162 57.7037 208.141 58.0896 208.962 57.7363C209.784 57.3835 210.135 56.4244 209.749 55.5945Z" fill="#263238"/>
<path d="M198.116 55.0552L201.035 56.3417C200.646 57.1553 199.678 57.5273 198.873 57.1722C198.066 56.817 197.728 55.8694 198.116 55.0552Z" fill="#263238"/>
<path d="M200.661 60.3963C200.674 61.0716 200.132 61.6442 199.45 61.6768C198.767 61.7094 198.202 61.1882 198.189 60.5135C198.175 59.8382 198.717 59.2656 199.399 59.2336C200.082 59.201 200.647 59.7217 200.661 60.3963Z" fill="#263238"/>
<path d="M209.584 61.1164C209.598 61.791 209.056 62.3642 208.373 62.3968C207.691 62.4288 207.126 61.9076 207.113 61.2335C207.099 60.5583 207.641 59.9857 208.323 59.9537C209.006 59.9204 209.571 60.4411 209.584 61.1164Z" fill="#263238"/>
<path d="M213.683 58.2375L220.878 61.2588C220.089 61.1132 219.566 61.109 218.54 61.6344L213.358 59.9118L213.683 58.2375Z" fill="#455A64"/>
<path d="M194.177 58.8948C194.655 59.8057 194.492 61.4377 194.941 62.482C195.413 64.5664 199.072 65.9121 201.122 63.9503C201.464 63.6133 201.72 63.2044 201.925 62.7985C202.465 61.7294 202.416 60.188 203.221 60.0527C205.437 59.8793 203.243 65.6149 209.255 65.5811C212.168 65.6047 212.874 62.8595 213.273 60.6488C213.434 60.0104 213.955 59.9126 214.061 59.1201C214.085 58.2727 213.512 58.0486 212.874 58.0009C211.031 57.6808 208.445 57.3915 206.974 57.7134C205.134 58.1241 204.472 58.6762 203.459 58.6103C202.513 58.5421 201.926 57.9067 200.233 57.2628C198.721 56.695 196.202 56.6347 194.337 56.7579C193.407 56.936 193.732 58.463 194.177 58.8948ZM205.621 59.4281C206.952 58.0432 211.259 58.1966 212.115 59.1986C212.586 59.7942 212.148 61.756 211.845 62.674C211.806 62.7846 211.761 62.8945 211.711 63.0105C211.313 64.2493 209.99 64.7862 208.695 64.7234C207.738 64.6769 206.795 64.2994 206.266 63.6223C205.783 63.0485 205.585 62.3817 205.5 61.9227C205.326 60.9919 205.255 59.9101 205.621 59.4281ZM197.772 57.6204C201.079 58.1235 202.341 58.9655 201.199 62.2525C200.78 63.8277 198.458 64.5519 196.862 63.6429C195.654 62.9495 195.403 61.5385 195.288 60.8874C194.852 58.1748 195.038 57.476 197.772 57.6204Z" fill="#455A64"/>
<path d="M199.565 64.9674L203.359 67.044L204.331 61.0728C204.21 60.7032 204.077 60.4084 203.915 60.2888L199.565 64.9674Z" fill="#F0997A"/>
<path d="M206.196 68.1005C207.095 68.2521 208.549 69.3013 208.21 69.9204C207.871 70.5395 206.838 70.0949 205.648 70.5926C204.472 71.0855 204.277 71.7698 203.449 71.4708C202.784 71.2304 203.099 69.4239 203.698 68.8434C204.295 68.2636 205.337 67.9556 206.196 68.1005Z" fill="#B16668"/>
<path d="M203.457 69.1677C203.53 69.0403 203.61 68.9285 203.696 68.844C204.295 68.2635 205.337 67.9561 206.196 68.101C206.368 68.13 206.56 68.1928 206.757 68.278C205.56 68.8887 204.391 69.1689 203.457 69.1677Z" fill="#FAFAFA"/>
<path d="M205.59 70.6192C205.686 69.5882 206.541 68.7891 207.581 68.7686C208.062 69.1412 208.39 69.5912 208.209 69.9204C207.87 70.5395 206.838 70.0949 205.648 70.5926C205.628 70.6017 205.61 70.6108 205.59 70.6192Z" fill="#F28F8F"/>
<path d="M234.064 69.4564C233.862 68.5293 234.914 65.9991 234.956 64.5369C234.997 63.0746 234.081 60.3904 234.371 58.5832C234.66 56.7755 234.202 56.2089 233.681 56.471C233.159 56.7332 231.773 58.2323 231.711 59.6964C231.649 61.1599 234.064 69.4564 234.064 69.4564Z" fill="#F0997A"/>
<path d="M224.932 80.2759C228.65 80.3767 231.812 82.1537 237.477 85.4938C239.953 86.9531 251.503 94.0839 251.503 94.0839L255.344 104.723L253.076 107.133C248.956 107.481 242.834 104.915 235.604 101.74C233.37 100.759 232.757 99.3671 230.844 102.205C228.193 107.693 219.394 87.6495 224.932 80.2759Z" fill="#FFBDA7"/>
<path d="M235.558 84.3698L243.537 101.828C239.912 100.936 230.875 85.948 227.81 80.7053C230.056 81.3081 232.4 82.5373 235.558 84.3698Z" fill="#F0997A"/>
<path d="M226.49 74.8563C225.813 73.6924 224.857 72.279 224.464 71.4799C223.728 69.9838 223.933 68.103 224.062 66.442C224.124 65.6411 224.11 65.0274 224.152 64.2398C224.216 63.0584 224.216 62.4441 224.107 61.6831C223.935 60.5034 223.458 59.5183 222.774 58.5489C222.578 58.2723 220.688 58.5555 220.107 58.4094C219.079 58.1509 218.841 57.4134 219.625 57.1525C220.325 56.9199 222.489 56.4216 223.352 56.5207C224.215 56.6191 226.468 59.7895 226.468 59.7895C226.468 59.7895 225.327 57.1313 224.898 56.4494C224.468 55.7675 222.651 55.7397 221.64 55.5162C220.027 55.1599 219.461 53.8208 220.068 53.7097C221.248 53.494 223.587 53.5508 225.028 53.8069C226.468 54.0636 226.942 54.2684 227.801 55.6328C228.659 56.9966 229.35 58.596 229.35 58.596C229.35 58.596 228.681 54.1814 228.426 53.3364C228.426 53.3364 227.058 52.9776 226.453 52.7843C225.586 52.5065 224.519 51.9846 224.36 51.0206C224.36 51.0206 223.972 50.0651 225.592 50.3291C227.158 50.5846 229.953 51.0068 230.458 51.2616C230.963 51.5165 231.435 52.5796 231.881 54.5867C232.349 56.694 232.955 60.4044 233.17 63.5657C233.29 65.3306 233.357 67.1003 234.274 70.3492C235.696 75.3914 247.748 82.811 253.683 91.0755C255.946 94.2272 256.971 96.8232 257.006 100.676C257.054 105.752 254.475 107.853 251.67 106.895C248.292 105.742 242.744 102.352 239.56 96.9301C234.294 87.9661 229.388 79.1646 226.49 74.8563Z" fill="#FFBDA7"/>
<path d="M239.414 31.2637L233.384 38.2146L230.811 36.765L229.148 41.6857L227.035 40.1631L223.947 45.5797L225.597 35.7164L227.894 37.4843L229.053 30.9182L232.548 33.0594L233.944 27.1245L239.414 31.2637Z" fill="#1EA3CD"/>
<path opacity="0.3" d="M239.414 31.2637L233.384 38.2146L230.811 36.765L229.148 41.6857L227.035 40.1631L223.947 45.5797L225.597 35.7164L227.894 37.4843L229.053 30.9182L232.548 33.0594L233.944 27.1245L239.414 31.2637Z" fill="white"/>
<path d="M235.756 48.2022L234.062 45.5211L228.075 47.2654L235.027 42.1332L236.542 44.1941L241.942 40.282L243.744 45.1665L235.756 48.2022Z" fill="#1EA3CD"/>
<path opacity="0.3" d="M235.756 48.2022L234.062 45.5211L228.075 47.2654L235.027 42.1332L236.542 44.1941L241.942 40.282L243.744 45.1665L235.756 48.2022Z" fill="white"/>
<path d="M221.568 33.5155L218.672 34.8074L218.902 43.8384L215.097 33.565L217.705 32.3014L215.61 26.0881L221.069 25.8386L221.568 33.5155Z" fill="#1EA3CD"/>
<path opacity="0.3" d="M221.568 33.5155L218.672 34.8074L218.902 43.8384L215.097 33.565L217.705 32.3014L215.61 26.0881L221.069 25.8386L221.568 33.5155Z" fill="white"/>
<path d="M57.1725 232.882C58.2258 223.663 57.8187 220.418 59.182 206.01C59.4018 202.313 59.6984 198.354 60.0916 194.841C61.4144 183.025 63.416 179.048 63.6794 176.768C63.6794 176.768 63.6588 156.039 65.4962 130.143C66.3599 117.96 70.0636 114.409 73.1664 108.048L108.977 109.486C110.403 125.686 109.426 155.634 108.641 172.095C108.241 180.487 103.18 222.079 103.069 223.11C102.678 226.765 102.941 228.224 104.321 229.823C107.213 233.172 111.47 236.419 115.143 239.385C114.536 240.805 109.982 240.569 107.771 239.381C104.24 237.483 100.773 234.665 99.5799 233.71C96.5611 231.293 92.0994 229.264 92.1906 225.773C92.1996 225.338 92.0861 225.213 92.1114 225.146C92.1356 223.107 88.97 196.081 88.8571 189.095C88.7598 183.088 89.9093 172.947 89.9093 172.947L87.309 152.18C87.309 152.18 85.3883 169.393 82.5459 179.542C80.2326 187.803 76.2643 198.682 73.6242 208.856C71.0089 220.595 67.9931 228.223 67.2103 234.121C66.9893 235.527 64.8143 249.334 64.02 252.484C63.2263 255.635 55.5857 255.439 55.3623 249.957C55.2149 246.308 56.9743 234.617 57.1725 232.882Z" fill="#C8856A"/>
<path d="M121.439 243.331C121.632 243.336 121.86 245.458 120.786 246.325C119.546 247.326 115.948 248.924 111.28 248.183C106.612 247.442 104.117 245.925 102.289 244.308C100.46 242.691 97.8982 240.412 95.7921 239.884C93.8363 239.394 91.4439 237.852 90.832 237.228C90.2202 236.604 90.3887 233.914 90.3887 233.914L121.439 243.331Z" fill="#263238"/>
<path d="M92.0546 224.157C92.0546 224.157 91.7007 224.158 91.5605 224.778C91.3938 225.515 91.1734 227.668 90.8267 228.877C90.3459 230.557 90.2317 233.456 90.4486 234.844C90.6654 236.231 94.1263 237.875 96.1546 238.712C98.2263 239.568 100.601 241.276 102.675 243.084C104.823 244.955 109.401 246.904 112.455 247.039C117.116 247.245 120.173 246.075 121.156 244.435C122.371 242.406 121.503 241.185 116.219 238.557C115.219 238.059 111.718 235.856 110.527 235.06C109.267 234.219 108.065 233.289 106.961 232.252C106.403 231.728 105.871 231.176 105.374 230.593C104.937 230.081 104.318 229.459 104.068 228.829C104.011 228.687 103.975 228.521 103.925 228.373C103.781 227.947 103.686 227.555 103.613 227.113C103.54 226.667 103.506 226.02 103.09 225.742C102.613 225.422 101.733 225.435 101.181 225.459C100.486 225.491 99.7876 225.558 99.1057 225.69C98.3121 225.842 97.397 225.885 96.9072 226.608C96.5321 227.162 96.4554 227.874 96.4076 228.527C96.3847 228.837 96.3823 229.151 96.3702 229.462C96.3648 229.595 96.4149 229.836 96.2289 229.775C96.0519 229.717 95.8677 229.246 95.8049 229.086C95.6665 228.733 95.5826 228.357 95.4304 228.01C95.2558 227.612 95.0583 227.204 94.7974 226.861C94.554 226.541 93.7283 226.203 93.4166 225.947C93.1334 225.714 92.7661 225.591 92.5167 225.328C92.2014 224.997 92.0752 224.422 92.0546 224.157Z" fill="#37474F"/>
<path d="M117.071 238.989C110.306 239.252 108.056 243.337 107.692 245.896C109.347 246.535 111.06 246.978 112.455 247.039C117.116 247.245 120.365 246.083 121.348 244.443C122.494 242.529 121.803 240.937 117.071 238.989Z" fill="#FAFAFA"/>
<path d="M106.949 238.759C106.876 238.757 106.803 238.731 106.743 238.679C106.605 238.56 106.591 238.353 106.71 238.216C107.684 237.099 110.44 235.663 112.886 236.001C113.067 236.026 113.193 236.192 113.168 236.371C113.143 236.55 112.981 236.676 112.797 236.651C110.514 236.342 107.981 237.76 107.208 238.646C107.141 238.723 107.045 238.762 106.949 238.759Z" fill="#F0F0F0"/>
<path d="M104.092 236.988C104.018 236.986 103.945 236.96 103.885 236.908C103.747 236.789 103.733 236.582 103.852 236.445C104.828 235.326 107.585 233.887 110.028 234.23C110.21 234.254 110.335 234.421 110.31 234.6C110.286 234.779 110.126 234.905 109.938 234.88C107.656 234.568 105.123 235.989 104.351 236.875C104.284 236.953 104.188 236.991 104.092 236.988Z" fill="#F0F0F0"/>
<path d="M101.456 234.984C101.382 234.982 101.309 234.956 101.249 234.904C101.112 234.785 101.098 234.578 101.217 234.44C102.191 233.322 104.958 231.886 107.393 232.226C107.574 232.25 107.699 232.417 107.675 232.596C107.65 232.775 107.49 232.9 107.303 232.876C105.023 232.566 102.488 233.985 101.715 234.871C101.648 234.948 101.552 234.986 101.456 234.984Z" fill="#F0F0F0"/>
<path d="M98.8744 232.981C98.8032 232.979 98.7307 232.954 98.6721 232.904C98.5326 232.787 98.515 232.58 98.6322 232.442C99.9737 230.855 102.928 229.872 105.37 230.211C105.552 230.235 105.678 230.401 105.653 230.58C105.628 230.76 105.467 230.88 105.28 230.86C103.081 230.557 100.327 231.458 99.136 232.864C99.0695 232.944 98.9711 232.983 98.8744 232.981Z" fill="#F0F0F0"/>
<path d="M66.1062 255.049C65.7915 258.208 65.3361 260.503 64.1305 262.315C62.9255 264.126 60.6195 264.302 58.4245 263.929C55.9252 263.502 53.6704 262.219 52.4878 258.827C51.763 256.747 51.6972 254.184 52.3066 251.266L66.1062 255.049Z" fill="#263238"/>
<path d="M57.295 231.754C56.4035 231.788 55.9674 236.029 55.2807 240.266C54.545 244.807 53.0984 246.639 52.4546 250.361C51.7189 254.613 52.3525 256.551 53.7526 259.196C55.152 261.841 61.0549 264.59 63.8321 260.994C66.0959 258.063 66.3212 254.72 66.3007 250.444C66.2789 246.023 66.7102 242.981 67.0285 239.639C67.3323 236.445 68.1761 233.247 67.4181 232.86C67.3395 233.328 67.2574 233.922 67.1759 234.381C67.075 234.946 67.0484 235.542 66.8195 236.076C66.7192 236.31 66.5109 236.552 66.4456 236.162C66.4015 235.896 66.439 235.626 66.4788 235.365C66.657 234.192 66.0639 234.072 65.7456 233.967C65.0552 233.741 62.3094 233.292 61.645 233.22C60.9679 233.146 57.9504 232.951 57.6302 233.323C57.4134 233.575 57.3663 234.011 57.2805 234.548C57.1785 235.188 57.0093 235.653 56.9991 235.451C56.9755 234.989 57.1138 233.794 57.1374 233.506C57.1597 233.229 57.2207 232.853 57.2358 232.574C57.2515 232.3 57.2654 232.027 57.295 231.754Z" fill="#37474F"/>
<path d="M52.1079 252.827C51.7358 256.49 52.8013 258.023 53.5291 259.347C54.0956 260.379 55.3121 261.693 57.077 262.38C59.4169 263.293 62.4308 263.262 64.0139 261.212C65.3959 259.423 65.835 257.26 66.1056 255.046C64.6475 252.129 54.6894 250.498 52.1079 252.827Z" fill="#FAFAFA"/>
<path d="M64.3552 250.32C64.3184 250.315 64.2821 250.304 64.2471 250.286C64.2121 250.268 59.4906 248.411 55.4492 249.172C55.2704 249.202 55.0983 249.088 55.0639 248.91C55.0301 248.731 55.1484 248.56 55.3278 248.526C59.6023 247.723 64.4029 249.626 64.5569 249.705C64.7176 249.791 64.7792 249.989 64.6947 250.149C64.627 250.275 64.4887 250.339 64.3552 250.32Z" fill="#F0F0F0"/>
<path d="M55.7784 245.994C55.6546 245.976 55.5453 245.888 55.5079 245.762C55.4571 245.587 55.5568 245.405 55.7307 245.353C59.7715 244.17 64.7895 246.364 64.952 246.457C65.1102 246.547 65.1646 246.748 65.0728 246.905C64.9816 247.061 64.7774 247.112 64.6228 247.025C64.586 247.005 59.6779 244.877 55.9186 245.983C55.8715 245.998 55.8244 246 55.7784 245.994Z" fill="#F0F0F0"/>
<path d="M56.0412 242.995C55.9198 242.978 55.8123 242.893 55.773 242.769C55.7186 242.595 55.8147 242.411 55.9886 242.357C60.4359 240.971 65.2214 243.342 65.373 243.442C65.5252 243.543 65.5663 243.747 65.4654 243.897C65.3645 244.049 65.1561 244.09 65.0082 243.989C64.9743 243.966 60.326 241.694 56.1868 242.983C56.1372 242.999 56.0883 243.002 56.0412 242.995Z" fill="#F0F0F0"/>
<path d="M56.38 240.047C56.2598 240.03 56.1535 239.947 56.1131 239.825C56.0557 239.653 56.1493 239.467 56.3227 239.41C60.4933 238.045 65.5971 240.485 65.7626 240.59C65.9172 240.686 65.9625 240.889 65.8653 241.042C65.7692 241.197 65.5657 241.245 65.4104 241.145C65.3718 241.121 60.4015 238.765 56.5292 240.033C56.4791 240.05 56.4284 240.054 56.38 240.047Z" fill="#EBEBEB"/>
<path d="M69.407 108.02C65.1138 115.112 64.7574 121.021 63.4727 142.568C62.1874 164.115 61.9881 172.431 61.7972 175.027C61.6064 177.624 61.0018 182.243 59.1426 194.997C57.2841 207.752 57.6622 219.955 57.6622 219.955C57.6622 219.955 58.9451 221.953 63.8502 222.589C68.3748 223.176 70.6935 221.571 70.6935 221.571C70.6935 221.571 77.5586 199.815 79.6841 192.193C82.9052 180.646 87.0994 157.34 87.0994 157.34L88.979 173.256C88.979 173.256 87.3053 180.269 88.2319 191.556C89.1584 202.844 90.5126 211.165 90.5126 211.165C90.5126 211.165 94.3474 212.589 98.2347 212.687C102.123 212.784 104.638 211.168 104.638 211.168C104.638 211.168 109.465 181.251 109.985 168.52C110.505 155.789 110.389 125.098 109.784 109.766L69.407 108.02Z" fill="#37474F"/>
<path d="M58.9199 220.81C59.0987 220.958 59.3155 221.113 59.5746 221.27C59.1428 201.092 62.2624 192.856 64.255 185.219C64.4465 184.485 64.6283 183.788 64.7974 183.123C66.311 177.152 65.5265 167.026 65.9106 157.124C66.0266 154.145 66.1462 151.065 66.3086 147.795C66.4983 143.969 66.7761 140.011 67.2503 136.103C74.337 135.549 76.1514 128.68 78.437 120.007C78.7492 118.822 79.0724 117.596 79.4209 116.337L78.8 116.168C78.4514 117.429 78.1277 118.657 77.8148 119.845C75.5251 128.536 73.8459 134.847 67.3306 135.442C68.4613 126.57 70.6611 118.016 75.3046 111.958L74.7936 111.57C67.8857 120.582 66.3032 134.923 65.666 147.764C65.5035 151.037 65.3839 154.119 65.2679 157.1C64.8856 166.964 65.6702 177.06 64.1735 182.967C64.005 183.631 63.8238 184.328 63.6323 185.059C61.6464 192.67 58.5424 200.835 58.9199 220.81ZM92.1061 134.995L87.0995 157.34L88.9792 173.256L89.6526 158.033L93.0242 142.963C93.0646 144.475 93.1075 146.024 93.1516 147.607C93.5134 160.658 93.6741 170.674 92.8629 173.752C90.6384 182.188 90.9712 187.579 91.5752 197.367C91.6362 198.361 91.7002 199.399 91.7654 200.489C92.0916 206.02 92.6575 208.271 92.9245 211.833C93.1268 211.893 93.3491 211.954 93.5835 212.014C93.3165 208.462 92.7409 206.098 92.4075 200.451C92.3435 199.361 92.2794 198.322 92.2184 197.328C91.618 187.606 91.2877 182.251 93.4856 173.914C94.3203 170.747 94.176 161.323 93.7955 147.589C93.7266 145.098 93.6596 142.685 93.6016 140.387L94.2974 137.674C97.4134 137.062 102.455 134.911 103.532 130.711C98.5731 135.468 92.1061 134.995 92.1061 134.995Z" fill="#263238"/>
<path d="M89.6653 206.576C92.1568 208.713 102.284 208.722 105.539 206.794L104.797 212.226C104.797 212.226 103.289 213.743 96.9435 213.726C92.0106 213.713 90.2415 211.976 90.2415 211.976L89.6653 206.576Z" fill="#455A64"/>
<path d="M57.4956 216.095C59.4888 218.498 68.6201 219.651 71.7832 218.105L70.4713 223.414C70.4713 223.414 68.9323 224.75 63.213 224.016C58.7664 223.446 57.3772 221.523 57.3772 221.523L57.4956 216.095Z" fill="#455A64"/>
<path d="M110.87 68.0007C116.6 68.8723 119.751 69.5053 123.293 77.1707C125.753 82.4973 129.275 89.8486 130.901 93.6351C133.379 99.4057 133.82 100.877 130.365 105.24C126.51 110.107 109.88 123.986 109.88 123.986C108.786 121.79 108.131 113.962 108.085 111.102L118.062 98.4725L110.384 83.2771L110.87 68.0007Z" fill="#C8856A"/>
<path d="M110.074 67.3066C116.286 67.4884 119.489 69.9189 121.779 73.3768C124.068 76.8347 129.547 89.8123 129.547 89.8123C129.547 89.8123 128.967 92.7689 124.658 94.7651C120.348 96.7619 116.444 95.8372 116.444 95.8372L109.879 83.4757L110.074 67.3066Z" fill="#37474F"/>
<path d="M118.062 98.4731C119.224 99.7378 123.887 99.6629 125.195 99.2601C122.632 99.3229 120.061 98.7757 117.519 97.3979L118.062 98.4731Z" fill="#AF6152"/>
<path d="M87.8109 67.8907L76.9799 69.9286C76.9799 69.9286 73.7642 76.0851 71.4461 86.6576C69.869 93.8512 67.1945 104.841 66.6213 123.517C72.5907 130.997 99.7646 131.057 110.276 124.212C110.276 124.212 110.082 109.622 112.284 99.4346C115.46 84.7423 115.791 77.6875 114.228 73.3013C113.303 70.7035 112.342 68.389 111.254 67.5675C110.573 67.1043 95.8513 65.6033 87.8109 67.8907Z" fill="#455A64"/>
<path d="M89.6917 38.7834C85.3351 41.7641 86.9598 46.9241 88.035 52.2C89.2967 58.2068 89.2756 60.1251 92.5764 61.8169C92.9733 43.2246 97.4749 66.3161 113.245 52.8312C114.999 51.3321 114.111 49.3165 115.144 47.5631C115.349 47.2152 115.657 46.941 115.91 46.6251C116.958 45.315 116.879 43.2379 115.734 42.0112C116.003 41.5092 116.272 41.0067 116.541 40.5042C116.643 40.3127 116.747 40.1158 116.774 39.9008C116.848 39.3246 116.325 38.81 115.76 38.6783C115.194 38.5466 114.606 38.697 114.044 38.8468C114.69 38.2374 115.336 37.6273 115.982 37.0179C116.3 36.7171 116.648 36.3299 116.55 35.9029C116.408 35.2808 115.554 35.2427 114.917 35.282C112.44 35.4342 110.028 34.5783 107.649 33.8723C101.481 32.0421 91.7556 31.8277 89.6917 38.7834Z" fill="#37474F"/>
<path d="M88.0892 58.0528C90.7287 59.349 92.0726 57.5635 92.0726 57.5635L91.1267 62.9796C91.1267 62.9796 87.8331 67.7832 90.9921 70.3418C97.7393 75.8068 98.4527 77.4098 100.596 81.1407C102.399 78.4891 104.668 73.6656 103.167 71.7642L105.074 66.8446C105.074 66.8446 106.819 67.0282 108.378 66.9026C110.978 66.7003 112.555 64.9559 113.54 62.2349C115.121 57.8583 115.344 51.1207 114.293 42.3071C111.588 39.8543 102.168 38.7773 95.8283 42.1404C95.725 47.2756 94.2857 48.0197 94.1474 50.2256C93.9921 52.7026 93.7862 53.2582 93.0106 53.5451C92.2351 53.832 91.6281 52.6301 91.3671 51.8817C90.9286 50.6248 90.5354 49.8088 89.3456 49.4265C88.1231 49.0333 86.7955 49.1637 85.5851 50.7232C83.7096 53.1392 86.1739 57.1118 88.0892 58.0528Z" fill="#C8856A"/>
<path d="M105.074 66.8441C102.031 66.5028 99.1949 65.7176 95.9665 63.0335C93.7674 61.2052 93.4321 57.9514 93.4321 57.9514C93.4321 57.9514 93.0492 61.2601 95.063 63.9286C98.2557 68.159 104.481 68.3668 104.481 68.3668L105.074 66.8441Z" fill="#AF6152"/>
<path d="M105.455 47.8174C105.448 47.7413 105.435 47.6658 105.413 47.5927C105.4 47.5516 105.376 47.4387 105.335 47.4176C105.316 47.4079 105.292 47.4212 105.282 47.4393C105.272 47.4574 105.272 47.4798 105.272 47.5003C105.269 47.7745 105.167 48.0626 105.037 48.3012C104.924 48.5072 104.783 48.6986 104.62 48.8678C104.578 48.9106 104.535 48.9535 104.508 49.0067C104.447 49.1281 104.493 49.2561 104.641 49.2302C104.841 49.1951 105.009 49.0556 105.134 48.8949C105.323 48.6539 105.434 48.355 105.455 48.0499C105.462 47.9726 105.462 47.8947 105.455 47.8174Z" fill="#AF6152"/>
<path d="M108.541 47.7407C108.543 47.664 108.552 47.5879 108.57 47.5136C108.58 47.4719 108.597 47.3578 108.637 47.3342C108.656 47.3239 108.68 47.3354 108.691 47.3529C108.702 47.3704 108.703 47.3928 108.705 47.4133C108.724 47.6863 108.842 47.969 108.986 48.1991C109.111 48.3984 109.262 48.5809 109.435 48.7403C109.479 48.7808 109.525 48.8206 109.555 48.8726C109.623 48.9904 109.585 49.1202 109.436 49.1033C109.234 49.0804 109.058 48.9505 108.924 48.7977C108.721 48.5682 108.592 48.2758 108.554 47.9726C108.544 47.8959 108.538 47.818 108.541 47.7407Z" fill="#AF6152"/>
<path d="M103.451 50.9081C103.296 51.6063 102.625 52.0496 101.954 51.8974C101.281 51.7458 100.863 51.0566 101.019 50.3578C101.175 49.6596 101.838 49.3304 102.507 49.4935C103.557 49.7496 103.608 50.2098 103.451 50.9081Z" fill="black"/>
<path d="M101.279 46.2512L104.098 47.6537C103.678 48.4383 102.706 48.7608 101.928 48.3731C101.149 47.9859 100.859 47.0358 101.279 46.2512Z" fill="#263238"/>
<path d="M112.493 46.4094L109.655 47.6603C110.033 48.4515 110.974 48.8133 111.758 48.4679C112.542 48.1218 112.871 47.2007 112.493 46.4094Z" fill="#263238"/>
<path d="M112.754 49.8546C113.095 50.4242 112.926 51.1508 112.377 51.4776C111.828 51.8044 111.106 51.6075 110.765 51.0379C110.425 50.4683 110.369 50.0431 111.217 49.5841C111.779 49.2796 112.412 49.2851 112.754 49.8546Z" fill="black"/>
<path d="M106.198 48.5483L107.014 56.4728L111.522 55.1778C110.51 52.5227 107.939 48.8721 106.198 48.5483Z" fill="#AF6152"/>
<path d="M104.75 58.1529C103.876 58.3003 102.462 59.3205 102.792 59.9227C103.122 60.5248 104.126 60.0924 105.283 60.5768C106.427 61.0558 106.616 61.7214 107.421 61.4308C108.069 61.1971 107.762 59.4401 107.181 58.8759C106.599 58.3112 105.585 58.0122 104.75 58.1529Z" fill="#AF6152"/>
<path d="M107.414 59.1901C107.343 59.0663 107.265 58.9575 107.181 58.8754C106.599 58.3113 105.586 58.0117 104.75 58.1524C104.583 58.1808 104.396 58.2412 104.205 58.3246C105.368 58.9195 106.505 59.1913 107.414 59.1901Z" fill="#FAFAFA"/>
<path d="M105.34 60.6023C105.247 59.5997 104.414 58.8229 103.403 58.803C102.936 59.1654 102.617 59.6033 102.792 59.9234C103.122 60.5256 104.126 60.0931 105.283 60.5775C105.303 60.5854 105.32 60.5938 105.34 60.6023Z" fill="#F28F8F"/>
<path d="M90.8925 63.7981C90.4105 65.4826 91.1015 67.4462 92.5958 69.9178C94.0545 72.3302 97.1572 74.3155 97.853 75.2119C98.5488 76.1082 100.596 81.1395 100.596 81.1395C100.596 81.1395 98.2921 77.7414 97.7437 77.347C97.1953 76.9532 94.3426 79.9889 93.7084 81.0024C93.0748 82.0159 93.1684 82.0286 91.8215 80.8224C89.211 78.4855 87.4316 75.7289 86.8959 73.2603C86.2901 70.4675 86.4278 68.2206 86.4278 68.2206C86.4278 68.2206 88.0078 66.6961 89.2092 64.5742C90.0675 63.0576 90.6189 62.7719 91.1269 62.9779L90.8925 63.7981Z" fill="#37474F"/>
<path d="M100.596 81.1396C101.452 79.8706 102.398 77.5089 102.838 76.3976C103.279 75.2862 103.168 71.7631 103.168 71.7631L105.075 66.8435C105.075 66.8435 105.678 67.1968 105.968 68.0745C106.54 69.8031 107.094 73.8427 107.051 75.7271C106.982 78.7405 106.304 80.8895 106.171 81.0985C105.812 81.6578 105.394 77.1822 104.421 77.094C103.785 77.0372 100.596 81.1396 100.596 81.1396Z" fill="#37474F"/>
<path d="M67.122 135.013C65.0032 135.818 61.9959 133.33 61.1545 132.447C60.3125 131.564 61.1062 129.233 61.4076 127.296C61.709 125.36 60.96 122.191 63.3827 122.892C65.8047 123.595 71.2196 129.524 67.122 135.013Z" fill="#AF6152"/>
<path d="M81.3691 69.4607C76.243 70.4078 72.0839 70.0333 65.8717 77.1569C60.2147 83.6444 52.8652 91.3944 49.3819 96.5259C47.527 99.2584 46.6458 101.732 50.7156 107.8C54.2049 113.002 58.2468 117.947 62.4029 122.599C63.1537 123.44 63.9516 124.409 63.8852 125.534C63.8568 126.016 63.6671 126.473 63.5862 126.949C63.3633 128.26 63.9788 129.566 64.7024 130.682C65.0847 131.272 65.5135 131.866 65.618 132.561C65.8343 134.002 64.6347 134.33 63.4883 134.261C64.4088 134.939 65.4012 135.562 66.4497 136.021C68.0401 136.716 69.538 135.117 71.1815 134.955C71.5626 134.918 71.9582 134.922 72.3098 134.77C73.4549 134.274 73.4549 132.51 74.4974 131.823C74.9408 131.531 75.5242 131.475 75.9187 131.119C76.3795 130.704 76.446 130.013 76.4278 129.393C76.333 126.129 74.5603 122.781 72.9126 120.041C69.907 115.044 63.2969 103.419 63.2969 103.419L76.7057 89.499C79.7589 86.6566 85.3429 75.2857 81.3691 69.4607Z" fill="#C8856A"/>
<path d="M63.2968 103.419C61.8653 101.206 59.4112 98.8713 58.0637 98.3367C58.0637 98.3367 60.5951 98.222 64.3544 102.321L63.2968 103.419Z" fill="#AF6152"/>
<path d="M81.4229 69.0928C81.4229 69.0928 76.8053 69.6128 74.8448 70.2114C72.8848 70.8099 70.9592 71.095 67.1727 75.3442C64.8528 77.9474 55.5898 88.553 55.5898 88.553C55.5898 88.553 56.5907 92.7744 60.1929 96.3918C63.527 99.7397 66.8732 100.349 66.8732 100.349C66.8732 100.349 75.8112 91.0482 78.0327 88.7222C80.2536 86.3968 85.8617 75.6661 81.4229 69.0928Z" fill="#37474F"/>
<path d="M60.7358 45.9347L69.5428 48.6032L70.9471 46.006L74.977 49.2827L75.9536 46.8679L81.4536 49.8064L74.8012 42.3391L73.7992 45.0595L69.3199 40.1206L67.5031 43.7947L63.1585 39.5178L60.7358 45.9347Z" fill="#1EA3CD"/>
<path opacity="0.3" d="M60.7358 45.9347L69.5428 48.6032L70.9471 46.006L74.977 49.2827L75.9536 46.8679L81.4536 49.8064L74.8012 42.3391L73.7992 45.0595L69.3199 40.1206L67.5031 43.7947L63.1585 39.5178L60.7358 45.9347Z" fill="white"/>
<path d="M75.491 58.7831L75.4959 55.6121L81.4912 53.8973L72.8739 53.2595L72.6903 55.8108L66.0366 55.3777L67.1142 60.4713L75.491 58.7831Z" fill="#1EA3CD"/>
<path opacity="0.3" d="M75.491 58.7831L75.4959 55.6121L81.4912 53.8973L72.8739 53.2595L72.6903 55.8108L66.0366 55.3777L67.1142 60.4713L75.491 58.7831Z" fill="white"/>
<path d="M75.9518 38.1383L79.0908 37.6877L83.7083 45.4528L81.453 34.7318L78.5725 35.0519L77.0347 28.6785L72.2825 31.3765L75.9518 38.1383Z" fill="#1EA3CD"/>
<path opacity="0.3" d="M75.9518 38.1383L79.0908 37.6877L83.7083 45.4528L81.453 34.7318L78.5725 35.0519L77.0347 28.6785L72.2825 31.3765L75.9518 38.1383Z" fill="white"/>
<path d="M34.1773 79.0351C21.3852 79.0351 10.9783 70.5954 10.9783 60.2223C10.9783 49.8492 21.3852 41.4102 34.1773 41.4102C46.9694 41.4102 57.3763 49.8499 57.3763 60.2223C57.3763 65.3074 54.8075 70.2083 50.3095 73.7405C51.581 74.9237 53.7391 75.3405 56.0771 74.8313L57.1819 74.5903L56.5495 75.5277C55.4061 77.2207 53.0879 78.4698 50.3458 78.8684C47.6453 79.2592 45.0264 78.7941 43.1159 77.5867C40.2783 78.5483 37.2722 79.0351 34.1773 79.0351ZM34.1773 42.3156C21.8853 42.3156 11.8843 50.3488 11.8843 60.2217C11.8843 70.0959 21.8853 78.1285 34.1773 78.1285C37.2474 78.1285 40.2258 77.6339 43.0289 76.6572L43.2433 76.5823L43.4318 76.7091C45.1465 77.8676 47.6809 78.3393 50.2153 77.9703C52.1795 77.684 53.8919 76.9386 55.0201 75.9088C52.6289 76.1293 50.501 75.4286 49.2876 73.976L48.9807 73.6094L49.3637 73.3231C53.8804 69.9431 56.4703 65.1679 56.4703 60.2217C56.4703 50.3488 46.4693 42.3156 34.1773 42.3156Z" fill="#EBEBEB"/>
<path d="M259.463 77.5862C257.553 78.7936 254.934 79.2593 252.233 78.8679C249.492 78.4693 247.173 77.2196 246.03 75.5272L245.397 74.5898L246.502 74.8308C248.84 75.3406 250.998 74.9232 252.27 73.74C247.772 70.2078 245.203 65.3069 245.203 60.2219C245.203 49.8488 255.61 41.4097 268.402 41.4097C281.194 41.4097 291.601 49.8494 291.601 60.2219C291.601 70.5956 281.194 79.0346 268.402 79.0346C265.308 79.0353 262.301 78.5484 259.463 77.5862ZM246.109 60.2225C246.109 65.1686 248.699 69.9444 253.216 73.3238L253.599 73.6101L253.292 73.9767C252.079 75.4294 249.951 76.13 247.56 75.9095C248.688 76.9394 250.4 77.6847 252.365 77.971C254.899 78.34 257.434 77.8683 259.148 76.7098L259.336 76.583L259.551 76.6579C262.355 77.634 265.332 78.1292 268.403 78.1292C280.695 78.1292 290.696 70.096 290.696 60.2225C290.696 50.3489 280.695 42.3163 268.403 42.3163C256.11 42.3157 246.109 50.3489 246.109 60.2225Z" fill="#EBEBEB"/>
<path d="M177.883 67.3067L171.178 64.3478C171.178 64.3478 166.737 64.8038 159.981 64.4039C149.985 63.8126 144.616 59.9561 145.84 53.9692C147.275 46.9526 153.986 44.8047 165.899 45.2698C172.933 45.5446 177.841 47.7963 179.971 50.8967C182.354 54.3654 181.759 60.2563 175.769 62.9066L177.883 67.3067Z" fill="#FAFAFA"/>
<path d="M178.51 67.9132L171.128 64.6553C170.493 64.7132 166.174 65.0726 159.963 64.7048C153.522 64.3237 148.962 62.6174 146.775 59.7695C145.502 58.1121 145.088 56.1407 145.545 53.9089C146.929 47.1387 153.02 44.4666 165.911 44.9679C172.673 45.2318 177.888 47.3301 180.22 50.7252C181.524 52.6236 181.917 55.1181 181.271 57.3982C180.584 59.8215 178.78 61.8195 176.175 63.0529L178.51 67.9132ZM171.227 64.0392L177.257 66.7004L175.362 62.7569L175.647 62.6313C178.966 61.1623 180.221 58.8859 180.689 57.2345C181.287 55.1254 180.926 52.8205 179.722 51.0689C177.498 47.8327 172.456 45.8292 165.887 45.5725C153.359 45.0845 147.449 47.6128 146.135 54.0309C145.716 56.0833 146.092 57.8911 147.253 59.4029C149.331 62.1076 153.738 63.733 159.998 64.1032C166.649 64.497 171.103 64.0525 171.147 64.0476L171.227 64.0392Z" fill="#455A64"/>
<path d="M169.429 54.9369C169.429 55.8653 170.181 56.6184 171.11 56.6184C172.039 56.6184 172.791 55.8659 172.791 54.9369C172.791 54.0086 172.039 53.2554 171.11 53.2554C170.181 53.256 169.429 54.0086 169.429 54.9369Z" fill="#455A64"/>
<path d="M161.79 54.9369C161.79 55.8653 162.543 56.6184 163.472 56.6184C164.4 56.6184 165.153 55.8659 165.153 54.9369C165.153 54.0086 164.401 53.2554 163.472 53.2554C162.543 53.256 161.79 54.0086 161.79 54.9369Z" fill="#455A64"/>
<path d="M154.151 54.9369C154.151 55.8653 154.904 56.6184 155.833 56.6184C156.762 56.6184 157.514 55.8659 157.514 54.9369C157.514 54.0086 156.762 53.2554 155.833 53.2554C154.904 53.2554 154.151 54.0086 154.151 54.9369Z" fill="#455A64"/>
<path d="M125.439 46.0114L132.149 43.6299C132.149 43.6299 136.59 44.0859 143.346 43.686C153.341 43.0947 158.711 39.2382 157.487 33.2513C156.052 26.2347 149.341 24.0862 137.428 24.5519C130.394 24.8267 125.486 27.0785 123.356 30.1788C120.973 33.6476 121.568 39.5384 127.557 42.1887L125.439 46.0114Z" fill="#FAFAFA"/>
<path d="M124.789 46.563L127.136 42.3277C124.54 41.0944 122.742 39.0993 122.057 36.6815C121.411 34.402 121.804 31.9069 123.108 30.0085C125.44 26.6135 130.655 24.5152 137.417 24.2512C150.307 23.7457 156.398 26.4214 157.783 33.1922C158.24 35.424 157.826 37.3961 156.553 39.0534C154.365 41.9013 149.805 43.6076 143.365 43.9887C137.113 44.3584 132.779 43.9923 132.188 43.938L124.789 46.563ZM140.325 24.7948C139.405 24.7948 138.445 24.8147 137.44 24.854C130.87 25.1107 125.828 27.1136 123.605 30.3504C122.402 32.1026 122.04 34.4075 122.638 36.5166C123.105 38.1674 124.36 40.4438 127.679 41.9128L127.981 42.0463L126.09 45.4595L132.112 43.3225L132.18 43.3292C132.223 43.334 136.677 43.7785 143.328 43.3847C149.589 43.0145 153.996 41.3891 156.073 38.6844C157.235 37.172 157.611 35.3648 157.191 33.3118C155.983 27.4083 150.888 24.7948 140.325 24.7948Z" fill="#455A64"/>
<path d="M133.898 34.2196C133.898 35.148 133.146 35.9012 132.217 35.9012C131.288 35.9012 130.536 35.1486 130.536 34.2196C130.536 33.2907 131.288 32.5381 132.217 32.5381C133.146 32.5381 133.898 33.2907 133.898 34.2196Z" fill="#455A64"/>
<path d="M141.537 34.2196C141.537 35.148 140.784 35.9012 139.856 35.9012C138.928 35.9012 138.174 35.1486 138.174 34.2196C138.174 33.2907 138.927 32.5381 139.856 32.5381C140.784 32.5381 141.537 33.2907 141.537 34.2196Z" fill="#455A64"/>
<path d="M149.176 34.2196C149.176 35.148 148.423 35.9012 147.495 35.9012C146.566 35.9012 145.813 35.1486 145.813 34.2196C145.813 33.2907 146.566 32.5381 147.495 32.5381C148.423 32.5381 149.176 33.2907 149.176 34.2196Z" fill="#455A64"/>
</svg>
