<svg width="302" height="302" viewBox="0 0 302 302" fill="none" xmlns="http://www.w3.org/2000/svg">
<path d="M59.4016 165.861C8.81475 195.067 8.81596 242.42 59.4046 271.627C109.993 300.833 192.012 300.833 242.598 271.627C293.185 242.42 293.184 195.067 242.595 165.861C192.007 136.654 109.988 136.654 59.4016 165.861Z" fill="#F5F5F5"/>
<path d="M65.7025 230.348L70.6602 226.595C70.6602 226.595 72.1931 212.987 69.4443 201.258C65.5793 184.766 53.7941 179.848 49.7902 181.811C45.7863 183.774 45.181 188.789 53.3441 197.88C58.1598 203.244 64.7017 214.852 65.7025 230.348Z" fill="#1EA3CD"/>
<g opacity="0.65">
<path d="M65.7025 230.348L70.6602 226.595C70.6602 226.595 72.1931 212.987 69.4443 201.258C65.5793 184.766 53.7941 179.848 49.7902 181.811C45.7863 183.774 45.181 188.789 53.3441 197.88C58.1598 203.244 64.7017 214.852 65.7025 230.348Z" fill="white"/>
</g>
<path d="M67.1074 223.582C67.0899 223.583 67.073 223.583 67.0555 223.582C66.8495 223.568 66.6931 223.391 66.707 223.185C67.7138 207.405 60.1693 190.753 52.6018 184.376C52.4441 184.244 52.4242 184.007 52.5571 183.85C52.6905 183.694 52.9255 183.672 53.0831 183.805C60.7884 190.299 68.4731 207.22 67.4511 223.233C67.4402 223.421 67.2898 223.568 67.1074 223.582Z" fill="white"/>
<path d="M53.2251 239.786C52.478 240.292 50.129 238.74 49.4822 238.372C48.375 237.742 47.4467 236.803 46.795 235.711C46.0369 234.44 45.7663 233.039 45.8654 231.565C45.9167 230.8 46.0744 230.047 46.2314 229.297C46.3854 228.56 46.5395 227.824 46.6941 227.087C46.8463 226.361 46.9985 225.609 46.8505 224.881C46.5521 223.416 45.1617 222.476 43.9018 221.669C42.5084 220.778 41.037 219.574 40.9132 217.792C40.8178 216.417 41.4351 215.088 42.2076 213.946C42.9795 212.805 43.9205 211.777 44.6067 210.581C45.1001 209.72 45.4619 208.726 45.2988 207.747C45.1974 207.138 44.9014 206.58 44.5686 206.061C43.8541 204.948 42.9457 203.947 42.4202 202.732C41.8941 201.518 41.8415 199.963 42.7488 199C43.4929 198.209 44.6719 198.019 45.7579 198.011C46.7623 198.003 47.7722 198.383 48.6831 198.804C51.6276 200.168 53.4885 203.4 56.5792 204.388C57.7714 204.77 59.0471 204.779 60.2774 205.008C61.5078 205.238 62.7834 205.764 63.4249 206.839C64.6891 208.958 62.8444 211.821 63.7909 214.099C64.6287 216.116 66.6955 216.759 67.9609 218.539C68.5142 219.317 68.6972 220.251 68.6881 221.206C68.6718 222.823 68.5239 224.02 67.8842 225.863C67.3557 227.387 65.7026 230.348 65.7026 230.348C65.7026 230.348 53.3399 239.708 53.2251 239.786Z" fill="#1EA3CD"/>
<g opacity="0.3">
<path d="M53.2251 239.786C52.478 240.292 50.129 238.74 49.4822 238.372C48.375 237.742 47.4467 236.803 46.795 235.711C46.0369 234.44 45.7663 233.039 45.8654 231.565C45.9167 230.8 46.0744 230.047 46.2314 229.297C46.3854 228.56 46.5395 227.824 46.6941 227.087C46.8463 226.361 46.9985 225.609 46.8505 224.881C46.5521 223.416 45.1617 222.476 43.9018 221.669C42.5084 220.778 41.037 219.574 40.9132 217.792C40.8178 216.417 41.4351 215.088 42.2076 213.946C42.9795 212.805 43.9205 211.777 44.6067 210.581C45.1001 209.72 45.4619 208.726 45.2988 207.747C45.1974 207.138 44.9014 206.58 44.5686 206.061C43.8541 204.948 42.9457 203.947 42.4202 202.732C41.8941 201.518 41.8415 199.963 42.7488 199C43.4929 198.209 44.6719 198.019 45.7579 198.011C46.7623 198.003 47.7722 198.383 48.6831 198.804C51.6276 200.168 53.4885 203.4 56.5792 204.388C57.7714 204.77 59.0471 204.779 60.2774 205.008C61.5078 205.238 62.7834 205.764 63.4249 206.839C64.6891 208.958 62.8444 211.821 63.7909 214.099C64.6287 216.116 66.6955 216.759 67.9609 218.539C68.5142 219.317 68.6972 220.251 68.6881 221.206C68.6718 222.823 68.5239 224.02 67.8842 225.863C67.3557 227.387 65.7026 230.348 65.7026 230.348C65.7026 230.348 53.3399 239.708 53.2251 239.786Z" fill="white"/>
</g>
<path d="M60.4556 234.792C60.4508 234.793 60.446 234.793 60.446 234.793C60.2461 234.799 60.083 234.646 60.0763 234.451C59.627 220.426 51.9006 205.476 46.7793 201.344C46.6277 201.222 46.6035 201 46.7261 200.848C46.8493 200.696 47.071 200.673 47.2226 200.795C52.4472 205.009 60.3264 220.206 60.783 234.428C60.7891 234.619 60.6435 234.779 60.4556 234.792Z" fill="white"/>
<path d="M56.9476 217.867C56.9132 217.87 56.8775 217.867 56.8425 217.859C52.2479 216.801 46.6307 216.97 46.5751 216.972C46.38 216.978 46.2169 216.824 46.2103 216.63C46.2042 216.435 46.3401 216.271 46.5521 216.265C46.6095 216.264 52.3155 216.092 57.0007 217.171C57.1904 217.214 57.31 217.404 57.2659 217.594C57.2296 217.749 57.098 217.856 56.9476 217.867Z" fill="white"/>
<path d="M236.699 230.348L231.741 226.595C231.741 226.595 230.208 212.987 232.957 201.258C236.822 184.766 248.607 179.848 252.611 181.811C256.615 183.774 257.22 188.789 249.057 197.88C244.241 203.244 237.699 214.852 236.699 230.348Z" fill="#1EA3CD"/>
<g opacity="0.65">
<path d="M236.699 230.348L231.741 226.595C231.741 226.595 230.208 212.987 232.957 201.258C236.822 184.766 248.607 179.848 252.611 181.811C256.615 183.774 257.22 188.789 249.057 197.88C244.241 203.244 237.699 214.852 236.699 230.348Z" fill="white"/>
</g>
<path d="M235.294 223.582C235.312 223.583 235.329 223.583 235.346 223.582C235.552 223.568 235.709 223.391 235.695 223.185C234.688 207.405 242.233 190.753 249.801 184.376C249.958 184.244 249.978 184.007 249.845 183.85C249.712 183.694 249.477 183.672 249.319 183.805C241.614 190.299 233.929 207.22 234.951 223.233C234.961 223.421 235.111 223.568 235.294 223.582Z" fill="white"/>
<path d="M249.176 239.786C249.923 240.292 252.272 238.74 252.919 238.372C254.026 237.742 254.954 236.803 255.606 235.711C256.364 234.44 256.635 233.039 256.536 231.565C256.484 230.8 256.327 230.047 256.17 229.297C256.016 228.56 255.862 227.824 255.707 227.087C255.555 226.361 255.402 225.609 255.55 224.881C255.849 223.416 257.239 222.476 258.499 221.669C259.893 220.778 261.364 219.574 261.488 217.792C261.583 216.417 260.966 215.088 260.193 213.946C259.421 212.805 258.48 211.777 257.794 210.581C257.301 209.72 256.939 208.726 257.102 207.747C257.204 207.138 257.5 206.58 257.833 206.061C258.548 204.948 259.456 203.947 259.981 202.732C260.508 201.518 260.56 199.963 259.653 199C258.909 198.209 257.73 198.019 256.644 198.011C255.639 198.003 254.629 198.383 253.719 198.804C250.774 200.168 248.913 203.4 245.822 204.388C244.63 204.77 243.355 204.779 242.124 205.008C240.894 205.238 239.618 205.764 238.977 206.839C237.713 208.958 239.557 211.821 238.611 214.099C237.773 216.116 235.706 216.759 234.441 218.539C233.887 219.317 233.704 220.251 233.713 221.206C233.73 222.823 233.878 224.02 234.517 225.863C235.046 227.387 236.699 230.348 236.699 230.348C236.699 230.348 249.061 239.708 249.176 239.786Z" fill="#1EA3CD"/>
<g opacity="0.3">
<path d="M249.176 239.786C249.923 240.292 252.272 238.74 252.919 238.372C254.026 237.742 254.954 236.803 255.606 235.711C256.364 234.44 256.635 233.039 256.536 231.565C256.484 230.8 256.327 230.047 256.17 229.297C256.016 228.56 255.862 227.824 255.707 227.087C255.555 226.361 255.402 225.609 255.55 224.881C255.849 223.416 257.239 222.476 258.499 221.669C259.893 220.778 261.364 219.574 261.488 217.792C261.583 216.417 260.966 215.088 260.193 213.946C259.421 212.805 258.48 211.777 257.794 210.581C257.301 209.72 256.939 208.726 257.102 207.747C257.204 207.138 257.5 206.58 257.833 206.061C258.548 204.948 259.456 203.947 259.981 202.732C260.508 201.518 260.56 199.963 259.653 199C258.909 198.209 257.73 198.019 256.644 198.011C255.639 198.003 254.629 198.383 253.719 198.804C250.774 200.168 248.913 203.4 245.822 204.388C244.63 204.77 243.355 204.779 242.124 205.008C240.894 205.238 239.618 205.764 238.977 206.839C237.713 208.958 239.557 211.821 238.611 214.099C237.773 216.116 235.706 216.759 234.441 218.539C233.887 219.317 233.704 220.251 233.713 221.206C233.73 222.823 233.878 224.02 234.517 225.863C235.046 227.387 236.699 230.348 236.699 230.348C236.699 230.348 249.061 239.708 249.176 239.786Z" fill="white"/>
</g>
<path d="M241.945 234.792C241.95 234.793 241.955 234.793 241.955 234.793C242.155 234.799 242.318 234.646 242.325 234.451C242.774 220.426 250.5 205.476 255.622 201.344C255.773 201.222 255.798 201 255.675 200.848C255.552 200.696 255.331 200.673 255.178 200.795C249.954 205.009 242.075 220.206 241.618 234.428C241.613 234.619 241.758 234.779 241.945 234.792Z" fill="white"/>
<path d="M245.454 217.867C245.488 217.87 245.524 217.867 245.559 217.859C250.154 216.801 255.771 216.97 255.826 216.972C256.022 216.978 256.185 216.824 256.191 216.63C256.197 216.435 256.061 216.271 255.849 216.265C255.792 216.264 250.086 216.092 245.401 217.171C245.211 217.214 245.092 217.404 245.136 217.594C245.171 217.749 245.303 217.856 245.454 217.867Z" fill="white"/>
<path d="M98.1591 275.171C124.232 275.171 145.368 262.968 145.368 247.915C145.368 232.862 124.232 220.659 98.1591 220.659C72.0865 220.659 50.9504 232.862 50.9504 247.915C50.9504 262.968 72.0865 275.171 98.1591 275.171Z" fill="#E0E0E0"/>
<path d="M204.445 275.171C230.518 275.171 251.654 262.968 251.654 247.915C251.654 232.862 230.518 220.659 204.445 220.659C178.372 220.659 157.236 232.862 157.236 247.915C157.236 262.968 178.372 275.171 204.445 275.171Z" fill="#E0E0E0"/>
<path d="M232.149 231.945C231.92 224.91 232.452 220.289 232.353 208.085C232.345 204.426 232.278 200.504 232.09 197.017C231.458 185.288 229.717 181.253 229.588 178.989C229.588 178.989 229.579 160.755 229.236 135.107C229.075 123.041 225.641 118.377 222.954 111.93H189.764C185.796 127.664 183.974 162.57 183.816 178.85C183.736 187.151 186.958 224.286 187.008 225.309C187.186 228.936 186.611 230.974 185.165 232.474C182.139 235.616 177.778 237.561 174.006 240.281C174.522 241.716 179.631 242.428 181.867 241.38C185.44 239.705 189.001 237.118 190.226 236.243C193.325 234.026 197.921 233.404 198.028 229.956C198.044 229.527 198.239 228.414 198.218 228.345C198.309 226.332 201.708 203.473 202.724 196.644C203.627 190.565 203.627 180.49 203.627 180.49L206.585 155.629C206.585 155.629 208.895 170.462 210.914 180.673C212.412 188.242 215.656 203.863 217.69 212.138C219.138 218.03 220.81 225.063 221.962 231.534C221.778 234.136 224.248 247.706 224.849 250.858C225.451 254.01 232.296 254.206 232.824 248.811C233.177 245.219 232.205 233.669 232.149 231.945Z" fill="#FFA8A7"/>
<path d="M169.335 245.174C169.146 245.176 168.881 247.268 169.919 248.145C171.118 249.158 174.623 250.805 179.225 250.163C183.827 249.52 186.309 248.069 188.137 246.507C189.965 244.945 192.528 242.741 194.608 242.261C196.54 241.814 198.635 240.916 199.248 240.31C199.862 239.706 199.749 237.045 199.749 237.045L169.335 245.174Z" fill="#263238"/>
<path d="M198.407 226.603C198.407 226.603 198.863 226.705 198.988 227.32C199.137 228.052 198.836 230.301 199.153 231.502C199.592 233.171 199.911 236.596 199.671 237.963C199.431 239.328 196.284 240.308 194.274 241.097C192.222 241.903 189.855 243.544 187.781 245.29C185.633 247.098 181.096 248.936 178.092 249.01C173.508 249.123 170.526 247.909 169.592 246.271C168.438 244.243 168.663 242.386 173.907 239.891C174.9 239.419 178.383 237.31 179.569 236.546C180.823 235.739 182.023 234.844 183.128 233.841C183.687 233.334 184.221 232.799 184.72 232.233C185.16 231.735 185.781 231.132 186.037 230.515C186.096 230.376 186.135 230.213 186.187 230.068C186.337 229.649 186.439 229.264 186.518 228.829C186.599 228.391 186.646 227.751 187.06 227.485C187.535 227.178 188.399 227.207 188.941 227.243C189.623 227.288 191.135 227.607 191.797 227.774C192.978 228.073 193.304 228.402 193.771 229.126C194.128 229.68 194.19 230.385 194.224 231.03C194.24 231.337 194.237 231.647 194.243 231.955C194.245 232.086 194.191 232.324 194.375 232.267C194.55 232.213 194.741 231.751 194.805 231.594C194.948 231.248 195.038 230.879 195.194 230.538C195.373 230.149 195.575 229.75 195.839 229.416C196.084 229.104 196.353 228.805 196.664 228.558C196.947 228.333 197.31 228.218 197.56 227.964C197.878 227.643 198.382 226.864 198.407 226.603Z" fill="#37474F"/>
<path d="M173.061 240.302C179.705 240.693 182.489 245.437 182.796 247.972C181.157 248.571 179.465 248.977 178.092 249.01C173.508 249.124 170.337 247.914 169.403 246.275C168.314 244.362 168.373 242.137 173.061 240.302Z" fill="#FAFAFA"/>
<path d="M183.666 240.936C183.738 240.936 183.81 240.911 183.87 240.861C184.008 240.746 184.026 240.542 183.911 240.404C182.976 239.282 179.644 237.144 177.233 237.432C177.055 237.452 176.927 237.614 176.949 237.792C176.97 237.969 177.127 238.096 177.309 238.076C179.559 237.814 182.672 239.929 183.414 240.82C183.478 240.897 183.571 240.937 183.666 240.936Z" fill="#F0F0F0"/>
<path d="M186.508 239.241C186.58 239.241 186.652 239.217 186.713 239.166C186.85 239.052 186.869 238.847 186.754 238.709C185.817 237.586 182.484 235.445 180.076 235.737C179.898 235.758 179.77 235.919 179.792 236.097C179.813 236.274 179.967 236.401 180.152 236.381C182.401 236.116 185.515 238.235 186.257 239.125C186.32 239.203 186.414 239.242 186.508 239.241Z" fill="#F0F0F0"/>
<path d="M189.137 237.312C189.21 237.311 189.282 237.287 189.342 237.237C189.48 237.122 189.497 236.918 189.383 236.78C188.447 235.656 185.104 233.518 182.705 233.808C182.526 233.828 182.399 233.99 182.421 234.168C182.441 234.345 182.597 234.471 182.781 234.452C185.028 234.189 188.144 236.305 188.885 237.195C188.95 237.273 189.043 237.313 189.137 237.312Z" fill="#F0F0F0"/>
<path d="M191.713 235.383C191.784 235.382 191.855 235.359 191.914 235.31C192.053 235.198 192.075 234.993 191.962 234.854C190.674 233.262 187.138 231.567 184.731 231.855C184.553 231.876 184.425 232.037 184.447 232.215C184.468 232.393 184.624 232.515 184.807 232.499C186.975 232.241 190.316 233.851 191.458 235.262C191.523 235.343 191.619 235.384 191.713 235.383Z" fill="#F0F0F0"/>
<path d="M222.66 253.27C222.79 256.405 223.243 258.488 224.323 260.342C225.404 262.196 227.49 262.808 229.621 262.305C231.753 261.803 234.494 260.41 235.147 257.72C235.8 255.029 236.185 253.183 235.751 250.272L222.66 253.27Z" fill="#263238"/>
<path d="M232.112 230.503C232.985 230.585 232.915 235.037 233.35 239.255C233.816 243.775 235.132 245.664 235.554 249.37C236.036 253.606 235.305 255.482 233.782 258.013C232.26 260.544 226.977 262.964 224.453 259.262C222.396 256.244 222.596 252.942 222.625 248.717C222.656 244.294 222.416 241.308 222 238.019C221.522 234.228 221.197 231.874 221.963 231.534C222.014 232 222.061 232.591 222.115 233.048C222.182 233.611 222.335 234.72 222.335 234.72C222.42 234.957 222.646 235.227 222.731 234.845C222.789 234.587 222.768 234.318 222.744 234.058C222.635 232.891 223.224 232.806 223.542 232.721C224.233 232.536 227.509 232.022 228.165 231.988C228.834 231.953 231.142 231.891 231.435 232.277C231.633 232.538 231.656 232.969 231.71 233.503C231.774 234.141 231.781 234.539 231.935 234.409C232.117 234.257 232.123 233.053 232.117 232.766C232.111 232.492 232.106 231.868 232.107 231.593C232.108 231.322 232.126 230.773 232.112 230.503Z" fill="#37474F"/>
<path d="M235.859 251.823C235.967 254.449 235.31 256.236 234.118 258.218C232.595 260.749 226.889 263.17 224.366 259.468C223.111 257.626 222.802 255.467 222.661 253.268C224.256 250.473 233.456 249.381 235.859 251.823Z" fill="#FAFAFA"/>
<path d="M224.644 248.704C224.681 248.701 224.717 248.692 224.753 248.676C224.788 248.661 228.862 247.053 232.785 248.03C232.958 248.07 233.134 247.967 233.178 247.793C233.221 247.619 233.115 247.444 232.941 247.4C228.791 246.37 224.637 248.016 224.482 248.086C224.319 248.161 224.248 248.353 224.322 248.516C224.38 248.644 224.512 248.716 224.644 248.704Z" fill="#F0F0F0"/>
<path d="M232.642 244.877C232.765 244.867 232.876 244.787 232.921 244.663C232.98 244.494 232.893 244.309 232.724 244.248C228.825 242.855 224.442 244.776 224.277 244.86C224.116 244.941 224.052 245.135 224.133 245.295C224.214 245.455 224.411 245.516 224.568 245.439C224.605 245.421 228.877 243.559 232.505 244.86C232.55 244.876 232.597 244.881 232.642 244.877Z" fill="#F0F0F0"/>
<path d="M232.553 241.905C232.673 241.895 232.783 241.817 232.829 241.697C232.892 241.528 232.808 241.341 232.64 241.279C228.354 239.663 224.188 241.773 224.033 241.863C223.879 241.954 223.827 242.153 223.917 242.307C224.008 242.461 224.21 242.514 224.361 242.423C224.395 242.402 228.421 240.382 232.411 241.884C232.459 241.903 232.506 241.909 232.553 241.905Z" fill="#F0F0F0"/>
<path d="M232.387 238.977C232.505 238.967 232.614 238.892 232.661 238.773C232.727 238.607 232.646 238.418 232.479 238.353C228.463 236.773 223.981 238.933 223.812 239.028C223.655 239.113 223.599 239.311 223.686 239.468C223.772 239.625 223.969 239.684 224.126 239.594C224.166 239.573 228.512 237.489 232.24 238.956C232.289 238.974 232.338 238.982 232.387 238.977Z" fill="#EBEBEB"/>
<path d="M225.27 111.93C229.083 119.165 231.104 126.057 231.151 147.383C231.197 168.71 230.404 174.774 230.445 177.347C230.487 179.919 232.732 185.642 232.791 198.375C232.841 209.161 232.747 217.344 232.747 217.344C232.747 217.344 231.492 219.893 226.641 220.247C222.168 220.574 218.903 218.861 218.903 218.861C218.903 218.861 213.434 200.984 211.965 193.308C210.268 184.434 206.881 163.326 206.881 163.326L204.446 180.49C204.446 180.49 204.859 187.306 203.758 195.622C202.29 206.715 200.474 215.141 200.474 215.141C200.474 215.141 196.393 216.261 192.572 216.141C188.751 216.02 185.901 214.317 185.901 214.317C185.901 214.317 183.353 190.618 183.136 174.916C182.962 162.328 183.843 130.518 185.112 111.93H225.27Z" fill="#37474F"/>
<path d="M190.915 130.894C192.727 136.124 199.574 139.877 202.597 140.655L204.981 163.337L204.446 180.489L206.882 163.325L203.92 136.603C203.92 136.604 195.512 135.864 190.915 130.894ZM219.749 128.834C220.212 130.885 220.629 132.948 221.075 135.01C221.512 137.074 221.95 139.138 222.424 141.217C222.506 139.082 222.354 136.952 222.108 134.841C221.87 132.726 221.505 130.629 221.059 128.547C220.588 126.471 220.044 124.407 219.339 122.392C218.64 120.379 217.815 118.393 216.702 116.568C217.304 118.614 217.836 120.645 218.339 122.688C218.829 124.733 219.309 126.777 219.749 128.834ZM223.392 124.959C224.056 126.202 224.686 127.459 225.322 128.719L227.195 132.564C227.097 131.112 226.75 129.691 226.29 128.319C225.836 126.942 225.24 125.621 224.579 124.336C223.896 123.063 223.15 121.826 222.298 120.661C221.454 119.492 220.53 118.379 219.472 117.383C220.08 118.704 220.748 119.96 221.413 121.213C222.069 122.47 222.749 123.706 223.392 124.959ZM219.408 178.695C218.405 172.766 217.72 166.777 217.044 160.783C216.39 154.787 215.74 148.783 215.007 142.787C215.272 148.822 215.607 154.852 216.103 160.874C216.587 166.896 217.221 172.916 218.208 178.896C219.271 184.862 220.344 190.781 221.488 196.713C222.615 202.642 223.821 208.558 225.104 214.464C224.287 208.48 223.394 202.506 222.423 196.546C221.47 190.589 220.441 184.618 219.408 178.695ZM190.971 157.474L192.344 140.129C191.355 145.85 190.564 151.605 189.932 157.377C189.317 163.157 188.725 168.914 188.611 174.782C188.71 180.625 189.059 186.398 189.438 192.195C189.814 197.985 190.301 203.768 190.887 209.545C190.821 203.739 190.685 197.939 190.484 192.143L190.19 183.451C190.092 180.559 189.964 177.651 189.952 174.783C189.951 171.926 190.171 169.026 190.351 166.142C190.529 163.252 190.763 160.365 190.971 157.474Z" fill="#263238"/>
<path d="M193.095 74.5046C187.258 76.2454 183.133 77.7131 179.199 83.4668C174.702 90.0425 167.233 101.459 166.474 108.852C169.081 108.998 178.872 109.076 178.872 109.076L186.751 95.4616L193.095 74.5046Z" fill="#37474F"/>
<path d="M229.06 120.247C228.44 110.936 228.165 107.641 228.165 102.577C228.165 97.514 228.481 95.0128 228.566 91.2741C228.775 82.0842 225.436 76.5558 223.561 74.9691C223.561 74.9691 220.669 74.3983 216.562 73.4838C215.156 73.171 213.907 73.0115 211.773 72.7107C207.036 72.0421 204.815 72.7131 203.043 72.8937C202.169 72.9825 198.801 73.1353 198.801 73.1353C197.548 73.4277 193.099 74.5016 193.095 74.5046C193.095 74.5046 191.726 76.2653 189.049 81.0495C187.006 84.7007 185.479 87.2079 185.11 95.4006C184.61 106.504 184.438 121.254 184.438 121.254C189.572 128.12 220.476 130.245 229.06 120.247Z" fill="#455A64"/>
<path d="M217.902 43.0362C217.01 37.541 207.475 30.9115 196.678 36.5214C185.881 42.1314 188.822 48.9789 189.303 51.0211C189.702 52.7177 190.042 54.5062 190.008 56.2547C189.976 57.8565 189.564 59.4988 188.559 60.7473C187.554 61.9951 185.858 62.2579 184.595 61.5983C184.809 64.0904 186.222 66.0697 189.948 67.7247C191.4 68.3692 193.62 68.5208 194.827 68.313C194.255 68.6844 193.425 69.2782 190.976 69.129C192.478 71.0763 198.2 73.1323 203.554 69.89C203.797 69.7433 204.113 69.7553 204.395 69.7892C204.741 69.8302 205.047 70.0235 205.356 70.1836C207.728 71.4121 210.837 71.2333 213.388 70.7882C214.81 70.5399 216.225 70.1286 217.446 69.3579C218.667 68.5872 219.683 67.4245 220.065 66.0323C220.322 67.2977 220.106 68.653 219.47 69.7765C220.402 69.5137 221.338 69.1797 222.086 68.563C223.454 67.4342 224.411 65.5183 224.285 63.7492C224.158 61.98 223.506 60.3903 222.892 58.7263C222.205 56.8593 221.773 55.0449 221.851 53.0384C221.914 51.4173 221.902 49.9399 221.754 48.6069C221.448 45.8696 220.246 43.4185 217.902 43.0362Z" fill="#263238"/>
<path d="M213.896 70.6082C213.896 68.6977 213.898 62.874 213.898 62.874C213.918 63.3644 216.195 64.9282 218.492 62.9754C221.07 60.7829 221.125 57.9405 219.973 56.146C218.7 54.1625 215.569 54.0453 214.105 57.0357C213.152 58.083 211.607 56.6812 212.547 53.7282C212.891 52.6476 211.957 51.9035 211.465 51.1298C210.968 50.35 210.84 49.3546 210.774 48.4523C210.579 45.8067 209.789 43.4644 206.723 43.3128C205.45 43.25 204.188 43.6499 203.069 44.2599C202.513 44.5631 201.909 44.9328 201.292 44.7878C200.677 44.6434 200.301 44.0473 199.851 43.6046C199.137 42.9027 198.054 42.4292 197.078 42.7873C195.374 43.4125 194.427 45.5796 194.003 47.199C193.304 49.8638 192.891 52.6138 192.795 55.3669C192.55 62.3201 194.357 65.534 196.306 67.1213C197.396 68.0086 198.865 68.5262 201.477 68.4936C201.477 68.4936 201.551 69.3549 201.598 70.636C201.642 71.8071 201.517 72.4746 200.431 72.7542C199.702 72.942 198.656 73.1667 198.656 73.1667C198.656 73.1667 195.02 77.0825 201.795 77.9595C212.594 79.3583 217.385 73.6644 217.385 73.6644C217.385 73.6644 216.174 73.3745 215.812 73.2646C214.313 72.811 213.896 72.5186 213.896 70.6082Z" fill="#FFA8A7"/>
<path d="M201.477 68.4948C206.169 68.3535 210.563 66.6019 212.153 62.874C212.153 62.874 211.98 65.7605 209.294 67.5599C205.843 69.8708 201.566 69.8931 201.566 69.8931L201.477 68.4948Z" fill="#F28F8F"/>
<path d="M195.421 48.2324L198.323 47.7274C198.213 46.9144 197.474 46.3678 196.672 46.5073C195.871 46.6469 195.311 47.4194 195.421 48.2324Z" fill="#263238"/>
<path d="M207.951 49.0773L205.225 47.8633C205.535 47.092 206.396 46.7387 207.149 47.0739C207.902 47.4097 208.261 48.3066 207.951 49.0773Z" fill="#263238"/>
<path d="M198.041 52.2194C198.045 52.8911 197.497 53.4528 196.818 53.4757C196.138 53.4981 195.584 52.9714 195.581 52.3003C195.576 51.6287 196.124 51.067 196.803 51.0446C197.482 51.0223 198.036 51.5484 198.041 52.2194Z" fill="#263238"/>
<path d="M206.906 53.0637C206.91 53.7347 206.362 54.2971 205.683 54.32C205.003 54.3424 204.449 53.8157 204.446 53.1446C204.441 52.473 204.989 51.9107 205.668 51.8889C206.347 51.866 206.901 52.392 206.906 53.0637Z" fill="#263238"/>
<path d="M211.023 50.26L218.115 54.8063C217.333 54.6505 216.813 54.6384 215.785 55.1464L210.677 51.921L211.023 50.26Z" fill="#455A64"/>
<path d="M191.614 50.6327C192.077 51.5454 191.89 53.1665 192.322 54.2114C192.761 56.2916 196.381 57.6826 198.448 55.7607C198.793 55.4303 199.053 55.0275 199.263 54.6264C199.817 53.5706 199.79 52.037 200.592 51.9144C202.798 51.7743 200.534 57.4465 206.514 57.4996C209.412 57.5649 210.152 54.8444 210.582 52.6519C210.75 52.0195 211.27 51.9295 211.387 51.1425C211.423 50.3005 210.856 50.0686 210.222 50.0124C208.393 49.6676 205.826 49.3426 204.359 49.6416C202.523 50.0233 201.857 50.5633 200.85 50.483C199.91 50.4014 199.335 49.7612 197.661 49.0962C196.165 48.5097 193.661 48.4137 191.804 48.5091C190.876 48.674 191.177 50.1973 191.614 50.6327ZM202.989 51.328C204.333 49.9702 208.614 50.184 209.45 51.1933C209.91 51.7924 209.446 53.7373 209.132 54.6457C209.092 54.755 209.046 54.8638 208.994 54.9785C208.581 56.2046 207.257 56.7199 205.97 56.6383C205.018 56.5785 204.086 56.1895 203.57 55.5082C203.097 54.9302 202.91 54.2646 202.833 53.8068C202.673 52.879 202.617 51.8021 202.989 51.328ZM195.208 49.4169C198.49 49.9647 199.733 50.8206 198.549 54.0731C198.11 55.6339 195.79 56.3206 194.216 55.3935C193.025 54.6862 192.794 53.2795 192.69 52.6302C192.296 49.9267 192.491 49.2345 195.208 49.4169Z" fill="#455A64"/>
<path d="M196.885 56.7499L200.629 58.87L201.682 52.9447C201.567 52.5757 201.438 52.2803 201.279 52.1589L196.885 56.7499Z" fill="#F28F8F"/>
<path d="M204.274 59.4414L199.585 60.6856C199.902 62.0253 201.209 62.8341 202.505 62.4904C203.8 62.1467 204.592 60.7811 204.274 59.4414Z" fill="#B16668"/>
<path d="M203.739 60.241C203.939 60.2096 204.135 60.2084 204.326 60.2205C204.251 61.2739 203.546 62.2131 202.505 62.4897C202.244 62.5592 201.984 62.57 201.73 62.5507C201.605 61.4635 202.484 60.4379 203.739 60.241Z" fill="#F28F8F"/>
<path d="M223.561 74.9697C230.548 77.1182 231.208 80.692 231.31 83.4553C231.449 87.2279 228.85 95.1904 226.788 101.26C222.937 112.595 219.333 117.215 215.283 117.215L212.153 101.412L215.672 90.2268C215.672 90.2268 218.802 77.7034 223.561 74.9697Z" fill="#37474F"/>
<path d="M198.416 87.0146C202.515 90.5885 206.612 94.05 210.285 97.061C213.408 99.6213 215.618 101.366 216.817 103.431C218.016 105.496 218.779 113.292 217.35 116.085C215.92 118.876 208.401 116.065 205.457 113.16C202.513 110.255 200.26 104.892 197.838 101.003C195.416 97.1135 193.638 94.5266 191.558 93.434L198.416 87.0146Z" fill="#FFA8A7"/>
<path d="M191.558 93.4339L192.158 92.8728C194.36 93.7758 195.845 95.2489 197.622 97.8685C199.874 101.186 202.956 111.42 206.772 114.247C206.275 113.893 205.829 113.528 205.457 113.161C202.513 110.256 200.26 104.892 197.838 101.003C195.416 97.1135 193.639 94.5266 191.558 93.4339Z" fill="#F28F8F"/>
<path d="M178.441 93.2695C178.864 93.9696 178.076 95.1679 177.533 95.9199C176.99 96.6719 175.072 98.5189 172.883 99.9256C170.557 101.419 168.305 103.481 167.202 105.856C166.098 108.231 166.17 112.715 167.253 114.33C168.337 115.946 170.959 115.358 173.296 114.257C176.513 112.742 178.269 110.358 180.67 106.837C183.279 103.01 185.273 99.7529 186.845 97.8334C188.417 95.9138 178.441 93.2695 178.441 93.2695Z" fill="#FFA8A7"/>
<path d="M177.359 110.254C178.881 108.218 182.904 99.1816 181.996 97.4723C181.087 95.7624 178.584 94.6256 177.982 95.2562C178.404 94.5761 178.753 93.7873 178.44 93.2703C178.44 93.2703 188.416 95.9146 186.844 97.8341C185.272 99.7536 183.278 103.011 180.669 106.838C178.268 110.359 176.512 112.743 173.295 114.258C173.296 114.257 175.838 112.288 177.359 110.254Z" fill="#F28F8F"/>
<path d="M175.468 91.9656C176.881 92.1009 178.045 92.9634 179.154 93.7933C180.263 94.6232 183.943 97.2228 186.047 97.3533C188.152 97.4837 179.252 89.6704 175.468 91.9656Z" fill="#B16668"/>
<path d="M181.399 88.3567C179.22 87.932 177.656 88.8767 175.66 89.0205C173.665 89.1642 172.503 88.9667 171.114 89.8014C169.726 90.6362 169.153 91.7608 170.875 92.2657C172.596 92.7707 174.242 91.8949 175.917 92.0066C177.593 92.119 178.712 92.3545 180.585 93.8863C182.458 95.418 185.063 98.1173 186.61 99.1115C188.158 100.106 189.074 99.3513 189.074 99.3513C189.074 99.3513 190.096 100.547 191.033 100.891C191.969 101.236 192.434 100.353 192.362 99.7982C193.197 99.8798 193.914 99.4437 193.72 98.4127C193.525 97.3816 191.896 95.4941 191.896 95.4941C191.896 95.4941 192.866 96.3125 193.382 96.6931C194.343 97.4022 195.327 96.6297 194.747 95.2241C194.167 93.8186 189.288 89.8008 187.495 89.1624C185.702 88.524 184.018 89.0839 184.018 89.0839C184.018 89.0839 182.913 88.6514 181.399 88.3567Z" fill="#FFA8A7"/>
<path d="M192.619 95.2562C194.069 96.4365 194.548 96.6128 194.856 96.4002C194.659 96.9813 194.017 97.1625 193.381 96.6938C192.866 96.3132 191.896 95.4948 191.896 95.4948L188.321 91.8328C188.321 91.8328 191.115 94.0313 192.619 95.2562Z" fill="#F28F8F"/>
<path d="M187.872 93.2697C188.157 93.838 189.181 94.7579 190.042 95.8826C190.902 97.0072 191.924 98.3632 192.645 98.9183C193.209 99.3526 193.652 98.9026 193.749 98.8029C193.713 99.5525 193.083 99.8684 192.361 99.7983C192.233 99.0385 191.181 97.7151 190.181 96.4769C189.181 95.2387 187.206 93.3252 187.318 92.9955C187.43 92.6663 187.587 92.7013 187.872 93.2697Z" fill="#F28F8F"/>
<path d="M185.695 93.6616C185.372 93.2908 185.952 92.7622 186.185 93.2756C186.419 93.789 186.132 93.8265 186.877 94.6963C187.622 95.5666 189.082 97.105 189.469 97.6522C189.857 98.1995 190.446 98.9442 190.006 100.256V100.257C189.476 99.8212 189.074 99.3513 189.074 99.3513C189.532 98.975 189.503 97.9573 188.669 97.0271C187.836 96.0969 186.018 94.0331 185.695 93.6616Z" fill="#F28F8F"/>
<path d="M169.819 91.413C170.163 91.9397 171.868 91.9125 172.993 91.5223C174.119 91.1321 176.596 90.4581 178.011 90.7299C179.425 91.0017 180.855 91.9348 182.349 93.8447C183.844 95.7545 185.882 97.9525 187.136 98.7806C188.39 99.6081 188.893 99.4601 188.893 99.4601C188.555 99.625 187.756 99.8472 186.611 99.111C185.063 98.1168 182.459 95.4175 180.585 93.8858C178.712 92.354 177.594 92.1185 175.918 92.0061C174.243 91.8938 172.597 92.7702 170.875 92.2652C170.181 92.0623 169.865 91.7579 169.819 91.413Z" fill="#F28F8F"/>
<path d="M191.382 92.8819C190.046 92.5877 189.214 92.54 187.451 92.499C185.03 92.2628 182.75 92.0411 182.331 91.425C181.912 90.809 180.427 89.3219 180.397 88.6485C180.367 87.9744 180.84 87.5413 180.84 87.5413C180.84 87.5413 180.226 86.9542 179.968 86.1624C179.709 85.3699 180.283 84.4084 180.283 84.4084C180.283 84.4084 179.833 84.0701 179.624 83.3484C179.386 82.5245 179.933 81.6046 180.801 81.3395C180.214 80.904 180.037 80.1302 180.098 79.5063C180.184 78.6227 181.317 77.9866 182.798 78.3195C184.278 78.6529 187.22 79.5069 187.888 79.0672C188.555 78.6281 188.229 76.264 188.313 74.7595C188.396 73.2549 189.371 70.7435 190.792 71.0002C191.548 71.1367 191.15 73.4603 191.515 75.5302C191.881 77.6001 193.856 79.9635 194.93 82.5263C195.436 83.7337 196.797 85.3452 198.416 87.0146C198.133 89.9187 195.457 92.9447 193.438 93.5445C192.581 93.1791 192.087 93.0377 191.382 92.8819Z" fill="#FFA8A7"/>
<path d="M187.887 79.0673C188.295 78.7985 188.332 77.8092 188.318 76.7371C188.605 77.7614 189.89 78.9785 189.314 79.4527C188.737 79.9268 186.711 79.2334 185.405 78.9332H185.405C186.503 79.1639 187.526 79.3041 187.887 79.0673Z" fill="#F28F8F"/>
<path d="M180.189 81.6764C180.365 81.5278 180.571 81.4094 180.801 81.3394C180.801 81.3394 182.394 82.1324 183.811 82.7177C181.76 82.4435 180.713 82.0062 180.189 81.6764Z" fill="#F28F8F"/>
<path d="M180.283 84.4082C181.077 84.976 182.804 85.8826 182.804 85.8826C182.804 85.8826 181.048 85.4507 180.005 85.0648C180.118 84.686 180.283 84.4082 180.283 84.4082Z" fill="#F28F8F"/>
<path d="M180.84 87.5413C181.468 88.1247 183.313 89.3043 183.313 89.3043C183.313 89.3043 181.464 88.7142 180.48 88.1199C180.608 87.7581 180.84 87.5413 180.84 87.5413Z" fill="#F28F8F"/>
<path d="M180.813 89.5225C181.553 90.4659 182.53 91.4239 185.221 91.7222C187.512 91.9765 189.888 91.985 192.158 92.8722C192.526 93.016 193.226 93.3699 193.477 93.5324C193.477 93.5354 193.404 93.5542 193.404 93.5542C191.237 92.7829 189.587 92.7073 187.451 92.499C185.029 92.2628 182.75 92.0411 182.331 91.4251C182.05 91.0125 181.293 90.2104 180.813 89.5225Z" fill="#F28F8F"/>
<path d="M187.451 92.499L185.293 92.1958C184.578 92.0871 183.855 91.9929 183.173 91.7827C182.834 91.671 182.496 91.5653 182.317 91.2542C182.089 90.9643 181.853 90.6895 181.611 90.4183C181.372 90.1459 181.135 89.8717 180.916 89.5848C180.704 89.2985 180.461 89.0097 180.396 88.6479C180.429 89.017 180.649 89.3335 180.838 89.6409C181.044 89.9429 181.27 90.2304 181.495 90.5149C181.719 90.8018 181.96 91.0742 182.174 91.3611C182.221 91.4312 182.276 91.5061 182.353 91.5858C182.429 91.6504 182.508 91.7145 182.594 91.7555C182.761 91.8522 182.938 91.912 183.115 91.9693C183.827 92.1711 184.551 92.2665 185.275 92.3444C185.999 92.4199 186.725 92.4646 187.451 92.499Z" fill="#B16668"/>
<path d="M184.493 82.6496C184.633 82.7462 184.736 82.8755 184.941 83.0724C185.103 83.2282 185.302 83.3508 185.508 83.445C185.606 83.4897 185.778 83.5356 185.884 83.5526C185.987 83.5689 186.466 83.5948 186.533 83.6057C186.616 83.619 186.711 83.6432 186.777 83.6963C186.797 83.712 186.789 83.7567 186.768 83.7688C186.638 83.8388 186.481 83.8582 186.336 83.8691C186.179 83.8805 186.029 83.9331 185.871 83.9288C185.637 83.9222 185.42 83.8696 185.216 83.7537C185.025 83.645 184.884 83.4535 184.759 83.2759C184.581 83.0222 184.544 82.8876 184.488 82.6586C184.488 82.6562 184.489 82.6472 184.493 82.6496Z" fill="#F28F8F"/>
<path d="M183.541 85.7558C183.681 85.8524 183.784 85.9817 183.989 86.1786C184.152 86.335 184.35 86.457 184.557 86.5513C184.655 86.596 184.827 86.6419 184.933 86.6588C185.037 86.6751 185.516 86.7011 185.583 86.7113C185.665 86.7246 185.761 86.7488 185.827 86.8019C185.847 86.8176 185.839 86.8623 185.817 86.8744C185.688 86.9445 185.531 86.9638 185.386 86.9747C185.228 86.9862 185.078 87.0387 184.921 87.0345C184.686 87.0278 184.469 86.9753 184.265 86.8593C184.074 86.7506 183.933 86.5591 183.808 86.3821C183.629 86.1279 183.593 85.9932 183.536 85.7649C183.536 85.7618 183.537 85.7534 183.541 85.7558Z" fill="#F28F8F"/>
<path d="M183.28 88.4376C183.42 88.5343 183.523 88.6635 183.728 88.8604C183.89 89.0169 184.089 89.1389 184.296 89.2337C184.393 89.2784 184.566 89.3243 184.671 89.3412C184.775 89.3575 185.253 89.3835 185.321 89.3944C185.403 89.4076 185.499 89.4318 185.565 89.485C185.584 89.5007 185.577 89.5454 185.555 89.5574C185.426 89.6275 185.269 89.6468 185.124 89.6577C184.966 89.6692 184.816 89.7217 184.659 89.7175C184.424 89.7109 184.207 89.6583 184.003 89.5423C183.812 89.4336 183.671 89.2421 183.546 89.0652C183.367 88.8109 183.331 88.6768 183.274 88.4479C183.275 88.4437 183.276 88.4346 183.28 88.4376Z" fill="#F28F8F"/>
<path d="M247.902 27.7128C243.551 30.5208 240.69 34.7741 239.514 39.4418L239.099 41.6471C238.51 46.1052 239.429 50.788 242.051 54.8529C247.923 63.9485 260.096 66.5747 269.191 60.7033C273.256 58.0807 276.026 54.1897 277.324 49.8886L277.848 47.704C278.707 42.9674 277.85 37.9137 275.042 33.5631C269.171 24.4675 256.997 21.8413 247.902 27.7128Z" fill="white"/>
<path d="M246.998 26.3182C238.149 32.0272 234.954 43.2417 238.986 52.6134L235.098 57.9678C234.434 58.8823 235.242 60.1344 236.349 59.906L242.829 58.5694C249.704 66.1043 261.241 67.8154 270.092 62.1022C279.961 55.7409 282.809 42.5284 276.44 32.662C270.072 22.7957 256.864 19.9502 246.998 26.3182ZM275.042 33.5632C277.85 37.9138 278.707 42.9675 277.847 47.704L277.323 49.8887C276.025 54.1898 273.256 58.0802 269.191 60.7033C260.095 66.5748 247.922 63.948 242.051 54.8524C239.428 50.7875 238.509 46.1046 239.098 41.6465L239.514 39.4413C240.69 34.7736 243.55 30.5202 247.901 27.7122C256.997 21.8414 269.171 24.4676 275.042 33.5632Z" fill="#455A64"/>
<path d="M269.31 38.1476C268.099 34.2149 264.776 31.7887 260.843 31.1128C258.734 30.7504 256.471 31.0379 254.639 32.1897C252.978 33.2334 251.29 35.1813 251.444 37.2663C251.464 37.5327 252.17 37.8492 252.287 37.4983C252.542 36.7288 252.55 36.3078 252.979 35.6126C253.407 34.9204 254.12 34.1545 254.76 33.6526C256.131 32.5787 258.007 32.258 259.738 32.322C263.187 32.4494 266.114 33.9697 267.636 37.1419C269.108 40.2108 268.506 43.897 266.453 46.551C265.353 47.974 264.197 48.8263 262.778 49.9002C261.256 51.0532 260.13 51.8336 259.171 53.2506C258.695 53.9536 258.285 54.7123 257.711 55.3441C257.092 56.026 256.199 56.3165 255.286 56.2573C254.353 56.1969 253.13 55.7602 252.385 55.1538C251.771 54.6537 250.926 53.8703 250.834 52.0951C250.796 51.3782 249.972 51.5316 249.939 52.3543C249.902 53.2355 249.901 53.793 250.496 54.7684C250.998 55.5929 251.835 56.3878 252.683 56.7834C254.345 57.5583 256.7 57.8416 258.199 56.6288C259.628 55.4721 260.194 53.6003 261.621 52.4255C263.177 51.145 264.551 50.2088 266.052 48.8498C268.986 46.1892 270.501 42.0126 269.31 38.1476Z" fill="#1EA3CD"/>
<path d="M264.964 38.2659C265.154 38.0086 264.99 37.5116 264.898 37.2506C264.819 37.0265 264.697 36.8163 264.554 36.6249C263.475 35.1892 261.419 34.6027 259.691 34.7609C257.35 34.9754 254.434 36.8484 254.637 39.5066C254.728 40.685 255.626 41.7891 256.812 41.9842C257.959 42.1726 258.876 41.4623 259.921 41.1579C261.483 40.7031 262.102 42.3617 262.124 43.6295C262.137 44.3283 262.139 45.1648 261.888 45.8268C261.653 46.4465 261.108 46.6235 260.517 46.7624C259.961 46.8929 259.378 46.9871 258.88 47.2837C258.235 47.6672 258.041 48.276 257.697 48.8994C257.483 49.2883 257.126 49.6809 256.74 49.902C256.361 50.1194 255.951 50.0844 255.555 49.9425C255.161 49.8011 254.882 49.475 254.665 49.1253C254.547 48.9356 254.482 48.6487 254.299 48.5116C253.921 48.2307 253.666 48.5968 253.591 48.935C253.494 49.3699 253.659 49.8283 253.914 50.1786C254.439 50.9004 255.457 51.223 256.324 51.1003C257.183 50.9789 257.999 50.4378 258.511 49.7468C258.88 49.2503 258.992 48.505 259.533 48.1577C259.967 47.8786 260.542 47.8309 261.032 47.7083C261.496 47.5917 261.962 47.4304 262.337 47.1242C262.931 46.6386 263.121 45.8908 263.194 45.1588C263.323 43.8505 263.391 42.4094 262.603 41.2787C261.86 40.2132 260.629 39.8237 259.405 40.2223C258.478 40.5243 257.2 41.5064 256.325 40.6203C255.189 39.4715 256.128 37.7568 257.152 36.9251C258.268 36.0191 259.779 35.6331 261.193 35.8759C261.84 35.9871 262.452 36.248 263.001 36.6056C263.529 36.9498 263.806 37.3738 264.13 37.8927C264.3 38.1645 264.548 38.6767 264.927 38.3094C264.94 38.2961 264.953 38.2817 264.964 38.2659Z" fill="#1EA3CD"/>
<path d="M246.064 48.8747C245.845 48.345 246.098 47.7379 246.628 47.5193L271.345 37.3419C271.875 37.1232 272.482 37.3757 272.7 37.906C272.919 38.4357 272.666 39.0428 272.136 39.2614L247.419 49.4388C246.889 49.6575 246.282 49.405 246.064 48.8747Z" fill="#455A64"/>
<path d="M69.8388 231.94C70.6107 222.856 69.8889 219.037 70.8179 204.849C70.929 201.211 71.1072 197.314 71.3935 193.853C72.3562 182.211 74.2093 178.248 74.4032 176.001C74.4032 176.001 73.7932 155.644 74.8604 130.157C75.3624 118.167 78.8982 114.574 81.7654 108.239L116.977 108.631C118.839 124.501 118.731 153.942 118.429 170.131C118.275 178.384 114.488 219.378 114.409 220.393C114.129 223.994 114.428 225.419 115.83 226.951C118.765 230.157 123.038 233.226 126.73 236.034C126.174 237.445 121.695 237.343 119.49 236.24C115.967 234.477 112.482 231.807 111.284 230.903C108.25 228.615 103.811 226.75 103.801 223.318C103.797 222.891 103.683 222.772 103.706 222.705C103.671 220.701 99.7929 194.249 99.4837 187.391C99.2173 181.494 100.058 171.501 100.058 171.501L96.9125 151.18C96.9125 151.18 95.516 168.139 93.013 178.187C90.9758 186.366 87.3886 197.163 85.0849 207.231C82.8508 218.834 79.6713 227.076 79.0697 232.89C78.8921 234.277 77.1496 247.899 76.4592 251.016C75.7688 254.133 68.9243 254.139 68.5492 248.761C68.298 245.182 69.6932 233.65 69.8388 231.94Z" fill="#B16668"/>
<path d="M133.024 239.73C133.213 239.73 133.497 241.807 132.468 242.69C131.279 243.708 127.791 245.38 123.185 244.785C118.579 244.19 116.086 242.771 114.244 241.235C112.403 239.699 109.821 237.533 107.738 237.075C105.803 236.649 103.41 235.203 102.791 234.608C102.172 234.013 102.261 231.366 102.261 231.366L133.024 239.73Z" fill="#263238"/>
<path d="M103.619 221.735C103.619 221.735 103.272 221.746 103.152 222.358C103.009 223.087 102.854 225.209 102.548 226.406C102.123 228.069 102.094 230.92 102.346 232.277C102.599 233.633 106.044 235.149 108.06 235.914C110.12 236.696 112.5 238.305 114.589 240.022C116.751 241.799 121.304 243.582 124.306 243.628C128.889 243.697 131.859 242.461 132.778 240.823C133.914 238.796 133.026 237.62 127.762 235.189C126.765 234.729 123.265 232.665 122.072 231.917C120.812 231.127 119.604 230.248 118.491 229.261C117.928 228.762 117.389 228.235 116.885 227.677C116.44 227.186 115.815 226.592 115.553 225.982C115.493 225.844 115.452 225.682 115.398 225.538C115.245 225.124 115.14 224.741 115.057 224.309C114.972 223.874 114.92 223.238 114.503 222.977C114.026 222.677 113.162 222.714 112.621 222.755C111.939 222.805 111.255 222.892 110.589 223.04C109.814 223.212 108.917 223.281 108.457 224.004C108.104 224.559 108.049 225.261 108.021 225.903C108.007 226.208 108.013 226.516 108.01 226.823C108.009 226.953 108.065 227.189 107.881 227.134C107.705 227.082 107.51 226.624 107.444 226.469C107.299 226.126 107.206 225.76 107.046 225.423C106.863 225.038 106.657 224.643 106.392 224.314C106.143 224.006 105.323 223.698 105.01 223.455C104.725 223.234 104.361 223.124 104.108 222.873C103.787 222.555 103.647 221.994 103.619 221.735Z" fill="#37474F"/>
<path d="M128.611 235.59C121.974 236.041 119.88 240.117 119.596 242.64C121.239 243.221 122.934 243.607 124.307 243.628C128.89 243.696 132.048 242.463 132.967 240.824C134.038 238.912 133.313 237.368 128.611 235.59Z" fill="#FAFAFA"/>
<path d="M118.663 235.652C118.591 235.652 118.518 235.628 118.458 235.579C118.319 235.466 118.3 235.263 118.412 235.125C119.337 234.001 122.003 232.512 124.415 232.774C124.594 232.793 124.722 232.953 124.703 233.13C124.683 233.306 124.528 233.434 124.346 233.415C122.094 233.177 119.648 234.641 118.914 235.533C118.85 235.612 118.757 235.652 118.663 235.652Z" fill="#F0F0F0"/>
<path d="M115.807 233.994C115.734 233.994 115.662 233.97 115.601 233.921C115.463 233.809 115.443 233.605 115.556 233.467C116.482 232.342 119.149 230.85 121.559 231.117C121.737 231.135 121.866 231.295 121.846 231.472C121.827 231.648 121.674 231.776 121.489 231.757C119.238 231.516 116.791 232.984 116.057 233.876C115.994 233.954 115.901 233.994 115.807 233.994Z" fill="#F0F0F0"/>
<path d="M113.161 232.1C113.088 232.1 113.016 232.077 112.955 232.027C112.817 231.915 112.797 231.711 112.91 231.573C113.835 230.447 116.512 228.958 118.913 229.222C119.091 229.241 119.219 229.401 119.2 229.577C119.18 229.754 119.027 229.881 118.842 229.863C116.594 229.623 114.144 231.089 113.411 231.981C113.348 232.061 113.255 232.1 113.161 232.1Z" fill="#F0F0F0"/>
<path d="M110.568 230.207C110.498 230.207 110.426 230.184 110.367 230.137C110.226 230.026 110.204 229.823 110.315 229.684C111.588 228.087 114.461 227.037 116.87 227.3C117.048 227.319 117.177 227.479 117.157 227.656C117.139 227.832 116.983 227.956 116.8 227.941C114.631 227.706 111.952 228.669 110.823 230.084C110.759 230.166 110.664 230.207 110.568 230.207Z" fill="#F0F0F0"/>
<path d="M78.5786 253.476C78.3594 256.588 77.849 258.646 76.7165 260.46C75.5846 262.274 73.4827 262.823 71.3675 262.265C69.2523 261.707 66.5518 260.247 65.9756 257.555C65.3994 254.862 65.0666 253.018 65.5824 250.135L78.5786 253.476Z" fill="#263238"/>
<path d="M69.9269 230.83C69.0523 230.888 68.7443 235.065 68.191 239.246C67.5979 243.727 66.2292 245.568 65.7031 249.241C65.1015 253.438 65.7786 255.324 67.2294 257.882C68.679 260.439 73.8897 262.991 76.5153 259.38C78.6553 256.436 78.7815 253.147 78.6396 248.948C78.4922 244.607 78.8298 241.606 79.0467 238.316C79.2539 235.171 79.992 232.005 79.2363 231.646C79.1729 232.108 79.1089 232.694 79.0413 233.147C78.9585 233.704 78.9494 234.291 78.7393 234.821C78.6474 235.054 78.4493 235.297 78.3744 234.916C78.3237 234.657 78.3527 234.391 78.3841 234.133C78.526 232.976 77.9396 232.875 77.6243 232.781C76.9399 232.578 74.2304 232.216 73.5763 232.164C72.9088 232.111 70.6046 231.986 70.3008 232.361C70.0954 232.615 70.061 233.044 69.9921 233.574C69.91 234.205 69.7572 234.667 69.7415 234.468C69.7052 234.015 69.8073 232.839 69.8224 232.554C69.8363 232.282 69.8858 231.91 69.8925 231.637C69.8997 231.367 69.9051 231.098 69.9269 230.83Z" fill="#37474F"/>
<path d="M65.4314 251.674C65.2496 254.282 65.8554 256.076 66.9903 258.079C68.4399 260.636 74.0728 263.201 76.6984 259.59C78.0049 257.793 78.3745 255.656 78.5775 253.474C77.0633 250.651 67.9012 249.313 65.4314 251.674Z" fill="#FAFAFA"/>
<path d="M76.7243 248.883C76.6881 248.878 76.6519 248.869 76.6174 248.852C76.5824 248.835 72.5574 247.126 68.6096 247.988C68.4351 248.023 68.2623 247.916 68.2237 247.742C68.1856 247.568 68.2967 247.396 68.4719 247.358C72.6473 246.448 76.7515 248.199 76.9049 248.272C77.0656 248.352 77.1314 248.544 77.0523 248.704C76.9901 248.829 76.8566 248.897 76.7243 248.883Z" fill="#F0F0F0"/>
<path d="M68.8421 244.857C68.7201 244.844 68.6102 244.761 68.5697 244.638C68.5153 244.468 68.6072 244.285 68.7775 244.23C72.7125 242.954 77.0384 244.984 77.2009 245.072C77.3591 245.156 77.4177 245.351 77.3319 245.508C77.2468 245.664 77.0474 245.719 76.8934 245.639C76.8566 245.62 72.6407 243.651 68.9792 244.844C68.9333 244.859 68.8874 244.862 68.8421 244.857Z" fill="#F0F0F0"/>
<path d="M69.0149 241.905C68.8947 241.892 68.7872 241.811 68.7449 241.691C68.6863 241.522 68.7757 241.338 68.9448 241.28C73.2737 239.792 77.3761 242.004 77.5283 242.099C77.6805 242.193 77.727 242.391 77.6315 242.542C77.5367 242.694 77.3332 242.741 77.1852 242.646C77.1514 242.624 73.1861 240.506 69.1574 241.89C69.1097 241.906 69.0614 241.911 69.0149 241.905Z" fill="#F0F0F0"/>
<path d="M69.2637 239C69.1453 238.987 69.0384 238.908 68.9955 238.79C68.9345 238.622 69.0209 238.438 69.19 238.377C73.2471 236.917 77.6647 239.187 77.8302 239.286C77.9842 239.375 78.035 239.574 77.9438 239.727C77.8538 239.881 77.6551 239.934 77.5004 239.841C77.4618 239.818 73.1782 237.627 69.4111 238.983C69.3615 239 69.312 239.005 69.2637 239Z" fill="#EBEBEB"/>
<path d="M78.0713 108.317C74.0565 115.405 73.8747 121.218 73.226 142.417C72.5767 163.616 72.6178 171.789 72.5042 174.344C72.3906 176.9 71.928 181.453 70.4657 194.033C69.0034 206.612 70.1571 218.476 70.1571 218.476C70.1571 218.476 71.0389 220.513 75.8745 220.998C80.3351 221.447 82.5662 219.804 82.5662 219.804C82.5662 219.804 88.689 198.241 90.5602 190.695C93.3948 179.263 96.8508 156.254 96.8508 156.254L99.1503 171.832C99.1503 171.832 97.7061 178.767 98.9371 189.827C100.168 200.886 101.735 209.021 101.735 209.021C101.735 209.021 105.542 210.31 109.363 210.296C113.184 210.281 115.609 208.621 115.609 208.621C115.609 208.621 119.498 179.101 119.647 166.583C119.795 154.064 118.808 123.925 117.778 108.885L78.0713 108.317Z" fill="#37474F"/>
<path d="M70.9815 219.391C71.1615 219.531 71.3789 219.677 71.6374 219.823C70.639 200.018 73.4687 191.84 75.2083 184.284C75.3756 183.558 75.5344 182.868 75.6812 182.209C76.9973 176.302 75.9391 166.379 76.0345 156.643C76.0635 153.715 76.0931 150.686 76.1596 147.469C76.2369 143.706 76.3975 139.811 76.7515 135.96C83.6957 135.214 85.2824 128.416 87.2798 119.833C87.5528 118.66 87.8355 117.447 88.1417 116.201L87.5274 116.053C87.2212 117.301 86.9379 118.517 86.6643 119.692C84.6627 128.292 83.1931 134.539 76.8113 135.309C77.6696 126.563 79.5867 118.1 83.9747 112.017L83.4619 111.651C76.9339 120.699 75.7881 134.829 75.5272 147.458C75.4607 150.677 75.4305 153.707 75.4015 156.638C75.3067 166.338 76.3643 176.231 75.0627 182.074C74.9159 182.731 74.7577 183.42 74.5904 184.144C72.8581 191.676 70.0422 199.784 70.9815 219.391ZM101.132 134.165L96.8508 156.253L99.1502 171.832L99.3785 156.861L102.261 141.964C102.344 143.448 102.43 144.969 102.518 146.522C103.245 159.329 103.687 169.161 102.978 172.207C101.033 180.555 101.514 185.841 102.386 195.437C102.474 196.411 102.566 197.429 102.661 198.498C103.139 203.92 103.759 206.115 104.122 209.606C104.323 209.658 104.543 209.712 104.775 209.765C104.412 206.284 103.779 203.978 103.291 198.442C103.196 197.373 103.104 196.355 103.016 195.379C102.15 185.848 101.673 180.598 103.594 172.348C104.323 169.214 103.914 159.962 103.149 146.485C103.01 144.04 102.876 141.672 102.754 139.416L103.359 136.732C106.402 136.042 111.293 133.786 112.231 129.63C107.497 134.445 101.132 134.165 101.132 134.165Z" fill="#263238"/>
<path d="M108.5 67.7302C112.423 68.8132 114.715 69.0216 119.858 74.5802C128.944 84.4018 135.182 89.4054 137.405 92.8905L124.443 99.7513L108.741 83.7507L108.5 67.7302Z" fill="#B16668"/>
<path d="M121.074 96.3182L129.251 90.8109C125.724 90.4793 121.411 93.3797 119.398 94.6094L121.074 96.3182Z" fill="#9A4A4D"/>
<path d="M107.967 67.2827C115.632 68.5958 116.412 70.5455 120.462 74.5808C124.512 78.6162 129.036 83.8311 129.036 83.8311C129.036 83.8311 126.354 84.4683 122.952 87.3464C119.864 89.9587 118.221 94.1082 118.221 94.1082L108.095 83.7411L107.967 67.2827Z" fill="#1EA3CD"/>
<path d="M84.9002 65.5032C84.9002 65.5032 78.682 67.7295 73.188 69.7137C73.188 69.7137 68.2956 71.9672 71.5886 89.6747C72.4191 94.1388 74.1097 100.639 74.5711 106.157C74.8333 109.293 74.3688 116.744 73.952 123.205C73.952 123.205 83.9772 129.758 101.903 127.757C115.978 126.186 118.606 119.796 118.606 119.796C118.606 119.796 117.696 104.143 116.522 93.6731C114.836 78.6384 111.831 70.2295 107.968 67.2826L99.9512 66.4261L84.9002 65.5032Z" fill="#455A64"/>
<path d="M80.4335 51.441C81.8155 56.061 83.3792 58.0505 84.0871 59.3274C84.795 60.6042 86.1848 60.9304 86.1848 60.9304L85.8931 55.3772L85.5844 51.5104C85.5844 51.5104 88.596 48.5955 88.7874 45.8062C88.8714 44.5801 88.7572 43.5449 88.573 42.7077L107.068 43.4398C107.068 43.4398 108.639 38.7098 106.107 35.0792C103.681 31.6002 100.171 29.427 93.9867 29.9241C86.4385 30.5317 82.6206 34.3623 82.1688 37.5L82.1749 37.5055C81.4241 37.8123 80.2541 38.5522 79.4067 40.3141C78.7296 41.7202 78.2863 44.2624 80.4335 51.441Z" fill="#263238"/>
<path d="M81.2278 56.6832C81.397 56.7997 81.5739 56.9054 81.76 56.9979C82.222 57.2286 82.797 57.4394 83.3207 57.4448C83.7701 57.4496 84.2472 57.2189 84.6404 57.0021C85.082 56.7593 85.5247 56.4428 85.8551 56.0568L84.8216 66.2783C88.474 73.1349 105.115 74.7458 99.5399 67.5075L99.7423 63.7959C99.7423 63.7959 100.698 63.7723 102.202 63.4872C104.712 63.0185 107.08 61.0181 107.756 58.2379C108.755 54.124 107.963 45.5502 107.166 40.7394C106.941 39.3822 105.524 37.8106 104.288 37.2332C101.221 35.8005 98.4811 38.0552 94.3099 39.8279C92.5824 40.5624 88.3563 40.9768 87.225 40.476C88.2783 41.8211 88.3931 43.1638 88.4046 43.9448C88.4161 44.7693 88.2415 45.8861 87.9371 46.6556C87.6315 47.4269 87.2437 48.1746 87.0848 48.9955C87.0123 49.3717 86.9725 49.7921 86.6922 50.0537C86.3365 50.3847 85.7427 50.2928 85.3495 50.0084C84.9557 49.7239 84.6978 49.295 84.3904 48.9187C83.9857 48.4229 83.4687 47.9995 82.8574 47.811C81.6875 47.4504 80.3629 48.0538 79.6502 49.0492C78.9375 50.044 78.7617 51.3444 78.9091 52.5597C79.1054 54.1723 79.9063 55.7705 81.2278 56.6832Z" fill="#B16668"/>
<path d="M99.7429 63.7963C96.4341 63.864 93.4872 63.5287 91.5122 62.7478C89.5377 61.9668 87.7347 59.3424 87.0963 56.709C87.1537 58.8405 88.1799 62.5962 91.1818 64.0881C94.1836 65.5799 97.4839 65.5093 99.6498 65.4996L99.7429 63.7963Z" fill="#9A4A4D"/>
<path d="M94.7882 44.0172L92.3287 45.8045C91.8461 45.0851 92.0056 44.1012 92.6851 43.6077C93.3646 43.1143 94.3062 43.2973 94.7882 44.0172Z" fill="#263238"/>
<path d="M106 44.2316L102.974 43.7592C103.068 42.904 103.823 42.3169 104.658 42.4473C105.494 42.5778 106.095 43.3763 106 44.2316Z" fill="#263238"/>
<path d="M94.0591 47.4914C94.128 48.1788 94.7344 48.6801 95.4139 48.6113C96.0934 48.5424 96.5887 47.9299 96.5198 47.2426C96.451 46.5552 95.8445 46.0539 95.165 46.1228C94.4855 46.1916 93.9903 46.8041 94.0591 47.4914Z" fill="#263238"/>
<path d="M103.227 46.5884C103.296 47.2757 103.902 47.777 104.581 47.7082C105.261 47.6393 105.756 47.0269 105.687 46.3395C105.619 45.6522 105.012 45.1508 104.333 45.2197C103.653 45.2886 103.158 45.901 103.227 46.5884Z" fill="#263238"/>
<path d="M99.175 45.4988L100.354 53.3852L104.755 51.5581C103.097 48.8522 101.237 46.833 99.175 45.4988Z" fill="#9A4A4D"/>
<path d="M73.2495 70.1633C65.0998 74.0011 65.6071 80.9278 68.2792 88.4923C70.505 94.7926 71.5583 96.6584 74.8731 103.705C77.2094 108.671 81.479 112.826 85.2051 112.324C88.9312 111.824 91.6595 107.548 90.0993 101.994C88.5392 96.4391 82.2026 83.136 82.2026 83.136C82.2026 83.136 78.2833 71.8775 73.2495 70.1633Z" fill="#B16668"/>
<path d="M89.0273 98.8139C88.14 96.4426 86.9544 93.6364 85.8189 91.0549C80.6649 97.8934 80.9198 101.301 81.7087 105.178L85.625 103.215L89.0273 98.8139Z" fill="#9A4A4D"/>
<path d="M67.6982 88.7507C65.0261 81.1862 65.0382 73.5517 73.188 69.7139C78.2217 71.428 82.5421 83.2513 82.5421 83.2513L85.3646 89.3783C85.3646 89.3783 85.5204 91.5074 79.7565 94.7787C73.9925 98.0499 71.5517 97.583 71.5517 97.583L67.6982 88.7507Z" fill="#1EA3CD"/>
<path d="M105.617 66.1796C105.544 66.0498 105.462 65.9229 105.41 65.7834C105.324 65.5545 105.322 65.3044 105.298 65.061C105.242 64.4643 105.034 63.8566 104.594 63.4508C104.403 63.2744 104.176 63.1433 103.958 63.002C103.884 62.9537 103.809 62.9029 103.753 62.8335C103.584 62.6215 103.645 62.3158 103.6 62.0483C103.503 61.4648 102.849 61.0879 102.262 61.1562C101.554 61.2383 101.11 61.7583 100.752 62.3152C100.723 62.3599 100.693 62.4076 100.646 62.4312C100.596 62.4566 100.536 62.4511 100.48 62.4481C100.216 62.4312 99.9452 62.4705 99.6969 62.5647C99.4583 62.6553 99.2403 62.8027 99.073 62.9959C98.6907 63.4387 98.5904 64.0517 98.5058 64.6304C98.3651 65.5883 98.2872 66.5505 98.1416 67.512C97.8571 69.3935 97.8294 71.3462 96.9421 73.0658C96.8599 73.2253 96.7258 73.4059 96.5495 73.3763C96.3876 73.3485 96.3133 73.1619 96.2771 73.0012C95.902 71.3257 96.7718 69.4865 95.3542 68.0985C94.1214 66.8917 94.1148 69.4261 93.9764 70.0948C93.7904 70.9935 93.6038 71.8923 93.4177 72.791C93.1097 74.2793 92.7992 75.7917 92.9194 77.3071C93.0324 78.7374 93.5259 80.123 93.5693 81.5569C93.6134 83.0222 93.4884 84.9429 92.6537 86.1352C89.1372 91.1574 86.6753 93.0238 86.6753 93.0238C86.6753 93.0238 82.8091 97.3847 82.065 101.703C81.0243 107.74 82.3126 112.271 84.7238 112.323C85.8472 112.347 87.7806 111.876 89.7213 110.114C90.6786 109.245 91.4257 108.415 92.4109 107.163C97.1124 101.469 99.555 95.0236 103.202 85.7939C105.242 80.6303 106.474 74.6211 106.652 72.2637C106.731 71.2224 106.745 70.0827 106.579 69.051C106.425 68.1003 106.093 67.0192 105.617 66.1796Z" fill="#B16668"/>
<path d="M92.4109 107.163C96.4825 102.127 98.9486 96.0855 101.304 90.1144C103.107 85.6285 104.827 81.1305 105.764 76.3806C106.243 74.0389 106.687 71.6501 106.387 69.2709C106.221 68.0654 105.842 66.986 105.238 65.9133C105.056 65.5129 105.132 65.0943 105.028 64.6944C104.909 64.1327 104.627 63.6598 104.137 63.362C103.955 63.2617 103.76 63.1113 103.601 62.9688C103.408 62.7314 103.428 62.4572 103.415 62.273C103.432 61.7246 102.939 61.3664 102.425 61.3501C101.661 61.3265 101.209 62.0103 100.797 62.5659C100.707 62.6408 100.585 62.6505 100.526 62.6457C99.7555 62.5671 99.0875 63.0063 98.8791 63.7546C98.5493 65.0478 98.3947 67.1364 98.1706 68.4954C97.9653 70.1014 97.804 71.7564 97.0043 73.2132C96.8944 73.4446 96.5241 73.6336 96.32 73.3793C95.9751 72.7959 96.0832 72.149 96.0693 71.5196C96.1339 70.3412 96.2294 69.0444 95.3234 68.165C95.0782 67.8908 94.6535 67.6589 94.4391 68.0943C94.0846 68.7992 94.1419 69.6515 93.936 70.4294L93.419 72.7898L93.8822 70.4185C94.0731 69.64 93.9843 68.8059 94.3437 68.04C94.5968 67.5218 95.112 67.7362 95.4218 68.0672C96.7283 69.277 96.1291 71.1717 96.3484 72.7107C96.3858 73.0019 96.4982 73.5243 96.7893 73.0792C97.8469 71.0165 97.7895 68.3178 98.1519 66.0552C98.3385 64.5054 98.3325 62.0948 100.539 62.2549C100.579 62.2549 100.564 62.2513 100.553 62.2597C100.552 62.2639 100.574 62.2343 100.604 62.1872C101.003 61.5446 101.612 60.9333 102.435 60.949C103.127 60.9394 103.858 61.5301 103.827 62.2549C103.827 62.6016 103.872 62.7012 104.111 62.8522C104.783 63.2019 105.313 63.8561 105.443 64.6038C105.555 65.0266 105.493 65.4645 105.638 65.7557C106.68 67.5024 107.047 69.6454 106.918 71.6628C106.316 78.1497 104.139 84.3287 101.629 90.2436C99.2101 96.1942 96.6117 102.228 92.4109 107.163Z" fill="#9A4A4D"/>
<path d="M100.857 62.593C101.053 62.9488 101.045 63.3661 101.057 63.7618C101.044 64.9643 101.009 66.185 100.921 67.3791C100.808 68.7931 100.671 70.8159 100.545 72.2081C101.074 69.8422 101.323 67.3912 101.281 64.9704C101.224 64.1821 101.32 63.2761 100.857 62.593ZM103.057 72.7366C103.892 69.5577 103.912 66.2013 103.647 62.9403C103.445 66.1675 103.522 69.5378 103.057 72.7366ZM105.12 73.2204C105.669 70.8316 105.788 68.3111 105.416 65.8866C105.373 68.0278 105.217 71.0532 105.12 73.2204Z" fill="#9A4A4D"/>
<path d="M96.7089 54.2617L101.398 55.506C101.081 56.8456 99.7736 57.6544 98.478 57.3107C97.1831 56.967 96.3912 55.6014 96.7089 54.2617Z" fill="#9A4A4D"/>
<path d="M97.2441 55.0613C97.0441 55.0299 96.8485 55.0287 96.657 55.0408C96.7319 56.0942 97.4367 57.0334 98.478 57.31C98.739 57.3795 98.9993 57.3903 99.253 57.371C99.378 56.2838 98.4992 55.2582 97.2441 55.0613Z" fill="#F28F8F"/>
<path d="M118.895 109.037C119.982 108.255 121.085 107.667 122.952 106.769C124.222 106.159 126.514 105.414 128.217 104.666C132.332 102.858 135.067 101.818 137.126 98.5736C139.311 95.1302 138.36 93.529 136.116 91.1987C135.814 90.8846 133.296 90.1635 130.745 90.5416C127.755 90.9849 126.402 91.6433 123.909 93.3127C121.286 95.0692 115.968 99.7514 113.895 100.628C112.313 101.297 111.05 101.096 109.425 100.983C107.126 100.823 104.222 101.469 101.973 101.977C101.647 102.051 101.282 102.153 101.122 102.447C100.993 102.686 101.046 102.994 101.199 103.218C101.652 103.883 102.512 104.042 103.258 104.106C103.826 104.155 105.645 104.007 106.089 104.393C106.828 105.034 104.684 106.115 104.273 106.349C103.583 106.743 102.853 107.065 102.111 107.345C100.887 107.808 99.5774 108.004 98.3857 108.489C97.9786 108.656 97.5613 108.816 97.2109 109.082C96.8606 109.348 96.5791 109.741 96.558 110.18C96.5369 110.619 96.8401 111.084 97.2756 111.144C96.1702 111.425 95.861 111.953 95.7239 112.492C95.6514 112.777 95.7662 113.17 95.98 113.381C96.2101 113.608 96.8588 113.67 97.1632 113.688C96.9174 114.139 96.9307 114.67 97.1306 115.016C97.2949 115.299 97.6778 115.478 97.9768 115.578C98.2854 115.681 98.9541 115.69 99.279 115.7C99.4391 116.369 100.081 116.605 100.529 116.672C101.131 116.763 101.671 116.726 102.208 116.681C104.301 116.507 105.788 115.968 107.754 115.291C110.182 114.456 113.072 113.012 115.242 111.616C116.717 110.669 117.966 109.705 118.895 109.037Z" fill="#B16668"/>
<path d="M107.963 112.937C105.047 114.172 102.396 115.242 99.2795 115.701C102.436 115.683 105.224 114.575 107.963 112.937Z" fill="#9A4A4D"/>
<path d="M97.3516 111.265C97.8215 111.386 98.2847 111.287 98.751 111.251C101.483 110.86 104.154 109.882 106.555 108.422C104.026 109.545 101.415 110.5 98.7184 111.003C97.9302 111.18 96.6256 111.363 96.5676 110.103C96.4909 110.62 96.8732 111.149 97.3516 111.265Z" fill="#9A4A4D"/>
<path d="M102.367 112.947C104.072 112.338 105.776 111.643 107.281 110.572C104.042 112.084 100.614 113.613 97.0266 113.698C98.8362 114.01 100.653 113.477 102.367 112.947Z" fill="#9A4A4D"/>
<path d="M53.3531 27.7128C57.7038 30.5208 60.5643 34.7741 61.7403 39.4418L62.1558 41.6471C62.7453 46.1052 61.8267 50.788 59.2035 54.8529C53.332 63.9485 41.159 66.5747 32.0634 60.7033C27.9984 58.0807 25.2291 54.1897 23.9311 49.8886L23.4068 47.704C22.5473 42.9674 23.4044 37.9137 26.2124 33.5631C32.0839 24.4675 44.2575 21.8413 53.3531 27.7128Z" fill="white"/>
<path d="M24.8142 32.662C18.4456 42.5284 21.2934 55.7409 31.1622 62.1022C40.0144 67.816 51.5508 66.1049 58.4262 58.5694L64.9065 59.906C66.013 60.1344 66.8212 58.8817 66.1574 57.9678L62.2694 52.6133C66.3017 43.2423 63.106 32.0272 54.2574 26.3182C44.3904 19.9502 31.1821 22.7957 24.8142 32.662ZM53.3532 27.7128C57.7038 30.5208 60.5643 34.7742 61.7403 39.4419L62.1559 41.6471C62.7454 46.1053 61.8267 50.7881 59.2035 54.853C53.332 63.9486 41.159 66.5748 32.0634 60.7039C27.9985 58.0814 25.2291 54.1904 23.9311 49.8893L23.4068 47.7046C22.5474 42.9681 23.4044 37.9144 26.2124 33.5638C32.0839 24.4676 44.2575 21.8414 53.3532 27.7128Z" fill="#455A64"/>
<path d="M34.6406 50.8725L30.0719 51.9168C29.7579 51.9887 29.4456 51.7924 29.3737 51.4783L27.6904 44.1143C27.6185 43.8002 27.8148 43.488 28.1289 43.4161L32.6975 42.3718C33.0116 42.2999 33.3239 42.4962 33.3958 42.8103L35.0791 50.1742C35.151 50.4883 34.9547 50.8012 34.6406 50.8725Z" fill="#1EA3CD"/>
<path d="M44.0068 54.9405L33.9786 51.0241L32.0349 42.5234L39.3651 34.6388C40.2505 33.6863 41.8409 34.1127 42.1308 35.3805L46.1752 53.0705C46.4651 54.3383 45.2184 55.4134 44.0068 54.9405Z" fill="#1EA3CD"/>
<path d="M50.9999 42.6586C50.446 40.2372 48.6068 38.4433 46.369 37.8339C45.9148 37.71 45.4358 37.9353 45.2365 38.3612L45.2341 38.366C44.9822 38.9029 45.2679 39.5462 45.8411 39.699C47.4266 40.1206 48.724 41.3878 49.1136 43.0899C49.5038 44.7968 48.8835 46.5013 47.6398 47.5655C47.1868 47.9533 47.2086 48.6594 47.6725 49.0338L47.6767 49.0375C48.0415 49.3322 48.5694 49.3256 48.9233 49.0181C50.6755 47.4973 51.5538 45.0813 50.9999 42.6586Z" fill="#1EA3CD"/>
<path d="M54.8486 41.7792C54.026 38.1799 51.4191 35.4408 48.1714 34.2745C47.6936 34.1029 47.1621 34.3047 46.9447 34.7631L46.9404 34.7716C46.6934 35.2922 46.9573 35.9017 47.5009 36.0937C50.1573 37.033 52.2895 39.2678 52.9623 42.2104C53.6352 45.1537 52.6869 48.1013 50.7021 50.1029C50.2969 50.5118 50.3234 51.1744 50.7716 51.5362C51.166 51.8545 51.7314 51.8062 52.0877 51.4462C54.5098 48.997 55.6737 45.3869 54.8486 41.7792Z" fill="#1EA3CD"/>
<path d="M34.036 56.8908C33.5981 56.616 33.4664 56.0386 33.7413 55.6007L49.3825 30.6621C49.6573 30.2242 50.2353 30.092 50.6726 30.3674C51.1105 30.6422 51.2428 31.2196 50.9673 31.6575L35.3268 56.5961C35.0519 57.034 34.4739 57.1657 34.036 56.8908Z" fill="#455A64"/>
</svg>
