<svg width="57" height="56" viewBox="0 0 57 56" fill="none" xmlns="http://www.w3.org/2000/svg">
<g filter="url(#filter0_d_39_3402)">
<path d="M24.5 24C24.5 24.5304 24.2893 25.0391 23.9142 25.4142C23.5391 25.7893 23.0304 26 22.5 26H12.638C13.1223 29.8653 15.0013 33.4209 17.9221 35.9986C20.8429 38.5763 24.6044 39.9987 28.5 39.9987C32.3956 39.9987 36.1571 38.5763 39.0779 35.9986C41.9987 33.4209 43.8777 29.8653 44.362 26H34.5C33.9696 26 33.4609 25.7893 33.0858 25.4142C32.7107 25.0391 32.5 24.5304 32.5 24C32.5 23.4695 32.7107 22.9608 33.0858 22.5858C33.4609 22.2107 33.9696 22 34.5 22H44.5V18H34.5C33.9696 18 33.4609 17.7893 33.0858 17.4142C32.7107 17.0391 32.5 16.5304 32.5 16C32.5 15.4695 32.7107 14.9608 33.0858 14.5858C33.4609 14.2107 33.9696 14 34.5 14H44.362C43.8777 10.1346 41.9987 6.57909 39.0779 4.00139C36.1571 1.42369 32.3956 0.0012207 28.5 0.0012207C24.6044 0.0012207 20.8429 1.42369 17.9221 4.00139C15.0013 6.57909 13.1223 10.1346 12.638 14H22.5C23.0304 14 23.5391 14.2107 23.9142 14.5858C24.2893 14.9608 24.5 15.4695 24.5 16C24.5 16.5304 24.2893 17.0391 23.9142 17.4142C23.5391 17.7893 23.0304 18 22.5 18H12.5V22H22.5C23.0304 22 23.5391 22.2107 23.9142 22.5858C24.2893 22.9608 24.5 23.4695 24.5 24Z" fill="white"/>
</g>
<g filter="url(#filter1_d_39_3402)">
<path d="M50.5 24C49.9696 24 49.4609 24.2107 49.0858 24.5858C48.7107 24.9609 48.5 25.4696 48.5 26C48.4947 30.7723 46.5966 35.3476 43.2221 38.7221C39.8476 42.0966 35.2723 43.9947 30.5 44H26.5C21.7279 43.9942 17.1529 42.0959 13.7785 38.7215C10.4041 35.3471 8.50582 30.7721 8.5 26C8.5 25.4696 8.28929 24.9609 7.91421 24.5858C7.53914 24.2107 7.03043 24 6.5 24C5.96957 24 5.46086 24.2107 5.08579 24.5858C4.71071 24.9609 4.5 25.4696 4.5 26C4.50688 31.8327 6.82694 37.4244 10.9513 41.5487C15.0756 45.6731 20.6673 47.9931 26.5 48H30.5C36.3327 47.9931 41.9244 45.6731 46.0487 41.5487C50.1731 37.4244 52.4931 31.8327 52.5 26C52.5 25.4696 52.2893 24.9609 51.9142 24.5858C51.5391 24.2107 51.0304 24 50.5 24Z" fill="white"/>
</g>
<defs>
<filter id="filter0_d_39_3402" x="8.5" y="0.0012207" width="40" height="47.9975" filterUnits="userSpaceOnUse" color-interpolation-filters="sRGB">
<feFlood flood-opacity="0" result="BackgroundImageFix"/>
<feColorMatrix in="SourceAlpha" type="matrix" values="0 0 0 0 0 0 0 0 0 0 0 0 0 0 0 0 0 0 127 0" result="hardAlpha"/>
<feOffset dy="4"/>
<feGaussianBlur stdDeviation="2"/>
<feComposite in2="hardAlpha" operator="out"/>
<feColorMatrix type="matrix" values="0 0 0 0 0 0 0 0 0 0 0 0 0 0 0 0 0 0 0.25 0"/>
<feBlend mode="normal" in2="BackgroundImageFix" result="effect1_dropShadow_39_3402"/>
<feBlend mode="normal" in="SourceGraphic" in2="effect1_dropShadow_39_3402" result="shape"/>
</filter>
<filter id="filter1_d_39_3402" x="0.5" y="24" width="56" height="32" filterUnits="userSpaceOnUse" color-interpolation-filters="sRGB">
<feFlood flood-opacity="0" result="BackgroundImageFix"/>
<feColorMatrix in="SourceAlpha" type="matrix" values="0 0 0 0 0 0 0 0 0 0 0 0 0 0 0 0 0 0 127 0" result="hardAlpha"/>
<feOffset dy="4"/>
<feGaussianBlur stdDeviation="2"/>
<feComposite in2="hardAlpha" operator="out"/>
<feColorMatrix type="matrix" values="0 0 0 0 0 0 0 0 0 0 0 0 0 0 0 0 0 0 0.25 0"/>
<feBlend mode="normal" in2="BackgroundImageFix" result="effect1_dropShadow_39_3402"/>
<feBlend mode="normal" in="SourceGraphic" in2="effect1_dropShadow_39_3402" result="shape"/>
</filter>
</defs>
</svg>
