<svg width="30" height="31" viewBox="0 0 30 31" fill="none" xmlns="http://www.w3.org/2000/svg">
<path fill-rule="evenodd" clip-rule="evenodd" d="M15 30.5C3.56626 30.5 -1.90735e-06 26.3865 -1.90735e-06 15.5C-1.90735e-06 4.61347 3.56626 0.499998 15 0.499998C26.4337 0.499998 30 4.61347 30 15.5C30 26.3865 26.4337 30.5 15 30.5Z" fill="#A63737"/>
<path d="M22.5 10.9833C19.725 10.7083 16.9333 10.5667 14.15 10.5667C12.5 10.5667 10.85 10.65 9.2 10.8167L7.5 10.9833" stroke="white" stroke-width="1.5" stroke-linecap="round" stroke-linejoin="round"/>
<path d="M12.0835 10.1416L12.2668 9.04996C12.4002 8.25829 12.5002 7.66663 13.9085 7.66663H16.0918C17.5002 7.66663 17.6085 8.29163 17.7335 9.05829L17.9168 10.1416" stroke="white" stroke-width="1.5" stroke-linecap="round" stroke-linejoin="round"/>
<path d="M20.7082 13.6167L20.1665 22.0084C20.0748 23.3167 19.9998 24.3334 17.6748 24.3334H12.3248C9.99984 24.3334 9.92484 23.3167 9.83317 22.0084L9.2915 13.6167" stroke="white" stroke-width="1.5" stroke-linecap="round" stroke-linejoin="round"/>
<path d="M13.6084 19.75H16.3834" stroke="white" stroke-width="1.5" stroke-linecap="round" stroke-linejoin="round"/>
<path d="M12.9165 16.4167H17.0832" stroke="white" stroke-width="1.5" stroke-linecap="round" stroke-linejoin="round"/>
</svg>
