<svg width="16" height="15" viewBox="0 0 16 15" fill="none" xmlns="http://www.w3.org/2000/svg">
<g clip-path="url(#clip0_252_8255)">
<path d="M8.3125 5C8.56114 5 8.7996 4.90123 8.97541 4.72541C9.15123 4.5496 9.25 4.31114 9.25 4.0625V3.5625C9.25 3.11495 9.42779 2.68573 9.74426 2.36926C10.0607 2.05279 10.4899 1.875 10.9375 1.875H11.9375C12.3851 1.875 12.8143 2.05279 13.1307 2.36926C13.4472 2.68573 13.625 3.11495 13.625 3.5625L13.625 11.4375C13.625 11.8851 13.4472 12.3143 13.1307 12.6307C12.8143 12.9472 12.3851 13.125 11.9375 13.125H10.9375C10.4899 13.125 10.0607 12.9472 9.74426 12.6307C9.42779 12.3143 9.25 11.8851 9.25 11.4375V10.9375C9.25 10.6889 9.15123 10.4504 8.97541 10.2746C8.7996 10.0988 8.56114 10 8.3125 10C8.06386 10 7.8254 10.0988 7.64959 10.2746C7.47377 10.4504 7.375 10.6889 7.375 10.9375V11.4375C7.37599 12.382 7.75165 13.2876 8.41953 13.9555C9.08741 14.6234 9.99297 14.999 10.9375 15H11.9375C12.882 14.999 13.7876 14.6234 14.4555 13.9555C15.1234 13.2876 15.499 12.382 15.5 11.4375L15.5 3.5625C15.499 2.61797 15.1234 1.71241 14.4555 1.04453C13.7876 0.376645 12.882 0.000992775 11.9375 0H10.9375C9.99297 0.000992775 9.08741 0.376645 8.41953 1.04453C7.75165 1.71241 7.37599 2.61797 7.375 3.5625V4.0625C7.375 4.31114 7.47377 4.5496 7.64959 4.72541C7.8254 4.90123 8.06386 5 8.3125 5Z" fill="#1EA3CD"/>
<path d="M1.39937 9.0468L4.26562 11.913C4.35271 12.0001 4.45608 12.0691 4.56985 12.1162C4.68361 12.1633 4.80553 12.1875 4.92866 12.1875C5.05178 12.1875 5.1737 12.1632 5.28744 12.116C5.40118 12.0689 5.50452 11.9998 5.59156 11.9127C5.76735 11.7369 5.86607 11.4984 5.86602 11.2497C5.86599 11.1266 5.84171 11.0047 5.79456 10.8909C5.74742 10.7772 5.67833 10.6738 5.59125 10.5868L3.45937 8.45492L11.125 8.43742C11.3736 8.43742 11.6121 8.33865 11.7879 8.16283C11.9637 7.98702 12.0625 7.74856 12.0625 7.49992C12.0625 7.25128 11.9637 7.01282 11.7879 6.83701C11.6121 6.66119 11.3736 6.56242 11.125 6.56242L3.42625 6.57992L5.59312 4.41305C5.769 4.23726 5.86783 3.9988 5.86789 3.75014C5.86795 3.50148 5.76923 3.26298 5.59344 3.08711C5.41765 2.91124 5.17919 2.8124 4.93053 2.81234C4.68187 2.81228 4.44337 2.91101 4.2675 3.08679L1.40125 5.95305C0.99148 6.36344 0.761172 6.91959 0.76082 7.49953C0.760469 8.07948 0.990102 8.6359 1.39937 9.0468Z" fill="#1EA3CD"/>
</g>
<defs>
<clipPath id="clip0_252_8255">
<rect width="15" height="15" fill="white" transform="matrix(-1 0 0 -1 15.5 15)"/>
</clipPath>
</defs>
</svg>
