<svg width="57" height="58" viewBox="0 0 57 58" fill="none" xmlns="http://www.w3.org/2000/svg">
<g filter="url(#filter0_d_39_3405)">
<path fill-rule="evenodd" clip-rule="evenodd" d="M4.75 30.5C4.75 21.5433 4.75 17.065 7.53249 14.2825C10.315 11.5 14.7933 11.5 23.75 11.5H33.25C42.2067 11.5 46.685 11.5 49.4675 14.2825C52.25 17.065 52.25 21.5433 52.25 30.5C52.25 39.4567 52.25 43.935 49.4675 46.7175C46.685 49.5 42.2067 49.5 33.25 49.5H23.75C14.7933 49.5 10.315 49.5 7.53249 46.7175C4.75 43.935 4.75 39.4567 4.75 30.5ZM14.25 38.2188C13.2662 38.2188 12.4688 39.0162 12.4688 40C12.4688 40.9838 13.2662 41.7812 14.25 41.7812H23.75C24.7338 41.7812 25.5312 40.9838 25.5312 40C25.5312 39.0162 24.7338 38.2188 23.75 38.2188H14.25ZM18.4062 32.875C18.4062 31.8912 17.6088 31.0938 16.625 31.0938H14.25C13.2662 31.0938 12.4688 31.8912 12.4688 32.875C12.4688 33.8588 13.2662 34.6562 14.25 34.6562H16.625C17.6088 34.6562 18.4062 33.8588 18.4062 32.875ZM27.3125 31.0938C28.2963 31.0938 29.0938 31.8912 29.0938 32.875C29.0938 33.8588 28.2963 34.6562 27.3125 34.6562H22.5625C21.5787 34.6562 20.7812 33.8588 20.7812 32.875C20.7812 31.8912 21.5787 31.0938 22.5625 31.0938H27.3125ZM44.5312 32.875C44.5312 31.8912 43.7338 31.0938 42.75 31.0938H33.25C32.2662 31.0938 31.4688 31.8912 31.4688 32.875C31.4688 33.8588 32.2662 34.6562 33.25 34.6562H42.75C43.7338 34.6562 44.5312 33.8588 44.5312 32.875ZM29.6875 38.2188C28.7037 38.2188 27.9062 39.0162 27.9062 40C27.9062 40.9838 28.7037 41.7812 29.6875 41.7812H33.25C34.2338 41.7812 35.0312 40.9838 35.0312 40C35.0312 39.0162 34.2338 38.2188 33.25 38.2188H29.6875ZM37.4062 40C37.4062 39.0162 38.2037 38.2188 39.1875 38.2188H42.75C43.7338 38.2188 44.5312 39.0162 44.5312 40C44.5312 40.9838 43.7338 41.7812 42.75 41.7812H39.1875C38.2037 41.7812 37.4062 40.9838 37.4062 40Z" fill="white"/>
</g>
<path d="M10.5 4C7.05217 4 4.25714 6.76273 4.25714 10.1707V13.3902C4.25714 16.7982 7.05217 19.561 10.5 19.561C13.6719 19.561 16.2912 17.2228 16.6902 14.1951L11.5857 14.1951C11.136 14.1951 10.7714 13.8348 10.7714 13.3902C10.7714 12.9457 11.136 12.5854 11.5857 12.5854L16.7429 12.5854V10.9756H11.5857C11.136 10.9756 10.7714 10.6153 10.7714 10.1707C10.7714 9.72621 11.136 9.36585 11.5857 9.36585H16.6902C16.2912 6.33815 13.6719 4 10.5 4Z" fill="#137E9F"/>
<path fill-rule="evenodd" clip-rule="evenodd" d="M1.81429 11.5122C2.264 11.5122 2.62857 11.8726 2.62857 12.3171V13.3902C2.62857 17.6873 6.15273 21.1707 10.5 21.1707C14.8473 21.1707 18.3714 17.6873 18.3714 13.3902V12.3171C18.3714 11.8726 18.736 11.5122 19.1857 11.5122C19.6354 11.5122 20 11.8726 20 12.3171V13.3902C20 18.3052 16.1798 22.3382 11.3143 22.7465V25.1951C11.3143 25.6396 10.9497 26 10.5 26C10.0503 26 9.68571 25.6396 9.68571 25.1951V22.7465C4.82019 22.3382 1 18.3052 1 13.3902V12.3171C1 11.8726 1.36457 11.5122 1.81429 11.5122Z" fill="#137E9F"/>
<defs>
<filter id="filter0_d_39_3405" x="0.75" y="11.5" width="55.5" height="46" filterUnits="userSpaceOnUse" color-interpolation-filters="sRGB">
<feFlood flood-opacity="0" result="BackgroundImageFix"/>
<feColorMatrix in="SourceAlpha" type="matrix" values="0 0 0 0 0 0 0 0 0 0 0 0 0 0 0 0 0 0 127 0" result="hardAlpha"/>
<feOffset dy="4"/>
<feGaussianBlur stdDeviation="2"/>
<feComposite in2="hardAlpha" operator="out"/>
<feColorMatrix type="matrix" values="0 0 0 0 0 0 0 0 0 0 0 0 0 0 0 0 0 0 0.25 0"/>
<feBlend mode="normal" in2="BackgroundImageFix" result="effect1_dropShadow_39_3405"/>
<feBlend mode="normal" in="SourceGraphic" in2="effect1_dropShadow_39_3405" result="shape"/>
</filter>
</defs>
</svg>
