<svg width="30" height="31" viewBox="0 0 30 31" fill="none" xmlns="http://www.w3.org/2000/svg">
<path fill-rule="evenodd" clip-rule="evenodd" d="M15 30.5C3.56626 30.5 -1.90735e-06 26.3865 -1.90735e-06 15.5C-1.90735e-06 4.61347 3.56626 0.499998 15 0.499998C26.4337 0.499998 30 4.61347 30 15.5C30 26.3865 26.4337 30.5 15 30.5Z" fill="#1EA3CD"/>
<path d="M13.9584 8.04172C14.5417 7.55006 15.4834 7.55006 16.0501 8.04172L17.3667 9.16672C17.6167 9.37506 18.0917 9.55006 18.4251 9.55006H19.8417C20.7251 9.55006 21.4501 10.2751 21.4501 11.1584V12.5751C21.4501 12.9084 21.6251 13.3751 21.8334 13.6251L22.9584 14.9417C23.4501 15.5251 23.4501 16.4667 22.9584 17.0334L21.8334 18.3501C21.6251 18.6001 21.4501 19.0667 21.4501 19.4001V20.8167C21.4501 21.7001 20.7251 22.4251 19.8417 22.4251H18.4251C18.0917 22.4251 17.6251 22.6001 17.3751 22.8084L16.0584 23.9334C15.4751 24.4251 14.5334 24.4251 13.9667 23.9334L12.6501 22.8084C12.4001 22.6001 11.9251 22.4251 11.6001 22.4251H10.1417C9.2584 22.4251 8.5334 21.7001 8.5334 20.8167V19.3917C8.5334 19.0667 8.36673 18.5917 8.1584 18.3501L7.0334 17.0251C6.55007 16.4501 6.55007 15.5167 7.0334 14.9417L8.1584 13.6167C8.36673 13.3667 8.5334 12.9001 8.5334 12.5751V11.1667C8.5334 10.2834 9.2584 9.55839 10.1417 9.55839H11.5834C11.9167 9.55839 12.3834 9.38339 12.6334 9.17506L13.9584 8.04172Z" stroke="white" stroke-width="1.5" stroke-linecap="round" stroke-linejoin="round"/>
<path d="M15 12.775V16.8" stroke="white" stroke-width="1.5" stroke-linecap="round" stroke-linejoin="round"/>
<path d="M14.9956 19.3334H15.0031" stroke="white" stroke-width="2" stroke-linecap="round" stroke-linejoin="round"/>
</svg>
